<?xml version="1.0" encoding="utf-8"?>
<!-- Generator: Adobe Illustrator 19.0.0, SVG Export Plug-In . SVG Version: 6.00 Build 0)  -->
<svg version="1.1" id="Livello_1" xmlns="http://www.w3.org/2000/svg" xmlns:xlink="http://www.w3.org/1999/xlink" x="0px" y="0px"
	 viewBox="1265 -643.2 3142 2079.2" style="enable-background:new 1265 -643.2 3142 2079.2;" xml:space="preserve">
<style type="text/css">
	.st0{fill:#FFFFFF;}
</style>
<g>
	<path class="st0" d="M3268.8,562.1c-0.3-5.5,2.8-8.3,5.3-11.3c60.6-74.8,102.5-159.5,131.9-250.6c9.2-28.6,16.4-57.7,19.8-87.6
		c2-17.9,2.9-35.9-0.8-53.7c-1.8-8.6-4.8-16.6-9.6-24c-13.5-20.6-37.1-25.3-57.4-11.5c-8.9,6-16.2,13.8-23.1,22
		c-20.2,24-37,50.5-55.4,75.8c-17.5,24-35.7,47.4-57.2,68c-2.6,2.5-5,7.6-9.5,4.7c-4-2.6-0.7-6.8,0.2-10.1
		c10.3-38.5,15.1-77.7,16.4-117.5c1-31.4,0-62.6-6.6-93.5c-2.7-12.7-6.7-25-12.1-36.9c-17.5-38.6-55.8-44.6-84.5-35.1
		c-17.1,5.7-31.4,15.8-44.4,28.1c-23,21.8-40.3,47.8-54.6,75.9c-10.9,21.4-20.3,43.5-25,67.2c-0.8,3.9-1.2,7.9-1.7,11.8
		c-0.6,4.9,1.1,8.6,4.9,12.3c28.6,27.4,35.4,60,20.5,96.7c-3.6,8.8-7.6,17.6-14,24.9c-3.6-1.9-4.6-5.3-6.4-8
		c-5.4-8.5-11.4-16.4-19.2-22.9c-20.5-16.9-46.5-15.2-64.5,4.3c-8.7,9.4-15,20.3-20.2,32c-13.2,29.7-20.7,61.1-26.7,92.9
		c-7.9,41.9-12.7,84.3-16.3,126.8c-5.1,59.8-7.8,119.7-10.3,179.6c-0.7,15.9-0.8,32-3.2,47.8c-0.7,4.6-1.6,9.2-3.5,13.5
		c-1.2,2.6-2.9,4.6-5.9,4.6c-3-0.1-4.8-2.2-5.9-4.7c-3-6.8-3.8-14.2-4.4-21.4c-0.9-10.3-1.6-20.6-1.9-30.9
		c-1.6-47-3.7-93.9-6.8-140.8c-3.9-57.5-9-114.9-19.5-171.7c-5.5-29.8-12.2-59.4-23.8-87.6c-6.1-14.9-13.2-29.2-24.6-40.8
		c-19.2-19.7-45.8-20.3-66-1.4c-6.9,6.4-12.5,13.8-17.5,21.7c-1.5,2.4-2.4,5.5-5.3,6.9c-22-27.2-37.1-80.1,3.4-118.8
		c7-6.7,8.5-13.4,6.9-22.1c-5.3-28.2-16.4-54.1-29.9-79.2c-14.8-27.4-32.4-52.8-56.1-73.5c-10.4-9-21.7-16.6-34.5-21.7
		c-13.7-5.5-27.8-6.9-42.2-4.2c-17.9,3.4-32,12.5-41.6,28.3c-10.2,16.8-15.5,35.3-19,54.4c-6.9,38.7-6.8,77.6-3.3,116.6
		c2.6,29.9,6.9,59.6,15.4,88.5c0.4,1.3,0.7,2.6,0.9,3.9c0.4,2.2-0.3,4.2-2.3,5c-2.1,0.8-3.7-1.1-5.1-2.4
		c-13.8-12.7-26.1-26.6-37.9-41.1c-21-25.9-39.3-53.8-58.8-80.8c-7.8-10.8-15.9-21.4-24.8-31.3c-5.1-5.7-10.8-10.9-17.1-15.3
		c-20.4-14.6-45.6-9.5-58.7,12.1c-8.4,13.8-11.3,29.1-11.8,44.9c-0.8,27.9,4.2,55.1,10.8,82c14.8,59.8,38.1,116.4,66.6,170.9
		c21.8,41.7,46.8,81.4,76.9,117.8c1.9,2.3,3.5,4.8,5.1,7.4c0.4,0.7,0.3,1.8,0.4,3.5c-5.4,0.3-8.8-3.1-12.3-5.8
		c-25.1-19.5-48.2-41-69.9-64.1c-69.9-74.4-124.8-158.3-161-254.1c-32-84.8-45.3-172.5-38.7-262.9c5.8-80.6,27.3-157.3,60.6-230.7
		c38.2-84.4,89.6-160.4,149-231.1c8.2-9.7,16-19.6,21.7-31.1c6.1-12.3,8.6-25,5.6-38.7c-2-9.1,0.6-11.7,9.9-9.9
		c8.2,1.6,15.9,5,23.3,8.8c17.9,9.4,33.4,21.9,47.9,35.8c35.8,34.3,65.4,73.7,93.6,114.3c20.9,30.1,41.3,60.6,62,90.8
		c6,8.8,12.4,17.4,20.3,24.6c22,20,48.3,25.7,77,23c5.6-0.5,11.3-1.3,16.7-2.7c12.2-3.1,20.3-11,24-23.1c5.2-16.6,2.6-32.9-1.6-49.2
		c-0.6-2.5-1.8-3.9-4.5-4.5c-18.3-4.4-31.9-16.1-44.5-29.2c-16.8-17.6-29.7-37.6-36.3-61.3c-0.2-0.6-0.5-1.2-0.7-1.9
		c-5-19.9,2.9-31.3,23.4-32.4c18-1,35.9,1.9,53.8,3.8c1,0.1,2,0.4,3,0.5c9.8,1.4,10,1.3,10.9-8.5c1.4-14.3,3.5-28.4,7.9-42.2
		c2.1-6.7,4.8-13.2,9.9-18.3c5.7-5.7,11-6.4,18-2.2c4,2.4,7.5,5.6,10.7,8.9c7.9,8.1,15.2,16.9,21.2,26.5c3.4,5.5,7.1,7.5,13.8,6.6
		c28.1-3.7,56.4-4.6,84.8-4c11.7,0.3,23.3,1.4,34.4,5.3c10.6,3.8,17.4,10.8,19,22.3c0.7,5.4-0.7,10.6-2.5,15.6
		c-4,11.1-10.7,20.7-18.2,29.7c-13.4,16.1-27.3,31.9-40.8,47.9c-6.3,7.4-11.9,15.2-16.3,23.9c-9.6,19.3-5.2,33.1,14,43
		c4.4,2.3,9.1,4.1,13.8,5.7c24.6,8.1,47.5,19.2,67.1,36.5c2.6,2.3,5.4,3.5,8.9,3.7c35.7,1.8,65.4-9.3,87.1-39
		c18.3-25,35.1-51.1,52.6-76.7c23.7-34.7,47.9-69,75.2-100.9c20.2-23.6,41.6-46,67.5-63.5c8.9-6,18.2-11.1,28.3-14.8
		c2.5-0.9,5-1.9,7.6-2.5c11.5-2.8,14.4-0.3,11.9,11.3c-2.8,12.8,0.1,24.4,5.4,35.8c5.3,11.3,12.8,21,20.8,30.5
		c46.2,54.5,87.7,112.4,122,175.2c43.9,80.3,74.1,165.2,85.3,256.3c10.3,83.1,3.3,164.9-19.8,245.4
		c-29.5,102.5-81.2,193-149.7,274.2c-28.4,33.7-59.3,65-94.1,92.2C3278.6,558.2,3275.1,562.1,3268.8,562.1z M3460.9,235.4
		c6-8.4,8.8-17.6,11.8-26.6c20.5-62.2,27.1-126.2,23.8-191.2c-3.4-68.1-18.7-133.7-43.2-197.3c-32-83.1-78-158.1-132.7-228
		c-20.3-25.9-42.2-50.9-52.7-83.1c-2.1-6.5-5.8-7.3-11.7-3.6c-4.8,3.1-8.9,7-12.7,11.2c-14.3,15.7-25,33.7-34.3,52.5
		c-15.8,31.9-30.9,64.2-46.8,96.1c-12.4,24.8-26.5,48.5-44.9,69.5c-22.5,25.6-49.3,43.6-83.9,47.8c-5.7,0.7-11.5,1-17.2,1.5
		c0.1,1.6,0,2.3,0.3,2.9c6.4,16.1,12.2,32.4,14.3,49.8c0.7,5.3,4.3,6,8.4,6.8c30.4,6,56.6-3,79.6-22.7c19.7-17,33.9-38.3,46.5-60.8
		c18.1-32.4,31.5-66.8,45.1-101.2c5.8-14.5,11.4-29.1,18.4-43.2c2.7-5.4,5.6-10.7,10.3-14.6c5.3-4.4,9.2-4.2,14.1,0.5
		c3.7,3.5,5.9,8,8.1,12.5c19.5,39.7,33.3,81.2,41.4,124.7c11.5,62.5,11.2,125.2,5.2,188.1c-4.7,48.4-12.7,96.4-22.4,144
		c-6.7,33-14.1,65.7-22.2,98.4c-0.8,3.1-2.8,6.5,0.1,11.5c29.7-57.8,51.6-116.9,66-178.7c26.5-113.8,24.9-227.1-7.7-339.8
		C3458.6-168.4,3506.3,22.1,3460.9,235.4z M2209.8,235.6c0.5-1,1-1.6,1-2.1c-0.1-1.7-0.2-3.3-0.5-5c-9.5-42-14.8-84.6-16.1-127.6
		c-1.2-40.4,1.1-80.6,7.5-120.5c11.9-73.7,36.3-143.1,72.4-208.4c36.3-65.8,82.3-124.3,135.4-177.3c7.3-7.3,13.4-6.9,20.3,1
		c4.6,5.3,8,11.5,11.1,17.8c11.4,23.4,20.2,47.8,30,71.9c13.7,33.6,28.1,66.9,48.3,97.4c10.4,15.6,22.2,29.9,36.9,41.8
		c42.7,34.7,93.4,21.4,121.7-1.7c14.7-12,23.6-28.1,28.7-47c-5.3-0.8-8.8,1.6-12.6,2.2c-4.3,0.7-8.4,2-12.7,2.8
		c-42.3,8.2-79.9-1.1-112.2-30.2c-19.6-17.6-34.3-38.9-47.4-61.4c-17.8-30.6-31.8-63-47.1-94.8c-11.4-23.7-22.9-47.4-39.1-68.3
		c-5.3-6.9-11-13.4-18-18.7c-8.5-6.5-11.6-5.5-15.1,4.5c-3.8,11.1-9.1,21.4-15.3,31.3c-13.4,21.2-29.6,40.2-44.8,60
		c-55.9,72.9-101.9,151.3-132.1,238.4c-33.3,96-45.4,194.2-29.1,295.1c4.9,30.6,12.7,60.6,23.9,89.6
		C2205.9,229.5,2206.4,233.4,2209.8,235.6z M3003.9,269.5c9.4-19.2,4.6-42.8-11.1-55.8c-5.2-4.3-10.8-7.8-17.1-10.3
		c-3.7-1.4-4.8-3.5-4.1-7.6c3.3-19.7,6.9-39.4,12.3-58.6c4.5-16,9.8-31.9,13.6-48c3.9-16.6-4-25.6-21-25.7
		c-13.3,0-25.5,4.5-37.4,9.7c-3.5,1.5-6.8,3.7-11.7,4.4c9.6-14.9,18.8-28.7,27.4-42.8c24.9-40.7,44.1-83.6,51-131.3
		c5.8-39.9,2.2-78.5-17.3-114.5c-21.1-38.9-53.2-64.2-96.4-74.8c-3.8-0.9-9.2-4-11.7,1.1c-1.9,3.9,3.2,6.1,5.7,8.4
		c26.7,25.4,42.6,56.8,50.8,92.3c10.7,46.2,8.5,92.6,1,139c-8,50.2-22.4,98.6-40.1,146.2c-1.3,3.6-3.6,7.1-3.3,11.3
		c3.6,0,5.8-2.3,8.4-3.5c11.6-5.2,23.6-7.1,36.1-5.1c19.7,3.2,28.9,20.3,20.9,38.7c-32.1-11.5-57.6-3.4-77.5,24.7
		c-3.3,4.6-6.2,9.5-8.9,14.5c-11.4,21.4-17.8,44.5-22.8,68c-6.8,32-10.2,64.4-12.5,97c-3,43.6-3.5,87.2-2.9,130.9
		c0,2.7-0.4,5.9,2.8,7.7c2.8-2.5,2.5-5.7,2.6-8.5c1.2-28,3.4-55.9,6.1-83.7c4.2-44.8,9.8-89.4,20.3-133.3
		c4.9-20.8,10.9-41.2,20.9-60.2c4.7-8.9,10.2-17.3,18.7-23.1c14.7-10,28.7-4,32,13.4c1.5,8,0.9,15.9-0.1,23.9
		c-1.3,9.5-1.3,9.5,7.7,10.5c20,2.2,36,11.2,47.2,28.2C2996.9,257.6,3000,263.1,3003.9,269.5z M2409.1,182c-1.4-6.2-2.4-11-3.5-15.8
		c-17.2-75-31-150.6-35.4-227.6c-2.5-43.3-2.3-86.5,2.3-129.7c3.7-35.5,10.5-70.4,20.9-104.6c3-9.7,4.6-19.4,3.5-29.5
		c-0.4-3.8-1.6-7.4-5.5-8.9c-3.9-1.5-7.1,0.6-9.9,3.2c-2.7,2.5-5,5.3-7,8.5c-4.1,6.5-7.4,13.4-10.2,20.5c-11.5,30-19.1,61-23.3,92.7
		c-6.6,49.8-5.9,99.6,0.2,149.4c9.8,80.7,31.2,158.5,61.5,233.9C2403.8,176.7,2404,180.1,2409.1,182z M2733.3,223.7
		c-0.7-5.4-1.6-9.6-1.9-13.9c-0.6-10.9,1.2-21.3,8-30.3c6.2-8.3,13.1-10,22.8-6.2c1.2,0.5,2.1,1.8,3.5,0.9c0.7-1.1,0.3-1.9-0.3-2.7
		c-1.8-2.4-3.5-4.9-5.4-7.1c-10.8-12.3-24.4-16-38.6-10.8c-15.1,5.5-23.8,16.8-22.4,33.9c0.9,11.2-3,15.8-12.5,20.8
		c-22.4,11.9-30.5,38.3-19.6,61.9c7.4-12.6,14.2-24.7,25.5-33.3C2704.2,227.7,2718,224.7,2733.3,223.7z M2878.9-483.8
		c-11.7-0.4-23.3,0.8-34.8,2c-18.9,1.8-37.5,5.2-55.6,11.1c-3.2,1-6.3,2-9.1,4c-1.6,1.1-3.6,2.2-2.9,4.6c0.5,1.9,2.4,2,4,2.3
		c8,1.5,16,0.7,23.8-0.9c30.4-6.2,61.3-8,92.2-9c5.4-0.2,10.6-0.8,15.7-2.3c2.8-0.8,6.9-1.3,6.9-4.6c0.1-4.2-4.7-4.4-7.5-4.9
		C2900.9-483,2889.9-484.2,2878.9-483.8z M2661.8-449.4c2.5,6.4,4,11.1,6,15.5c9.2,19.5,22.4,35.3,42.4,44.6
		c5.2,2.4,10.6,4,16.4,3.4c3.9-0.4,7.2-1.9,8.1-6.1c0.8-3.6-0.6-6.6-3.7-8.5c-3.1-2-6.2-4-9.5-5.4c-21.7-9.4-41.2-21.6-55.9-40.7
		C2665.2-447.3,2664.3-447.7,2661.8-449.4z M2812.5-444.3c-5.4-0.1-10.7,0.9-15.7,2.7c-8.5,3.1-12.5,11.8-9.8,20.3
		c1.5,4.6,5,7.6,8.7,6.2c10.7-4.1,20.1-10.5,26.5-20.3c3.1-4.8,1.1-8.1-4.8-8.9C2815.9-444.5,2814.2-444.3,2812.5-444.3z"/>
	<path class="st0" d="M3334.6,1209.9c0.7,0.9,0.9,1.6,1.4,1.9c33.8,15.6,58,42.1,79.6,71.2c16.9,22.7,32.8,46.2,49.6,69
		c16.1,21.8,33.8,42.1,57.5,56.3c5.4,3.3,11,6.2,16.9,8.5c2.2,0.8,4.4,1.6,6,3.5c3.4,4,1.8,8.7-3.3,9.8c-1,0.2-2,0.2-3,0.2
		c-24-0.2-48,0.7-72-0.8c-50.6-3.3-90.8-26-122.1-65.3c-21-26.4-39.9-54.1-57.5-82.9c-10.8-17.7-23.2-34.2-39.3-47.6
		c-12.8-10.7-27.1-18.1-44-19.5c-14.4-1.2-20.6,3.9-21.5,18.2c-0.4,6.6-0.3,13.3-0.2,20c0.1,40.7,0.2,81.3,0.4,122
		c0,3.6,0.5,7.3,1.2,10.9c3.6,19.4,11.6,27.7,30.8,31.9c0.6,0.1,1.3,0.1,2,0.3c4.1,1,8.2,2.6,7.6,7.6c-0.6,4.4-4.5,5.3-8.4,5.3
		c-9.3,0-18.7,0.1-28,0.1c-90,0-180-0.3-269.9,0.3c-15.3,0.1-23.7-5-29.7-19c-11.8-27.2-25.1-53.7-37.9-80.5
		c-1.6-3.3-3.3-6.6-5.1-9.7c-8.8-15.1-22-23.8-39.4-25.7c-18-2-36-0.1-53.8,2.3c-30.2,4.1-59.4,12-86.4,26.6
		c-23,12.4-42.2,29-55.1,52.2c-3.3,5.9-5.8,12-6,18.9c-0.3,11.5,4.2,18.1,15.1,21.5c4.2,1.3,9.4,2.4,8.5,7.9
		c-0.8,5.6-6.3,5-10.5,5.1c-35.7,0.1-71.3,0-107,0c-0.7,0-1.3,0-2,0c-3.9-0.1-7.8-0.7-8.2-5.4c-0.4-4.6,3.3-6.2,7-7
		c15.3-3.3,25.8-13.3,34.8-25.2c11.2-14.7,19.2-31.2,27-47.8c27.5-59.2,54.8-118.5,82.2-177.8c29.2-63.2,57.9-126.6,89.5-188.7
		c3.2-6.2,6.3-12.5,10.2-18.3c7.3-10.9,17.1-11.2,25.4-1c2.3,2.8,4.1,6,5.9,9.3c34.6,63.5,66.3,128.5,98.2,193.3
		c34.1,69.3,67.9,138.8,101.9,208.2c5,10.2,10.6,20,17.3,29.2c13.1,17.9,30,23.8,54.9,15.4c14.5-4.9,19.5-17.3,21.2-31.2
		c0.8-6.6,0.9-13.3,0.9-20c0-113,0-226,0-338.9c0-8.7-0.2-17.3-2-25.8c-3.4-15.7-12.9-25.1-28.6-28.3c-2.6-0.5-5.3-0.6-7.7-2
		c-2.2-1.2-3.7-3-3.7-5.5c0.1-3,2.1-4.9,4.9-5.6c2.2-0.6,4.6-0.6,6.9-0.6c76,0.1,152-0.3,228,0.7c40.8,0.5,81.1,5.6,119.7,19.9
		c22.5,8.3,43,19.8,58.9,38.2c35.2,41,34.8,111-14.8,152.1c-25.1,20.8-54.4,31.7-85.7,38.7C3346.9,1207.3,3340.5,1207,3334.6,1209.9
		z M3182.7,1090c0,17,0,34,0,51c0,7.3,0,14.7,0.5,22c0.8,11.3,6.8,18.5,17.9,21.2c3.2,0.8,6.5,1.3,9.8,1.8c13.3,2,26.6,1,39.9-0.2
		c25.5-2.2,49.9-8.4,71.8-22.3c66.8-42.2,54.4-126.8,0.5-158.5c-34.8-20.4-72.8-24.6-112-21c-14,1.3-22.5,10.6-26,24.3
		c-2,7.8-2.4,15.8-2.4,23.8C3182.7,1051.4,3182.7,1070.7,3182.7,1090z M2815.8,1259.2c-26.4-55.1-52.2-109.1-79.2-165.3
		c-13.3,29.3-25.7,56.4-37.9,83.6c-12.1,27.1-25.2,53.7-36.6,81.7C2713.8,1259.2,2763.9,1259.2,2815.8,1259.2z"/>
	<path class="st0" d="M1590.3,1182.6c2.7,2.1,5.7,2.5,8.5,3.3c23.1,6.7,43.8,17.8,61.2,34.5c28.8,27.6,38.2,61.5,31.7,100.3
		c-7.6,45.3-35.1,74.2-76.1,91.7c-28.9,12.3-59.4,17.6-90.6,17.7c-82.6,0.3-165.2,0.1-247.9,0.1c-2.3,0-4.7-0.1-7-0.4
		c-2.9-0.4-4.9-2.2-5.1-5.2c-0.3-3,1.3-5.2,4-6.2c2.5-0.9,5.1-1.3,7.7-1.8c15.3-3.2,24.6-12.6,27.9-27.8c1.5-7.2,2.1-14.5,2.1-21.8
		c0-115.9,0-231.9,0-347.8c0-6.3-0.6-12.6-1.7-18.9c-3.1-17-12.2-26.5-29.1-30.1c-2.6-0.6-5.3-0.7-7.7-2c-2.3-1.3-3.4-3.1-3.3-5.7
		c0-2.7,1.7-4.2,4-5.2c2.5-1.1,5.2-0.9,7.9-0.9c68.6,0.1,137.3-0.1,205.9,0.4c31.7,0.2,63.2,3,94,11.1c21.7,5.7,42.4,13.7,60.4,27.7
		c25.9,20.2,38.5,47,39.8,79.4c0.5,11.3,0.3,22.6-2.7,33.7c-5.9,22.4-19.2,39.2-38.3,51.8c-11.4,7.6-23.8,13.3-36.7,18.1
		C1596.4,1179.6,1593,1180.2,1590.3,1182.6z M1413.1,1292.8c0,24-0.1,48,0,72c0.1,22,8.5,33,29.9,37.1c27.6,5.2,55.1,4.1,81.6-5.9
		c21.3-8,36.5-22.8,46-43.4c11.3-24.8,13.1-51,9.5-77.3c-4.7-34.5-25.9-56.7-57.6-69.4c-26.1-10.5-53.6-13.3-81.4-12.6
		c-22.1,0.6-28,7.4-28,29.7C1413,1246.1,1413.1,1269.4,1413.1,1292.8z M1413.1,1074.3L1413.1,1074.3c0,21.3-0.3,42.7,0.1,64
		c0.4,20.6,8.2,28.2,28.6,29.2c1,0,2,0,3,0c13.4,0.4,26.7-0.6,39.9-2.2c13.6-1.6,27-4.3,39.6-9.8c20.7-8.9,33.9-24.1,38.8-46.3
		c4.3-19.8,4.4-39.6,0.7-59.5c-5.5-29.8-23.1-48.6-51.5-58c-11.8-3.9-23.9-6.1-36.2-7.4c-13.6-1.4-27.3-2.5-40.9-1.2
		c-12.4,1.2-18.4,6.9-20.7,19.3c-0.8,4.2-1.3,8.6-1.3,12.9C1413,1035,1413.1,1054.7,1413.1,1074.3z"/>
	<path class="st0" d="M3688.6,1430.2c-39.3,0-78.6,0-117.9,0c-2.3,0-4.7,0-7-0.1c-3.6-0.1-6.9-1.3-7.3-5.3c-0.5-4.5,2.8-6.4,6.6-7.4
		c1.9-0.5,3.9-0.8,5.9-1.2c14.5-3.1,23.4-11.9,26.8-26.3c1.9-8.1,2.8-16.4,2.8-24.8c0-114.6,0-229.2-0.1-343.8c0-7-0.7-14-1.8-20.9
		c-2.6-16.7-12.4-26.8-28.9-30.3c-2.6-0.6-5.3-0.5-7.7-1.9c-2.5-1.5-4.1-3.4-3.5-6.5c0.5-2.6,2.1-4.2,4.6-4.6
		c2.3-0.4,4.6-0.6,6.9-0.6c66.3,0,132.6-0.4,198.9,0.4c44.9,0.5,88.9,7.2,131.2,23.2c47,17.7,85.3,46.2,110,90.9
		c14.7,26.6,22.8,55.4,25.8,85.5c3.9,39.7,2.5,79.2-8.5,117.9c-18.3,64.3-59,108.5-120.7,133.4c-38.5,15.6-78.8,21.9-120.1,22.3
		C3752.6,1430.4,3720.6,1430.2,3688.6,1430.2L3688.6,1430.2z M3704.3,1180.3c0,56,0,111.9,0,167.9c0,27.4,15.1,46.7,41.6,53.8
		c12.2,3.3,24.5,2.7,36.7,1.7c40.3-3.5,74.4-19.2,100.4-50.9c17.9-21.8,28.8-47.1,35.4-74.2c10.1-41.2,12-82.9,7.7-125
		c-2.4-23.3-7-46.1-15.6-67.9c-10.2-25.9-24.6-48.8-46.5-66.4c-42.4-34-91.2-41.2-143.4-33.6c-9.1,1.3-14.2,6.9-15.7,15.7
		c-0.7,3.9-0.8,7.9-0.8,11.9C3704.3,1069,3704.3,1124.7,3704.3,1180.3z"/>
	<path class="st0" d="M2115.7,1430.2c-17,0-34-0.8-51,0.2c-14.3,0.9-22-4.9-27.2-17.8c-11.3-27.8-24.5-54.7-35.3-82.6
		c-10.4-26.9-29.2-37.6-57.3-36.7c-42.5,1.3-82.4,10.6-118.5,33.7c-19.7,12.6-35.6,29-47.1,49.4c-3.1,5.5-5.7,11.3-6.3,17.7
		c-1.3,12.3,3.5,19.6,15.3,23.3c4.2,1.3,9.3,2.4,8.4,8c-1,5.6-6.4,4.9-10.7,4.9c-19.3,0.1-38.6,0-58,0c-14.7,0-29.3,0-44,0
		c-2,0-4,0-6,0c-4.1-0.1-8.6-0.2-9.1-5.5c-0.4-4.5,3.4-6.2,7.1-7c15.4-3.2,25.8-13.3,34.8-25.2c11.5-15.2,19.7-32.4,27.8-49.6
		c22.4-46.9,42.8-94.7,63.8-142.2c31.6-71.2,62.3-142.8,96.5-212.9c3.5-7.2,7.1-14.3,10.9-21.4c1.7-3.2,3.7-6.4,6.1-9.1
		c6.6-7.6,14.5-7.8,21.6-0.7c4.3,4.3,6.8,9.8,9.5,15.2c18.5,36.9,36.1,74.3,53.2,111.9c40.4,88.4,80.4,177,120.7,265.5
		c6.8,14.9,14.4,29.3,23.5,42.9c8.1,12.1,17.8,22.5,33,25.6c3.8,0.8,7.3,2.8,6.7,7.3c-0.6,4.6-4.7,5.1-8.5,5.1
		c-15.3,0.1-30.6,0-46,0.1C2125,1430.2,2120.3,1430.2,2115.7,1430.2z M1900.2,1096.5c-0.8,0-1.5,0-2.3-0.1
		c-7.7,17.9-15.5,35.9-23.2,53.8c-7.9,18.3-16,36.6-23.7,55c-7.4,17.8-16.2,35.2-22.5,53.9c47.9,0,94.4,0,142.4,0
		C1947,1204.2,1923.6,1150.4,1900.2,1096.5z"/>
	<path class="st0" d="M2242.3,1184.8c-0.6,48.5,9,94.6,33.7,136.9c13.5,23.1,30.7,42.6,54,56.4c18.7,11.2,39,16.9,60.7,17.7
		c45.2,1.6,86.3-10,122.2-38.4c3.1-2.5,6.2-5.1,10.2-6.2c6-1.6,9.9,2.1,8.5,8.1c-0.9,3.7-3.1,6.5-5.5,9.3
		c-27.9,32.5-62.3,53.9-104.6,61.7c-43.1,7.9-86.2,8.2-128.8-3.1c-62.1-16.5-106.3-55-134.4-112.2c-40.4-82.4-33-192.5,17.9-268.4
		c33.8-50.3,81.7-79,140.6-90.5c38.9-7.6,77.4-6.5,115.6,4.6c15.6,4.5,31.5,8.4,47.9,9.5c9.2,0.7,16.8-1.9,23.2-8.9
		c7.2-7.9,10.9-7.1,14.3,3.3c8.4,26,16.4,52.1,24.5,78.2c4.6,14.6,9.1,29.2,13.6,43.9c2.5,8.3,1.9,13.6-2,14.3
		c-6.3,1.1-8.4-4.2-10.9-8.4c-18-30.8-39.7-58.5-68.8-79.6c-45-32.6-93.5-38.3-144.5-16.1c-29.8,12.9-49.3,36.8-63.2,65.5
		c-15.8,32.6-22.2,67.5-24.1,103.4C2242,1172.1,2242.3,1178.5,2242.3,1184.8z"/>
	<path class="st0" d="M3402.1,202.7c3.3,3.7,2.1,7.6,1.4,11.5c-6.1,34.8-15.2,68.9-26.2,102.5c-23.6,72.5-56.4,140.2-102.7,201.1
		c-44.6,58.7-98.6,106.3-164.9,139.3c-47.1,23.5-96.9,38.8-148.6,48.6c-26.2,4.9-52.7,7.8-79.3,9.5c-2,0.1-4,0.1-6,0.2
		c-3.8,0.3-5.4-1.4-5.2-5.3c0.4-6.3,0.3-12.7,0.6-19c1.2-25.3,2.5-50.6,3.9-75.8c0.6-10.8,0-9.3,10.3-10.2
		c44-3.7,87-12.1,129.1-25.4c79.5-25.3,150.6-65.5,213.2-120.7c75.2-66.4,129.8-146.8,164.9-240.7c1.5-4,3.3-8,5.1-11.9
		C3398.5,204.9,3399.5,203.5,3402.1,202.7z"/>
	<path class="st0" d="M2268.9,202.2c6.2,4,7.5,10.2,9.5,15.6c7.1,19,14.9,37.8,23.9,56c53.4,108.2,132.1,192.8,236.2,253.7
		c65.7,38.4,136.6,62.6,211.9,73.7c12.5,1.8,25.1,3.1,37.7,4.1c5.4,0.4,7.3,2.5,7.6,7.8c1,22.3,2.2,44.6,3.4,66.9
		c0.5,9.6,1,19.3,1.3,28.9c0.2,6.6-0.1,7-6.7,6.5c-15.3-1-30.6-2-45.8-3.8c-52.5-6.5-103.4-19.1-152.5-38.9
		c-84.7-34.1-151.7-90.1-205.3-163.2c-44.5-60.8-76.1-128.1-98.7-199.7c-9.7-30.5-17.6-61.4-23.5-92.9
		C2266.6,210,2266.7,210,2268.9,202.2z"/>
	<path class="st0" d="M4168.2,1430.2c-28.7,0-57.3,0-86,0c-3,0-6,0-8.9-0.5c-2.8-0.5-4.8-2.4-4.9-5.5c-0.1-2.6,1.4-4.5,3.7-5.4
		c2.1-0.8,4.4-1.3,6.7-1.7c23.7-4.5,34-15.8,35.6-39.9c0.7-10,0.7-20,0.7-30c0-102.6,0.1-205.3,0-307.9c0-12,0.7-24-1.5-35.9
		c-3.7-20.5-13.4-29.9-34.2-33.4c-2.6-0.5-5.3-0.7-7.7-2c-2.2-1.2-3.5-3.1-3.3-5.7s1.8-4.4,4.3-5c2.6-0.6,5.3-0.9,7.9-0.9
		c58.6-0.1,117.3,0,175.9,0c3,0,6,0,8.7,1.6c4.1,2.5,4.2,7.1,0.2,9.7c-2.3,1.4-4.9,1.8-7.6,2.3c-23,4-32.8,14.6-35.5,37.7
		c-0.9,7.3-1.2,14.6-1.2,21.9c0,109.6,0,219.3,0,328.9c0,8,0.4,16,1.5,23.9c2.7,19.3,12.4,29.6,31.4,34c3.6,0.8,7.4,0.5,10.7,2.4
		c2.2,1.2,3.6,3,3.5,5.6c-0.1,2.7-1.9,4.5-4.2,5c-3.2,0.7-6.6,0.9-9.9,0.9C4225.5,1430.2,4196.8,1430.2,4168.2,1430.2z"/>
	<path class="st0" d="M3206.4-528.5c-4.6,6.7-9.9,11.2-14.4,16.5c-7.6,8.8-15.1,17.7-22.6,26.6c-5.2,6.2-5.2,6.2-11.8,2
		c-40.1-26-82.8-47-128-62.6c-78.5-27-159.2-37.2-242-30.5c-74.9,6-145.9,25.7-213.4,58.7c-20.7,10.1-40.6,21.6-59.9,33.9
		c-7.3,4.7-7.3,4.6-12.5-1.6c-10.7-12.8-21.4-25.5-33-37.5c-1.3-1.4-3.2-2.5-3.4-5.9c112.6-73.3,236.6-110.5,371.1-110.3
		C2970.3-639,3093.6-601.8,3206.4-528.5z"/>
	<path class="st0" d="M4236.9,826.7c0,6.7,0.1,13.3,0,20c-0.2,14-3.5,18.1-17.4,21c-15,3.1-29.8,6.9-44.4,11.7
		c-19.7,6.4-38.7,14.3-57.1,23.9c-3.2,1.7-6.5,3.5-10,4.4c-5,1.2-7.7-1.4-7.3-6.5c0.5-5.2,3.2-9.4,6.2-13.4
		c16.4-21.6,35.8-40.3,56.4-57.8c14.8-12.5,30.3-24,47.2-33.4c3.5-1.9,7.1-3.8,10.8-5.1c9.5-3.3,14.9,0.5,15.5,10.4c0,0.7,0,1.3,0,2
		C4236.9,811.3,4236.9,819,4236.9,826.7z"/>
	<path class="st0" d="M4350.1,1429.8c-30.9-0.5-53.9-24.7-53.7-56.3c0.1-25.6,20.4-53.5,55.9-53.3c30.5,0.1,54.5,25.5,53.7,55.5
		C4405.1,1407.3,4381.4,1430.3,4350.1,1429.8z M4351.1,1327.9c-26.2,0-46.8,20.6-46.9,46.8c-0.1,26.9,20.4,47.7,47,47.8
		c26.2,0.1,47.2-21.4,47.1-48C4398.2,1348.6,4377.2,1327.9,4351.1,1327.9z"/>
	<path class="st0" d="M3336.9,642.4c-1.4,4.1-2.8,8.1-4.1,12.2c-0.5,1.7-1.3,3-3.3,3.2c-2.4,0.3-3.6-1.2-4.4-3.2
		c-1.5-3.9-1.8-8.4-5.6-13.4c-0.4,5.6-0.7,9.7-1,13.7c-0.2,1.8-0.9,3.2-3.1,2.7c-1.6-0.4-2-1.7-1.9-3.1c0.4-6,0.9-12,1.5-17.9
		c0.2-2.1,1-3.8,3.4-4.2c2.6-0.4,4.6,0.5,5.6,3c1.7,4.3,2.6,8.9,5.6,13.4c1.8-4.8,3.3-8.8,4.7-12.9c0.9-2.6,2.6-3.6,5.3-3.6
		c3.4,0.1,3.4,2.5,3.6,4.9c0.5,5.3,1,10.6,1.3,15.9c0.1,1.9,0.7,4.5-2.2,4.5c-2.5,0-2.7-2.6-3-4.5c-0.4-3.6-0.6-7.3-0.9-10.9
		C3338,642.3,3337.5,642.4,3336.9,642.4z"/>
	<path class="st0" d="M3291,634.4c6.3-2.8,12-3,20.1-0.5c0.5,1.9-1.1,2.4-2.2,2.4c-5.1,0-5.8,3.1-5.7,7.2c0.1,4,0,7.9-0.3,11.9
		c0,0.8-0.9,1.9-1.6,2.1c-1.5,0.4-2.5-0.6-2.7-2c-0.2-2.3-0.3-4.6-0.3-6.9C3298.3,638.6,3298.3,638.6,3291,634.4z"/>
	<path class="st0" d="M4365.4,1377.3c9.2,5.7,10.3,14,9.8,23.1c-0.2,3.4-1.5,4.9-4.9,4.7c-3.1-0.2-5.1-1.3-5-4.8c0-0.7,0-1.3,0-2
		c-1-14.3-6.1-18.4-20.7-16.9c-3.3,0.3-4.9,1.6-4.9,4.8c0,4.7-0.1,9.3-0.1,14c0,4-2.4,4.9-5.9,4.8c-3.3-0.1-4.9-1.5-4.9-4.8
		c0-17,0-34,0-51c0-3.7,2.1-4.4,5.1-4.4c8,0.1,16-0.1,24,0.3c7.7,0.4,14.5,2.8,17.1,11.2C4377.4,1364.3,4374.8,1370.4,4365.4,1377.3
		z M4339.8,1362.4c0,2.6-0.1,5.3,0,7.9c0.1,1.8,1,3.3,2.9,3.4c5.6,0.2,11.2,0.9,16.6-1.5c4.5-2,6.1-5.6,5.9-10.4
		c-0.2-4.6-2.6-7.2-6.8-8.6c-4.8-1.6-9.7-1.5-14.7-1.3c-2.4,0.1-3.7,1.3-3.8,3.6C4339.7,1357.7,4339.8,1360.1,4339.8,1362.4z"/>
</g>
</svg>
