<?xml version="1.0" encoding="utf-8"?>
<!-- Generator: Adobe Illustrator 19.0.0, SVG Export Plug-In . SVG Version: 6.00 Build 0)  -->
<svg version="1.1" id="Layer_1" xmlns="http://www.w3.org/2000/svg" xmlns:xlink="http://www.w3.org/1999/xlink" x="0px" y="0px"
	 viewBox="0 0 288 288" style="enable-background:new 0 0 288 288;" xml:space="preserve">
<style type="text/css">
	.st0{opacity:0.2;}
	.st1{fill:#FFA6A9;}
	.st2{fill:#D9AE38;}
	.st3{fill:#003242;}
</style>
<g id="New_Symbol_6">
</g>
<g id="XMLID_1_" class="st0">
	<g id="XMLID_3_">
		<path id="XMLID_4_" class="st1" d="M164.9,126.9l2.9-4.2c0.4-0.6,0-1.5-0.7-1.6l-5.1-0.4c-0.8-0.1-1.3,0.7-1,1.4l2.2,4.6
			C163.5,127.5,164.5,127.6,164.9,126.9z"/>
		<path id="XMLID_5_" class="st1" d="M211.3,136.2l-4.3-2.8c-0.7-0.4-1.5,0-1.6,0.8l-0.3,5.1c0,0.8,0.8,1.3,1.5,1l4.6-2.3
			C211.9,137.6,212,136.7,211.3,136.2z"/>
		<path id="XMLID_6_" class="st1" d="M131.8,84.4l4.2,2.9c0.6,0.4,1.5,0,1.6-0.8l0.4-5.1c0.1-0.8-0.7-1.3-1.5-1l-4.6,2.2
			C131.3,83,131.2,84,131.8,84.4z"/>
		<path id="XMLID_7_" class="st1" d="M281.8,277.9l-2.3-4.6c-0.4-0.7-1.3-0.7-1.8-0.1l-2.8,4.3c-0.4,0.7,0,1.5,0.8,1.6l5.1,0.3
			C281.6,279.4,282.1,278.6,281.8,277.9z"/>
		<path id="XMLID_8_" class="st1" d="M277.4,75.5l0.6-5.1c0.1-0.8-0.7-1.4-1.4-1.1l-4.7,2c-0.7,0.3-0.8,1.3-0.2,1.7l4.1,3.1
			C276.4,76.7,277.3,76.3,277.4,75.5z"/>
		<path id="XMLID_9_" class="st1" d="M207.6,98.2l-0.1-5.1c0-0.8-0.9-1.3-1.5-0.9l-4.4,2.6c-0.7,0.4-0.7,1.4,0,1.8l4.5,2.5
			C206.8,99.5,207.6,99,207.6,98.2z"/>
		<path id="XMLID_10_" class="st1" d="M238.9,267l-3.2,4c-0.5,0.6-0.1,1.5,0.6,1.6l5.1,0.8c0.8,0.1,1.4-0.6,1.1-1.4l-1.8-4.8
			C240.3,266.6,239.4,266.4,238.9,267z"/>
		<path id="XMLID_11_" class="st1" d="M175.8,20l3.8-3.5c0.6-0.5,0.4-1.5-0.4-1.7l-4.9-1.5c-0.7-0.2-1.5,0.4-1.3,1.2l1.1,5
			C174.3,20.2,175.2,20.5,175.8,20z"/>
		<path id="XMLID_12_" class="st1" d="M234.5,191.1l-4.7-2c-0.7-0.3-1.5,0.3-1.4,1.1l0.7,5.1c0.1,0.8,1,1.2,1.6,0.7l4.1-3.1
			C235.3,192.3,235.2,191.4,234.5,191.1z"/>
		<path id="XMLID_13_" class="st1" d="M69,201.4l0.5,5.1c0.1,0.8,1,1.2,1.6,0.7l4.1-3c0.6-0.5,0.5-1.4-0.2-1.8l-4.7-2.1
			C69.7,200,68.9,200.6,69,201.4z"/>
		<path id="XMLID_14_" class="st1" d="M128,167.3l-2.7-4.4c-0.4-0.7-1.4-0.6-1.8,0l-2.4,4.5c-0.4,0.7,0.1,1.5,0.9,1.5l5.1-0.1
			C127.9,168.9,128.4,168,128,167.3z"/>
		<path id="XMLID_15_" class="st1" d="M234.3,13.7l2.4-4.5c0.4-0.7-0.2-1.5-0.9-1.5l-5.1,0.2c-0.8,0-1.2,0.9-0.8,1.6l2.7,4.3
			C233,14.4,234,14.3,234.3,13.7z"/>
		<path id="XMLID_16_" class="st1" d="M20,35.5l-3.3-4c-0.5-0.6-1.5-0.4-1.7,0.3l-1.8,4.8c-0.3,0.7,0.3,1.5,1.1,1.4l5.1-0.8
			C20.2,37,20.5,36.1,20,35.5z"/>
		<path id="XMLID_17_" class="st1" d="M171.2,67.2l3.1,4.1c0.5,0.6,1.4,0.5,1.7-0.2l1.9-4.7c0.3-0.7-0.3-1.5-1.1-1.4l-5.1,0.7
			C171.1,65.7,170.8,66.6,171.2,67.2z"/>
		<path id="XMLID_18_" class="st1" d="M80,21.4l1.4,4.9c0.2,0.8,1.2,1,1.7,0.4l3.6-3.7c0.5-0.6,0.3-1.5-0.5-1.7l-5-1.3
			C80.5,19.9,79.8,20.6,80,21.4z"/>
		<path id="XMLID_19_" class="st2" d="M119.1,120.7l-5.1,0c-0.8,0-1.3,0.8-0.9,1.5l2.5,4.5c0.4,0.7,1.4,0.7,1.8,0l2.6-4.4
			C120.4,121.6,119.9,120.7,119.1,120.7z"/>
		<path id="XMLID_20_" class="st2" d="M169.6,164.7l-3.5,3.8c-0.5,0.6-0.2,1.5,0.5,1.7l5,1.1c0.8,0.2,1.4-0.5,1.2-1.3l-1.5-4.9
			C171.1,164.3,170.1,164.1,169.6,164.7z"/>
		<path id="XMLID_21_" class="st2" d="M12.3,261.6l-5.1-0.4c-0.8-0.1-1.3,0.7-1,1.5l2.2,4.6c0.3,0.7,1.3,0.8,1.8,0.1l2.9-4.2
			C13.5,262.6,13.1,261.7,12.3,261.6z"/>
		<path id="XMLID_22_" class="st2" d="M113.1,268.2l3.7,3.6c0.6,0.5,1.5,0.3,1.7-0.5l1.2-5c0.2-0.8-0.5-1.4-1.3-1.2l-4.9,1.4
			C112.7,266.7,112.5,267.7,113.1,268.2z"/>
		<path id="XMLID_23_" class="st2" d="M109,210.6l-0.2,5.1c0,0.8,0.8,1.3,1.5,0.9l4.5-2.4c0.7-0.4,0.7-1.3,0.1-1.8l-4.3-2.7
			C109.9,209.3,109,209.8,109,210.6z"/>
		<path id="XMLID_24_" class="st2" d="M64.8,103.2l-4.2-2.9c-0.6-0.4-1.5,0-1.6,0.8l-0.4,5.1c-0.1,0.8,0.8,1.3,1.5,1l4.6-2.2
			C65.4,104.6,65.5,103.6,64.8,103.2z"/>
		<path id="XMLID_25_" class="st2" d="M200.9,209l-5.1-0.8c-0.8-0.1-1.4,0.7-1.1,1.4l1.9,4.8c0.3,0.7,1.3,0.9,1.7,0.3l3.2-4
			C202.1,210,201.7,209.1,200.9,209z"/>
		<path id="XMLID_26_" class="st2" d="M34.4,274.4l-0.3,5.1c0,0.8,0.8,1.3,1.5,1l4.6-2.3c0.7-0.3,0.8-1.3,0.1-1.8l-4.3-2.8
			C35.3,273.2,34.4,273.6,34.4,274.4z"/>
		<path id="XMLID_27_" class="st2" d="M22.7,129.6l5.1,0.5c0.8,0.1,1.3-0.7,1-1.4l-2.2-4.7c-0.3-0.7-1.3-0.8-1.8-0.2L22,128
			C21.5,128.7,21.9,129.6,22.7,129.6z"/>
		<path id="XMLID_28_" class="st2" d="M137.9,38.8l2.6-4.4c0.4-0.7-0.1-1.5-0.9-1.5l-5.1-0.1c-0.8,0-1.3,0.8-0.9,1.5l2.5,4.5
			C136.6,39.5,137.5,39.5,137.9,38.8z"/>
		<path id="XMLID_29_" class="st2" d="M194.9,274.3l5-0.9c0.8-0.1,1.1-1.1,0.6-1.7l-3.3-3.9c-0.5-0.6-1.5-0.4-1.7,0.3l-1.7,4.8
			C193.5,273.7,194.2,274.5,194.9,274.3z"/>
		<path id="XMLID_30_" class="st2" d="M12.3,177.1l3.8-3.4c0.6-0.5,0.4-1.5-0.4-1.7l-4.9-1.6c-0.7-0.2-1.5,0.4-1.3,1.2l1.1,5
			C10.8,177.3,11.8,177.6,12.3,177.1z"/>
		<path id="XMLID_31_" class="st2" d="M82.3,161l2.8-4.3c0.4-0.7,0-1.5-0.8-1.6l-5.1-0.3c-0.8,0-1.3,0.8-1,1.5l2.3,4.6
			C80.9,161.6,81.9,161.7,82.3,161z"/>
		<path id="XMLID_32_" class="st2" d="M275.6,202.3l4.8-1.8c0.7-0.3,0.9-1.2,0.3-1.7l-4-3.3c-0.6-0.5-1.5-0.2-1.6,0.6l-0.8,5.1
			C274.1,202,274.9,202.6,275.6,202.3z"/>
		<path id="XMLID_33_" class="st2" d="M205.9,41.3l4.8,1.7c0.7,0.3,1.5-0.4,1.3-1.1l-0.9-5c-0.1-0.8-1.1-1.1-1.7-0.6l-3.9,3.3
			C205,40,205.2,41,205.9,41.3z"/>
		<path id="XMLID_34_" class="st3" d="M39.6,13.5l-0.3,5.1c0,0.8,0.8,1.3,1.5,1l4.6-2.3c0.7-0.4,0.8-1.3,0.1-1.8l-4.3-2.8
			C40.5,12.3,39.7,12.7,39.6,13.5z"/>
		<path id="XMLID_35_" class="st3" d="M18.4,83.4l0.3-5.1c0.1-0.8-0.8-1.3-1.5-1l-4.6,2.3c-0.7,0.3-0.8,1.3-0.1,1.8l4.3,2.9
			C17.4,84.6,18.3,84.2,18.4,83.4z"/>
		<path id="XMLID_36_" class="st3" d="M124.9,10.3l1-5c0.2-0.8-0.6-1.4-1.3-1.2l-4.9,1.7c-0.7,0.3-0.9,1.2-0.3,1.7l3.9,3.4
			C123.8,11.4,124.7,11.1,124.9,10.3z"/>
		<path id="XMLID_37_" class="st3" d="M263,159.8l2.6,4.4c0.4,0.7,1.4,0.7,1.8,0l2.5-4.5c0.4-0.7-0.1-1.5-0.9-1.5l-5.1,0
			C263.1,158.2,262.6,159.1,263,159.8z"/>
		<path id="XMLID_38_" class="st3" d="M268.2,237.2l3.7,3.6c0.6,0.5,1.5,0.3,1.7-0.5l1.2-5c0.2-0.8-0.5-1.4-1.3-1.2l-4.9,1.4
			C267.9,235.7,267.6,236.6,268.2,237.2z"/>
		<path id="XMLID_39_" class="st3" d="M47.8,171.2l-4.5,2.4c-0.7,0.4-0.7,1.3-0.1,1.8l4.3,2.8c0.7,0.4,1.5,0,1.6-0.8l0.2-5.1
			C49.3,171.3,48.5,170.8,47.8,171.2z"/>
		<path id="XMLID_40_" class="st3" d="M60.5,239l-1.1,5c-0.2,0.8,0.5,1.4,1.3,1.2l4.9-1.5c0.7-0.2,1-1.2,0.4-1.7l-3.8-3.5
			C61.6,238,60.7,238.3,60.5,239z"/>
		<path id="XMLID_41_" class="st3" d="M258.3,118.7l3.4,3.9c0.5,0.6,1.5,0.4,1.7-0.3l1.7-4.8c0.3-0.7-0.4-1.5-1.2-1.3l-5,1
			C258.1,117.2,257.8,118.1,258.3,118.7z"/>
		<path id="XMLID_42_" class="st3" d="M82.5,282.7l-0.8-5.1c-0.1-0.8-1-1.1-1.6-0.6l-4,3.2c-0.6,0.5-0.5,1.5,0.3,1.7l4.8,1.9
			C81.9,284.1,82.6,283.5,82.5,282.7z"/>
		<path id="XMLID_43_" class="st3" d="M20.8,223.6l2.4-4.5c0.4-0.7-0.2-1.5-0.9-1.5l-5.1,0.2c-0.8,0-1.2,0.9-0.8,1.6l2.7,4.3
			C19.4,224.4,20.4,224.3,20.8,223.6z"/>
		<path id="XMLID_44_" class="st3" d="M87.5,63.8l-5.1-0.2c-0.8,0-1.3,0.8-0.9,1.5l2.4,4.5c0.4,0.7,1.3,0.7,1.8,0.1l2.8-4.3
			C88.8,64.7,88.3,63.9,87.5,63.8z"/>
		<path id="XMLID_45_" class="st3" d="M158.1,263.7l4-3.1c0.6-0.5,0.5-1.4-0.2-1.7l-4.7-1.9c-0.7-0.3-1.5,0.3-1.4,1.1l0.7,5.1
			C156.6,263.8,157.5,264.1,158.1,263.7z"/>
		<path id="XMLID_46_" class="st3" d="M151.5,212.5l-1.1,5c-0.2,0.8,0.6,1.4,1.3,1.2l4.9-1.5c0.7-0.2,1-1.2,0.4-1.7l-3.8-3.5
			C152.7,211.4,151.7,211.7,151.5,212.5z"/>
		<path id="XMLID_47_" class="st3" d="M237.7,69.1l-4.3-2.7c-0.7-0.4-1.5,0-1.6,0.8l-0.2,5.1c0,0.8,0.8,1.3,1.5,0.9l4.5-2.4
			C238.3,70.5,238.3,69.6,237.7,69.1z"/>
		<path id="XMLID_48_" class="st3" d="M275.2,27.7l-1.7-4.8c-0.3-0.7-1.2-0.9-1.7-0.3l-3.3,3.9c-0.5,0.6-0.2,1.5,0.6,1.7l5,0.9
			C274.8,29.2,275.4,28.4,275.2,27.7z"/>
	</g>
</g>
</svg>
