<?xml version="1.0" encoding="utf-8"?>
<!-- Generator: Adobe Illustrator 19.0.0, SVG Export Plug-In . SVG Version: 6.00 Build 0)  -->
<svg version="1.1" id="Livello_1" xmlns="http://www.w3.org/2000/svg" xmlns:xlink="http://www.w3.org/1999/xlink" x="0px" y="0px"
	 viewBox="0 0 1252 580.1" style="enable-background:new 0 0 1252 580.1;" xml:space="preserve">
<style type="text/css">
	.st0{fill:#FFFFFF;}
</style>
<g>
	<path class="st0" d="M565.4,142.3c7-19.5,13.5-37.8,20-56.2c6.4-17.9,12.7-35.7,19-53.6c2.8-8.1,2.4-9.2-4.4-14.1
		c-3.3-2.4-5.3-9.6-3.8-13.1c0.6-1.4,1.8-1.3,2.9-1.3c21.2,0,42.3,0,63.5,0c2.2,0,3.2,0.6,3.3,3.1c0.5,6.9-1,12.6-8.2,15.3
		c-3.5,1.3-5.2,4.1-5.4,7.7c-0.1,2-0.2,4-0.2,6c0,55,0.1,110-0.1,165c0,7.7,1.8,13.5,9.2,17.1c5.4,2.6,7.3,9.6,5.6,15.7
		c-0.5,1.8-1.7,1.8-3,1.8c-21.5,0-42.9,0-64.4,0c-1.3,0-2.5-0.1-3-1.8c-1.9-6.5,0.3-13.1,6.4-15.7c7.3-3.1,9.1-8.6,9.1-15.6
		c0-32.2,0.1-64.3,0.1-96.5c0-0.5-0.2-0.9-0.3-1.4c-2.1-0.1-1.7,1.8-2.1,2.8c-16.1,41.4-32.1,82.9-48.2,124.3
		c-0.6,1.4-0.7,3.7-2.9,3.5c-1.9-0.2-2.4-2.2-2.9-3.7c-6.8-18.4-13.7-36.8-20.4-55.2c-8.4-23-16.8-46-25.1-68.9
		c-0.3-0.8-0.5-1.6-1.5-1.8c-1,0.9-0.6,2.1-0.6,3.2c0,31.2,0.1,62.3-0.1,93.5c0,7,2,12.4,8.4,15.8c6.1,3.3,7,8.8,6.6,14.9
		c-0.2,2.3-1.2,2.7-3.2,2.7c-18.5,0-37,0-55.5,0c-1.3,0-2.5,0-3-1.8c-1.5-5.8,0.2-12.5,5.3-14.9c8-3.8,10.2-10,10.1-18.2
		c-0.3-22.3-0.1-44.7,0-67c0-3.1-0.8-4.6-4-5.6c-7.5-2.4-13.2-7-15.7-14.8c-0.8-2.6-1-5.3,1.1-7.5c2-2.1,4.3-0.9,6.5-0.2
		c1.1,0.4,2.2,0.7,3.4,1c6.9,1.5,8.7,0.1,8.7-6.9c0-20.7-0.1-41.3,0.1-62c0.1-7.8-2-13.9-9.2-17.9c-4.5-2.5-6.5-9.5-4.9-14.2
		c0.6-1.8,1.9-1.6,3.2-1.6c23,0,46,0,69,0c2.1,0,3,0.6,3,2.8c0,5.5-0.3,10.5-6.5,13.2c-5.2,2.3-3.8,7.3-2.6,11.4
		c2.3,7.8,5,15.5,7.6,23.3c9.3,28.1,18.6,56.2,27.9,84.4C564.2,139.7,564.6,140.4,565.4,142.3z"/>
	<path class="st0" d="M216.6,113.6c6.1,2.9,11.5,5.4,16.1,9.1c19.2,15.5,24.8,36.3,21.6,59.5c-3.7,26.7-21.2,43.6-49.3,50.2
		c-15.8,3.7-31.7,3.2-47.7,3.3c-11.8,0.1-23.6-0.1-35.4,0.1c-3.3,0-4.4-0.9-4.6-4.4c-0.3-6.3,2.2-10.7,7.7-13.3
		c5.2-2.5,7.2-6.5,7.2-12c0-24.3-0.1-48.6,0-73c0-2.8-0.8-4-3.6-5c-7.1-2.3-12.7-6.7-15.2-14c-1-2.9-1.4-6,0.9-8.5
		c2.2-2.3,4.7-0.4,7,0.1c0.8,0.2,1.6,0.6,2.4,0.8c6.8,1.6,8.4,0.3,8.4-6.5c0-20,0-40,0-60c0-8.9-2.8-13.5-9.4-15.8
		c-7.6-2.7-18.4-0.2-22.6,5.2c-2.7,3.5-3.2,7.3-0.5,11.1c2.6,3.7,6.1,4.8,10.5,3.3c2.6-0.9,5.6-2.6,7.9,0.1c2.4,2.8,1,6.1-0.4,8.9
		c-2.7,5.4-7.4,8.4-12.9,10.4c-12.1,4.5-26.1,0.1-32.8-10.1c-6.6-10.1-4.8-24.9,4.5-34.5c8.5-8.9,19.5-13.1,31.3-13.8
		c30.1-1.7,60.3-1.5,90.4-0.1c9.7,0.4,18.9,3.8,27.3,8.8c21.2,12.5,27.3,31.9,25.2,55.1c-1.9,21.1-11.9,36.3-32.2,44
		C218,112.8,217.6,113.1,216.6,113.6z M174.6,167.7c0,11,0,22,0,32.9c0,7.1,2.8,9.6,9.9,8.4c9.9-1.7,16.5-7.7,20.4-16.5
		c5.6-12.3,6.5-25.4,4-38.6c-2.7-14.9-13.7-24-28.9-24.8c-3.9-0.2-5.6,0.7-5.5,5.1C174.8,145.4,174.6,156.6,174.6,167.7z M174.9,66
		c0,10.7,0,21.3,0,32c0,2.2,0.1,3.9,3,3.9c10.1,0.1,18.7-2.8,24.7-11.4c9.5-13.6,8.9-40.5-1.3-53.5c-4.2-5.3-9.5-8.8-16.3-9.8
		c-7-1-10.1,1.7-10.1,8.7C174.9,46,174.9,56,174.9,66z"/>
	<path class="st0" d="M966.8,302.8c11.5,0.5,25.4-1,39.1,0.8c27.6,3.6,51.3,19.8,56.4,49.1c4.3,24.6,0.1,47.1-20.2,64.3
		c-0.9,0.8-1.8,1.4-2.8,2.1c-8.1,5.7-8.1,5.7-4.3,14.7c9.4,22.7,18.9,45.5,28.2,68.3c2.8,6.8,7,11.9,13.5,15.4
		c6.1,3.3,8.1,8.5,6.5,15c-0.5,2.1-1.8,2.1-3.3,2.1c-22.5,0-45,0-67.5,0c-1.1,0-2.3,0.1-2.9-1.3c-1.7-3.9,0.6-11.4,4.3-13.9
		c7.3-4.9,8.3-7.5,5.1-15.8c-8.2-21.4-16.5-42.8-24.8-64.2c-1.6-4.2-7.4-6.2-11.3-4c-1.3,0.8-1,2-1,3.1c0,21.3,0,42.6,0.2,64
		c0,5.5,2.6,9.8,7.5,12.7c4.7,2.8,8,13.6,6,18.3c-0.6,1.5-1.9,1.2-3,1.2c-21.3,0-42.6,0-64,0c-2.5,0-3.3-0.8-3.5-3.4
		c-0.5-6.6,1.8-11.5,7.8-14.3c5.1-2.4,7.1-6.3,7.2-11.5c0.1-24.7,0-49.3,0.1-74c0-2.8-1.3-3.6-3.6-4.4c-6.3-2.2-11.6-5.8-14.5-12.2
		c-0.8-1.8-1.6-3.7-1.5-5.7c0.1-4.8,2.5-6.4,7.2-4.9c2.9,0.9,5.7,1.9,8.8,1.5c2.4-0.3,3.6-1.2,3.6-3.8c-0.1-22.7,0-45.3-0.2-68
		c0-6.2-2.7-11.3-8.4-14.4c-5-2.7-6.2-7.3-6.5-12.6c-0.1-3.2,0.7-4.4,4.1-4.3C940.9,303,952.7,302.8,966.8,302.8z M982.8,368.5
		c0,11.6,0.1,23.3-0.1,34.9c-0.1,3.6,1.2,4.5,4.6,4.5c14.1,0,25.3-7.1,29.9-20.5c5-14.5,4.8-29.2-1.1-43.4
		c-4.1-9.8-11.5-16.3-22.1-18.3c-7.2-1.4-11.1,2-11.2,9.4C982.8,346.2,982.8,357.3,982.8,368.5z"/>
	<path class="st0" d="M703.6,469.1c0,11.7,0.1,23.3,0,35c-0.1,6.1,1.9,10.4,7.7,13.2c6.2,3,8.3,8.5,6.9,15.1
		c-0.5,2.1-1.8,2.1-3.3,2.1c-21.2,0-42.3,0-63.5,0c-2.3,0-3.1-0.7-3.3-3.1c-0.6-6.5,1.3-11.6,7.5-14.4c5.7-2.6,7.5-7.1,7.5-12.9
		c0-24-0.1-48,0.1-72c0-3-1-4.4-3.8-5.3c-6.1-1.9-10.9-5.6-14-11.4c-1.1-2.1-1.8-4.3-1.8-6.7c0.1-4.3,2.5-6,6.6-4.9
		c13,3.4,13,3.4,13-9.7c0-18.8-0.1-37.7,0-56.5c0-8-2-14.6-9.6-18.8c-4.5-2.5-6.4-9.2-5.3-14.2c0.4-1.9,1.5-1.9,2.9-1.9
		c21.5,0,43,0,64.5,0c1.6,0,2.9,0.1,2.9,2.3c0,5.7-0.4,11.2-6.1,14.3c-6.3,3.5-8.7,8.8-8.7,15.7c0,22.3,0,44.7-0.1,67
		c0,3.1,1,4.1,4,4.1c11-0.1,22-0.1,33,0c3.2,0,4.6-0.8,4.5-4.5c-0.2-21.7-0.1-43.3-0.1-65c0-7.5-2.2-13.6-9.1-17.6
		c-4.6-2.6-6.9-9.6-5.8-14.4c0.4-1.9,1.5-1.9,2.9-1.9c21.5,0,43,0,64.5,0c1.6,0,3,0,3,2.3c0,5.6-0.3,11.2-6,14.4
		c-6.7,3.7-8.8,9.4-8.8,16.6c0.1,56,0.1,111.9,0,167.9c0,6.3,1.9,10.8,7.9,13.6c6,2.8,7.8,7.9,6.6,14.7c-0.4,2.1-1.5,2.3-3.1,2.3
		c-21.3,0-42.7,0-64,0c-1.3,0-2.4-0.1-2.8-2c-1.3-6.6,0.6-12.1,6.9-15.2c6.2-3.1,8-7.8,7.9-14.2c-0.1-23.3-0.1-46.7,0-70
		c0-3.9-1-5.2-5-5.1c-10.5,0.3-21,0.3-31.5,0c-4.4-0.1-5.2,1.4-5.1,5.4C703.7,445.5,703.6,457.3,703.6,469.1z"/>
	<path class="st0" d="M800.6,114c11.9,4.7,21.4,12,28.2,22.5c15.8,24.2,12.2,61.3-8,79.6c-11.9,10.8-26.4,16.1-42,18.1
		c-24.9,3.1-49.9,1-74.8,1.5c-1.6,0-2.7-0.3-3.1-2.3c-1.2-7.1,0.6-11.8,7-15c5.6-2.8,7.6-7.1,7.6-12.9c0-24.3,0-48.7,0.1-73
		c0-2.7-1.2-3.6-3.6-4.4c-6-2-11-5.5-14.1-11.3c-1.3-2.4-2.2-4.9-1.8-7.7c0.5-3.6,2.3-5.3,6.2-4.3c13.3,3.3,13.3,3.2,13.3-10.3
		c0-18.3-0.1-36.7,0-55c0-8.3-1.7-15.3-9.8-19.8c-4.3-2.3-6.4-9.8-5.3-14.3c0.5-1.9,1.8-1.6,3.1-1.6c25.8,0.3,51.7-1.4,77.4,0.8
		c19,1.6,35.6,9.3,45.9,26.4c17.8,29.4,5.8,67.4-25.3,81.5C801.5,112.8,801.3,113.2,800.6,114z M757.9,167.6c0,11.2,0,22.3,0,33.5
		c0,6.5,2.9,9,9.3,8.1c8.2-1.2,14.6-5.5,18.8-12.6c8-13.4,8.8-28.2,6-43c-2.9-15.4-14.1-24.1-29.7-24.4c-3.4-0.1-4.7,0.9-4.6,4.5
		C758.1,145,757.9,156.3,757.9,167.6z M758.5,66.4C758.5,66.4,758.5,66.4,758.5,66.4c0,5.3,0,10.6,0,15.9c0,5.3,0.1,10.6-0.1,15.9
		c-0.1,2.5,0.4,3.6,3.2,3.8c11.8,0.7,22.9-5.9,27.5-16.9c4.2-10.2,4.6-20.8,2.7-31.4c-2.3-12.6-8.5-22.4-21.7-26
		c-7.5-2-11.6,1.2-11.6,8.9C758.5,46.5,758.5,56.5,758.5,66.4z"/>
	<path class="st0" d="M1162.2,302.8c17.8,0,35.7,0.1,53.5-0.1c4,0,6.1,0.5,6.6,5.4c1.6,14.6,4,29,5.9,43.6c0.3,2.5,2.8,6.1-0.6,7.5
		c-4,1.7-8.5,3.5-12.8,0c-2.6-2.1-4.6-4.8-6.3-7.7c-2.6-4.5-5-9-8.1-13.1c-9.4-12.4-22.4-15.2-36.9-14.2c-2.1,0.1-2.8,1.6-3.4,3.2
		c-1.2,3.2-1.4,6.5-1.4,9.8c0,20.2,0.1,40.3-0.1,60.5c0,3.4,0.8,4.8,4.4,4.5c4-0.3,8-0.2,11.9,0c7.1,0.2,12.1-2.8,15.5-8.9
		c1.4-2.6,3-5.2,4.7-7.6c3-4.3,8.9-6.1,13.8-4.7c1.9,0.5,1.6,1.9,1.6,3.1c0,20.5,0,41,0,61.5c0,2.3-0.8,3.2-3.2,3.4
		c-8.7,0.8-11.2-0.3-14.7-8.5c-3.3-7.8-8.9-11.2-17.2-10.8c-4.3,0.2-8.7,0.1-13,0c-2.8-0.1-3.8,0.8-3.8,3.7
		c0.1,23.8,0.1,47.7,0,71.5c0,2.9,1,3.9,4,4.1c20.1,1.7,34.6-7.1,45.2-23.6c2.6-4.1,4.9-8.3,7.7-12.3c4.1-5.8,9.4-6.9,15.9-4.1
		c2.7,1.2,1.4,2.9,1,4.6c-3.7,13.5-7.2,27-11.1,40.4c-1,3.4-0.6,4.4,3.1,5.1c16.6,3.1,25.6,12.4,27.1,27.5
		c1.8,18.2-14.1,34.1-32.3,32.2c-10.2-1-16.4-7.4-20.3-16.3c-1.3-3-0.1-4.1,2.9-3.8c0.8,0.1,1.6,0.3,2.4,0.5
		c7.1,1.6,13.3-1.2,15.7-7.2c2.3-5.5-0.3-12.3-5.8-16.1c-2-1.4-4.1-1.1-6.2-1.1c-32.3,0-64.7,0-97-0.1c-2.5,0-6.2,1.5-7.2-1.4
		c-1.1-3.3-1.2-7.3,0.9-10.7c1.6-2.6,3.8-4.6,6.7-5.8c4.5-1.9,6.7-5.6,6.7-10.2c0.1-25.2,0-50.3,0.1-75.5c0-2.6-1.4-3.3-3.4-4
		c-5.4-1.7-9.9-4.8-13.1-9.5c-1.6-2.4-2.7-5-2.8-7.9c-0.2-5.1,2.2-7,7.1-5.5c2.9,0.9,5.7,1.9,8.8,1.6c2.4-0.2,3.5-1.2,3.5-3.8
		c-0.1-22.7,0-45.3-0.1-68c0-6-2.4-11-8-14.1c-1.9-1.1-3.6-2.3-4.8-4.3c-2.1-3.6-3.2-7.9-1.7-11.5c1.3-3.1,5.4-1.2,8.2-1.3
		C1128.6,302.7,1145.4,302.8,1162.2,302.8z"/>
	<path class="st0" d="M431.8,122.2c-0.7,29.1-6.8,59.8-25.4,86.9c-5.2,7.6-11.5,14.3-19.2,19.4c-20.3,13.4-42.3,11.8-61.1-4.7
		c-16.7-14.7-25.7-34.1-31.8-55c-3.3-11.4-5.3-23-6-34.9c-0.2-3.3-1.1-4.9-4.4-6c-7.1-2.3-12.5-6.8-14.9-14.3
		c-0.9-2.9-1.1-5.7,1.1-8c2-2.1,4.3-0.7,6.5,0c1,0.3,1.9,0.6,2.9,0.9c6.5,1.5,8.2,0.4,8.9-6.2c2.7-24.3,8.7-47.4,22.1-68.3
		c4.4-6.9,9.6-13.1,15.9-18.5c21.2-18.3,47.6-18,68.1,1.2c17.7,16.6,26.7,37.8,32.3,60.9C430.3,89.9,431.7,104.4,431.8,122.2z
		 M329.9,117c0.4,23.2,1.9,45.2,7.8,66.8c2.4,9,5.5,17.9,11.2,25.4c6.6,8.8,14.5,8.9,21.5,0.3c3.4-4.2,5.8-9,7.6-14
		c7.4-20.1,9.8-41,11.2-62.2c0.2-3.1-1.2-4.3-3.8-4.7c-3.5-0.6-6.7-2.2-9.5-4.1c-4.8-3.3-8.4-7.7-8.8-13.8c-0.4-4.8,2.1-6.7,6.7-5.3
		c2.7,0.9,5.5,1.8,8.3,1.3c3.6-0.7,7.3-1.6,6.9-6.7c-1.3-17.6-3.4-35.1-8.8-52.1c-2.4-7.5-5.3-14.8-10.4-20.9
		c-6.1-7.3-13.2-7.4-19.5-0.3c-3.7,4.1-6.2,9-8.2,14.2C332.4,65.7,330.7,91.8,329.9,117z"/>
	<path class="st0" d="M377.4,302.8c11.5,0.5,25.6-1.3,39.4,0.9c25.8,4.1,45.7,16.2,54,42.5c8.5,26.9,0.3,56.2-20.2,71.9
		c-13.3,10.3-29.1,14.4-45.5,16.3c-4.4,0.5-10.3-1.4-12.7,2c-2.1,2.9-0.7,8.3-0.7,12.6c0,16.6,0.1,33.3,0,49.9
		c-0.1,7.2,1.9,12.9,8.7,16.7c4.3,2.4,6.8,12.3,5.1,17.3c-0.6,1.8-1.9,1.7-3.2,1.7c-21.3,0-42.6,0-64,0c-2.4,0-2.9-0.9-3.2-3.2
		c-0.6-6.8,1.7-11.8,7.9-14.6c4.6-2.1,6.8-5.8,6.8-10.7c0.1-25,0-50,0.1-75c0-2.6-1.2-3.4-3.4-4.1c-7-2.3-12.4-6.4-15.2-13.4
		c-1.2-3-1.8-6.2,0.6-9c2.3-2.6,4.9-0.5,7.4,0c1.3,0.3,2.6,0.8,3.9,1c5.6,0.7,6.7-0.3,6.7-6c0-20.7-0.1-41.3,0-62
		c0.1-8-2-14.6-9.6-18.8c-4.3-2.4-6.4-9.5-5.5-14.1c0.5-2.6,2.4-1.9,3.9-1.9C350.9,302.8,362.9,302.8,377.4,302.8z M392.9,368.5
		c0,11.8,0.1,23.6,0,35.4c0,2.7,0.6,3.8,3.5,4c13,0.8,25.3-6.1,30.1-18.1c6.2-15.6,6.2-31.6-0.7-47.1c-4.3-9.7-12-15.9-22.8-17.2
		c-6.8-0.8-10,2.3-10.1,9.1C392.9,345.9,392.9,357.2,392.9,368.5z"/>
	<path class="st0" d="M529.2,302.8c11.5,0.5,25.5-1.2,39.4,0.9c25.2,3.8,45.7,15.2,53.6,40.8c7.9,25.7,5.3,50.4-15.3,70.1
		c-13.7,13.1-31.3,17.7-49.7,19.8c-3.3,0.4-6.6,0.7-10,0.7c-2.7,0-3.4,1.1-3.4,3.6c0.1,21.2,0,42.3,0.1,63.5c0,5.5,2.5,9.8,7.3,12.8
		c5.3,3.3,8.2,12.6,6.2,18.1c-0.6,1.8-2,1.5-3.2,1.5c-21.2,0-42.3,0-63.5,0.1c-2.5,0-3.4-0.7-3.6-3.4c-0.6-6.8,1.8-11.7,8-14.6
		c4.8-2.2,6.7-6.1,6.7-11.2c0-24.5-0.1-49,0.1-73.4c0-3.1-1.2-4.3-3.9-5.2c-7-2.3-12.3-6.7-14.8-13.8c-1-2.8-1.5-6,0.9-8.5
		c2.2-2.3,4.7-0.6,7,0.1c0.8,0.2,1.6,0.5,2.4,0.7c6.8,1.6,8.4,0.4,8.4-6.4c0-20.7-0.1-41.3,0-62c0-7.7-2-13.9-9.3-17.9
		c-5.4-3-5.7-8.6-5.7-14.1c0-3,2.4-2.2,4-2.2C503,302.8,514.9,302.8,529.2,302.8z M544.9,368.8c0,11.7,0.1,23.3-0.1,35
		c0,3,0.9,4,3.9,4.2c13.7,0.6,25.8-6.9,30.5-19.8c5.1-14.1,5-28.4-0.1-42.5c-3.7-10.4-11-17.3-21.9-19.9c-8-1.9-12.3,1.6-12.3,9.6
		C544.9,346.5,544.9,357.7,544.9,368.8z"/>
	<path class="st0" d="M977.3,235.7c-10.7,0-21.3-0.1-32,0.1c-3.4,0.1-4.1-1.1-4.2-4.3c-0.1-5.4,1-9.7,6.5-12.3c4-1.9,5-5.7,4.1-9.8
		c-1.8-8.3-3.9-16.5-5.8-24.8c-0.5-2.2-1.6-3-3.8-3c-13,0.1-26,0.1-39,0c-2.2,0-3.3,0.8-3.8,3c-1.7,7.5-3.6,14.9-5.2,22.4
		c-1,4.7,0.1,9,4,12.1c5,4,3.9,9.5,3.8,14.8c0,1.9-1.7,1.8-3,1.8c-17.3,0-34.6,0-52,0c-1.1,0-2.2,0.1-2.8-1.4
		c-2.3-5.6,0.5-14.3,6.3-16.1c8.9-2.9,12.3-9.4,14.4-17.5c5.4-21.3,10.9-42.5,16.6-63.7c0.8-3.1,0.2-4.8-2.1-6.8
		c-4.9-4.3-8.8-9.5-10.8-15.9c-0.9-2.9-1.5-6.1,1-8.5c2.4-2.4,5-0.4,7.4,0.4c1.6,0.5,3.1,1.2,4.7,1.5c5.7,1.3,7.2,0.3,8.7-5.5
		c5.6-21.4,11.1-42.8,16.8-64.2c1.7-6.4,1.5-12.3-1.2-18.4c-3.2-7.3-2-9.7,5.6-12.3c5.8-2,11.7-3.8,17.6-5.6
		c7.3-2.2,11.4-0.2,13.5,7.4c3.9,14.3,7.5,28.6,11.3,43c13,49.6,26,99.1,38.8,148.7c1.9,7.4,5.9,12.9,12.7,16.4
		c5.9,3,8.8,7.6,8.4,14.5c-0.2,3.3-1.2,4.2-4.4,4.2C998.6,235.5,988,235.7,977.3,235.7z M923.4,88.7c-1.4,0.2-1.4,0.9-1.6,1.5
		c-4.9,20.4-9.8,40.8-14.7,61.1c-0.7,2.7,0.2,3.5,2.9,3.5c8.2-0.1,16.3-0.2,24.5,0.1c3.6,0.1,4.5-0.9,3.7-4.5
		c-3.6-14.7-7-29.5-10.5-44.2C926.2,100.4,924.8,94.5,923.4,88.7z"/>
	<path class="st0" d="M281.8,534.6c-10.3,0-20.6-0.1-31,0.1c-3.5,0.1-5-0.6-4.9-4.6c0-5.5,1-9.7,6.6-12.1c3.4-1.5,4.6-5,3.8-8.5
		c-1.8-9-4-17.8-6-26.8c-0.4-1.9-1.7-2.2-3.3-2.2c-13.2,0-26.3,0.1-39.5,0c-2.4,0-3.2,1.2-3.6,3.2c-1.6,7.1-3.4,14.2-5,21.4
		c-1.1,5.2-0.1,9.9,4.4,13.5c4.8,3.9,3.4,9.3,3.4,14.4c0,1.9-1.8,1.6-3.1,1.6c-17.2,0-34.3,0-51.5,0c-2.2,0-3.2-0.7-3.4-3.1
		c-0.8-9.8,0.5-12.2,9.7-16c5.9-2.4,8.5-7.3,10-12.9c5.6-21.1,10.9-42.2,16.7-63.2c1.5-5.3,1.4-9-3.3-12.8
		c-4.7-3.8-7.6-9.2-9.1-15.2c-0.6-2.6-0.6-5.1,1.4-7c2.1-2,4.3-0.7,6.5,0.1c1.1,0.4,2.2,0.8,3.3,1.2c7.2,2.5,9.4,1.4,11.3-5.8
		c5.6-21.4,11.1-42.8,16.9-64.2c1.6-6.1,1-11.7-1.5-17.5c-3.2-7.2-1.9-9.8,5.6-12.3c5.8-2,11.7-3.8,17.6-5.6
		c7.3-2.3,11.3-0.3,13.4,7.4c3.7,13.3,7,26.7,10.5,40.1c13.2,50.7,26.5,101.4,39.7,152.1c1.9,7.3,6,12.5,12.6,15.8
		c6.2,3.2,8.9,8.1,8.2,15.1c-0.3,2.8-1.2,3.7-3.9,3.6C303.5,534.5,292.6,534.6,281.8,534.6z M228,387.5c-0.4,0-0.9,0.1-1.3,0.1
		c-5,21.2-10.1,42.3-15.1,63.5c-0.8,3.2,1.5,2.7,3.2,2.7c8.2,0,16.3-0.1,24.5,0.1c3.6,0.1,4.3-1.1,3.4-4.3
		c-2.2-8.7-4.2-17.5-6.3-26.2C233.6,411.4,230.8,399.5,228,387.5z"/>
	<path class="st0" d="M136.8,333.7c0,10.3-0.1,20.6,0.1,31c0,2.8-0.8,3.7-3.6,3.7c-9.2,0.2-11.1-1-14.2-9.8
		c-2.6-7.2-3.7-14.9-6.7-22c-4.3-10.2-10.8-14.6-21.6-14.4c-15,0.2-24.6,13.1-20.1,27.5c4,12.8,12.8,22.9,20.8,33.3
		c11.5,14.9,24.5,28.6,35.3,44.1c11.2,16,18.8,33.2,18.4,53.3c-0.6,32.6-30.3,59.9-62.8,57.4c-8.5-0.7-16.7-2.6-25-4.8
		c-3.1-0.8-6.2-1.4-9.3-1.8c-3.2-0.4-6.3,0.1-9.2,1.5c-7.4,3.5-11.1,11-8.9,18.5c2,6.7,8.6,10.2,16.9,9c2.1-0.3,4.5-1.5,5.8,1
		c1.2,2.2-0.3,4.2-1.5,6c-6,9.4-19.5,13.2-31.7,9c-11.2-3.9-18-15.1-16.9-27.7c1.3-14.6,9.8-23.5,23.1-27.6c6-1.9,7.4-4.8,7.2-10.6
		c-0.4-14.6,0-29.3-0.2-44c-0.1-4.4,1.6-5.6,5.6-4.9c5.8,1,9.8,4.3,11.7,9.7c2,5.5,3.3,11.1,5,16.7c1.9,6.2,4,12.4,8.1,17.6
		c9.6,12.4,29.5,11.6,38.2-1.5c6.5-9.9,5.8-20.2,1.6-30.6C98.3,462.3,91,453,83.3,443.9c-1.2-1.4-2.5-2.7-3.6-4.1
		c-5.9-7.8-12.1-13.9-23.4-14.1c-8.3-0.1-15.2-5.6-19.6-13.1c-1.6-2.6-2.7-5.5-0.8-8.4c1.9-2.8,4.5-1.2,6.8-0.8
		c0.8,0.1,1.7,0.2,2.5,0.2c1.3-0.1,2.9,0.4,3.6-1.1c0.7-1.3-0.6-2.2-1.2-3.1c-4.8-7.4-9.1-15.1-12.1-23.5c-6.2-17.6-4.9-34.8,4-51.1
		c10.5-19.3,31-28,55.2-23.8c4.1,0.7,8.2,1.5,12.2,2.8c5.9,1.8,11.1,0.9,16.1-2.7c0.9-0.7,1.9-1.3,3-1.8c7-3.3,10.7-1,10.7,6.4
		C136.8,315.1,136.8,324.4,136.8,333.7z"/>
	<path class="st0" d="M1074.8,84c8.7-18.2,16.8-34.9,24.6-51.8c2.4-5.2,1.1-10.1-3.4-14c-1.7-1.4-3.2-2.9-4.2-4.9
		c-2.9-6-0.9-9.5,5.5-9.4c20.8,0.3,41.7-0.7,62.5,0.6c5.2,0.3,10.1,2.1,14.6,4.8c12,7.2,16,22.6,9.7,36.6
		c-5.3,11.7-19.7,17.8-32.5,13.7c-7.4-2.4-13.9-10.6-14.4-18.2c-0.3-4.8,2.3-6.6,6.7-4.6c2.5,1.1,5,2,7.7,1.6
		c4.5-0.6,8.6-2.3,10.3-6.8c1.4-3.7,0.5-7.4-2.6-10c-3.8-3.3-8.2-4.4-13-2.3c-4.5,1.9-7.5,5.4-10.2,9.3
		c-7.4,10.7-12.4,22.8-18.3,34.3c-9.2,17.7-18,35.7-27.1,53.4c-1.3,2.5-1.8,4.9-1.8,7.6c0.1,26,0.2,52-0.1,78
		c-0.1,6.9,2.1,12.2,8,15.5c6.2,3.5,7.5,8.7,7,15.2c-0.2,2.3-0.9,3.3-3.3,3.3c-21.6,0-43.3,0-64.9,0c-1.3,0-2.5,0.1-3-1.8
		c-1.6-6.4,0.6-13.4,6.2-16c7.5-3.4,9.4-8.8,9.3-16.4c-0.3-20.5-0.2-41,0-61.5c0-3.9-0.8-6.2-4.8-7.9c-7.4-3.2-13.9-8-17.9-15.3
		c-0.9-1.6-1.7-3.3-2.1-5c-1.1-4.9,1.6-7.8,6.6-6.9c3.2,0.6,6.3,0.5,9.4-0.4c2.4-0.6,3.4-1.5,1.9-4.2c-13.2-22.9-26.2-46-39.4-68.9
		c-2.6-4.5-6.6-7.9-10.9-10.8c-1.9-1.3-3.9-2.6-5.7-4c-3.7-2.9-3.7-7.3-2.8-11c0.8-3.3,4.6-1.6,7-1.6c21.5-0.1,43-0.1,64.5,0
		c2,0,5-1.2,5.9,1.1c1,2.9,1.2,6.3-0.6,9.1c-0.8,1.2-2,2.2-3.1,3.2c-5.3,4.6-6.8,8.7-4.1,15C1059,49.3,1066.7,65.9,1074.8,84z"/>
	<path class="st0" d="M845.7,368.2c0-10.3,0-20.7,0-31c0-7.8-2.1-14.3-9.6-18.3c-4.3-2.4-6.5-9.6-5.3-14.2c0.7-2.7,2.8-1.9,4.4-1.9
		c18.2-0.1,36.3,0,54.5,0c2.7,0,5.3,0.1,8,0c2.7-0.2,3.4,0.9,3.4,3.5c-0.1,5.2-0.8,10.2-5.8,13c-7.3,4-9.2,10.4-9.2,18
		c0,39.3,0,78.6,0,118c0,15.8,0.1,31.7,0,47.5c-0.1,6.7,1.7,11.8,8.3,15c5.8,2.8,7.8,8.5,6.5,14.8c-0.4,2.2-1.8,2.1-3.3,2.1
		c-21.2,0-42.3,0-63.5,0c-1.9,0-3-0.3-3.3-2.6c-0.9-7.3,0.8-11.7,7.3-14.8c5.7-2.8,7.4-7.3,7.4-13c0-9.7,0-19.3,0-29
		c0-13.7-0.2-27.3,0.1-41c0.1-4.2-0.9-6.6-5.3-8c-6.6-2.1-11.4-6.7-13.7-13.5c-1-2.8-1.3-5.7,0.8-8c2.1-2.4,4.6-0.8,6.9-0.1
		c1.4,0.4,2.9,0.9,4.3,1.1c5.7,0.8,6.8-0.2,6.8-5.9C845.7,389.2,845.7,378.7,845.7,368.2z"/>
</g>
</svg>
