<?xml version="1.0" encoding="utf-8"?>
<!-- Generator: Adobe Illustrator 19.0.0, SVG Export Plug-In . SVG Version: 6.00 Build 0)  -->
<svg version="1.1" id="Livello_1" xmlns="http://www.w3.org/2000/svg" xmlns:xlink="http://www.w3.org/1999/xlink" x="0px" y="0px"
	 viewBox="0 0 1200 854" style="enable-background:new 0 0 1200 854;" xml:space="preserve">
<style type="text/css">
	.st0{fill:#FFFFFF;}
</style>
<g>
	<path class="st0" d="M602,0c4,2,8.4,1.5,12.6,2.7c17.5,5,33.2,13.7,48.4,23.4c38.5,24.6,73.1,54.1,106.7,84.7
		c54.3,49.3,105.8,101.6,155,155.9c16.4,18.1,25.9,39.2,25.1,64.4c-0.5,14.8-0.7,29.6-2,44.4c-0.2,1.6-0.5,3.3-1.1,4.8
		c-2.4,6.5-6.8,8.1-12.4,4.1c-3.9-2.8-7.4-6.2-11.1-9.3c-64.6-55-130.9-107.8-202.9-153c-26.1-16.4-53-31.4-82.1-42
		c-15.1-5.5-30.6-9.3-46.9-7.4c-16.5,2-31.9,7.7-47,14.4c-40.3,18.1-77.2,42-113.2,67.2c-56.3,39.4-109.8,82.3-161.7,127.3
		c-0.9,0.8-1.7,1.6-2.7,2.2c-6.4,4.6-11.2,3.1-13.5-4.6c-0.9-3-1.5-6.2-1.6-9.3c-0.5-16.5-2.1-33-1-49.4c1.2-18.2,8.8-34.1,20-48.1
		c13.2-16.5,28.3-31.5,42.9-46.8c43.1-45.2,87.4-89.3,134.5-130.5c32.1-28.1,65-55.3,102-76.8c12.4-7.2,25.3-13.3,39.4-16.5
		c2.9-0.6,6.1,0.1,8.7-1.8C599.3,0,600.7,0,602,0z M269.9,333.6c0,5.5,0,11,0,16.5c0,1.1-0.2,2.5,1.1,3.1c1.3,0.6,2.1-0.6,3-1.3
		c2.4-2,4.8-4.1,7.2-6.1c56-47.1,113.5-92.3,175.1-131.8c33.5-21.5,67.9-41.4,105.9-54.2c23.4-7.9,46.7-8.9,70.5-1.6
		c28.5,8.9,54.8,22.2,80.5,37.1c53.1,30.9,102.3,67.4,150.5,105.4c20.9,16.5,41.5,33.5,61.8,50.7c1,0.9,2,2.7,3.7,1.7
		c1.3-0.7,0.9-2.4,0.9-3.7c0.1-5.8-0.1-11.7,0.3-17.5c1.4-20.9-7.2-38-20.6-52.9c-15.1-16.9-30.7-33.4-46.4-49.7
		c-52.8-54.9-107.3-108.1-166.9-155.7c-20.2-16.1-41-31.4-64.1-43.3c-8.9-4.6-18-8.6-28.1-9.9c-3.9-0.5-4.9,0.6-4.9,4.4
		c0.2,14-0.1,28-0.7,42c-0.6,13.9-6,24.3-19.3,29.8c-9.5,4-19,8.1-28.3,12.5c-93.6,43.9-179.3,100-257.1,168.1
		c-4.9,4.3-9.9,8.4-13.8,13.7C270.9,303.8,268.3,318.2,269.9,333.6z"/>
	<path class="st0" d="M1200,851c-11-0.9-22-0.2-32.9-0.4c-6.8-0.1-7.7-0.9-7.7-7.8c0-16.7,0.1-33.3-0.1-50
		c-0.2-15.8-10.1-28.8-24.7-32.4c-1.8-0.4-3.6-0.7-5.4-0.7c-13.5-0.1-27-0.1-40.5,0c-6.1,0-8,2-8.1,8.1c0,25.7-0.1,51.3,0.1,77
		c0,4.4-0.8,6.2-5.7,6c-9.8-0.4-19.7-0.3-29.5-0.1c-4.7,0.1-6.5-1.8-6.4-6.5c0.1-32,0-64,0.1-96c0-5.7,0.9-6.7,6.7-6.7
		c33-0.1,66-0.8,99,1.1c25.9,1.4,48.1,19.7,53.4,43.8c0.6,2.6-0.1,5.4,1.8,7.7C1200,813,1200,832,1200,851z"/>
	<path class="st0" d="M0,793c1.7-2.5,1.1-5.5,1.9-8.2c6.8-24,23.2-37.9,46.9-43.4c15.3-3.5,31.1-2.8,46.7-2.9c10-0.1,20,0.4,30,0.8
		c23.4,1,43,9.4,56.8,29.1c1.7,2.5,4.9,5.5,3.5,8.2c-1.1,2.2-5.2,0.8-8,0.8c-9.3,0.1-18.7,0-28,0.1c-3.4,0-5.9-1-8-3.9
		c-8.8-12.3-20.8-18.5-36-19.2c-10.2-0.5-20.3-0.9-30.3,1.3c-20.3,4.4-34.3,22.2-33.1,41.6c1.3,21.9,16.8,38,38.5,40.1
		c11.8,1.1,23.6,1.6,35.2-1.1c10.7-2.4,19.2-8.3,25.2-17.4c2.3-3.5,5-4.7,9.1-4.6c10.7,0.2,21.3,0.2,32,0c4.1-0.1,4.5,1.1,2.7,4.5
		c-9,17.8-23.9,27.6-42.9,31.9c-12.5,2.8-25.2,1.7-37.8,2.4c-2.5,0.1-5-0.2-7.4,0.9c-3,0-6,0-9,0c-2.3-1.1-4.9-0.8-7.4-1
		c-10.4-0.6-21,0.3-31.3-2.4c-23.5-6.1-40.9-18.9-47.5-43.5c-0.7-2.7-0.1-5.7-1.8-8.2C0,797,0,795,0,793z"/>
	<path class="st0" d="M250.4,581.4c-3.3-28.9,8.4-53.1,28.1-74.3c61.9-67,125.8-132,195.9-190.4c27-22.5,54.9-44,86.4-60
		c13.9-7,28.2-13,44.3-11.4c9.2,0.9,17.8,4,26.2,7.7c27,12.1,50.7,29.3,73.9,47.3c50.8,39.6,97.3,84.1,142.7,129.7
		c26.5,26.6,52.6,53.5,77.5,81.5c16,18.1,25.7,39,24.6,64c-0.6,13.8-0.5,27.6-1.3,41.4c0,0.2,0,0.3,0,0.5
		c-0.8,4.9-0.9,10.6-6.1,12.9c-5,2.2-8.7-1.7-12.3-4.8c-54.1-46.8-109.9-91.4-168.8-132.1c-35.4-24.4-71.6-47.5-111.4-64.3
		c-16.6-7-33.6-13-52-12.5c-18.8,0.5-36.1,7.1-53,14.6c-40.6,17.9-77.5,42-113.8,67.3c-56.6,39.5-110.3,82.8-162.6,127.9
		c-1.6,1.4-3.4,2.8-5.3,3.7c-4.1,1.9-7.5,0.7-9.6-3.4c-1.5-2.8-2.3-5.9-2.4-9.1C251.1,605.8,249.7,594,250.4,581.4z M269.7,579.9
		c0,4.7,0,9.3,0,14c0,1.3-0.5,2.9,0.8,3.7c1.7,1,2.7-0.8,3.7-1.7c10-8.3,19.9-16.8,29.9-25c54-44.2,109.4-86.7,169.1-123.2
		c28.4-17.4,57.7-33.1,89.5-43.8c23.8-8,47.4-8.7,71.4-1c28.1,9,54.2,22.2,79.5,37c63,36.9,120.8,81.1,177.3,127.1
		c11.9,9.7,23.6,19.6,35.4,29.4c1.2,1,3.8,3.9,3.8-0.4c0-11.8,1.9-23.7-0.4-35.4c-3-14.9-10.7-27.5-21-38.5
		c-17.1-18.4-34.2-37-51.7-55c-50.6-52.2-102.7-102.8-159.5-148.3c-20.7-16.5-42-32.3-65.7-44.4c-8.7-4.5-17.7-8.4-27.7-9.6
		c-3.4-0.4-4.7,0.7-4.6,4.3c0.2,13.8-0.2,27.6-0.7,41.5c-0.5,14.8-6.4,25.4-20.5,31.2c-9.5,3.9-19,8-28.4,12.4
		c-95.4,45-182.6,102.4-261.4,172.4c-9.6,8.5-15.7,18.8-18.5,31.2C268.5,564.9,269.1,572.4,269.7,579.9z"/>
	<path class="st0" d="M542.8,741.5c16.2,0,32.3-0.1,48.5,0c11,0.1,21.5,2.2,30.6,8.9c19.4,14.3,18.9,39.8-1.1,53.3
		c-4,2.7-8.5,4.6-13.1,6c-1.1,0.3-2.5,0.5-2.6,1.9c-0.1,1.5,1.3,1.8,2.3,2.2c6.1,2.8,11.8,6.2,16.6,10.9c6.4,6.2,10.8,13.4,12,22.5
		c0.3,2.6-0.1,3.6-2.9,3.6c-11.5-0.1-23-0.1-34.5,0c-2.8,0-3.7-1.1-4.2-3.7c-4.6-21.2-21.9-35.1-43.6-35.3
		c-11.7-0.1-23.3,0.2-35-0.1c-4.3-0.1-5.3,1.4-5.2,5.4c0.3,9.8,0,19.7,0.2,29.5c0.1,3.3-1.1,4.3-4.3,4.3c-10.3-0.2-20.7-0.2-31-0.1
		c-4.8,0.1-6.4-2-6.4-6.6c0.1-26.2,0.3-52.3-0.1-78.5c-0.2-13.9,8.4-24.1,24.4-24.1C509.8,741.5,526.3,741.5,542.8,741.5z
		 M546,793.3C546,793.3,546,793.3,546,793.3c10.7,0,21.3,0.2,32-0.1c9.6-0.2,16.9-7.8,16.9-16.9c0-8.6-7.3-16.3-16.2-16.5
		c-19.2-0.3-38.3-0.2-57.5,0c-6.8,0.1-10.5,4.4-10.6,11.3c-0.1,5.7,0.2,11.3-0.1,17c-0.3,4.3,1.5,5.3,5.5,5.2
		C526,793.1,536,793.3,546,793.3z"/>
	<path class="st0" d="M749.3,740.3c15.9,0.6,32-1.8,47.7,2.1c15,3.7,27.9,11,37.3,23.4c18,23.8,12,55.3-13.7,73.3
		c-11.6,8.2-24.6,12.4-38.8,12.5c-21.8,0.2-43.7,0.5-65.5-0.1c-19.3-0.6-35.9-8.1-48.6-23c-20.2-23.8-15.4-56.7,10.8-75.4
		c11.6-8.3,24.5-12.5,38.7-12.7C728,740.2,738.6,740.3,749.3,740.3z M750,837.4c6.6-0.3,13.3,0.5,19.9-1.1
		c19-4.4,33.1-20.8,33.5-39.2c0.4-19.4-11.6-35.2-31.3-40.5c-12.9-3.4-26.1-2.8-39.1-1c-19.8,2.8-33.5,16.7-35.8,36.6
		c-1.8,16,6.9,33,25.4,41.3C731.4,837.6,740.6,837.6,750,837.4z"/>
	<path class="st0" d="M940.4,741.5c22,0,44,0,66,0c7.7,0,8.3,0.6,8.3,8.1c0,10.5,0,10.5-10.7,10.5c-27.7,0-55.3,0-83,0
		c-2.3,0-4.7,0.1-7,0.4c-4.2,0.4-6.2,3-6.3,7c-0.1,4.5,0.2,9-0.1,13.5c-0.3,4.2,1.5,5.4,5.5,5.4c24-0.1,48-0.1,72-0.1
		c10.4,0,10.4,0,10.4,10.6c0,7.2,0,7.2-7.4,7.2c-24.7,0-49.3,0.1-74-0.1c-4.8,0-7.1,1.2-6.6,6.4c0.4,4.6,0.1,9.3,0.1,14
		c0,4.6,2.5,7.1,7,7.5c1.8,0.2,3.7,0.2,5.5,0.2c29.5,0,59,0.1,88.5-0.1c4.9,0,6.2,1.5,6.1,6.2c-0.4,12.2,1.7,12.5-12.6,12.5
		c-36.8-0.1-73.6-0.3-110.4,0.1c-17.5,0.2-26-11.4-25.6-25.5c0.7-25.1,0.2-50.3,0.2-75.5c0-7.7,0.5-8.3,8.1-8.3
		C896.4,741.4,918.4,741.5,940.4,741.5z"/>
	<path class="st0" d="M361,741.5c25.2,0,50.3,0,75.5,0c7.6,0,8.2,0.7,8.2,8.3c0,1.5,0,3,0,4.5c-0.1,8.9,1.6,8.3-8.7,8.3
		c-14.5-0.1-29-0.3-43.5-0.3c-9.4,0-10.8,1.5-10.8,10.7c0,24.2-0.1,48.3,0.1,72.5c0,4.2-1.2,5.4-5.3,5.3c-9.8-0.3-19.7-0.1-29.5-0.1
		c-5.8,0-6.8-0.9-6.8-6.6c0-18.3,0.1-36.7-0.1-55c-0.1-13.1-7.7-23.8-19.2-25.9c-6-1.1-12.3-0.7-18.4-0.9c-6-0.1-12,0-18,0
		c-6.5,0-6.6-0.1-6.6-6.8c0-2.3,0-4.7,0-7c0.1-6,1-6.9,7.1-6.9C310.3,741.4,335.7,741.5,361,741.5z"/>
	<path class="st0" d="M253.6,797c0,16.1-0.1,32.3,0.1,48.4c0,3.7-0.7,5.4-4.9,5.2c-10.1-0.3-20.3-0.2-30.5-0.1
		c-4.4,0.1-6.3-1.7-6.3-6.2c0.1-32.3,0.1-64.6,0-96.9c0-4.6,2-6.2,6.3-6.2c9.7,0.1,19.3,0.1,29,0c4.7-0.1,6.4,2,6.4,6.7
		C253.5,764.4,253.6,780.7,253.6,797z"/>
	<path class="st0" d="M916.1,698.3c6.5-0.3,12,1.8,17.1,5.2c8.2,5.5,10.6,5.5,18.9-0.1c9.5-6.4,19.5-7,29.8-2.4
		c4.1,1.8,7.7,4.7,7.5,9.6c-0.1,4.9-3.7,7.8-7.8,9.5c-9.6,4-19.5,4.2-28.1-1.9c-7.9-5.7-14.3-5.3-22.1,0.1c-9.2,6.4-19.5,5.9-29.4,1
		c-3.6-1.8-6.4-4.7-6.5-8.8c0-4.2,2.9-6.9,6.4-8.9C906.4,699.1,911.2,697.9,916.1,698.3z"/>
</g>
</svg>
