<?xml version="1.0" encoding="utf-8"?>
<!-- Generator: Adobe Illustrator 19.0.0, SVG Export Plug-In . SVG Version: 6.00 Build 0)  -->
<svg version="1.1" id="Livello_1" xmlns="http://www.w3.org/2000/svg" xmlns:xlink="http://www.w3.org/1999/xlink" x="0px" y="0px"
	 viewBox="0 0 2523.6 457.6" style="enable-background:new 0 0 2523.6 457.6;" xml:space="preserve">
<style type="text/css">
	.st0{fill:#FFFFFF;}
</style>
<g>
	<path class="st0" d="M2072.8,226.6c0-73.2,0-146.3,0-219.5c0-7.1,0-7.1,6.9-7.1c145.7,0,291.3,0,437,0c6.9,0,6.9,0,6.9,6.6
		c0,146.7,0,293.3,0,440c0,6.6,0,6.6-6.4,6.6c-146,0-292,0-438,0c-6.4,0-6.4,0-6.4-6.7C2072.8,373.3,2072.8,300,2072.8,226.6z
		 M2462,226.8c0-52.5,0-105,0-157.5c0-7.1,0-7.2-6.9-7.2c-104.6,0-209.3,0-313.9,0c-6.8,0-6.9,0-6.9,6.7c0,105.3,0,210.6,0,315.9
		c0,6.9,0,6.9,6.9,6.9c104.6,0,209.3,0,313.9,0c6.9,0,6.9,0,6.9-6.9C2462,332.1,2462,279.5,2462,226.8z"/>
	<path class="st0" d="M1371.3,358.1c1.9,1.5,4.4,1.6,6.7,2.4c21.2,6.8,31.7,19.7,32.7,40.3c1,20.2-10.1,37.6-29.2,45.7
		c-11.7,4.9-24.1,6.5-36.6,6.7c-24.3,0.5-48.6,0.1-73,0.3c-4.3,0-5.2-1.5-5.2-5.5c0.1-57.8,0.1-115.6,0-173.4c0-4.3,1-5.7,5.5-5.7
		c23.5,0.2,47-0.1,70.5,0.2c11.5,0.1,22.8,2,33.6,6.5c16.9,7.1,26.6,19.3,27.3,38.1c0.7,18.9-8.6,31.5-24.7,39.9
		c-2.5,1.3-5,2.5-7.5,3.8C1371.3,357.4,1371.4,357.7,1371.3,358.1z M1300.6,398.8c0,8,0,16,0,24c0,2.8,0.8,4.3,4,4.2
		c13.8-0.1,27.7,0.4,41.5-0.3c11.8-0.6,22.3-4.9,26.8-17.3c6.5-18.1-3.9-34.7-23.1-37.1c-15.1-1.9-30.3-0.5-45.4-1
		c-3.4-0.1-3.7,2-3.7,4.5C1300.6,383.5,1300.6,391.1,1300.6,398.8z M1300.6,320.1c0,6.8,0,13.6,0,20.5c0,2.7,0.6,4.4,3.9,4.4
		c12.8-0.1,25.6,0.3,38.4-0.2c12.9-0.5,21.3-6.4,24.1-15.9c4.8-15.8-4.8-30.3-21.5-32.6c-13.6-1.8-27.2-0.5-40.8-0.9
		c-3.1-0.1-4.1,1.5-4.1,4.3C1300.6,306.5,1300.6,313.3,1300.6,320.1z"/>
	<path class="st0" d="M0.1,360.6c0-28.8,0.1-57.6-0.1-86.5c0-4.4,1.3-5.7,5.7-5.7c23.2,0.3,46.3-0.1,69.5,0.6
		c15,0.5,29.6,4.1,43.1,11.1c21.2,11,33.6,28.8,38.7,51.8c4.8,21.3,4.4,42.7-1,63.7c-8.1,31.3-29.7,48.2-60.4,54.5
		c-10.9,2.3-22,3.2-33.2,3.1c-19-0.1-38-0.1-57,0.1c-4.2,0-5.3-1.3-5.3-5.4C0.2,418.9,0.1,389.8,0.1,360.6z M35.8,360.6
		c0,20,0,40,0,59.9c0,0.2,0,0.3,0,0.5c-0.2,3.2,0.4,5.4,4.5,5.4c12.5-0.2,24.9,0.2,37.4-1.5c23-3.2,38.3-17,43.5-39.4
		c2.9-12.4,3.5-25,1.9-37.6c-2.9-23.2-13.7-42.7-41.9-49.6c-12.7-3.1-25.7-3-38.7-2.9c-6.5,0-6.6,0-6.6,6.8
		C35.8,321.7,35.8,341.1,35.8,360.6z"/>
	<path class="st0" d="M913.3,345.2c2.8-1,3.3-2.9,4.4-4.3c12.5-16.7,29.7-21,48.9-16.7c18.4,4.1,30.6,15.6,34.3,34.7
		c0.4,2.1,0.5,4.3,0.5,6.4c0,27.5-0.1,55,0.1,82.5c0,4.5-1.3,5.8-5.6,5.6c-7.3-0.3-14.7-0.4-22,0c-4.7,0.2-6.3-1.1-6.3-6.1
		c0.2-22.5,0.2-45,0.1-67.5c0-4.8-0.2-9.7-1.1-14.4c-2.3-11.9-8.5-17.7-20.1-19.7c-10.5-1.8-22.3,3.4-28,12.6
		c-3.4,5.7-5.1,11.9-5.2,18.5c0,23.7-0.1,47.3,0.1,71c0,4.5-1.3,5.7-5.7,5.6c-8.2-0.3-16.3-0.2-24.5,0c-3.3,0.1-4.3-1-4.3-4.3
		c0.1-58.7,0.1-117.3,0-176c0-3.2,1-4.4,4.3-4.3c8.5,0.2,17,0.2,25.5,0c3.9-0.1,4.7,1.3,4.7,4.9c-0.1,22-0.1,44-0.1,66
		C913.3,341.4,913.3,343.2,913.3,345.2z"/>
	<path class="st0" d="M1111,396.6c-13.7,0-27.3,0.1-41-0.1c-4.6-0.1-6.2,1.5-5.8,6.1c0.5,5.8,1.7,11.5,3.9,16.9
		c7.8,19.4,33.2,20,44.1,11.7c5.3-4,8.6-9.3,9.6-15.8c0.4-2.8,1.5-3.5,4.1-3.5c8.2,0.1,16.3,0.2,24.5,0c3.5-0.1,4.4,1.3,4,4.4
		c-1.7,13.9-8.1,25-20.6,31.8c-14.6,8-30.6,9.7-46.9,8.6c-14.3-0.9-27.3-5.5-37.9-15.7c-10.4-10.1-15.3-22.8-17.6-36.7
		c-2.8-16.8-1.6-33.2,5.5-48.8c9.5-21,26.7-31.3,48.9-33.5c10.3-1,20.7-0.9,30.7,2.1c23,7,35.1,23.5,39.7,46.2
		c1.4,6.8,2,13.8,2,20.8c0,3.7-1.3,5.3-5.3,5.2c-14-0.2-28-0.1-42-0.1C1111,396.5,1111,396.5,1111,396.6z M1093.7,376
		c8.2,0,16.3,0,24.5,0c2.2,0,3.8-0.3,3.9-3.2c0.4-19.3-13-34.7-34.8-29.6c-12.3,2.8-22.8,17.8-21.8,30.1c0.2,2.8,2,2.6,3.8,2.6
		C1077.4,376,1085.6,376,1093.7,376z"/>
	<path class="st0" d="M262,396.6c-13.8,0-27.7,0.1-41.5-0.1c-4,0-5.6,1.1-5.3,5.4c0.4,5.2,1.2,10.2,3,15.1
		c6.2,17.2,26.3,24.7,42.3,15.8c6.9-3.8,11-9.7,12.2-17.3c0.5-3.1,1.8-3.7,4.6-3.6c7.7,0.1,15.3,0.4,23-0.1c4.9-0.3,5.7,1.8,5,5.9
		c-2.4,13.6-8.8,24.3-21.3,30.9c-14.6,7.6-30.4,9.3-46.5,8.1c-15.3-1.1-28.9-6.2-39.5-17.7c-8.9-9.6-13.3-21.3-15.5-34
		c-2.9-16.9-1.8-33.5,5.3-49.3c9.4-21.1,26.6-31.3,48.9-33.6c10.3-1,20.7-0.9,30.7,2.1c23.2,7,35.3,23.7,39.9,46.6
		c1.4,6.9,1.8,13.8,1.8,20.8c0,3.4-1.4,4.9-5.2,4.8c-14-0.2-28-0.1-42-0.1C262,396.5,262,396.5,262,396.6z M244.2,376
		c8.3,0,16.7,0,25,0c2.3,0,3.8-0.3,3.8-3.2c0.2-19.9-13.2-34.3-34.4-29.7c-12.6,2.7-22.4,16.4-22.3,29.8c0,3,1.7,3.1,3.8,3.1
		C228.2,376,236.2,376,244.2,376z"/>
	<path class="st0" d="M1523.5,436c-2.1,0.6-2.4,1.8-3.1,2.7c-7.4,11-18.2,16.5-30.8,18.3c-8.9,1.3-17.9,0.9-26.7-1.6
		c-15.4-4.4-25.3-14.3-27.7-30.1c-2.4-16.1,1.6-30.5,15.7-40.6c9.6-6.9,20.7-9.7,32.3-10.8c11.4-1.1,22.9-1.5,34.4-2
		c3.2-0.1,4.4-1.3,4.4-4.4c-0.1-9.1-0.9-18.1-9.7-23.2c-9.3-5.4-19.3-5.8-29.2-1c-5.8,2.9-8.9,8-9.6,14.3c-0.3,3.1-1.6,3.9-4.4,3.9
		c-8.3-0.1-16.7-0.1-25,0c-2.9,0-3.6-1-3.5-3.9c0.7-14.1,9.4-25.9,23.9-30.7c21.6-7.1,43.3-6.7,64.5,1.2c12.2,4.6,21.7,12.3,24.7,26
		c0.4,1.9,0.6,4,0.6,5.9c0,29.3,0,58.6,0.1,87.9c0,4.2-1.3,5.5-5.4,5.3c-6.5-0.3-13-0.2-19.5,0c-3.3,0.1-4.8-0.7-4.9-4.4
		C1524.7,444.8,1524,440.6,1523.5,436z M1511,390.7c-3.6,0.2-8.8,0.2-13.9,0.7c-7,0.7-13.8,2.2-19.7,6.3c-12.5,8.5-11.8,29,1.2,35.5
		c17.3,8.7,38.6-1.5,42.2-20.3c0.8-4.2,1.4-8.5,1.2-12.9C1521.6,391,1524.4,390.7,1511,390.7z"/>
	<path class="st0" d="M425,434.3c-1.9,0.5-2.1,1.6-2.5,2.4c-4.6,9-11.8,14.7-21.2,17.9c-10.7,3.6-21.6,4-32.4,1.2
		c-18.7-4.8-31.5-20.8-31.8-40.6c-0.5-28.3-0.1-56.7-0.3-85c0-3.3,1.2-4.3,4.4-4.2c8.5,0.2,17,0.3,25.5,0c4-0.1,4.7,1.4,4.6,5
		c-0.1,25.2-0.1,50.3,0,75.5c0,2.5,0,5,0.4,7.5c2.6,13.5,10.5,20,23.8,20.1c14.9,0.1,25.1-7.7,28.3-21.6c1.2-5.3,1.2-10.6,1.2-15.9
		c0-21.7,0.1-43.3-0.1-65c0-4.5,1.3-5.8,5.7-5.6c8.2,0.3,16.3,0.2,24.5,0c3.3-0.1,4.3,1.1,4.2,4.3c-0.1,39.5-0.1,79,0,118.5
		c0,3.4-0.8,4.8-4.5,4.7c-8.3-0.2-16.7-0.2-25,0c-3.3,0.1-4.4-1.2-4.4-4.4C425.6,444.2,425.2,439.3,425,434.3z"/>
	<path class="st0" d="M1624.3,345.3c2.3-0.4,2.7-1.6,3.3-2.5c13.4-20.4,44.9-24.6,63.7-15.3c12.9,6.3,20.2,17.1,20.9,31.2
		c1.4,30.1,0.3,60.3,0.6,90.5c0,3.3-1.3,4.3-4.5,4.3c-8-0.2-16-0.3-24,0c-4.4,0.2-5.8-1.1-5.7-5.6c0.2-23,0.1-46,0-69
		c0-4.5-0.2-9-1.1-13.4c-2.6-12.2-10.4-19-22.3-20c-11.6-1-22.9,5.6-27.5,16.1c-2.2,4.9-3.4,10-3.4,15.5c0,23.7-0.1,47.3,0.1,71
		c0,4.1-1,5.6-5.3,5.4c-8.2-0.3-16.3-0.2-24.5,0c-3.3,0.1-4.7-0.8-4.7-4.4c0.1-39.5,0.1-79,0-118.5c0-3.4,0.9-4.7,4.5-4.6
		c8.5,0.2,17,0.2,25.5,0c3.6-0.1,4.7,1.2,4.5,4.6C1624.2,335.3,1624.3,340.1,1624.3,345.3z"/>
	<path class="st0" d="M610.2,414.9c1.8,0,3.7,0,5.5,0c3.2,0,6.5-0.6,9.5,0.2c4.1,1.1,1.8,5.4,3.1,8.2c2.7,6,7.1,9.5,13.3,11
		c8.7,2.2,17.2,1.5,25.3-2.1c5.5-2.5,9.1-6.6,9.2-13c0.2-6.6-3.5-10.5-8.9-13.2c-7.7-3.9-16.2-4.7-24.4-6.6
		c-11.2-2.6-22.4-5.1-32.2-11.6c-20.6-13.6-21.2-39.4-1.2-53.8c10.4-7.6,22.4-10.9,35-11.8c12.5-0.9,25-0.7,37,3.8
		c14,5.3,22.3,16.6,22.2,30.1c0,2.9-0.8,4.3-4,4.2c-8-0.1-16,0-24,0c-1.7,0-3-0.1-3.8-2.3c-4.4-12.7-13.4-17.7-26.9-15.3
		c-4.1,0.7-8.1,1.7-11.6,4.3c-7.3,5.5-6.9,15.1,1,19.8c7.9,4.6,16.9,5.9,25.5,8.2c9.1,2.4,18.5,4.1,27.2,7.9
		c13,5.6,20.9,15.2,22.1,29.5c1.3,14.8-4.8,26.3-17.2,34.2c-15.9,10-33.7,11.7-51.9,10.4c-7.8-0.6-15.5-2-22.9-4.6
		c-15.3-5.5-24.3-17.8-24.3-33.1c0-3.2,0.9-4.5,4.3-4.3C601.5,415,605.9,414.9,610.2,414.9z"/>
	<path class="st0" d="M834,368.3c-1.3,0-2.7,0-4,0c-3.8-0.1-8.2,0.9-11.3-0.6c-3.3-1.6-1.8-6.5-3-9.9c-3.2-9.1-9.7-14.4-19.1-15.3
		c-10.9-1.1-20.6,1.5-26.8,11.7c-3.9,6.4-5.4,13.6-6,20.9c-1.3,14.8-0.7,29.5,4.5,43.8c6.2,17.1,22.2,19.8,35,15.5
		c8.3-2.8,11.6-9.9,13.6-17.8c0.2-0.6,0.2-1.3,0.2-2c0.2-5,2.4-7.1,7.8-6.7c6.8,0.6,13.7,0.4,20.5,0c4.5-0.2,5.4,1.6,5,5.5
		c-1.8,18-10.9,30.9-27.6,37.8c-18.7,7.7-37.9,8.2-57,1.2c-14.2-5.2-24.4-15-30-29c-8.4-21-9.2-42.6-1.7-63.9
		c8.2-23.2,25.8-34.9,49.9-37.7c12.8-1.5,25.3-0.3,37.3,4.2c16.3,6.2,26.1,17.8,28.8,35.2c1,6.3,0.5,7-5.7,7
		C841,368.3,837.5,368.3,834,368.3C834,368.3,834,368.3,834,368.3z"/>
	<path class="st0" d="M506,390.1c0-13.3-0.1-24.3,0.1-35.2c0.1-3.5-1.1-4.7-4.6-4.6c-6,0.2-12-0.2-18,0.1c-3.9,0.2-4.9-1.3-4.7-4.9
		c0.2-4.5,0.3-9,0-13.5c-0.3-4.3,1.5-5.4,5.5-5.2c5.8,0.3,11.7,0,17.5,0.1c3.2,0.1,4.7-1.1,4.3-4.3c0-0.3,0.1-0.7,0-1
		c-2.8-12.3,2.9-19,14.1-22.9c5.3-1.9,10.2-5,15-7.8c3.8-2.3,4.3-0.8,4.3,2.8c-0.1,9.3,0.1,18.7-0.1,28c-0.1,4.3,1.5,5.5,5.5,5.4
		c7.7-0.2,15.3,0.1,23-0.1c3.3-0.1,4.9,0.8,4.6,4.5c-0.3,4.8-0.3,9.7,0,14.5c0.3,3.9-1.4,4.8-4.9,4.7c-7.8-0.2-15.7,0.1-23.5-0.1
		c-3.4-0.1-4.7,1-4.7,4.6c0.1,20.1-0.1,40.3,0.1,60.4c0.1,12.6,6.5,18.6,19,18.7c2.5,0,5,0,7.5,0c6.5-0.2,6.6-0.2,6.4,6.1
		c-0.1,4.4,1.8,9.9-0.9,13.1c-2.5,3-8.1,2-12.3,2.5c-9.8,1.3-19.5,2.1-29.2-0.3c-14.3-3.5-21.5-12.4-23-27
		C505.4,414.8,506.6,401.3,506,390.1z"/>
	<path class="st0" d="M1782.3,361.2c0,28.8-0.1,57.6,0.1,86.5c0,4.8-1.5,5.9-5.9,5.7c-7.3-0.3-14.7-0.4-22,0
		c-4.9,0.3-6.2-1.6-6.2-6.3c0.2-36.8,0.1-73.6,0.1-110.5c0-20.7,0.1-41.3-0.1-62c0-4.4,1.1-6.3,5.9-6c7.5,0.4,15,0.3,22.5,0
		c4.3-0.2,5.7,1,5.7,5.5C1782.2,303.3,1782.3,332.3,1782.3,361.2z"/>
	<path class="st0" d="M1873.3,326c-6.4,6.8-12.1,12.8-17.8,18.8c-9.7,10.3-19.3,20.7-29.3,30.8c-2.8,2.8-2.5,4.6-0.2,7.4
		c17.3,21.5,34.5,43.2,51.7,64.8c1.2,1.5,2.4,3.1,4.3,5.6c-4,0-7.2,0-10.5,0c-10,0-20-0.1-30,0c-2.6,0-4.3-0.8-5.8-3
		c-16.3-22.3-32.6-44.6-49.1-66.8c-1.9-2.5-1.6-4.1,0.4-6.4c14.6-16.2,29.1-32.5,43.6-48.8c1.1-1.2,2.1-2.6,4.1-2.5
		C1847.3,326,1859.7,326,1873.3,326z"/>
	<path class="st0" d="M2425.6,108.6c-7.5,10-14.9,20-22.3,30c-50.1,67-100.2,133.9-150.2,200.9c-2.2,3-4.5,4.2-8.3,4.2
		c-22.5-0.2-45-0.1-67.5-0.1c-1.4,0-3.4,0.7-4.2-0.6c-0.9-1.5,0.9-2.6,1.8-3.8c56.7-76.2,113.4-152.3,170.1-228.5
		c1.3-1.7,2.5-2.8,4.9-2.8c24.8,0.1,49.7,0.1,74.5,0.1C2424.6,108,2424.8,108.3,2425.6,108.6z"/>
</g>
</svg>
