<?xml version="1.0" encoding="utf-8"?>
<!-- Generator: Adobe Illustrator 19.0.0, SVG Export Plug-In . SVG Version: 6.00 Build 0)  -->
<svg version="1.1" id="prefix__ipxl_logo" xmlns="http://www.w3.org/2000/svg" xmlns:xlink="http://www.w3.org/1999/xlink" x="0px"
	 y="0px" viewBox="-209 385 192.3 24" style="enable-background:new -209 385 192.3 24;" xml:space="preserve">
<style type="text/css">
	.st0{fill:#FFFFFF;}
</style>
<path id="prefix__Path_1971" class="st0" d="M-204.3,408.6h-4.7v-23.2h4.7V408.6z"/>
<path id="prefix__Path_1972" class="st0" d="M-182.7,386.5c1.8,1,3.2,2.5,4.2,4.2l-3.6,2.5c-1.3-2.4-3.9-3.9-6.6-3.9
	c-2-0.1-4,0.7-5.4,2.1c-1.4,1.5-2.2,3.5-2.1,5.5c-0.1,2,0.7,4,2.1,5.5c1.4,1.4,3.4,2.2,5.4,2.1c2.8,0,5.3-1.5,6.6-3.9l3.6,2.5
	c-1,1.8-2.4,3.2-4.2,4.2c-4.8,2.6-10.8,1.8-14.8-1.9c-4.7-4.7-4.8-12.3-0.1-17c0,0,0.1-0.1,0.1-0.1c2.3-2.3,5.5-3.5,8.8-3.5
	C-186.6,385-184.6,385.5-182.7,386.5z"/>
<path id="prefix__Path_1973" class="st0" d="M-170.5,408.6h-4.7v-23.2h4.7V408.6z"/>
<path id="prefix__Path_1974" class="st0" d="M-141.3,387.5c3,2.8,3.1,7.6,0.3,10.6c-0.1,0.1-0.2,0.2-0.3,0.3c-1.7,1.4-3.8,2.2-6,2.1
	h-4v8.2h-4.7v-23.2h8.7C-145.2,385.3-143,386.1-141.3,387.5z M-151.3,389.6v6.7h4c1,0.1,1.9-0.3,2.6-0.9c0.6-0.7,1-1.5,0.9-2.4
	c0-0.9-0.3-1.8-0.9-2.4c-0.7-0.6-1.6-1-2.6-0.9L-151.3,389.6z"/>
<path id="prefix__Path_1975" class="st0" d="M-125.1,405.6h-9.5l-1.3,3h-5.1l10.4-23.6h1.6l10.3,23.6h-5.1L-125.1,405.6z
	 M-129.9,393.9l-3.1,7.8h6.1L-129.9,393.9z"/>
<path id="prefix__Path_1976" class="st0" d="M-102.1,408.6l-6-8.2h-3.5v8.2h-4.7v-23.2h8.7c2.2-0.1,4.3,0.6,6,2.1
	c1.6,1.4,2.4,3.4,2.3,5.4c0,1.4-0.4,2.7-1.1,3.9c-0.7,1.1-1.8,2.1-3,2.6l6.6,9.1H-102.1z M-111.6,396.2h4c0.9,0.1,1.9-0.3,2.6-0.9
	c0.6-0.6,1-1.5,0.9-2.4c0-0.9-0.3-1.8-0.9-2.4c-0.7-0.6-1.6-1-2.6-0.9h-4V396.2z"/>
<path id="prefix__Path_1977" class="st0" d="M-89.9,408.6h-4.7v-23.2h4.7V408.6z"/>
<path id="prefix__Path_1978" class="st0" d="M-73.5,386.2c1.3,0.8,2.3,1.9,3,3.2l-3.2,2.5c-0.9-1.6-2.6-2.6-4.4-2.7
	c-0.7,0-1.4,0.2-2.1,0.6c-0.5,0.4-0.9,1-0.8,1.7c0,0.6,0.2,1.1,0.6,1.5c0.6,0.5,1.3,0.9,2.1,1.2l2.6,1.2c1.6,0.6,3.1,1.6,4.3,2.9
	c0.9,1.1,1.4,2.5,1.4,3.9c0.1,1.9-0.8,3.8-2.3,5.1c-1.7,1.3-3.7,2-5.8,1.9c-1.9,0-3.7-0.5-5.3-1.4c-1.5-0.9-2.8-2.2-3.7-3.7l3.3-2.5
	c1.6,2.2,3.5,3.4,5.7,3.4c0.9,0,1.7-0.2,2.4-0.7c0.6-0.4,0.9-1.1,0.9-1.9c0-0.4-0.1-0.9-0.4-1.2c-0.2-0.3-0.6-0.6-0.9-0.8
	c-0.3-0.2-0.9-0.5-1.6-0.8l-2.5-1.1c-1.6-0.7-3-1.6-4.2-2.8c-1-1-1.5-2.4-1.5-3.9c-0.1-1.8,0.7-3.6,2.2-4.8c1.6-1.2,3.5-1.9,5.5-1.8
	C-76.5,385-74.9,385.4-73.5,386.2L-73.5,386.2z"/>
<path id="prefix__Path_1979" class="st0" d="M-39.3,408.6l-4.9-7.7l-4.9,7.7h-5.4l7.7-11.8l-7.2-11.4h5.4l4.5,7.3l4.4-7.3h5.4
	l-7.1,11.4l7.6,11.8H-39.3z"/>
<path id="prefix__Path_1980" class="st0" d="M-26.8,404.3h10.1v4.3h-14.9v-23.2h4.7V404.3z"/>
</svg>
