<?xml version="1.0" encoding="utf-8"?>
<!-- Generator: Adobe Illustrator 19.0.0, SVG Export Plug-In . SVG Version: 6.00 Build 0)  -->
<svg version="1.1" id="Layer_2" xmlns="http://www.w3.org/2000/svg" xmlns:xlink="http://www.w3.org/1999/xlink" x="0px" y="0px"
	 viewBox="155.8 312.3 758.7 170.1" style="enable-background:new 155.8 312.3 758.7 170.1;" xml:space="preserve">
<style type="text/css">
	.st0{fill:#FFFFFF;}
</style>
<g>
	<g>
		<path class="st0" d="M369.7,388.4l36.6-50.9c1-1.4,1.7-1.9,2.6-1.9c0.5,0,0.7,0.2,2.1,0.9l12.5,6.3c1.7,0.9,2.3,1.4,2.3,2.3
			c0,0.7-0.4,1.4-1.2,2.4L389.8,394l39.5,49.3c0.9,1.1,1.2,1.9,1.2,2.4c0,1.1-0.2,1.4-2.3,2.4l-14.5,7.5c-0.4,0-0.5,0.2-0.9,0.2
			c-0.9,0.4-1.2,0.4-1.4,0.5h-0.2c-0.7,0-1.2-0.5-2.3-1.9l-39.4-52.1v47.5c0,3.1-0.5,3.5-3.5,3.5h-16.4c-3.1,0-3.5-0.4-3.5-3.5
			V340.7c0-3,0.4-3.5,3.5-3.5h16.4c3,0,3.5,0.5,3.5,3.5V388.4L369.7,388.4z"/>
		<path class="st0" d="M457.3,380.1l1.7-1.9c7.1-8.5,12-11.3,19.5-11.3c5,0,9.6,1.9,9.6,3.8c0,0.3-0.2,1.2-0.4,1.7l-5,13.8
			c-0.5,1.2-0.9,1.6-1.6,1.6c-0.2,0-0.5,0-1-0.2c-2.1-1.1-4.9-1.6-6.8-1.6c-3.6,0-7.7,2.4-12.9,8.2v56.3c0,2.6-0.4,3-3,3h-15.7
			c-2.4,0-2.8-0.4-2.8-3V399c0-8.7-1.2-14.6-4-21.1l-1-2.4c-0.2-0.5-0.4-1.1-0.4-1.4c0-0.9,0.5-1.6,1.6-1.9l13.8-4.9
			c0.9-0.2,1.4-0.3,1.9-0.3C453,367,455.6,372,457.3,380.1z"/>
		<path class="st0" d="M540.4,433v-59.2c0-2.4,0.2-2.6,2.4-3.1l15.9-3.5h0.7c0.3-0.2,0.7-0.2,0.9-0.2c1.2,0,1.6,0.9,1.6,2.8v62.4
			c0,8.4,0.7,12.2,3.3,17.1c0.2,0.7,0.3,1.2,0.3,1.6c0,0.9-0.3,1.2-1.6,1.4l-14.1,3.3c-0.4,0-0.5,0-0.9,0.2c-0.5,0-0.9,0-1,0
			c-1.9,0-3.8-3.3-5-9.2c-7.7,7.3-13.8,9.9-23.5,9.9c-8.5,0-15.2-2.6-19.2-7.3c-4.9-5.8-5.8-9.8-5.8-25.8v-49.5
			c0-2.4,0.4-2.6,2.6-3.1l15.7-3.5c0.5,0,1-0.2,1.4-0.2c1.4,0,1.9,0.9,1.9,2.8v52.6v1.6c0,11.3,2.6,15.3,10.3,15.3
			C531,439.3,535.3,437.4,540.4,433z"/>
		<path class="st0" d="M587.8,385.5h-11.5c-2.4,0-2.8-0.4-2.8-3v-9.8c0-2.6,0.3-3,2.8-3h30.2c2.4,0,2.8,0.4,2.8,3v77.7
			c0,2.6-0.3,3-2.8,3h-15.7c-2.6,0-3-0.4-3-3L587.8,385.5L587.8,385.5z M611.7,344.9c0,7.7-6.1,13.8-13.8,13.8
			c-7.5,0-13.6-6.1-13.6-13.8c0-7.5,6.1-13.6,13.8-13.6C605.6,331.3,611.7,337.4,611.7,344.9z"/>
		<path class="st0" d="M675.4,447.1c-7.5,6.1-15.5,9.2-23.7,9.2c-17.3,0-27.5-15.7-27.5-41.6c0-18.3,3-29.3,9.9-37.6
			c5.8-6.8,12.9-10.3,21.6-10.3c5.9,0,10.6,1.4,16.7,4.9v-34.3c0-2.4,0.2-2.6,2.4-3.1l15.9-3.3c0.7,0,1.2-0.2,1.6-0.2
			c1.2,0,1.6,0.9,1.6,3v98.8c0,7.1,0.3,8.7,3.1,14.6c0.2,0.5,0.3,0.9,0.3,1c0,0.7-0.5,1-1.6,1.6l-13.9,5.6c-0.7,0.2-1.4,0.3-1.8,0.3
			C678.3,455.7,676.4,452.2,675.4,447.1z M672.4,387c-4.2-2.1-8-3-12.2-3c-10.6,0-14.6,7.3-14.6,27.9c0,19.9,3.8,27.7,13.4,27.7
			c5,0,9.8-2.1,13.4-5.9L672.4,387L672.4,387z"/>
		<path class="st0" d="M740.9,434.2c2.1-10.4,4-18.1,5.9-24.6l11.8-38.7c0.5-1.9,0.9-2.4,2.1-2.4c0.2,0,0.5,0.2,1.2,0.2l14.1,1.7
			c1.9,0.2,2.6,0.7,2.6,1.7c0,0.3,0,0.5-0.2,0.9c-0.2,0.4-0.2,0.5-0.3,0.9l-28,80.5c-0.7,2.1-0.9,2.3-3.1,2.3h-13.9
			c-2.1,0-2.4-0.2-3.1-2.3L702.2,374c-0.3-0.9-0.5-1.4-0.5-1.8c0-1,0.7-1.4,2.8-1.7l16.5-1.7l0.7-0.2c0.3,0,0.5,0,0.7,0
			c1,0,1.4,0.5,1.9,2.4l11,38.7C737.1,416,738.6,422.9,740.9,434.2z"/>
		<path class="st0" d="M825.3,401.5v-5.2c0-9.8-2.6-12.7-11.3-12.7c-5.1,0-11,1.4-18.8,4.5c-0.5,0.2-1.4,0.3-1.7,0.3
			c-0.9,0-1.4-0.3-1.7-1.6l-3.7-10.3c-0.2-0.9-0.3-1.4-0.3-1.8c0-1.6,1.2-2.4,4.9-3.8c7.3-2.6,15.7-4.2,24-4.2
			c15.2,0,24.9,5.8,27.9,16.2c0.9,3.1,1,5.9,1,11v34.5c0,7.5,1.2,12.6,4,18.3c0.3,0.7,0.5,1.4,0.5,1.8c0,0.7-0.5,1.4-1.4,1.7
			l-13.2,5.4c-0.7,0.4-1.6,0.5-1.9,0.5c-1.7,0-3.3-3.1-5.2-10.1c-6.8,7-12.9,9.8-21.6,9.8c-15.5,0-25.4-9.9-25.4-25.6
			c0-11.7,4.7-19.5,14.3-23.9c7.7-3.5,14.5-4.7,28.4-4.9C823.9,401.5,825.3,401.5,825.3,401.5z M825.3,415.4h-1.7
			c-15.2,0-22,4.2-22,13.6c0,6.6,4.7,11.7,10.8,11.7c4.5,0,8.9-2.1,12.9-6.6V415.4z"/>
		<path class="st0" d="M868.9,369.8v-21.4c0-2.3,0.3-2.6,2.8-3l15.7-2.3c0.2,0,0.3,0,0.5,0c0.5,0,0.7-0.2,0.9-0.2
			c1.2,0,1.8,0.9,1.8,3v23.9h19.3c2.3,0,2.8,0.4,2.8,1.7c0,0.2,0,0.5,0,0.7c0,0.2-0.2,0.3-0.2,0.7l-2.3,9.9c-0.3,2.1-1,2.4-3,2.4
			h-16.7v41.3c0,8.9,1,10.8,6.3,10.8c3.3,0,4.9-0.3,11.1-2.8c0.5-0.4,1-0.4,1.4-0.4c0.9,0,1.4,0.5,1.7,1.7l2.8,11.8l0.2,0.9
			c0.2,0.4,0.2,0.5,0.2,0.9c0,1.4-0.7,2.1-2.4,2.8c-5.9,2.4-13.4,4-19.9,4c-9.9,0-17.3-4-20.6-11.2c-1.9-4.2-2.4-7.3-2.4-15.5v-44.4
			h-11.5c-2.6,0-3-0.4-3-2.8v-9.9c0-2.6,0.3-2.8,3-2.8H868.9z"/>
	</g>
	<g>
		<path class="st0" d="M240.2,481.7c-46.5,0-84.2-37.8-84.2-84.2s37.8-84.2,84.2-84.2s84.2,37.8,84.2,84.2S286.7,481.7,240.2,481.7z
			 M240.2,328.9c-37.8,0-68.6,30.8-68.6,68.6s30.8,68.6,68.6,68.6s68.6-30.8,68.6-68.6S278,328.9,240.2,328.9z"/>
	</g>
	<g>
		<circle class="st0" cx="203.6" cy="397.5" r="11.8"/>
		<circle class="st0" cx="230.2" cy="377.5" r="11.8"/>
		<circle class="st0" cx="256.8" cy="357.4" r="11.8"/>
		<circle class="st0" cx="256.8" cy="437.5" r="11.8"/>
		<circle class="st0" cx="230.3" cy="417.5" r="11.8"/>
	</g>
</g>
</svg>
