<?xml version="1.0" encoding="utf-8"?>
<!-- Generator: Adobe Illustrator 19.0.0, SVG Export Plug-In . SVG Version: 6.00 Build 0)  -->
<svg version="1.1" id="Livello_1" xmlns="http://www.w3.org/2000/svg" xmlns:xlink="http://www.w3.org/1999/xlink" x="0px" y="0px"
	 viewBox="0 0 530.9 322" style="enable-background:new 0 0 530.9 322;" xml:space="preserve">
<style type="text/css">
	.st0{fill:#FFFFFF;}
</style>
<g>
	<path class="st0" d="M269.1,0c4.5,4.6,9,9.3,13.7,13.8c1.7,1.6,1.7,2.8,0.7,4.8c-4.7,9.1-9.3,18.2-13.9,27.4
		c-0.5,1.1-1.5,2-1.2,3.8c5.9-2.6,11.7-5.2,17.4-7.8c4.8-2.2,9.6-4.2,14.3-6.6c2.2-1.1,3.6-0.7,5.2,1c3.7,3.9,7.5,7.7,11.3,11.5
		c1.2,1.2,1.4,2,0,3.3c-15,14.8-30,29.7-44.9,44.6c-1.6,1.6-2.5,1.3-3.9-0.2c-2.4-2.7-5-5.3-7.6-7.7c-1.7-1.6-1.6-2.6,0-4.2
		c6.2-6,12.2-12.1,18.4-18.2c1.1-1.1,2.6-2,3.9-2.9c-0.3-0.4-0.6-0.8-0.9-1.2c-4.8,2.2-9.6,4.3-14.5,6.5c-5.1,2.3-10.3,4.6-15.3,7
		c-2.1,1-3.5,0.9-5.2-0.8c-5.1-5.1-5.2-5-2.1-11.5c3.6-7.8,7.3-15.6,10.9-23.4c0.4-1,1.4-1.8,0.7-3.5c-6.7,6.4-13.2,12.7-19.7,19
		c-4.5,4.3-4.5,4.4-8.9-0.1c-2.1-2.2-6-4.1-5.8-6.8c0.2-2.3,3.7-4.4,5.8-6.5c13.1-13,26.2-26,39.3-39.1c0.7-0.7,1.7-1.1,1.7-2.3
		C268.6,0,268.9,0,269.1,0z"/>
	<path class="st0" d="M57.3,322c0.4-1.6,1.7-2.3,2.6-3.3c36.5-36.3,73.1-72.5,109.7-108.8c31.6-31.3,63.3-62.5,94.9-93.9
		c2.4-2.4,3.8-2.5,6.2,0c67.7,67.8,135.5,135.6,203.2,203.4c0.7,0.7,1.6,1.2,1.7,2.5C336.2,322,196.8,322,57.3,322z"/>
	<path class="st0" d="M485.2,252.6c-9.4,9.1-18.7,18.1-28,27.1c-4,3.9-2.8,4-6.7,0.1c-2-2-4-4.2-6.1-6.1c-1.7-1.5-1.6-2.5,0-4.1
		c12-11.8,23.9-23.7,35.9-35.6c2.8-2.8,5.7-5.6,8.5-8.4c1.2-1.3,2.2-1.8,3.6-0.2c4.4,4.6,8.9,9.1,13.5,13.5c1.5,1.5,0.9,2.9,0.5,4.5
		c-4.1,14.5-8.2,29-12.3,43.6c-0.2,0.6-0.3,1.2-0.5,1.9c1.5,0.1,2-1.1,2.7-1.8c8.8-8.7,17.6-17.3,26.3-26.1c1.9-1.9,3-2.5,4.9-0.1
		c2.5,3.2,7.9,5.6,7.8,8.9c-0.1,3-5,5.8-7.8,8.6c-12.4,12.3-24.9,24.6-37.2,37c-2.1,2.1-3.1,1.9-4.9-0.1c-2.9-3.2-6-6.4-9.2-9.3
		c-2.1-1.9-2.6-3.8-1.9-6.6c3.6-14.6,7-29.4,10.5-44C485,254.2,485.1,253.3,485.2,252.6z"/>
	<path class="st0" d="M368.6,197.1c-4.1-4.1-7.8-7.9-11.5-11.5c-1.2-1.2-0.8-2.5-0.5-3.8c2.7-12.4,5.5-24.9,8.2-37.3
		c0.2-0.7,0.2-1.4,0.3-2.2c-0.3-0.2-0.6-0.5-0.8-0.7c-4.7,4.9-9.4,9.9-14.2,14.8c-3,3-6.1,5.9-9,9c-1.4,1.5-2.4,1.8-3.9,0.1
		c-2.8-3-5.7-6-8.7-8.8c-1.9-1.7-1.3-2.6,0.2-4.1c14.8-14.5,29.5-29.1,44.2-43.7c1.5-1.5,2.4-1.8,4.2-0.1c8.7,9,17.6,17.7,26.3,26.7
		c6.9,7.1,5.5,19.9-2.7,26.3c-5.6,4.4-12,6.1-19,4.1c-2.5-0.7-3,0.3-3.6,2.2c-2.8,8.7-5.6,17.3-8.4,26
		C369.4,195,369.1,195.8,368.6,197.1z M390,143.7c0.1-1.5-0.4-2.8-1.3-3.8c-3.2-3.3-6.5-6.6-9.6-9.9c-1.2-1.2-1.9-0.5-2.7,0.3
		c-2.8,2.8-5.6,5.6-8.5,8.4c-0.9,0.8-1.5,1.6-0.4,2.8c2.8,2.8,5.4,5.9,8.4,8.5c2.8,2.5,6.1,2.7,9.4,1.1
		C388.3,149.6,389.9,147.1,390,143.7z"/>
	<path class="st0" d="M172.6,106.5c19.7-0.1,35.7,15.7,35.7,35.3c0,18.2-17,34.5-36,34.5c-18,0-34.4-16.6-34.4-34.8
		C137.9,121.5,152.6,106.6,172.6,106.5z M153.6,137.3c0.1,0.5,0.1,1.6,0.4,2.7c2,8.3,13.4,18.7,21.8,20.2c8.1,1.5,20.3-9,15.7-18.9
		c-3.5-7.6-8.8-14-16.3-17.9C165.5,118.3,153.6,125.7,153.6,137.3z"/>
	<path class="st0" d="M169,192.9c-4.1,4.1-7.7,7.7-11.3,11.3c-1.5,1.5-3.1,0.6-4.6,0.2c-11.2-2.9-22.4-5.9-33.6-8.9
		c-1-0.3-2-0.9-3.6-0.1c4.5,4.6,8.9,9.2,13.3,13.7c3.1,3.2,6.2,6.5,9.4,9.6c1.4,1.4,1.8,2.3,0.1,3.9c-3.1,2.7-6,5.7-8.8,8.6
		c-1.4,1.4-2.3,1.6-3.9,0c-14.7-15-29.5-29.8-44.3-44.7c-1.5-1.5-1.1-2.3,0.2-3.5c7.8-7.6,15.3-15.4,23.3-22.8
		c11-10.2,27.5-6.9,32.1,6.1c1.4,4,1.8,8.1,0.8,12.2c-0.8,3.1,0,4.4,3.3,5.4C150.4,186.6,159.3,189.8,169,192.9z M116.5,171.6
		c-0.6,0.1-1.5,0.1-2.3,0.5c-4.3,2.1-7.4,5.9-10.8,9.1c-1,0.9-0.1,1.6,0.5,2.2c2.9,3,6,6,8.9,9.1c1,1,1.7,1.2,2.8,0.2
		c2.6-2.7,5.5-5.1,7.9-7.9c2.1-2.4,2.3-5.3,0.7-8C122.6,173.9,120.4,171.7,116.5,171.6z"/>
	<path class="st0" d="M363.9,96c-0.8,0.9-1.4,1.6-2.1,2.3c-2.4,2.3-4.7,6.3-7.3,6.5c-2.8,0.3-4.8-4.1-7.2-6.4
		c-4.1-4-8.1-8.1-12.1-12.3c-1.3-1.4-2.2-1.4-3.6,0c-6.2,5.8-6.3,5.8-0.4,11.9c2.9,3,5.7,6,8.7,8.7c2,1.8,1.9,3-0.1,4.6
		c-2.1,1.8-4.1,3.7-5.8,5.8c-1.6,1.9-2.6,1.5-4.1-0.1c-4-4.3-8.3-8.3-12.3-12.6c-1.5-1.6-2.5-2-4.1-0.1c-2.5,2.9-7.2,5.4-7.5,8.4
		c-0.4,3.2,4.6,5.6,7.2,8.4c3.4,3.7,7,7.2,10.6,10.6c1.5,1.5,2.1,2.5,0.1,4.2c-2.7,2.3-5.1,6.6-8,6.9c-3,0.3-5.3-4.3-7.8-6.9
		c-7.9-7.8-15.7-15.8-23.6-23.6c-1.6-1.6-2.1-2.6-0.2-4.4c14.8-14.5,29.5-29.1,44.2-43.8c1.6-1.6,2.5-1.7,4.2,0
		c9.8,10,19.7,19.9,29.5,29.9C362.7,94.5,363.2,95.2,363.9,96z"/>
	<path class="st0" d="M81.7,201.5c-0.8,0.8-1.4,1.6-2.2,2.3c-5.4,5.3-10.8,10.7-16.4,15.9c-1.7,1.6-1.9,2.6,0,4.1
		c2.5,2,4.2,6.3,7,6.1c2.4-0.1,4.6-3.8,6.9-5.9c2.8-2.7,5.6-5.3,8.3-8.1c1.5-1.6,2.5-1.4,3.9,0.2c1.9,2.2,3.9,4.2,6,6.2
		c1.5,1.3,1.4,2.2,0,3.6c-4.5,4.2-8.7,8.6-13.2,12.8c-1.7,1.6-2.2,2.7-0.1,4.4c2.2,1.9,4.2,3.9,6,6.2c1.8,2.2,2.9,1.7,4.7-0.1
		c5.5-5.6,11.2-11,16.8-16.6c1.5-1.5,2.6-1.9,4.2-0.1c2.2,2.6,6.1,4.7,6.4,7.4c0.3,2.6-3.9,4.7-6.2,6.9c-8.1,8-16.3,15.8-24.3,23.9
		c-1.9,1.9-3,1.7-4.7-0.1c-14.3-14.5-28.7-28.9-43.2-43.2c-2-1.9-2.1-3,0-4.9c9.7-9.2,19.2-18.6,28.7-28c1.9-1.8,3.1-2.5,5,0
		c1.6,2.1,3.6,3.8,5.4,5.7C80.9,200.4,81.3,200.9,81.7,201.5z"/>
	<path class="st0" d="M218.2,50.7c2.7,11.1,5.8,22.2,7.9,33.4c1.7,8.9,5.2,16.2,12.2,21.9c2.8,2.3,5,5.2,7.7,7.7
		c1.6,1.5,2,2.5,0.1,4.1c-3,2.6-5.9,5.4-8.6,8.4c-1.5,1.6-2.4,1.4-3.9,0c-5.2-5.4-10.6-10.6-15.9-15.9c-1.5-1.6-3.2-2.6-5.3-3.2
		c-11.7-3.7-23.3-7.4-34.9-11.2c-1.4-0.5-2.8-1-4.2-1.5c4.1-4.2,8-8.3,12-12.4c1.1-1.2,2.4-0.2,3.5,0.2c7.1,2.6,14.3,5.2,21.4,7.8
		c1.1-1,0.4-2,0.2-2.9c-1.9-7-3.9-13.9-5.9-20.9c-0.4-1.4-0.5-2.5,0.7-3.7c4-4.1,7.8-8.4,11.6-12.6
		C217.2,50.2,217.7,50.5,218.2,50.7z"/>
	<path class="st0" d="M438.5,171.3c-0.7,0.8-1.3,1.5-2,2.2c-10.6,10.5-21.1,21-31.7,31.4c-2,2-2.4,3.1-0.1,5.2
		c5.2,4.9,9.9,10.2,15.2,15.1c2.6,2.4,2.4,3.9-0.2,6c-2.5,2.1-4.7,4.5-6.9,6.9c-1.3,1.4-2.2,1.5-3.6,0.1
		c-9.8-10-19.7-19.9-29.6-29.8c-1.2-1.2-1.3-2,0-3.3c15-14.8,30-29.7,45-44.6c0.9-0.9,1.7-1.9,3-0.5c3.3,3.4,6.7,6.8,10,10.1
		C437.8,170.3,438.1,170.8,438.5,171.3z"/>
	<path class="st0" d="M79.3,279.8c0.1,1.1-0.7,1.5-1.2,2c-9.8,9.6-19.7,19.2-29.5,28.8c-1.4,1.3-2.2,1.4-3.6,0
		c-14.6-15.1-29.3-30.1-44-45c-1.6-1.7-1.2-2.5,0.2-3.8c2.8-2.5,5.6-5,8-7.9c1.9-2.2,3-1.6,4.7,0.2c10.6,11,21.3,21.8,31.8,32.8
		c1.9,2,2.9,1.9,4.7,0c5.1-5.2,10.5-10,15.5-15.3c2.4-2.5,3.8-2.3,5.8,0.2c2,2.4,4.3,4.5,6.5,6.8C78.6,279,79,279.4,79.3,279.8z"/>
	<path class="st0" d="M432,260.4c-1.2,0-1.7-0.9-2.3-1.5c-2.7-2.6-5.2-5.4-8-7.9c-1.9-1.7-1.9-2.9,0-4.7
		c11.7-11.4,23.2-23,34.8-34.5c3.1-3.1,6.3-6.1,9.3-9.3c1.4-1.5,2.4-1.7,3.9-0.1c2.8,3,5.7,6,8.7,8.8c1.3,1.2,1.3,2,0,3.3
		c-15.1,14.9-30.1,29.9-45.2,44.8C432.9,259.7,432.4,260.1,432,260.4z"/>
</g>
</svg>
