<?xml version="1.0" encoding="utf-8"?>
<!-- Generator: Adobe Illustrator 19.0.0, SVG Export Plug-In . SVG Version: 6.00 Build 0)  -->
<svg version="1.1" id="Livello_1" xmlns="http://www.w3.org/2000/svg" xmlns:xlink="http://www.w3.org/1999/xlink" x="0px" y="0px"
	 viewBox="356.3 -693 556.4 648.7" style="enable-background:new 356.3 -693 556.4 648.7;" xml:space="preserve">
<style type="text/css">
	.st0{clip-path:url(#SVGID_2_);fill:#020201;}
	.st1{clip-path:url(#SVGID_4_);fill:#50B053;}
	.st2{clip-path:url(#SVGID_6_);fill:#50B053;}
	.st3{clip-path:url(#SVGID_8_);fill:#50B053;}
	.st4{clip-path:url(#SVGID_10_);fill:#CFF24D;}
	.st5{clip-path:url(#SVGID_12_);fill:#CEF04D;}
	.st6{clip-path:url(#SVGID_14_);fill:#4FAE53;}
	.st7{clip-path:url(#SVGID_16_);fill:#CFF14D;}
	.st8{clip-path:url(#SVGID_18_);fill:#4FAF53;}
	.st9{clip-path:url(#SVGID_20_);fill:#307539;}
	.st10{clip-path:url(#SVGID_22_);fill:#153831;}
	.st11{clip-path:url(#SVGID_24_);fill:#CFF24D;}
	.st12{clip-path:url(#SVGID_26_);fill:#CEF14D;}
	.st13{clip-path:url(#SVGID_28_);fill:#4FAE53;}
	.st14{clip-path:url(#SVGID_30_);fill:#153831;}
	.st15{clip-path:url(#SVGID_32_);fill:#CEF04D;}
	.st16{clip-path:url(#SVGID_34_);fill:#307439;}
	.st17{clip-path:url(#SVGID_36_);fill:#163931;}
	.st18{clip-path:url(#SVGID_38_);fill:#CEF04D;}
	.st19{clip-path:url(#SVGID_40_);fill:#CEF14D;}
	.st20{clip-path:url(#SVGID_42_);fill:#153730;}
	.st21{clip-path:url(#SVGID_44_);fill:#153831;}
	.st22{clip-path:url(#SVGID_46_);fill:#4FAE53;}
	.st23{clip-path:url(#SVGID_48_);fill:#153730;}
	.st24{clip-path:url(#SVGID_50_);fill:#173930;}
	.st25{clip-path:url(#SVGID_52_);fill:#F21140;}
	.st26{clip-path:url(#SVGID_54_);fill:#4EAD52;}
	.st27{clip-path:url(#SVGID_56_);fill:#153730;}
	.st28{clip-path:url(#SVGID_58_);fill:#F21140;}
	.st29{clip-path:url(#SVGID_60_);fill:#F21140;}
	.st30{clip-path:url(#SVGID_62_);fill:#F21140;}
	.st31{clip-path:url(#SVGID_64_);fill:#F21140;}
	.st32{clip-path:url(#SVGID_66_);fill:#F21140;}
	.st33{clip-path:url(#SVGID_68_);fill:#153730;}
	.st34{clip-path:url(#SVGID_70_);fill:#F21140;}
	.st35{clip-path:url(#SVGID_72_);fill:#F21140;}
	.st36{clip-path:url(#SVGID_74_);fill:#F21140;}
	.st37{clip-path:url(#SVGID_76_);fill:#F21140;}
	.st38{clip-path:url(#SVGID_78_);fill:#F21140;}
	.st39{clip-path:url(#SVGID_80_);fill:#F21140;}
	.st40{clip-path:url(#SVGID_82_);fill:#F21140;}
	.st41{clip-path:url(#SVGID_84_);fill:#F21140;}
	.st42{clip-path:url(#SVGID_86_);fill:#F21140;}
	.st43{clip-path:url(#SVGID_88_);fill:#F21140;}
	.st44{clip-path:url(#SVGID_90_);fill:#F21140;}
	.st45{clip-path:url(#SVGID_92_);fill:#F21140;}
	.st46{clip-path:url(#SVGID_94_);fill:#F21140;}
	.st47{clip-path:url(#SVGID_96_);fill:#F21140;}
	.st48{clip-path:url(#SVGID_98_);fill:#F21140;}
	.st49{clip-path:url(#SVGID_100_);fill:#F21140;}
	.st50{clip-path:url(#SVGID_102_);fill:#F21140;}
	.st51{clip-path:url(#SVGID_104_);fill:#F21140;}
	.st52{clip-path:url(#SVGID_106_);fill:#F21140;}
	.st53{clip-path:url(#SVGID_108_);fill:#F21140;}
	.st54{clip-path:url(#SVGID_110_);fill:#F21140;}
	.st55{clip-path:url(#SVGID_112_);fill:#F21140;}
	.st56{clip-path:url(#SVGID_114_);fill:#F21140;}
	.st57{clip-path:url(#SVGID_116_);fill:#F21140;}
	.st58{clip-path:url(#SVGID_118_);fill:#F21140;}
	.st59{clip-path:url(#SVGID_120_);fill:#F21140;}
	.st60{clip-path:url(#SVGID_122_);fill:#F21140;}
	.st61{clip-path:url(#SVGID_124_);fill:#F21140;}
	.st62{clip-path:url(#SVGID_126_);fill:#F21140;}
	.st63{clip-path:url(#SVGID_128_);fill:#F21140;}
	.st64{clip-path:url(#SVGID_130_);fill:#F21140;}
	.st65{clip-path:url(#SVGID_132_);fill:#F21140;}
	.st66{clip-path:url(#SVGID_134_);fill:#F21140;}
	.st67{clip-path:url(#SVGID_136_);fill:#F21140;}
	.st68{clip-path:url(#SVGID_138_);fill:#F21140;}
	.st69{clip-path:url(#SVGID_140_);fill:#F21140;}
	.st70{clip-path:url(#SVGID_142_);fill:#F21140;}
	.st71{clip-path:url(#SVGID_144_);fill:#F21140;}
	.st72{clip-path:url(#SVGID_146_);fill:#F21140;}
	.st73{clip-path:url(#SVGID_148_);fill:#F21140;}
	.st74{clip-path:url(#SVGID_150_);fill:#F21140;}
	.st75{clip-path:url(#SVGID_152_);fill:#F21140;}
	.st76{clip-path:url(#SVGID_154_);fill:#F21140;}
	.st77{clip-path:url(#SVGID_156_);fill:#F21140;}
	.st78{clip-path:url(#SVGID_158_);fill:#F21140;}
	.st79{clip-path:url(#SVGID_160_);fill:#F21140;}
	.st80{clip-path:url(#SVGID_162_);fill:#153831;}
	.st81{clip-path:url(#SVGID_164_);fill:#307539;}
	.st82{clip-path:url(#SVGID_166_);fill:#307539;}
	.st83{clip-path:url(#SVGID_168_);fill:#153831;}
	.st84{clip-path:url(#SVGID_170_);fill:#153831;}
	.st85{clip-path:url(#SVGID_172_);fill:#50B053;}
	.st86{clip-path:url(#SVGID_174_);fill:#307539;}
	.st87{clip-path:url(#SVGID_176_);fill:#153831;}
	.st88{clip-path:url(#SVGID_178_);fill:#030403;}
	.st89{clip-path:url(#SVGID_180_);fill:#020502;}
	.st90{clip-path:url(#SVGID_182_);fill:#CFF24D;}
	.st91{clip-path:url(#SVGID_184_);fill:#020502;}
	.st92{clip-path:url(#SVGID_188_);fill:#020202;}
	.st93{clip-path:url(#SVGID_190_);fill:#FCFCFC;}
	.st94{clip-path:url(#SVGID_192_);fill:#F5F5F5;}
</style>
<g>
	<g>
		<g>
			<defs>
				<rect id="SVGID_1_" x="270.5" y="-712.2" width="723" height="686"/>
			</defs>
			<clipPath id="SVGID_2_">
				<use xlink:href="#SVGID_1_"  style="overflow:visible;"/>
			</clipPath>
			<path class="st0" d="M584-625.9c0.4-4.5,0.6-9.1,1.2-13.7c0.9-7.2,2-14.4,3.2-21.6c0.7-3.9,1.7-7.7,2.9-11.5
				c1.3-4.1,2.9-8.2,4.6-12.2c0.4-0.9,1.5-1.6,2.4-2c7.5-3.4,15.5-4.2,23.6-4.6c8.4-0.3,16.9-1,25.3-0.7c10.5,0.4,21,1.6,31.5,2.8
				c6.2,0.7,12.4,1.9,18.6,3c5.9,1.1,11.8,2.3,17.7,3.5c4.3,0.9,8.7,1.9,13,3c7.1,1.9,14.1,3.8,21.1,5.9c5.8,1.7,11.5,3.7,17.2,5.7
				c5.9,2.1,11.9,4.3,17.7,6.8c6.4,2.8,12.8,5.6,18.9,9c5.6,3.1,10.7,7.1,16.2,10.5c1,0.6,2.3,0.7,3.5,1c4.3,1.2,8.7,2.1,12.9,3.6
				c5.6,2,11.1,4.4,16.5,7c1.7,0.8,2.8,2.7,4.3,3.9c1.4,1.1,3,2,4.5,2.9c2.4,1.6,4.8,3,7.1,4.7c2.8,2.1,5.7,4.3,8.3,6.7
				c1.7,1.6,3,3.7,4.6,5.4c0.7,0.8,2,1,2.7,1.8c1.4,1.9,2.5,3.9,3.8,5.9c0.2,0.3,0.7,0.3,0.9,0.6c0.9,1.1,1.6,2.4,2.5,3.5
				c1.7,2.2,3.4,4.3,5,6.6c0.5,0.7,0.5,1.7,0.9,2.5c1.5,3.1,3.2,6.1,4.7,9.3c1.1,2.2,1.8,4.6,2.8,6.9c-0.2,0.1-0.4,0.3-0.6,0.4
				c0.6,0.1,1.1,0.2,2,0.4c-0.5,0.5-0.8,0.9-0.9,1c0.5,1.2,0.9,2.4,1.4,3.4c0.6,1.2,1.4,2.3,1.8,3.6c0.3,1,0.1,2.1,0.1,3.6
				c0.5,1.8,1.2,4.1,1.8,6.5c0.5,1.7,0.9,3.5,1.2,5.3c0.4,3,0.6,6.1,0.9,9.1c0.2,2.3,0.5,4.6,0.5,6.9c0,2.4-0.4,4.9-0.5,7.3
				c-0.1,2.8,0.1,5.6-0.3,8.3c-0.3,2.8-1.2,5.6-1.7,8.4c-0.1,0.7,0.2,1.5,0.1,2.2c-3.2,14.1-8.8,27.2-15.6,39.7c0,0-0.2-0.3-0.2-0.2
				c-1.7,2.5-3.8,4.8-5.1,7.5c-1.8,3.6-4.6,6.5-4.4,11.4c0.3,7.5-0.6,15.1-1.4,22.7c-0.7,6.1-1.8,12.2-2.9,18.3c-0.9,5-2,10-3.1,15
				c-0.7,3.2-1.5,6.4-2.5,9.5c-0.5,1.7-1.4,3.1-3.6,3.3c-1.8,0.2-3.5,0.9-5.1,1.7c-6.1,3-12.5,4.8-19,6.3c-1.7,0.4-3.7,1.5-4.8,2.9
				c-5.7,7.5-12,14.3-19.5,19.9c-6,4.5-12.2,8.5-19.4,11c-1.6,0.5-2.9,1.6-4.4,2.3c-1.7,0.7-3.4,1.8-5.1,1.8
				c-8.6,0.2-17.3,0.4-25.9-0.1c-6.3-0.4-12.7-1.7-18.9-2.9c-4.6-0.9-9-2.2-14-3.5c0.8,1.9,1.4,3.4,2.1,5c1.9,4.3,3.9,8.5,5.7,12.8
				c3.4,8.5,5.4,17.3,7.2,26.3c1.8,9.1,2.1,18.3,2,27.4c-0.1,6-0.3,12-1.3,17.9c-1,6.3-2.7,12.4-4.4,18.6c-1.4,5-3,10.1-5,14.9
				c-2.1,4.9-4.7,9.7-7.2,14.4c-1.4,2.7-2.8,5.5-4.5,8c-2.4,3.6-5.1,7-7.9,10.4c-2.1,2.6-4.2,5.1-6.5,7.5c-2.9,3-5.8,6-8.8,8.8
				c-2.7,2.5-5.5,4.9-8.3,7.3c-1.7,1.4-3.5,2.5-5.4,3.6c-2.6,1.6-5.4,3-8,4.6c-2.4,1.4-4.7,3-7.1,4.5c-1.9,1.1-3.7,2.3-5.7,3.1
				c-4.1,1.8-8.3,3.3-12.3,5.1c-7.8,3.3-16,4.9-24.2,6.5c-14.9,3-29.7,2.6-44.6,1.1c-4.4-0.5-8.8-1.3-13.2-1.8
				c-0.7-0.1-1.9,0.5-2.3,1.1c-2.7,4-5.4,8-7.9,12.1c-1.8,2.9-3.2,6-4.9,8.9c-2.6,4.2-5.3,8.4-7.9,12.6c-2.5,4-5,8.1-7.5,12.1
				c-1.6,2.6-3.2,5.1-4.8,7.7c-1.7,2.8-3.2,5.6-5,8.3c-1.1,1.6-2.5,3-3.7,4.6c-1.3,1.6-2.5,3.3-3.9,4.9c-3,3.5-5.9,7.3-9.4,10.2
				c-2.3,1.9-5.1,3.7-8.7,3.2c-2.2-0.3-4.5,0.8-6.7,0.4c-5.8-1-11.1-2.4-14.5-8.4c-1.8-3.1-2.2-6.1-2.7-9.2c-0.8-4.9,0.3-9.5,3-13.7
				c2.5-3.9,5-7.8,7.4-11.7c2.1-3.5,4.1-7.2,6.2-10.7c2.9-4.9,5.8-9.8,8.6-14.8c2.6-4.6,4.9-9.2,7.5-13.8c2-3.5,4.1-7,6.1-10.4
				c0.4-0.7,0.6-1.5,1-2.2c-5.1-1.6-9.9-3-14.7-4.8c-5.9-2.2-11.6-4.8-17.4-7.3c-3.6-1.5-7.2-3.1-10.7-4.9c-4.6-2.4-9-5-13.5-7.5
				c-2.7-1.5-5.4-3.1-7.9-4.8c-3.9-2.6-7.7-5.2-11.4-7.9c-4.8-3.5-9.6-7.1-14.2-10.8c-2.7-2.2-5.1-4.8-7.7-7.3
				c-2.6-2.5-5.4-4.8-7.9-7.4s-4.9-5.3-7.3-8.1c-2.8-3.3-5.7-6.5-8.4-9.9c-2.5-3.1-4.8-6.3-7-9.5c-3-4.3-6-8.5-8.7-13
				c-2.7-4.5-4.9-9.3-7.5-13.8c-3.9-6.9-7.2-14-9.7-21.4c-1.9-5.5-3.8-10.9-5.8-16.3c-2.8-8-4.9-16.2-6.2-24.5
				c-1.1-7.2-2-14.4-3.2-21.6c-2.4-14.2-1.7-28.5-0.8-42.7c0.5-8,1.9-16,3.1-23.9c0.7-4.6,1.7-9.2,2.9-13.8c1.8-7.1,3.8-14.2,6-21.2
				c1.9-5.9,4.2-11.6,6.5-17.4c1.9-4.6,3.8-9.3,6-13.8c3-6,6.2-11.9,9.5-17.7c2.2-3.9,4.8-7.6,7.2-11.3c2.4-3.8,4.8-7.7,7.4-11.3
				c2.5-3.5,5.3-6.9,8-10.2c3.7-4.5,7.3-9,11.2-13.4c3.3-3.7,6.7-7.2,10.2-10.7c3.7-3.6,7.4-7.2,11.3-10.7c2.2-2,4.5-3.8,6.8-5.7
				c2.9-2.4,5.7-4.7,8.6-7c2.1-1.7,4.3-3.4,6.5-5c2.5-1.8,5.1-3.7,7.7-5.3c3.8-2.5,7.6-4.8,11.5-7.2c3.8-2.3,7.7-4.5,11.5-6.8
				c1.3-0.7,2.6-1.4,3.9-2.1c3.5-1.8,6.9-3.7,10.5-5.4c3.5-1.6,7-3,10.6-4.5c6-2.5,11.9-4.9,18-7.3c1.8-0.7,3.7-1,5.5-1.5
				c4.8-1.3,9.6-2.7,14.4-4c4.2-1.1,8.4-2,12.7-3.1C577.5-624.2,580.7-625,584-625.9 M526.3-153.4c-0.3,0-0.6,0-1-0.1l0,0
				c-1.2-1.1-2.3-2.3-3.5-3.3c-5.2-4.7-10.6-9.2-15.7-14c-3.7-3.4-7.4-6.9-10.5-10.9c-4.5-5.8-8.8-11.8-12.6-18.1
				c-3.6-6-6.6-12.4-9.4-18.9c-2.3-5.3-4.3-10.9-5.7-16.5c-1.7-6.5-3.3-13.2-4-19.9c-2-18.6-1.5-37.2,3.7-55.4
				c2.1-7.4,5.2-14.5,8-21.6c1.2-3.1,2.6-6.2,4.3-9.1c4.2-7,8.6-13.8,13.7-20.2c5.6-7,12.1-13.1,18.6-19.2
				c6.5-4.5,12.9-9.3,19.6-13.5c5.1-3.2,10.5-5.8,15.9-8.3c4-1.9,8.3-3.1,12.5-4.7c1.5-0.5,2.9-1.1,4.4-1.4c4.6-1.1,9.3-2.3,14-3
				c5.1-0.8,10.2-1.5,15.3-1.5c8.9-0.2,17.9,0,26.8,0.3c3.9,0.1,7.7,0.9,11.2,1.3c-2.3-6.4-5.2-12.7-6.8-19.2
				c-1.3-5.4-1.3-11.2-1.8-16.9c1.3-2.5,1.9-2.6,4.8-0.9c0.4,2.5,0.7,5,1.1,7.5c0.8,4.5,1,9.2,2.5,13.4c2.6,7.7,6,15,10.9,21.6
				c2.7,3.6,5.1,7.4,8,10.8c4.8,5.5,10,10.8,15.2,16.4c1.7-2.5,2.8-3.9,3.7-5.6c1.8-3,3.4-6.2,5.1-9.2c1.4-1.9,3-3.7,4.2-5.7
				c3.1-5,6.1-10,9.3-15.3c-2-2.8-4-5.8-6.2-9c-2.5,2.3-4.7,0.5-6.6-0.6c-0.8-0.5-1.5-2.2-1.3-3.2c0.1-0.7,1.7-1.4,2.8-1.6
				c1-0.2,2.1,0.1,3.1,0.2c2-0.8,3.3-2.1,4-4.3c0.6-2.1,2.5-2.5,4.3-1.9c1.8,0.5,2,2.2,1.4,3.7c-0.5,1.4-1.5,2.7-2.1,4
				c-0.2,0.5-0.6,1.3-0.4,1.5c1.3,1.8,2.8,3.6,4.4,5.5c2.1-3.1,4-5.8,5.8-8.5c0.3-0.4,0.4-1.4,0.1-1.7c-1.7-2-3.2-4.4-5.4-5.6
				c-2.4-1.3-3-3.6-4.6-5.3c-2.2-2.3-3.6-5.4-5.6-8c-2.4-3.2-5.1-6.2-5.9-10.3c-0.1-0.3-0.4-0.6-0.6-1c-1.2-2-2.6-3.8-3.5-5.9
				c-1.2-2.6-2-5.3-2.9-8c-1.2-3.6-2.3-7.2-3.4-10.9c-0.3-0.9-0.9-1.8-1-2.8c-0.7-5-1.5-10-2-15c-0.2-2.1,0-4.3,0.1-7.2
				c-1.4-4.8,0.2-10.4,0.3-15.9c0.1-5.4,1.5-10.8,2.6-16.1c1.1-5,2.7-9.9,4-15c0.3-0.1,0.8-0.2,0.9-0.2c1-6.3,5.1-11.2,7.2-16.9
				c0.6-0.9,1.1-1.8,1.4-2.8c0.1-0.3,0-0.7,0.1-0.9c1.7-2.5,3.3-5.3,5.4-7.5c2.7-2.9,4-6.9,7.3-9.3c0.9-0.7,1.4-2,2.3-2.6
				c0.8-0.5-0.2-3.2,2.2-1.8c1.2-1.8,2.4-3.6,3.6-5.4c0.2-0.3,0.2-0.9,0.5-1.1c2.5-1.9,5-3.7,7.5-5.6c1.6-1.2,2.9-2.7,4.3-4.2
				c2.3-2.5,5.6-4.1,8.6-5.9c2.5-1.5,4.3-3.9,7.5-4.4c0.7-0.1,1.2-1.3,1.7-1.9c1.7-0.8,3.9,0,5.3-2.3c0.8-1.3,3.6-1.3,5.4-2
				c2.9-1.2,5.8-2.5,8.7-3.9c4.2-1.9,9.1-1.8,12.9-4.6c0.1-0.1,0.3-0.3,0.4-0.3c2.4,1.7,4.4-0.8,6.6-0.7c2.5,0.1,4.9,0,7-1.7
				c0.3-0.2,1-0.2,1.4-0.1c0.7,0.1,1.3,0.3,2,0.5c-2.4-1.4-4.9-2.5-7.5-3.4c-6.4-2.1-12.7-4.2-19.2-6.1c-7.6-2.2-15.3-4.2-23-6.3
				c-3.6-1-7.3-2-11-2.7c-8-1.5-16.1-2.8-24.1-4.2c-5.3-0.8-10.7-1.8-16-2.3c-5.7-0.6-11.4-0.9-17.1-1c-9.2-0.2-18.5,0.1-27.6,2
				c-6.5,1.3-12.8,2.9-18.3,7c-3,2.2-4.6,5-4.9,8.5c-0.8,7.6,2.3,13.8,6.9,19.5c0.4,1.9-0.1,3.3-2.1,3.8s-3.2-0.2-4.1-2.2
				c-1.1-2.3-2.8-4.4-4-6.7c-2.4-4.8-3.9-9.7-3-15.4c1.2-7.6,6.1-12.1,12.2-15.5c6-3.4,12.8-4.7,19.5-6c4.4-0.8,8.9-1,13.4-1.1
				c11.6-0.1,23.2-0.3,34.7,1.8c6.8,1.3,13.7,2,20.6,3.1c5.4,0.9,10.7,2.1,16,3.2c4.6,1,9.1,2,13.7,3.2c7.4,1.9,14.7,3.9,22,6.1
				c6.1,1.8,12.2,3.9,18.2,5.9c6.1,2.1,12.1,4.7,18.3,6.4c4.1,1.2,8.5,1.3,12.8,1.8c0.1-0.3,0.1-0.5,0.2-0.8c-3.7-2-7.5-4.1-11.3-6
				c-3.1-1.5-6.2-2.9-9.4-4.3c-5.7-2.5-11.3-5.1-17.1-7.3c-6.3-2.4-12.7-4.4-19.1-6.4c-7.1-2.2-14.2-4.1-21.3-6.1
				c-4-1.1-8-2.1-12-2.9c-5.6-1.2-11.2-2.3-16.8-3.4c-4.7-0.9-9.4-1.9-14.1-2.5c-10.6-1.3-21.2-2.8-31.9-3.5
				c-12.2-0.8-24.5-1.5-36.7,0.8c-4.3,0.8-8.7,1.3-13,2.2c-1.3,0.3-2.9,1.2-3.5,2.3c-1.2,2.2-2,4.7-2.7,7.1c-1.1,3.8-2.2,7.6-3,11.4
				c-1.2,6.1-2.3,12.2-3,18.3c-0.9,8.1-1.5,16.3-1.9,24.4c-0.3,6.6-0.1,13.1-0.2,19.7c0.2,6.6,0.4,13.3,0.8,19.9
				c0.4,7,0.3,14,2.1,20.9c1.5,5.8,2.1,11.8,3.2,17.7c1.2,6.4,3.2,12.6,6.9,18.1c1.1,1.6,0.5,3.5-0.9,4.4c-1.5,1-3.2,0.6-4.2-1.2
				c-0.9-1.6-2.2-3.2-2.8-4.9c-2.2-6.6-4.4-13.3-6.1-20c-1.4-5.3-2-10.7-3-16c0-0.6,0-1.2,0-1.7c-0.5-10.5-1.1-20.9-1.6-31.4
				c-0.1-1.3,0-2.6,0-4.1c-1.1,0.2-1.7,0.2-2.3,0.4c-5.2,2.2-10.4,4.2-15.5,6.6c-4,1.9-7.9,4.2-10.5,8c-1.1,1.5-2,3.1-3.1,4.6
				c-2.8,3.7-2.7,7.9-0.9,11.7c2.6,5.6,5.7,10.9,8.6,16.3c0.4,0.8,0.9,1.5,1.4,2.2c2.2,5.8,2.1,11.7,0.4,17.6
				c-0.7,2.6-1.9,5.2-3.5,7.3c-2.3,3.1-5.3,5.5-9,6.8c-0.9,0.2-1.8,0.2-2.7,0.5c-3.4,1.4-8.9,0.7-11.1-2.2
				c-3.2-4.3-6.5-8.7-8.8-13.5c-2.8-5.6-4.7-11.6-6.9-17.5c-1.7-4.6-4-8.9-7.1-12.7c-1.3-1.6-8.1-4.5-10.7-3.6
				c-4.7,1.7-9.3,3.1-12.1,8c-1.9,3.3-2.4,9.2,0.3,11.9c3.8,3.7,7.8,7.1,11.6,10.8c3.3,3.2,7.1,5.9,9.3,10.2c0.7,1.5,2,2.7,2.9,4.1
				c1,2,2.1,3.9,3,5.9c2.5,5.7,5.1,11.3,7.2,17.1c1.5,4.2,2.7,8.6,3.2,12.9c0.9,7.4,1.5,14.9,1.8,22.3c0.3,7.3-1.2,14.5-3.5,21.4
				c-1.7,5.1-3.6,10.2-5.7,15.2c-1.4,3.3-3.3,6.3-5,9.4c-2.3,1.3-4.4,3-6.8,3.7c-6.4,2-12.5-2.2-15.7-7.7
				c-3.5-5.9-5.3-12.5-6.9-19.1c-1.1-4.6-1.9-9.4-2.5-14.1c-1.2-10.4-2-20.8-3.2-31.1c-0.6-5.2-0.8-10.3-3-15.4
				c-2.7-6.5-6.2-11.9-12.3-15.6c-2.9-1.8-7.8-1.7-10.7-0.2c-3.6,1.9-5.8,5.1-8.1,8.1c-1.1,1.4-2,3-2.7,4.6
				c-1.2,2.5,1.2,6.4,3.2,7.9c1.7,1.3,3.5,2.4,4.9,3.9c2.9,3.2,5.9,6.5,7.3,10.8c1.4,4.1,2.8,8.1,4.2,12.2
				c1.3,9.5-0.5,18.2-6.6,25.9c-0.4,0.3-0.9,0.4-1.2,0.8c-2.3,2.5-5.1,3.9-8.5,4.3c-4.8,0.6-9-0.1-11.9-4.9
				c-2.5-4.1-5.7-7.8-8.7-11.6c-1.4-1.9-2.7-3.8-4.4-5.4c-2.4-2.3-5-4.3-7.6-6.4c-3.6-2.8-6.5-2.4-8.8,1.4
				c-2.1,3.5-4.2,7.2-5.5,11.1c-3.5,10.8-1.1,21.3,3,31.5c1.5,3.7,3.6,7.2,4.5,11c1,4.2,1.5,8.7,1.4,13.1c-0.1,4.2-0.5,8.7-2.3,12.4
				c-2.2,4.7-5.2,8.9-10.5,11.5c-5.9,3-10,1.3-13.1-2.8c-2.1-2.8-3.5-6.2-4.5-9.6c-1.5-5.1-2.5-10.4-3.6-15.6
				c-0.7-3.1-3.7-5.3-6.1-3.8c-1.4,0.9-3,2.6-3.3,4.2c-1.3,6.3-2.4,12.7-3.2,19c-2.1,18.3-2,36.6,1.8,54.8
				c1.5,7.2,3.2,14.4,5.7,21.4c2.6,7.4,4.6,15.1,7.1,22.5c1.6,4.8,3.4,9.7,5.6,14.3c3,6.3,6.2,12.5,9.8,18.5c4.2,7,8.5,14,13.3,20.7
				c4.2,5.9,9.4,11,13.8,16.8c5.8,7.6,13.6,13.1,20.4,19.7c1.2,1.2,2.5,2.3,3.8,3.4c2.4,1.9,4.7,3.8,7.2,5.6
				c0.7,0.5,1.8,0.7,2.6,1.1c0.6,0.9,1,2,1.8,2.6c3.7,2.6,7.4,5.1,11.2,7.5c6,3.7,12,7.4,18.2,10.7c5.4,2.9,10.9,5.4,16.5,7.7
				c7.2,3,14.5,5.6,21.8,8.3c2.1,0.8,4.2,1.4,6.3,2c0.4,0.1,1.3,0,1.5-0.3c0.7-1.4,1.2-3,1.8-4.4c-0.4-0.2-0.7-0.3-1.1-0.5l0,0
				c-1-0.7-2-1.3-3-2l0,0C527.7-152.4,527-152.9,526.3-153.4 M717.9-348.4c5.5,2,10.9,4.2,16.4,5.9c4.9,1.5,9.8,2.8,14.8,3.8
				c5,1.1,10,2.3,15.1,2.6c8.9,0.5,17.9,0.5,26.9,0.5c1.4,0,2.9-0.9,4.3-1.4c4.9-2.2,10.1-3.9,14.7-6.6c5.2-3.1,9.9-7.2,14.9-10.8
				c2.8-2.9,5.7-5.9,8.4-8.8c0.6-0.6,1-1.5,1.4-2.2c-8,0.5-15.6,1.3-23.2,1.5c-4.8,0.1-9.7-0.7-14.5-0.9c-10.3-0.3-20.4-2-30.3-4.6
				c-6.5-1.7-12.9-3.8-19.2-6.2c-5.4-2.1-10.6-4.9-16.2-7.5c-6.8,10.3-13.7,20.8-20.6,31.5C713.3-350.5,715.6-349.5,717.9-348.4
				 M749.3-381.4c4.3,1.6,8.5,3.5,12.8,4.9c4.8,1.5,9.7,2.7,14.7,3.6c6.7,1.2,13.4,2.3,20.1,2.8c10.4,0.8,20.8,0.9,31.3-0.6
				c10.3-1.4,20.5-3,30.3-6.8c3.3-1.3,6.6-2.6,9.8-4c0.5-0.2,0.8-1,1-1.6c1.1-4.8,2.3-9.6,3.2-14.5c1.1-5.6,1.9-11.2,2.9-16.8
				c0.5-2,1.2-4,1.5-6c0.4-2.4,0.6-4.8,0.8-7.2c0.3-4.6,0.6-9.2,0.9-14.3c-2,1.6-3.5,2.7-4.9,4c-0.7,0.7-1,1.8-1.8,2.5
				c-1.4,1.2-3.1,2-4.4,3.3c-1.5,1.4-2.3,3.3-4.7,4c-2.3,0.7-2.6,4.6-5.9,4.3c-0.1,0-0.2,0.4-0.4,0.6c-0.7,0.7-1.3,1.4-2.1,1.9
				c-1.3,0.9-2.8,1.6-4.2,2.4c-4.6,2.8-9.1,5.8-13.9,8.3c-1.8,0.9-3.6,2.5-6,1.9c-0.5-0.1-1.3,0.1-1.7,0.4c-2.7,2.8-7.2,2-9.9,4.7
				c-0.1,0.1-0.5,0-0.7,0.1c-2.2,0.7-4.4,1.5-6.6,2.3c-0.4,0.1-1,0.2-1.2,0.1c-1.3-1.5-2.3-0.3-3.4,0.3c-0.8,0.5-1.8,0.7-2.8,0.8
				c-3.8,0.4-7.6,0.7-11.4,1.1c-0.7,0.1-1.3,0.6-2,0.7c-2.4,0.2-4.8,0.2-7.3,0.4c-1,0.1-2,0.4-2.9,0.4c-3.5,0-7,0.1-10.5-0.1
				c-1.6-0.1-3.2-0.7-4.8-1.1c-3.6-0.8-7.2-1.2-10.8-1.9c-2.3-0.5-4.4-1.5-6.6-2.2c-1.8-0.5-3.5-0.4-4.7,1.3
				c-2.2,3.3-4.3,6.6-6.4,10c-2,3.1-1.9,3.1,1.3,4.8c0.3,0.2,0.5,0.4,0.8,0.6C742.2-384.5,745.8-382.9,749.3-381.4 M733.9-439.5
				c-0.3,2.1,1.7,1.3,2.6,2c0.1,0,0.2,0.1,0.3,0.1c0.4,0.1,0.7,0.3,1.1,0.4c4.2,1.8,8.3,3.5,12.5,5.2c1.3,0.5,2.7,0.9,4,1.3
				c3.2,0.9,6.5,1.8,9.7,2.5c2.9,0.6,6,0.9,8.9,1.4c1.7,0.3,3.4,0.8,5.1,0.7c3-0.2,6-0.7,9-1.1c2.1-0.3,4.2-0.6,6.3-0.9
				c3.4-0.4,6.9-0.4,10.2-1.1c3.6-0.7,7-2,10.5-3.1c2.3-0.7,5.1-0.9,6.6-2.5c2.4-2.4,5.8-2.5,8.4-4.6c3.1-2.5,7.3-3.8,10.4-6.6
				c1.2-1.1,2.5-2.1,3.8-3.1c2.1-1.6,4.3-3.1,6.4-4.7c1.1-0.8,1.9-1.9,2.9-2.9c1.1-1.1,2.2-2.1,3.1-3.3c1.4-1.7,2.2-4,3.9-5.2
				c3.5-2.5,5.4-6.3,7.5-9.6c1.5-2.2,2.5-4.8,4.2-7c0.9-1.8,1.9-3.5,2.6-5.3c2-5.6,3.9-11.2,5.7-16.9c0.9-2.9,1.3-5.8,1.8-8.8
				c0.5-3.4,0.8-6.9,1-10.4c0.1-0.7-0.4-1.5-0.7-2.3c1.2-1,1.9-6.7,0.6-8.1c-0.8-0.9-1.5-1.4-0.2-2.4c0.4-0.3,0.3-1.4,0.2-2.1
				c-0.3-1.9-1.2-3.7-1.2-5.6c0-2.8-3.1-5-1.4-8c0.1-0.2-0.4-0.7-0.7-1c-1.9-2.4-1.5-5.6-3-8.2c-1.4-2.4-2.3-5.1-3.5-7.6
				c-1-2.1-2.3-4-3.5-6c-2.1-3.3-4-6.6-6.7-9.4c-0.8-0.8-1.6-1.7-2.4-2.6c-1.9-2-3.7-4-5.7-6.2l0.3-0.4c-1.6-1.1-3.1-2.1-4.6-3.1
				c-1.1-0.8-2.3-1.4-3.5-2.2c-0.3-0.4-0.5-0.9-0.8-1.2c-1.4-0.9-3-1.4-4.3-2.5c-2.5-2.1-5.4-3.4-8.2-4.7c-1.5-0.7-3.3-1-4.8-1.8
				c-2.3-1.1-4.3-2.8-6.7-3.6c-3.9-1.3-7.8-2.4-11.8-3.1c-3.6-0.7-7.2-0.8-10.8-1.1c-2.5-0.2-5-0.3-7.6-0.5c0-0.1,0.1-0.1,0.1-0.2
				c0,0.1-0.1,0.1-0.1,0.2c-2.6,0.2-5.2,0.3-7.8,0.5c-3.3,0.2-6.7,0.2-10,0.7c-3,0.5-5.9,1.6-8.8,2.6c-2.2,0.7-4.3,1.8-6.5,2.6
				c-2.9,1-6,1.4-8.7,2.8c-4.1,2-8,4.5-12,6.9c-1,0.6-1.7,1.5-2.7,2.1c-2.9,1.8-6.2,3.3-8.9,5.5c-3.1,2.5-5.9,5.5-8.7,8.5
				c-3,3.3-6.3,6.5-8.7,10.1c-3.5,5.2-6.5,10.8-9.6,16.3c-1,1.7-1.2,3.8-1.9,5.7c-1.3,3.2-3.1,6.3-4.1,9.6c-1,3.2-1.3,6.5-1.8,9.8
				c-0.7,4.4-1.3,8.8-1.7,13.2c-0.5,5.1,1.1,10.2,0.2,15.3c-0.1,0.5,0.4,1.1,0.5,1.6c0.3,1.5,0.7,3.1,0.9,4.6c0.1,0.6,0,1.2,0.2,1.7
				c1,3.6,2,7.2,3.2,10.7c1.4,4.1,2.7,8.4,4.7,12.2c1.5,2.8,3.9,5.2,5.5,8.2c1.5,2.8,3.9,5.1,6,7.6c0.9,1.1,2,2.2,3,3.2
				c2.1,2,4.3,4,6.5,6c1.9,1.7,4,3.3,6,4.9c1.1,0.9,2.3,1.9,3.5,2.6C731.3-440.3,732.7-440,733.9-439.5L733.9-439.5z M743.9-243.4
				c0-1,0.1-2,0.1-3c0-0.3,0-0.6,0-0.9c0.3-0.3,0.7-0.5,0.8-0.8c0.4-3.9,1-7.8,1-11.6c0-6.9,0-13.8-0.5-20.7
				c-0.5-6.7-1.3-13.4-2.6-20c-1-5.2-2.8-10.4-4.7-15.4c-2.7-6.9-6.1-13.6-9-20.5c-0.9-2.1-2.5-3.3-4.5-4.1c-4.8-1.9-9.5-4-14.3-6
				c-1.2-0.5-2.2-1-3,0.7c-0.7,1.6-1.9,3-2.9,4.5c-4.7,7-9.4,14-14,21c-3,4.6-6,9.2-9,13.8c-1.8,2.7-1.6,4.1,1.1,5.5
				c0.7,0.9,1.4,1.8,2.1,2.7c2.4,2.7,5.2,5.2,7.2,8.2c3.2,4.8,6,9.7,8.5,14.9c3.1,6.4,5.3,13,6.6,19.7c2.9,14.9,2.9,29.8-0.8,44.7
				c-1.6,6.3-3.3,12.5-6.2,18.4c-2.5,5-4.8,10.1-7.6,14.8c-2.3,3.9-5.1,7.5-8,11c-3.6,4.4-7.3,8.8-11.5,12.6
				c-4.6,4.1-9.8,7.6-14.7,11.3c2.5-0.6,5.1-1.4,7.5-2.5c4.3-2.1,8.6-4.3,12.8-6.6c4.6-2.6,9.3-5.1,13.6-8.2
				c4.3-3.2,8.3-6.8,12.2-10.5c3.6-3.4,7-7.1,10.3-10.8c2.5-2.8,4.7-5.8,6.8-8.9c2.8-4.2,5.6-8.4,8.1-12.8c1.8-3.2,3-6.7,4.8-10
				c3.4-6.3,5.3-13,7.3-19.8C742.4-236.1,743.1-239.8,743.9-243.4 M557-192.4c0.8-1.1,1.7-2.1,2.4-3.3c2.8-4.8,5.7-9.5,8.4-14.4
				c2-3.5,3.7-7.1,5.6-10.7c-0.3,0-0.6-0.1-0.9,0c-6,1-11.1,4-16,7.3c-1.3,0.9-2.4,2-3.3,3.3c-1.7,2.6-3.2,5.5-4.8,8.2
				c-1.2,1.6-2.3,3.4-3.5,4.9c-2.6,3.2-5.8,5.7-10,6.2c-4.9,0.5-10.4-3.7-12.1-9.1c-1.5-4.8-3-9.7-2.4-14.8
				c0.4-3.4,0.6-6.9,1.1-10.3c0.9-5.1,2-10.2,2.9-15.3c1.4-7.7,3.7-15.2,6.7-22.4c1.5-3.5,3-7,4.6-10.4c0.9-1.9,1.9-3.9,3.2-5.5
				c3.8-4.7,7.7-9.3,11.7-13.7c5.4-5.9,11.3-11.1,18.2-15.2c4.5-2.7,8.8-5.7,13.5-7.9c4.9-2.3,10-4.3,15.2-5.7
				c5.9-1.5,12-2.5,18.1-3.1c5.1-0.5,10.3,0,15.5-0.1c0.8,0,2-0.5,2.4-1.2c3-4.5,5.8-9,8.6-13.6c2.8-4.6,5.4-9.2,8.1-13.8
				c1.4-2.4,3.2-4.5,4.6-6.9c1.5-2.6,2.9-5.3,4.3-7.9c1.8-2.4,3.5-4.9,4.9-6.9c-4.1-3.7-7.9-6.9-11.4-10.4c-2.6-2.6-4.9-5.6-7.3-8.4
				c-2.1-2.6-4-5.5-6.2-8.1c-1-1.2-2.2-2.9-3.5-3.1c-9.1-1.4-18.2-2.9-27.3-3.4c-7-0.4-14,0.7-21,1.3c-9,0.8-17.7,2.6-26.1,5.9
				c-5.3,2.1-10.7,4-15.9,6.3c-3.7,1.6-7.3,3.4-10.8,5.5c-3.7,2.2-7.3,4.8-10.8,7.3s-7,5.1-10.3,8c-2.7,2.3-5,5-7.4,7.6
				c-3.5,3.7-7.1,7.3-10.2,11.3c-3.5,4.6-6.8,9.5-9.6,14.6c-3.4,6.1-6.6,12.4-9,18.9c-2.6,7-4.5,14.4-6.2,21.7
				c-1,4.1-1.2,8.4-1.6,12.6c-0.3,4.1-0.4,8.1-0.6,12.2c-0.1,2.3-0.8,4.5-0.6,6.8c0.2,3.3,0.9,6.5,1.4,9.8c0.8,4.4,1.6,8.7,2.4,13.1
				c1.4,8,3.7,15.7,6.9,23.2c1.5,3.5,2.7,7.1,4.5,10.4c3.5,6.2,7.1,12.3,11,18.2c2.3,3.5,5,6.8,7.8,10.1c2.2,2.7,4.7,5.1,7.2,7.6
				c3.7,3.6,7.4,7.4,11.4,10.7c3.6,3,7.6,5.6,11.3,8.5c2.9,2.2,4.3,2.2,5.5,0c3.6-6.6,7.1-13.1,10.7-19.6c1.3-2.4,3-4.7,4.3-7.1
				C554-186.4,555.5-189.4,557-192.4 M543.7-274.4c-0.8,1-1.8,1.9-2.3,3.1c-2.1,4.6-4.4,9.2-6,14c-2.2,6.6-4,13.4-5.7,20.2
				c-1.2,5-2.1,10-2.8,15.1c-1,7.1-0.7,14.2,2.4,20.9c1.6,3.4,6,4.4,8.6,1.6c2-2,4-4.2,5.2-6.7c2.4-4.9,5.8-8.8,10.1-12
				c4.8-3.6,10-6.4,15.8-7.7c11-2.5,21.5-1.4,31.6,4.1c6.8,3.7,12.1,8.7,16.5,14.5c4.5,5.9,7.4,12.8,9,20.1c0.8,3.6,1,7.4,1.3,11.1
				c0.3,3.9-0.2,4.5-4.2,5.1c-0.5-1.8-1.5-3.7-1.5-5.5c-0.1-7.7-2.3-14.8-6-21.7c-2.1,3.4-4.1,6.5-6.1,9.7
				c-3.5,5.9-7,11.7-10.5,17.6c-1.3,2.2-2.6,4.4-3.9,6.6c-2.7,4.5-5.5,9.1-8.3,13.6c-1.5,2.4-3.2,4.8-4.6,7.2
				c-1.3,2.2-2.5,4.5-3.9,7.1h2.3c2.7,0.5,5.5,1.2,8.2,1.5c12.5,1.5,25.1,2.9,37.5-0.9c5.7-1.8,11.4-3.3,16.8-5.6
				c4.7-2,9.1-4.8,13.4-7.6c3.7-2.4,7.2-5.1,10.6-7.9c2.6-2.3,4.9-4.9,7.3-7.5c2.6-2.9,5.4-5.7,7.6-8.9c2.9-4.1,5.5-8.3,7.8-12.7
				c2.6-4.9,5.2-9.8,7-15c1.9-5.3,3.3-10.9,4.2-16.5c1.9-11.4,1.8-22.9-0.2-34.3c-0.5-1.7-1.1-3.4-1.4-5.1c-0.8-5.8-3-11.2-5.3-16.5
				c-0.8-1.9-1.7-3.7-2.8-5.4c-1.2-2-2.4-4-3.8-5.9c-2.2-2.9-4.4-5.8-7-8.3c-4.7-4.5-9.4-8.9-14.5-12.8c-3.5-2.6-7.5-4.8-11.6-6.2
				c-6.9-2.4-13.9-4.7-21-5.9c-9.1-1.5-18.3-1.4-27.4,1c-3.6,0.9-7.1,1.9-10.7,2.8c-7.8,2.1-15,5.5-21.6,10.1
				c-4.8,3.3-9.5,6.8-14.1,10.3c-1.5,1.1-2.7,2.6-3.9,4c-2.5,2.7-5,5.4-7.3,8.3C546.9-279.5,545.4-276.9,543.7-274.4 M523.4-451.8
				c0-0.5,0.1-1.4,0-2.3c-0.2-2.6-1.7-4-4.3-4.3c-4.2-0.5-7.4,1.4-10.1,4.3c-2.1,2.2-3.9,4.8-5.8,7.2c-3.5,4.4-5.9,9.3-5.2,15
				c0.7,5.3,4.1,8.6,9,6.5c1-0.4,1.9-1.1,2.8-1.6c3.7-2.1,6.3-5.4,8.3-9C520.6-440.8,523.8-445.5,523.4-451.8 M490-539.4
				c-2.9-0.1-5.3,1-7.6,3.1c-3.5,3.1-6.1,6.7-7.5,11.1c-0.1,0.4-0.3,0.8-0.5,1.3c-1.4,2.7-1.4,5.7-0.2,8.2c1.9,3.8,5.1,4.2,9.4,2.3
				c6.3-2.7,9.8-7.8,12-13.9c0.3-0.8,0.2-1.7,0.6-2.4C498.5-534.5,495.5-539.4,490-539.4 M404.4-407.8c0-0.6,0.1-1.2,0-1.7
				c-0.6-4-4.4-7.1-8-4.8c-3,1.9-5.6,4.4-7.9,7.1c-1.7,2-3.2,4.6-3.9,7.2c-0.9,3-0.9,6.3-1.2,9.5c-0.2,1.9,1.3,3,2.6,4.1
				c1.1,1,4.6,1.6,5.8,0.6c1.6-1.3,3.2-2.5,4.7-4c1.2-1.2,2.2-2.7,3.2-4.1C402.7-398,404.5-402.6,404.4-407.8 M459.9-461
				c0.1-6.6-3.2-11.1-8-9.8c-2.3,0.6-4.8,2-6.5,3.7c-3,3.1-4.7,7.1-5.8,11.3c-0.9,3.4-0.2,6.7,2.5,9.4c1.6,1.5,3.5,2.6,5.6,1.9
				c1.8-0.6,3.8-1.6,5.1-3C456.9-451.5,459.2-456.5,459.9-461 M543-524.9c2.2-0.9,5.1-1.2,6.6-2.7c3.7-3.9,6-8.6,4.8-14.3
				c-0.7-3-1.7-5.8-5.1-6.8c-3.1-0.9-6.2-0.5-8.7,1.6c-3.4,2.9-5.5,6.6-6.1,11.1C533.9-531.6,536.8-524.8,543-524.9 M426-510.3
				c0.3-2.9-1.2-5-3.2-6.4c-2.4-1.6-5.2-0.9-7.3,0.7c-4.1,3-6.8,6.9-8.4,11.9c-1.1,3.7-1.1,6.8,1.2,9.8c0.4,0.6,1.1,1,1.8,1.3
				c3.4,1.3,5.7-0.6,8.2-2.5C423.4-499.2,424.6-504.8,426-510.3 M385.9-468.6c0,0.7-0.1,1.5,0,2.2c0.4,3,4.3,5,6.6,3.3
				c4.7-3.4,8.1-7.7,9.3-13.6c0.6-3-0.4-5.8-2.1-7.3c-2.4-2.2-4.8-0.7-6.3,0.6C389-479.5,386-474.7,385.9-468.6 M475.5-567.6
				c0.6-4.1-3.9-6.5-7.8-4.4c-3.8,2-6.7,5-9,8.6c-0.8,1.3-1.3,2.8-1.7,4.3c-0.4,1.7,1.2,4.2,3,4.7c3.3,1,5.9,0.1,8.7-1.9
				C472.7-559.2,474.6-563,475.5-567.6 M445.4-542c0-5.8-2.7-7.6-7-5.6c-1.3,0.6-2.4,1.8-3.4,2.9c-2.8,2.7-4.9,6.2-4.9,10
				c-0.1,4,1.9,6.4,6.7,4.8c1.3-0.5,2.3-1.9,3.4-2.9C443.2-535.5,444.9-538.9,445.4-542 M522.4-477.1c0-3.6-0.5-4.1-4-3.8
				c-2.2,0.1-3.7,1.5-5.4,2.8c-3.3,2.6-5.6,5.6-6.4,9.7c-0.4,2.2,0.5,4.2,2.4,5c1.1,0.5,2.7-0.3,4.1-0.4c2.5-0.3,3.5-2.4,4.8-4.1
				C520-470.7,522.4-473.3,522.4-477.1 M500.9-584.7c0-4.1-1.6-5.4-5.2-4.3c-1.9,0.6-3.7,1.7-5.5,2.6c-2.8,1.5-4.3,4.1-5.2,6.9
				c-1.3,4.5,1.8,7.4,6.2,6.1c1.7-0.5,3.2-1.7,4.6-2.7C498.9-578.3,501.2-580.9,500.9-584.7 M441.5-485.2c-1.1-1.4-1.8-3.3-3.1-3.8
				c-1.2-0.5-3,0.4-4.5,0.9c-0.8,0.3-1.4,1.3-2.1,1.9c-3.4,3.2-6.1,8.7-4.1,13.4c1,2.2,3.2,3.1,5.5,2.4c2.4-0.7,3-2.7,3.8-4.4
				C438.6-478,439.9-481.4,441.5-485.2 M494.4-480.5c0,0.7-0.1,1.3,0,2c0.3,2.2,3.8,4.7,5.9,3.3c1.9-1.3,4-2.6,5.3-4.4
				c2-2.9,3.7-6.1,3.3-9.8c-0.3-2.4-3.1-4-5.4-3c-2.7,1.1-4.6,3.1-6.4,5.4C495.4-485,494.6-482.9,494.4-480.5 M525.9-594.6
				c0-0.5,0.1-1.3,0-2c-0.5-3.1-3.2-4.8-5.7-3.4c-1.8,1-3.7,2.1-5.1,3.6c-2.6,2.7-4.8,5.7-4.3,9.9c0.2,1.8,4.4,4.1,6,2.8
				c2.1-1.6,4.1-3.2,6.3-4.6C525.3-589.8,526.1-591.8,525.9-594.6 M539.8-594.9c4.7-0.7,8.3-3.4,10.8-7.3c0.8-1.2,0.8-3.2,0.4-4.7
				c-0.8-3-6.3-3.8-9.2-1.6c-1.9,1.5-3.7,3-5.5,4.5c-1.4,1.2-2.7,5-1.9,6.2C535.7-595.8,537.2-594.4,539.8-594.9 M578.3-614
				c0.2-0.1,0.4-0.2,0.6-0.3c-0.9-1.3-1.5-3.2-2.7-3.8c-1.2-0.6-3.5-0.6-4.6,0.1c-2.7,1.8-5.1,4.1-7.5,6.3c-1.5,1.3-2.1,5.8-1.1,7.3
				c1,1.6,3.8,2.1,6.3,0.8c2-1,4.1-2,5.5-3.6C576.5-609.1,578.9-610.9,578.3-614 M476.8-551.4c-0.4,0-0.8,0-1.1,0
				c-3.6,0.4-9.5,7-9.3,11.1c0.2,3.1,2.9,6.1,5.1,5.3c5.2-1.9,9.3-7,8.9-13.1C480.2-550.2,479.1-551.7,476.8-551.4 M375.8-451
				c0.9,2.2,1.5,4,2.4,5.6c0.8,1.5,3.5,2,4.6,0.8c1.4-1.4,3-3,3.5-4.7c0.9-3.3,3.6-6.4,0.9-10.2c-1.9-2.6-6-3.2-7.6-0.4
				C377.9-457.2,376.9-454,375.8-451 M395.4-441c0.3-2.4-1.4-3.6-3-4.6c-1.4-0.9-2.8-0.5-3.8,1c-0.1,0.1-0.5,0.1-0.7,0.2
				c-5.1,2.7-5.7,9.1-4.1,13.3c0.7,1.8,3.6,2.9,4.8,1.9C392.7-432.1,394.7-436.2,395.4-441 M445.9-518.6c0-5.3-1.8-6.5-5.6-5.3
				c-3.7,1.2-6,3.9-7.2,7.3c-1,2.7-0.7,5.3,2.3,7.2c2.1,1.3,3.2-0.2,4.6-0.9C444.2-512.1,445.8-515.6,445.9-518.6 M429.4-491.5
				c-0.6-1.4-0.7-2.4-1.3-3c-2.6-2.4-6.1-2.1-8.2,0.8c-1.4,2-2.4,4.3-3.9,6.2c-1.3,1.7-1.4,3.4-0.3,4.9c1.2,1.6,3.1,2.8,5.2,1.7
				c1.5-0.7,3.2-1.6,4.1-2.9C426.7-486.3,428-489,429.4-491.5 M458.4-536.4c0.3-3.5-0.9-6-5.4-5c-0.8,0.2-1.6,0.6-2.2,1.2
				c-1.3,1.5-2.4,3.1-3.7,4.6c-1.6,1.9-1.6,4.1-0.9,6.1c0.9,2.6,2.9,3.6,5,2.8C454.5-527.8,459.1-531.9,458.4-536.4 M389.9-418.6
				c-0.8-1.3-1.3-2.7-2.3-3.8c-1.8-2.1-3.1-0.3-4.8,0.6c-4.2,2.4-5.7,6.1-5.5,10.7c0.1,1.9,3.2,4.8,4.5,4.1
				C385.6-408.9,389.8-412.8,389.9-418.6 M528.5-553.4c0.2-0.1,0.6-0.2,1-0.3c4.1-0.5,5.7-3.8,7.3-6.9c1-1.9,0.6-4.3-1.4-5.5
				c-1.2-0.7-3.3-1-4.5-0.5c-3.4,1.5-5.4,4.3-6,8C524.3-555.3,525.2-553.8,528.5-553.4 M486.2-568.1c-0.8,0.3-1.8,0.4-2.5,0.8
				c-2.9,1.6-5,4.1-6.2,7c-0.7,1.6-0.2,3.5,1.3,4.8c1.2,1,2.7,1.3,4,0.3c1.2-0.8,2.3-1.9,3.5-2.9c2.2-1.8,3.1-4.2,3.1-7
				C489.3-567,488.5-568.3,486.2-568.1 M487.4-503.9c0,4.3,1.5,6.1,3.7,5.4c3.9-1.2,7-4.6,6.8-9c-0.2-4-2.5-5.5-6.2-3.6
				C488.4-509.3,487.6-506.2,487.4-503.9 M442.9-478.1c0,4.2,1.5,5.4,4.6,4.7c4.6-1,7.2-8.8,3.9-12.1c-0.7-0.7-2.6-0.9-3.5-0.5
				C444.4-484.2,443.4-480.7,442.9-478.1 M498.4-520c0,0.4,0,0.8,0,1.2c0.2,2.8,2.2,3.6,4.9,2.5c2.9-1.2,3.8-3.4,4.9-6
				c0.9-2,0.7-3.3-0.7-4.1c-1.1-0.7-2.9-0.8-4.2-0.5C500.4-526.3,498.4-523.1,498.4-520 M375.4-423.7c-0.6-1.2-1-3.1-1.9-3.5
				c-1.1-0.5-3.4,0-3.9,0.8c-1.7,2.6-3.7,5.1-3.7,8.6c0,1.8,1.2,2.6,2.3,3.1c0.9,0.4,2.5,0,3.3-0.6
				C374.1-417.2,374.7-420.3,375.4-423.7 M517.3-502.4c0.4-1.5-0.4-3.2-2.1-3.2c-1.6-0.1-3.5,0.6-4.8,1.7c-1.2,1-2,2.9-2.5,4.5
				c-0.4,1.1-0.6,2.8-0.1,3.6c0.9,1.3,2.7,2,4.4,1.2C515-495.9,517.5-498.6,517.3-502.4 M414.2-484.8c-1.3-1.6-2.2-3-3.4-4
				c-0.5-0.4-2.2-0.1-2.7,0.5c-2.2,2.4-3.5,5.3-3.7,8.5c-0.1,1.1,0.5,2.8,1.3,3.2c0.8,0.5,2.8,0.2,3.4-0.5
				C411-479.4,412.4-482,414.2-484.8 M462.6-521c1.2-0.6,2-1.1,2.8-1.4c2.8-1,5-4.7,4.5-7.5c-0.4-2-2-3-3.9-2.2
				c-1.2,0.5-2.2,1.5-3.3,2.2c-2,1.2-3.3,5-2.1,7C460.9-522.2,461.8-521.7,462.6-521 M521.6-580.4c-3.2-0.3-6.8,4.7-6.2,7.4
				c0.6,2.9,1.9,3.8,4.7,2.5c1.6-0.8,3.3-2.1,4.2-3.6C526.6-577.8,525.3-580.4,521.6-580.4 M546.1-578.5c-0.9-1.6-1.3-3.3-2.2-3.7
				c-1.7-0.7-3.8-0.4-5.1,1.3c-1.1,1.4-2.2,2.8-2.8,4.4c-0.3,0.7,0.2,2.1,0.8,2.8c1.8,2.3,4.2,1.4,5.9,0.2
				C544.3-574.6,545-576.7,546.1-578.5 M492.3-488.6c0.1-3.8-1.8-5.3-3.9-4.1c-0.8,0.5-1.6,1.1-2.1,1.9c-0.9,1.7-1.2,3.8-2.4,5.2
				c-1.8,2.1,1.1,2.5,1,3.8c1.1,0.1,2.8,0.6,3.2,0.1C490.1-484.1,492.4-486.4,492.3-488.6 M498.9-458.1c-0.3-0.4-0.9-1.5-1.8-2.3
				c-0.4-0.4-1.6-0.3-2.2,0c-2.8,1.8-4,4.6-4.5,7.6c-0.4,2.2,1.7,4,3.6,3.2C496.1-450.3,498.9-454.8,498.9-458.1 M429.9-525.8
				c0-3.4-1.5-4.5-4.3-2.6c-1.5,1-2.5,2.9-3.6,4.5c-1.5,2.2-0.5,4.3,2.1,4.6C427.3-519.2,429.9-522,429.9-525.8 M429.9-454.2
				c0,2.8,2,4.3,4.1,2.7c1.6-1.2,3-3,3.8-4.9c0.4-1-0.8-2.8-1.7-3.8c-0.5-0.5-2.2-0.4-3,0.1C430.8-458.9,429.8-456.7,429.9-454.2
				 M379.9-438.9c-0.2-0.1-0.4-0.2-0.7-0.3c0.6-2.3-0.6-3.6-2.6-4.2c-2.3-0.7-2.9,1.1-3.7,2.7c-0.2,0.5-0.6,0.9-0.8,1.4
				c-1,2-0.1,3.7,1.2,4.9c0.6,0.6,2.8,0.6,3.5,0C378.2-435.6,378.9-437.4,379.9-438.9 M438.9-501.5c0-3.6-1-4.2-4.2-2.5
				c-2.6,1.3-2.9,3.7-2.8,6.2c0.1,1.9,1.2,2.8,3.1,2.3C437.7-496.5,438.8-498.2,438.9-501.5 M402.9-494.9c0-2.5-0.6-3.4-2.4-3.5
				c-2.6-0.1-4.6,2.3-4.6,5.7c0,1.8,0,3.4,2.4,3.4C400.9-489.4,402.9-491.8,402.9-494.9 M391.9-421.8c0.2,1.3,0.2,3.2,2.7,3.4
				c2.4,0.1,4.2-2.2,4.3-5.1c0-2.4-1-3.7-2.9-3.6C393.2-427.2,391.9-425.6,391.9-421.8 M503-569.4c0.5-0.2,1.6-0.5,2.5-1.1
				c2.3-1.5,2.6-5.1,1-6.8s-2.1,0.4-3.1,0.6c-2.6,0.3-2.7,2.6-3.4,4.3C499.3-570.8,500.5-569.4,503-569.4 M561.9-596.4
				c0.5-1.9-1.4-2.7-2.4-2.3c-1.9,0.7-4,1.8-5.3,3.4c-1.4,1.8-0.1,4.2,2,4.4C558.4-590.7,561.9-594,561.9-596.4 M503.9-504.9
				c2.6,0,5.9-3.6,5.3-5.3c-0.3-0.9-1.5-2-2.4-2.1c-2.4-0.4-3.5,1.3-4.2,3.3c-0.3,1-0.9,2.2-0.6,3.1
				C502.2-505.3,503.6-505.1,503.9-504.9 M397.9-455c0-2.3-0.9-3.4-2.8-3.4c-1.4,0-4.7,4-4,5.5c0.5,1.1,0.7,3.1,2.8,3
				C395.2-450,397.8-453.3,397.9-455 M549.9-558.6c0-3.2-1.1-4.6-2.9-4.3c-2.5,0.4-4.3,4.4-3.3,6.7c0.8,1.9,2.5,1.8,3.5,1.1
				C548.5-556.1,549.3-557.9,549.9-558.6 M457.2-545.8c0.5,0.4,1.2,1.5,2.2,1.7c1.7,0.4,4.5-2.4,4.5-4.2c0-1.3-0.4-2.5-2.2-2.7
				C459.2-551.2,457.6-550.6,457.2-545.8 M420.4-468.4c0,1.8-0.1,3.4,2.2,3.5c1.5,0,3.8-2.5,3.7-4.2c-0.1-1.9-1.8-2.7-3.2-2.7
				C421.2-471.8,420-470.4,420.4-468.4 M449.6-548.4c1.6,0.1,3.9-1.6,3.6-3.1c-0.3-1.1-1.6-2.6-2.6-2.8c-2.1-0.3-2.6,1.6-2.7,3.3
				C447.8-549.7,447.6-548.3,449.6-548.4 M392.5-384c-1,1.5-2.2,2.6-2.5,3.9s0.3,2.8,2.3,2.7c2.2-0.1,3-1.8,2.9-3.4
				C395.1-381.8,393.7-382.7,392.5-384 M382.4-429.2c-2.5-2.6-3.2-2.8-4.7-1.3c-1.1,1.1-1.7,2.3-0.6,3.6
				C378.2-425.6,380-426.4,382.4-429.2"/>
		</g>
	</g>
	<g>
		<g>
			<defs>
				<rect id="SVGID_3_" x="270.5" y="-712.2" width="723" height="686"/>
			</defs>
			<clipPath id="SVGID_4_">
				<use xlink:href="#SVGID_3_"  style="overflow:visible;"/>
			</clipPath>
			<path class="st1" d="M549.4-516.7c3.7-1.3,6.7-3.8,9-6.8c1.6-2.1,2.7-4.7,3.5-7.3c1.7-5.9,1.8-11.8-0.4-17.6
				c0.4-0.9,0.6-2.2,1.4-2.7c3.4-2,6.8-4,10.4-5.6c3.9-1.7,8.1-2.9,12.1-4.3c1,5.4,1.7,10.8,3,16c1.7,6.8,3.9,13.4,6.1,20
				c0.6,1.7,1.8,3.3,2.8,4.9c1,1.8,2.7,2.2,4.2,1.2c1.4-0.9,2.1-2.8,0.9-4.4c-3.7-5.5-5.7-11.6-6.9-18.1c-1.1-5.9-1.7-11.9-3.2-17.7
				c-1.8-6.9-1.7-13.9-2.1-20.9c-0.4-6.6-0.5-13.3-0.8-19.9c2.8-1.1,5.7-2.2,8.5-3.3c5.1-1.9,10.2-4,15.4-5.8
				c6.8-2.4,13.7-4.7,20.6-6.9c6.3-2,12.5-3.9,18.9-5.6c4.6-1.2,9.3-2.2,14-2.9s9.5-1.1,14.3-1.6c5.6-0.6,11.3-1.3,17-1.5
				c10.6-0.3,21.3-0.2,31.9-0.3c-0.6,0.7-1.1,1.9-1.7,1.9c-3.1,0.4-5,2.9-7.5,4.4c-3,1.8-6.3,3.4-8.6,5.9c-1.4,1.5-2.7,3-4.3,4.2
				c-2.5,1.9-5,3.7-7.5,5.6c-0.3,0.2-0.3,0.7-0.5,1.1c-1.2,1.8-2.4,3.6-3.6,5.4c-2.3-1.4-1.3,1.3-2.2,1.8c-0.9,0.6-1.4,1.9-2.3,2.6
				c-3.3,2.4-4.6,6.4-7.3,9.3c-2.1,2.2-3.6,5-5.4,7.5c-0.2,0.2,0,0.6-0.1,0.9c-0.4,1-0.8,1.9-1.4,2.8c-2.1,5.6-6.1,10.5-7.2,16.9
				c-0.1,0-0.6,0.1-0.9,0.2c-1.4,5-2.9,10-4,15c-1.2,5.3-2.5,10.7-2.6,16.1c-0.1,5.5-1.7,11.2-0.3,15.9c0,2.9-0.3,5.1-0.1,7.2
				c0.5,5,1.3,10,2,15c0.1,1,0.7,1.8,1,2.8c1.1,3.6,2.2,7.3,3.4,10.9c0.9,2.7,1.7,5.5,2.9,8c0.9,2.1,2.3,3.9,3.5,5.9
				c0.2,0.3,0.5,0.6,0.6,1c0.8,4.1,3.5,7.1,5.9,10.3c2,2.6,3.4,5.7,5.6,8c1.6,1.7,2.2,4,4.6,5.3c2.2,1.2,3.7,3.6,5.4,5.6
				c0.3,0.3,0.2,1.3-0.1,1.7c-1.8,2.7-3.6,5.4-5.8,8.5c-1.5-1.9-3-3.6-4.4-5.5c-0.2-0.3,0.2-1.1,0.4-1.5c0.7-1.4,1.6-2.6,2.1-4
				c0.6-1.5,0.3-3.2-1.4-3.7c-1.8-0.5-3.7-0.1-4.3,1.9c-0.6,2.2-2,3.5-4,4.3c-0.9-1.4-1.7-2.9-2.7-4.3c-1.5-2.1-3-4.3-4.6-6.3
				c-2.4-2.9-4.9-5.7-7.2-8.6c-4.2-5.3-8.2-10.6-12.3-15.9c-0.4-0.5-1-0.9-1.6-1.1c-1.9-0.8-3.9-1.3-5.8-2.1
				c-5.9-2.5-11.8-5-17.7-7.6c-2.3-1-4.5-2.3-6.6-3.8c-5.1-3.4-10.2-6.9-15.1-10.6c-3.7-2.8-7-6-10.4-9.1c-1.4-1.2-2.8-2.5-4.2-3.8
				c3.6,12.9,12.1,22.8,18.9,33.5c-1.3,3-2.9,5.7-3.8,8.7c-1.3,4.1-2,8.4-3.1,12.6c-0.1,0.6-0.5,1.3-1,1.5c-1.4,0.5-2.8,0.9-4.2,1.1
				c-7.5,1-14.7,3-21.4,6.5c-7,3.6-14.3,6.8-20.9,11c-6.6,4.2-12.7,9.5-18.9,14.3c-1.5,1.2-3,2.5-4.4,3.9c-2.6,2.7-5.4,5.3-7.7,8.2
				c-3.5,4.3-6.8,8.6-9.9,13.2c-1.4,2-2,4.5-3,6.8c-6.5,6.1-13,12.1-18.6,19.2c-5.1,6.4-9.5,13.2-13.7,20.2c-1.7,2.9-3.1,6-4.3,9.1
				c-2.8,7.2-5.9,14.3-8,21.6c-5.2,18.1-5.7,36.7-3.7,55.4c0.7,6.7,2.3,13.4,4,19.9c1.5,5.6,3.4,11.2,5.7,16.5
				c2.8,6.4,5.8,12.8,9.4,18.9c3.8,6.3,8.1,12.3,12.6,18.1c3.1,3.9,6.8,7.4,10.5,10.9c5.1,4.8,10.4,9.3,15.7,14
				c1.2,1.1,2.3,2.2,3.5,3.3c-0.9-0.4-1.9-0.8-2.8-1.4c-3.7-2.2-7.3-4.4-10.9-6.6c-2.5-1.5-5.2-2.9-7.7-4.5
				c-4.5-2.9-8.9-5.8-13.3-8.8c-3-2.1-6-4.2-8.8-6.5c-3.3-2.7-6.5-5.5-9.7-8.3c-2.8-2.4-5.6-4.7-8.3-7.2c-2.6-2.4-5.2-5-7.7-7.5
				c-3.6-3.6-7.3-7.2-10.8-11c-2.9-3.1-5.5-6.5-8.2-9.8c-1.1-1.3-2.4-2.6-3.5-3.9c-0.9-2.9-1.9-5.8-2.7-8.7
				c-2-7.5-4.2-14.9-5.9-22.5c-1.5-6.5-2.6-13.1-3.5-19.7c-1.2-8.7-2.1-17.4-3-26.1c-0.4-4-0.6-8.1-0.5-12.2
				c0.3-9.3,0.6-18.7,1.4-28c0.7-8.5,1.8-17.1,3.1-25.6c0.8-5.5,2.1-11,3.4-16.5c1.2-5.2,2.7-10.4,4.1-15.6c0.3-1.1,0.5-2.3,0.9-3.4
				c2.5-7.2,5.1-14.4,7.4-21.6c0.5-1.7,1.2-2.4,2.9-2.2c4,0.4,8-0.4,10.8-3.2c2.1-2.1,3.2-5.1,4.8-7.8c0.1-0.1-0.2-0.4-0.4-0.6
				c6.1-7.6,7.9-16.4,6.6-25.9c1.1-1.3,2.4-2.6,3.4-4c1.8-2.3,3.4-4.7,5.3-7.4c0.3,0.9,0.5,1.3,0.6,1.7c0.6,3.9,1.1,7.9,1.7,11.8
				c0.7,4.4,1.9,8.7,2.2,13.1c0.6,8.1,0.4,16.3,2,24.4c1.9,9.4,4.8,17.8,12.8,23.8c3.8,2.8,10.1,3.1,13.9,0.5
				c4.6-3.2,7.5-7.7,10.5-12.2c1.7-3.1,3.7-6.2,5-9.4c2.1-5,4-10,5.7-15.2c2.3-6.9,3.8-14.1,3.5-21.4c-0.4-7.5-0.9-14.9-1.8-22.3
				c-0.6-4.4-1.7-8.8-3.2-12.9c-2.1-5.8-4.7-11.4-7.2-17.1c-0.9-2-2-3.9-3-5.9c0.7-0.7,1.3-1.5,2-2.2c1.9-1.9,2.6-1.8,3.9,0.5
				c1.7,3,3.4,6,5.3,8.8c2.3,3.4,5.4,5.2,9.7,5.4c3.6,0.2,6.5-1.2,9.1-3.2C546.1-513,547.6-514.9,549.4-516.7"/>
		</g>
	</g>
	<g>
		<g>
			<defs>
				<rect id="SVGID_5_" x="270.5" y="-712.2" width="723" height="686"/>
			</defs>
			<clipPath id="SVGID_6_">
				<use xlink:href="#SVGID_5_"  style="overflow:visible;"/>
			</clipPath>
			<path class="st2" d="M623.4-171.1c4-0.6,4.5-1.1,4.2-5.1c-0.3-3.7-0.5-7.5-1.3-11.1c-1.6-7.3-4.5-14.2-9-20.1
				s-9.8-10.9-16.5-14.5c-10.2-5.5-20.7-6.6-31.6-4.1c-5.7,1.3-11,4.1-15.8,7.7c-4.4,3.3-7.7,7.1-10.1,12c-1.2,2.5-3.3,4.7-5.2,6.7
				c-2.7,2.8-7,1.8-8.6-1.6c-3.1-6.7-3.4-13.8-2.4-20.9c0.7-5.1,1.6-10.1,2.8-15.1c1.7-6.8,3.5-13.5,5.7-20.2c1.6-4.8,3.9-9.4,6-14
				c0.5-1.1,1.5-2.1,2.3-3.1c1-0.4,2-0.7,2.9-1.2c5.4-2.5,10.8-5.2,16.3-7.7s11-5.3,16.7-7.1c8-2.6,16.2-4.6,24.3-6.4
				c4.4-1,9.1-1.4,13.6-1.5c11.2-0.2,22.3-0.6,33.3,2.6c6.9,2,13.8,4.1,20,7.7c3.8,2.2,7.3,5,10.6,7.9c3.7,3.3,7.4,6.8,10.3,10.7
				c3.5,4.9,6.4,10.2,8.2,16.1c0.2,0.5,0.9,0.9,1.4,1.3c2.1,11.4,2.2,22.9,0.2,34.3c-0.9,5.6-2.3,11.2-4.2,16.5
				c-1.9,5.2-4.4,10.2-7,15c-2.3,4.4-5,8.7-7.8,12.7c-2.2,3.2-5,6-7.6,8.9c-2.3,2.6-4.6,5.3-7.3,7.5c-3.3,2.9-6.9,5.5-10.6,7.9
				c-4.3,2.8-8.7,5.6-13.4,7.6c-5.4,2.3-11.2,3.9-16.8,5.7c-12.4,3.8-25,2.4-37.5,0.9c-2.8-0.3-5.5-1-8.2-1.5
				c1.1-1.7,2.1-3.4,3.2-5.1c2.3-3.4,4.5-6.8,7-10.2c4-5.6,8.2-11,12.2-16.6c1.1-1.6,2.2-2.1,4.1-2.1
				C612.7-170.6,618.1-170.9,623.4-171.1"/>
		</g>
	</g>
	<g>
		<g>
			<defs>
				<rect id="SVGID_7_" x="270.5" y="-712.2" width="723" height="686"/>
			</defs>
			<clipPath id="SVGID_8_">
				<use xlink:href="#SVGID_7_"  style="overflow:visible;"/>
			</clipPath>
			<path class="st3" d="M659-367.9c-1.4,2.6-2.8,5.3-4.3,7.9c-1.4,2.4-3.2,4.5-4.6,6.9c-2.8,4.5-5.4,9.2-8.1,13.8
				c-2.8,4.6-5.7,9.1-8.6,13.6c-0.4,0.6-1.6,1.1-2.4,1.2c-5.2,0.1-10.4-0.4-15.5,0.1c-6.1,0.6-12.2,1.6-18.1,3.1
				c-5.2,1.4-10.3,3.4-15.2,5.7c-4.7,2.2-9,5.2-13.5,7.9c-6.8,4.1-12.8,9.4-18.2,15.2c-4.1,4.4-7.9,9.1-11.7,13.7
				c-1.3,1.6-2.3,3.6-3.2,5.5c-1.6,3.4-3.1,6.9-4.6,10.4c-3.1,7.2-5.3,14.7-6.7,22.4c-0.9,5.1-2.1,10.2-2.9,15.3
				c-0.6,3.4-0.8,6.8-1.1,10.3c-0.6,5.2,1,10,2.4,14.8c1.7,5.4,7.2,9.6,12.1,9.1c4.2-0.5,7.4-2.9,10-6.2c1.3-1.6,2.4-3.3,3.5-4.9
				c0.5,0.6,1.1,1.2,1.6,1.8c2.4,2.6,4.7,5.2,7.1,7.8c-1.5,3-2.9,6-4.5,9c-1.3,2.4-3,4.7-4.3,7.1c-3.6,6.5-7.1,13.1-10.7,19.6
				c-1.2,2.2-2.6,2.2-5.5,0c-3.8-2.9-7.7-5.4-11.3-8.5c-4-3.4-7.6-7.1-11.4-10.7c-2.5-2.4-5-4.9-7.2-7.6c-2.7-3.2-5.5-6.5-7.8-10.1
				c-3.9-5.9-7.5-12-11-18.2c-1.8-3.3-3-6.9-4.5-10.4c-3.1-7.5-5.5-15.2-6.9-23.2c-0.8-4.4-1.6-8.7-2.4-13.1c1-3.4,1.9-6.8,3-10.1
				c1.5-4.7,2.9-9.5,4.9-14c3.1-7,6.7-13.9,10.2-20.7c1.6-3.2,3.4-6.4,5.4-9.4c2.5-3.7,5.3-7.3,8.2-10.8c3.2-3.9,6.5-7.9,10-11.4
				c3.6-3.6,7.4-6.9,11.4-10c6.3-4.8,12.6-9.6,19.4-13.7c5.4-3.2,11.4-5.4,17.2-8c7.8-3.6,16.1-5.8,24.4-7.6
				c5.1-1.1,10.4-1.7,15.6-1.8c9.9-0.2,19.8-0.2,29.6,0.5c6.8,0.5,13.5,2.2,20.2,3.7C652.4-370.9,655.6-369.2,659-367.9"/>
		</g>
	</g>
	<g>
		<g>
			<defs>
				<rect id="SVGID_9_" x="270.5" y="-712.2" width="723" height="686"/>
			</defs>
			<clipPath id="SVGID_10_">
				<use xlink:href="#SVGID_9_"  style="overflow:visible;"/>
			</clipPath>
			<path class="st4" d="M456.4-442.5c0.1,0.2,0.4,0.5,0.4,0.6c-1.5,2.6-2.7,5.7-4.8,7.8c-2.8,2.9-6.8,3.6-10.8,3.2
				c-1.7-0.2-2.4,0.5-2.9,2.2c-2.3,7.3-4.9,14.4-7.4,21.6c-0.4,1.1-0.6,2.2-0.9,3.4c-1.4,5.2-2.9,10.3-4.1,15.6
				c-1.3,5.5-2.6,10.9-3.4,16.5c-1.3,8.5-2.4,17-3.1,25.6c-0.8,9.3-1.1,18.6-1.4,28c-0.1,4.1,0.1,8.2,0.5,12.2
				c0.9,8.7,1.8,17.4,3,26.1c0.9,6.6,2.1,13.2,3.5,19.7c1.7,7.5,3.8,15,5.9,22.5c0.8,2.9,1.8,5.8,2.7,8.7c1.5,4,2.9,7.9,4.4,11.9
				c2.1,5.6,4.2,11.2,6.6,16.6c1.7,3.9,3.9,7.6,5.9,11.4c1,1.9,1.9,3.7,2.9,5.6c-0.9-0.4-1.9-0.5-2.6-1.1c-2.5-1.8-4.8-3.7-7.2-5.6
				c-1.3-1.1-2.6-2.2-3.8-3.4c-6.8-6.6-14.5-12.1-20.4-19.7c-4.4-5.7-9.6-10.9-13.8-16.8c-4.8-6.6-9.1-13.6-13.3-20.7
				c-3.5-6-6.8-12.2-9.8-18.5c-2.2-4.6-4-9.4-5.6-14.3c-2.5-7.5-4.4-15.1-7.1-22.5c-2.5-7-4.1-14.1-5.7-21.4
				c-3.8-18.2-4-36.5-1.8-54.8c0.7-6.4,1.8-12.7,3.2-19c0.3-1.6,1.9-3.3,3.3-4.2c2.3-1.5,5.4,0.7,6.1,3.8c1.1,5.2,2.1,10.5,3.6,15.6
				c1,3.4,2.4,6.8,4.5,9.6c3.1,4,7.2,5.7,13.1,2.8c5.2-2.6,8.3-6.8,10.5-11.5c1.7-3.7,2.1-8.2,2.3-12.4c0.1-4.3-0.3-8.8-1.4-13.1
				c-0.9-3.8-3.1-7.3-4.5-11c-4.1-10.2-6.5-20.6-3-31.5c1.3-3.9,3.4-7.6,5.5-11.1c2.3-3.8,5.2-4.2,8.8-1.4c2.6,2,5.2,4.1,7.6,6.4
				c1.7,1.6,3,3.6,4.4,5.4c2.9,3.8,6.2,7.5,8.7,11.6c2.9,4.8,7,5.5,11.9,4.9c3.3-0.4,6.2-1.9,8.5-4.3
				C455.5-442.1,456-442.2,456.4-442.5"/>
		</g>
	</g>
	<g>
		<g>
			<defs>
				<rect id="SVGID_11_" x="270.5" y="-712.2" width="723" height="686"/>
			</defs>
			<clipPath id="SVGID_12_">
				<use xlink:href="#SVGID_11_"  style="overflow:visible;"/>
			</clipPath>
			<path class="st5" d="M730-627.7c-10.6,0.1-21.3,0-31.9,0.3c-5.7,0.2-11.3,0.9-17,1.5c-4.8,0.5-9.6,0.9-14.3,1.6
				c-4.7,0.7-9.4,1.7-14,2.9c-6.3,1.7-12.6,3.6-18.9,5.6c-6.9,2.2-13.7,4.5-20.6,6.9c-5.2,1.8-10.3,3.9-15.4,5.8
				c-2.8,1.1-5.7,2.2-8.5,3.3c0-6.6-0.1-13.2,0.2-19.7c0.4-8.1,1-16.3,1.9-24.4c0.7-6.1,1.8-12.2,3-18.3c0.8-3.9,1.8-7.7,3-11.4
				c0.7-2.4,1.5-4.9,2.7-7.1c0.6-1.1,2.2-2.1,3.5-2.3c4.3-0.9,8.7-1.4,13-2.2c12.2-2.3,24.5-1.6,36.7-0.8
				c10.7,0.7,21.3,2.1,31.9,3.5c4.7,0.6,9.4,1.6,14.1,2.5c5.6,1.1,11.2,2.2,16.8,3.4c4,0.9,8,1.8,12,2.9c7.1,2,14.3,3.9,21.3,6.1
				c6.4,2,12.8,4,19.1,6.4c5.8,2.2,11.4,4.8,17.1,7.3c3.1,1.4,6.3,2.7,9.4,4.3c3.8,1.9,7.5,4,11.3,6c-0.1,0.3-0.1,0.5-0.2,0.8
				c-4.3-0.6-8.7-0.7-12.8-1.8c-6.2-1.8-12.2-4.3-18.3-6.4c-6-2.1-12.1-4.1-18.2-5.9c-7.3-2.2-14.7-4.2-22-6.1
				c-4.5-1.2-9.1-2.2-13.7-3.2c-5.3-1.1-10.7-2.3-16-3.2c-6.8-1.2-13.8-1.8-20.6-3.1c-11.5-2.2-23.1-2-34.7-1.8
				c-4.5,0-9,0.2-13.4,1.1c-6.7,1.3-13.5,2.6-19.5,6c-6.1,3.4-11,7.9-12.2,15.5c-0.9,5.7,0.6,10.6,3,15.4c1.2,2.3,2.9,4.3,4,6.7
				c0.9,2,2.2,2.7,4.1,2.2c2-0.5,2.5-1.9,2.1-3.8c-0.4-3,1-5.5,2.7-7.7c2.6-3.3,5.1-6.9,8.3-9.5c4.4-3.6,9.6-6.1,14.8-8.5
				c7.3-3.4,15.1-4.9,22.8-6.7c3.9-0.9,8.1-1,12.1-1.1c5.4-0.2,10.8-0.1,16.2-0.1c8,1.4,16.1,2.7,24.1,4.2c3.7,0.7,7.4,1.7,11,2.7
				c7.7,2,15.4,4,23,6.3c6.4,1.9,12.8,4,19.2,6.1c2.6,0.8,5,2,7.5,3.4c-0.7-0.2-1.3-0.4-2-0.5c-0.5-0.1-1.1-0.2-1.4,0.1
				c-2.1,1.7-4.5,1.8-6.9,1.7c-2.2-0.1-4.2,2.5-6.6,0.7c0,0-0.3,0.2-0.4,0.3c-3.8,2.8-8.7,2.7-12.9,4.6c-2.9,1.3-5.8,2.7-8.7,3.9
				c-1.8,0.7-4.6,0.7-5.4,2C733.8-627.7,731.7-628.6,730-627.7"/>
		</g>
	</g>
	<g>
		<g>
			<defs>
				<rect id="SVGID_13_" x="270.5" y="-712.2" width="723" height="686"/>
			</defs>
			<clipPath id="SVGID_14_">
				<use xlink:href="#SVGID_13_"  style="overflow:visible;"/>
			</clipPath>
			<path class="st6" d="M871.8-481.4c-1.7,2.2-2.8,4.8-4.2,7c-2.2,3.3-4,7.1-7.5,9.6c-1.7,1.2-2.6,3.5-3.9,5.2
				c-0.9,1.2-2.1,2.2-3.1,3.3c-1,1-1.8,2.1-2.9,2.9c-2.1,1.7-4.3,3.1-6.4,4.7c-1.3,1-2.6,2-3.8,3.1c-3.1,2.8-7.3,4.1-10.4,6.6
				c-2.6,2.1-6,2.2-8.4,4.6c-1.5,1.5-4.4,1.7-6.6,2.5c-3.5,1.1-6.9,2.4-10.5,3.1c-3.3,0.7-6.8,0.7-10.2,1.1
				c-2.1,0.2-4.2,0.6-6.3,0.9c-3,0.4-6,0.9-9,1.1c-1.7,0.1-3.4-0.4-5.1-0.7c-3-0.4-6-0.7-8.9-1.4c-3.3-0.7-6.5-1.6-9.7-2.5
				c-1.4-0.4-2.7-0.8-4-1.3c-4.2-1.7-8.4-3.5-12.5-5.3c-0.4-0.1-0.7-0.2-1.1-0.4c-0.1-0.1-0.2-0.1-0.3-0.1c-0.1-1.7-1.3-1.9-2.6-2
				l0,0c0.2-0.2,0.6-0.7,0.6-0.7c-1.5-1.3-3-2.6-4.4-3.9c-0.4-0.4-0.8-0.7-1.2-1.1c-1.8-2.2-3.6-4.5-5.5-6.7
				c-0.3-0.4-0.9-0.7-0.9-1.1c-0.3-2.3-2.3-3.5-3.4-5.3c-1.1-1.8-2.8-3.2-3.6-5c-1.8-4.2-3.1-8.7-4.8-12.9c-0.8-2-1.2-4-1.4-6.2
				c-0.2-2.3-1.1-4.5-1.6-6.8c-0.4-1.7-0.8-3.3-1.3-5.4c1.1-1.3,1.2-3-0.4-4.7c0.2-1.2,0.1-2.2,0-3.3c0-1.3,0.1-2.5,0.2-4.4
				c-0.1-0.7-0.5-2.1-0.3-3.5c0.2-2.5,0.6-5,1.2-7.4c1.4-5.4,0.1-11.4,3.6-16.5c1.2-1.8,1.4-4.2,2.2-6.3c1.6-3.9,3.3-7.7,5-11.5
				c0.1-0.2,0.1-0.5,0.3-0.7c1.4-1.8,3.4-3.5,4.1-5.5c1.3-3.8,4.6-6.1,6.4-9.3c2.6-4.5,7.3-7.1,10.2-11.4c1.7-2.5,4.8-4.1,7.4-6
				c1.8-1.3,3.9-2.4,5.8-3.6c5-3,9.8-6.2,15-8.7c4.6-2.3,9.7-3.7,14.6-5.4c0.8-0.3,1.7-0.6,2.6-0.7c3.4-0.4,7-0.3,10.2-1.4
				c2.1-0.7,4-0.9,6.1-0.8c0.6,0.6,1.2,1.3,1.9,1.8c3.7,2.6,7.6,4.9,11.1,7.7c4.4,3.5,8.6,7.3,12.8,11.1c3.7,3.4,7.5,6.8,10.8,10.6
				c4.2,4.8,8.3,9.7,11.9,14.9c3.5,5,6.7,10.3,9.5,15.8c2.8,5.7,5.3,11.7,7.3,17.8c2.1,6.8,4,13.8,5,20.8c0.9,7,0.5,14.3,0.7,21.4
				C871.4-483.1,871.6-482.3,871.8-481.4 M783.1-446c4.6-0.7,10.6-1.3,16.4-2.7c5-1.2,10.1-2.6,14.7-5c5.7-3,11.2-6.5,16.1-10.6
				c4.8-4.1,9-9,13.1-13.9c2.2-2.7,4.2-5.8,5.4-9c2.5-6.5,5.1-13.1,6.4-19.9c1.9-9.2,1.5-18.6-0.9-27.8c-1.7-6.8-4.1-13.2-7.9-19
				c-4.5-6.8-9.9-12.8-16-18c-5.3-4.5-11.4-7.8-18-9.9c-5.3-1.7-10.8-3.1-16.4-3.7c-9.4-1-18.8-0.9-28.1,2
				c-6.7,2.1-13.2,4.3-19.3,7.8c-2.4,1.4-4.7,3-6.8,4.7c-2.5,2.1-4.6,4.6-7.1,6.7c-3.4,2.8-6,6.3-8.5,9.9c-5.1,7.1-9,14.8-10.9,23.3
				c-2.8,12.5-3.3,25,1,37.3c1.6,4.5,3,9.1,5.2,13.3c2,3.8,4.9,7.1,7.6,10.5c2.3,2.8,4.6,5.6,7.4,7.7c3.7,2.9,7.7,5.2,11.7,7.6
				c6.2,3.9,13.3,5.5,20.3,7.2C772.8-446.5,777.3-446.6,783.1-446 M783.1-432c1.1-0.1,1.9,0,2.6-0.1s1.4-0.6,2.1-0.6
				c10.2-0.4,20.1-2.2,29.5-6.4c3.3-1.5,6.6-2.9,9.8-4.5c1.6-0.8,3-4.1,2-4.8c-1-0.7-2.8-0.5-4.2-0.5c-0.5,0-1.1,0.3-1.6,0.6
				c-4,1.8-8,3.6-12,5.4c-1.3,0.5-2.7,0.8-4.1,1.1c-6.7,1.3-13.5,2.8-20.3,3.9c-5.5,0.8-10.8-0.8-16.1-2c-1.2-0.3-3.3,0.3-3.7,1.2
				c-0.9,1.6-0.1,3.4,1.9,4.2c0.5,0.2,1.1,0.6,1.6,0.7C774.9-433.3,779.2-432.6,783.1-432"/>
		</g>
	</g>
	<g>
		<g>
			<defs>
				<rect id="SVGID_15_" x="270.5" y="-712.2" width="723" height="686"/>
			</defs>
			<clipPath id="SVGID_16_">
				<use xlink:href="#SVGID_15_"  style="overflow:visible;"/>
			</clipPath>
			<path class="st7" d="M659-367.9c-3.3-1.3-6.6-3-10-3.8c-6.7-1.6-13.4-3.2-20.2-3.7c-9.8-0.7-19.8-0.7-29.6-0.5
				c-5.2,0.1-10.5,0.7-15.6,1.8c-8.3,1.8-16.6,3.9-24.4,7.6c-5.7,2.7-11.8,4.8-17.2,8c-6.8,4.1-13.1,8.9-19.4,13.7
				c-4,3.1-7.8,6.4-11.4,10s-6.8,7.5-10,11.4c-2.9,3.5-5.6,7.1-8.2,10.8c-2,3-3.8,6.1-5.4,9.4c-3.5,6.9-7,13.7-10.2,20.7
				c-2,4.5-3.4,9.3-4.9,14c-1.1,3.3-2,6.7-3,10.1c-0.5-3.3-1.2-6.5-1.4-9.8c-0.1-2.2,0.5-4.5,0.6-6.8c0.3-4.1,0.3-8.2,0.6-12.2
				c0.4-4.2,0.6-8.5,1.6-12.6c1.8-7.3,3.6-14.7,6.2-21.7c2.4-6.5,5.7-12.8,9-18.9c2.8-5.1,6.1-10,9.6-14.6c3.1-4,6.7-7.6,10.2-11.3
				c2.4-2.6,4.7-5.3,7.4-7.6c3.3-2.8,6.7-5.4,10.3-8c3.5-2.6,7.1-5.1,10.8-7.3c3.5-2.1,7.1-3.9,10.8-5.5c5.2-2.2,10.6-4.2,15.9-6.3
				c8.4-3.3,17.1-5.2,26.1-5.9c7-0.6,14-1.7,21-1.3c9.1,0.5,18.2,2,27.3,3.4c1.3,0.2,2.5,1.9,3.5,3.1c2.1,2.6,4,5.4,6.2,8.1
				c2.3,2.9,4.6,5.8,7.3,8.4c3.5,3.5,7.3,6.7,11.4,10.4C662.5-372.8,660.7-370.3,659-367.9"/>
		</g>
	</g>
	<g>
		<g>
			<defs>
				<rect id="SVGID_17_" x="270.5" y="-712.2" width="723" height="686"/>
			</defs>
			<clipPath id="SVGID_18_">
				<use xlink:href="#SVGID_17_"  style="overflow:visible;"/>
			</clipPath>
			<path class="st8" d="M744-247.3c0,0.3,0,0.6,0,0.9c0,1-0.1,2-0.1,3c-0.8,3.6-1.5,7.3-2.5,10.8c-2,6.8-4,13.5-7.3,19.8
				c-1.7,3.2-2.9,6.8-4.8,10c-2.5,4.4-5.3,8.6-8.1,12.8c-2.1,3.1-4.4,6.1-6.8,8.9c-3.3,3.7-6.7,7.4-10.3,10.8
				c-3.9,3.7-7.9,7.4-12.2,10.5c-4.3,3.1-9,5.6-13.6,8.2c-4.2,2.3-8.5,4.6-12.8,6.6c-2.4,1.1-5,1.9-7.5,2.5
				c4.9-3.7,10.1-7.2,14.7-11.3c4.2-3.8,7.9-8.2,11.5-12.6c2.9-3.5,5.7-7.1,8-11c2.8-4.8,5.1-9.9,7.6-14.8
				c2.9-5.8,4.6-12.1,6.2-18.4c3.8-14.9,3.7-29.8,0.8-44.7c-1.3-6.7-3.6-13.4-6.6-19.7c-2.5-5.2-5.4-10.2-8.5-14.9
				c-2-3-4.8-5.5-7.2-8.2c-0.8-0.9-1.4-1.8-2.1-2.7c0.4-0.7,0.6-1.6,1.1-2.2c3.3-4.5,6.7-8.9,10.1-13.3c4.1-5.4,8.2-10.8,12.3-16.2
				c1.2-1.6,2.4-3.2,3.7-4.9c0.8,1,1.4,1.7,2,2.5c2.8,3.5,5.9,6.7,8.5,10.4c2.7,4,5.1,8.2,7.3,12.5c2.7,5.4,5.5,10.9,7.6,16.5
				c2.4,6.5,4.6,13.1,5.9,19.8c1.6,8.4,2.1,17,3.1,25.5C743.9-249.3,743.9-248.3,744-247.3"/>
		</g>
	</g>
	<g>
		<g>
			<defs>
				<rect id="SVGID_19_" x="270.5" y="-712.2" width="723" height="686"/>
			</defs>
			<clipPath id="SVGID_20_">
				<use xlink:href="#SVGID_19_"  style="overflow:visible;"/>
			</clipPath>
			<path class="st9" d="M512.3-380.5c1-2.3,1.6-4.8,3-6.8c3.1-4.5,6.5-8.9,9.9-13.2c2.4-2.9,5.1-5.6,7.7-8.2
				c1.4-1.4,2.8-2.7,4.4-3.9c6.2-4.9,12.2-10.1,18.9-14.3c6.6-4.2,13.9-7.4,20.9-11c6.7-3.5,13.9-5.4,21.4-6.5
				c1.4-0.2,2.9-0.6,4.2-1.1c0.5-0.2,0.9-0.9,1-1.5c1-4.2,1.8-8.5,3.1-12.6c0.9-2.9,2.5-5.7,3.8-8.7c-6.8-10.7-15.3-20.6-18.9-33.5
				c1.4,1.3,2.7,2.6,4.2,3.8c3.5,3,6.8,6.3,10.4,9.1c4.9,3.7,10,7.2,15.1,10.6c2.1,1.4,4.3,2.7,6.6,3.8c5.8,2.6,11.8,5.1,17.7,7.6
				c1.9,0.8,3.9,1.4,5.8,2.1c0.6,0.2,1.2,0.6,1.6,1.1c4.1,5.3,8.2,10.7,12.3,15.9c2.3,2.9,4.9,5.7,7.2,8.6c1.6,2,3.1,4.2,4.6,6.3
				c1,1.4,1.8,2.8,2.7,4.3c-1.1-0.1-2.2-0.5-3.1-0.2c-1,0.2-2.7,0.9-2.8,1.6c-0.2,1,0.5,2.7,1.3,3.2c2,1.1,4.1,2.9,6.6,0.6
				c2.2,3.2,4.3,6.2,6.2,9c-3.2,5.2-6.1,10.3-9.3,15.3c-1.3,2-2.8,3.8-4.2,5.7c-1-0.5-2.2-0.8-3-1.6c-2.8-2.5-5.4-5.2-8-7.9
				c-3.4-3.4-7-6.8-10.1-10.5c-3.9-4.7-7.7-9.5-11.1-14.5c-4.4-6.5-8.4-13.3-12.7-19.9c-0.2-0.4-1-0.4-1.5-0.6
				c-3-1.7-3.5-1.6-4.8,0.9c-0.5,0.3-1.4,0.6-1.5,1c-1.3,3.6-2.5,7.3-3.5,11c-0.5,1.7-0.5,3.5-0.8,5.1c-1.6,0.5-3,1.1-4.4,1.4
				c-4.9,1.2-9.9,2.4-14.8,3.5c-6.2,1.4-12.1,3.6-17.7,6.6c-6.6,3.5-13.1,7.2-19.6,10.8c-0.4,0.2-0.6,0.7-0.9,1.1
				c-4.2,1.5-8.5,2.8-12.5,4.7c-5.4,2.5-10.9,5.1-15.9,8.3C525.2-389.8,518.8-385,512.3-380.5"/>
		</g>
	</g>
	<g>
		<g>
			<defs>
				<rect id="SVGID_21_" x="270.5" y="-712.2" width="723" height="686"/>
			</defs>
			<clipPath id="SVGID_22_">
				<use xlink:href="#SVGID_21_"  style="overflow:visible;"/>
			</clipPath>
			<path class="st10" d="M800.4-605.8c-2.1-0.1-3.9,0-6.1,0.8c-3.2,1.1-6.8,0.9-10.2,1.4c-0.9,0.1-1.7,0.4-2.6,0.7
				c-4.9,1.8-9.9,3.2-14.6,5.4c-5.2,2.5-10,5.8-15,8.7c-2,1.2-4,2.2-5.8,3.6c-2.6,1.9-5.7,3.5-7.4,6c-2.9,4.3-7.5,6.8-10.2,11.4
				c-1.9,3.2-5.1,5.5-6.4,9.3c-0.7,2.1-2.7,3.7-4.1,5.5c-0.1,0.2-0.2,0.5-0.3,0.7c-1.7,3.8-3.4,7.7-5,11.5c-0.9,2.1-1,4.5-2.2,6.3
				c-3.5,5.1-2.2,11.1-3.6,16.5c-0.6,2.4-1,4.9-1.2,7.4c-0.1,1.4,0.3,2.8,0.3,3.5c-0.1,1.9-0.2,3.2-0.2,4.4c0,1.1,0.2,2.2,0,3.3
				c1.7,1.7,1.5,3.4,0.4,4.7c0.5,2.1,0.9,3.7,1.3,5.4c0.6,2.3,1.4,4.5,1.6,6.8c0.2,2.2,0.6,4.2,1.4,6.2c1.8,4.2,3,8.7,4.8,12.9
				c0.8,1.9,2.5,3.3,3.6,5c1.1,1.8,3.1,3,3.4,5.3c0.1,0.4,0.6,0.7,0.9,1.1c1.8,2.2,3.6,4.5,5.5,6.7c0.3,0.4,0.8,0.8,1.2,1.1
				c1.5,1.3,3,2.6,4.4,3.9c0,0-0.4,0.5-0.6,0.7c-1.3-0.5-2.6-0.9-3.7-1.5c-1.3-0.7-2.4-1.7-3.5-2.6c-2-1.6-4-3.2-6-4.9
				c-2.2-1.9-4.4-3.9-6.5-6c-1.1-1-2.1-2-3-3.2c-2.1-2.5-4.4-4.8-6-7.6c-1.6-3-4-5.3-5.5-8.2c-2.1-3.8-3.3-8.1-4.7-12.2
				c-1.2-3.5-2.2-7.1-3.2-10.7c-0.2-0.5-0.1-1.1-0.2-1.7c-0.3-1.5-0.6-3.1-0.9-4.6c-0.1-0.6-0.6-1.1-0.5-1.6
				c1-5.1-0.7-10.2-0.2-15.3c0.5-4.4,1.1-8.8,1.7-13.2c0.5-3.3,0.9-6.6,1.8-9.8c1-3.3,2.8-6.4,4.1-9.6c0.8-1.9,1-4,1.9-5.7
				c3-5.5,6.1-11.1,9.6-16.3c2.5-3.7,5.7-6.9,8.7-10.1c2.8-3,5.6-6,8.7-8.5c2.7-2.2,5.9-3.6,8.9-5.5c1-0.6,1.7-1.5,2.7-2.1
				c4-2.4,7.9-4.9,12-6.9c2.7-1.3,5.8-1.8,8.7-2.8c2.2-0.8,4.3-1.8,6.5-2.6c2.9-1,5.8-2.1,8.8-2.6c3.3-0.6,6.7-0.5,10-0.7
				c2.6-0.2,5.2-0.3,7.8-0.5l0,0c2.5,0.2,5,0.3,7.6,0.5c3.6,0.3,7.3,0.4,10.8,1.1c4,0.7,8,1.8,11.8,3.1c2.4,0.8,4.4,2.5,6.7,3.6
				c1.5,0.7,3.3,1,4.8,1.8c2.8,1.4,5.7,2.6,8.2,4.7c1.2,1.1,2.9,1.6,4.3,2.5c0.4,0.2,0.6,0.8,0.8,1.2c-0.9-0.3-1.8-0.4-2.6-0.8
				c-1.5-0.7-2.8-2.2-4.7-1.7c-0.1,0-0.3-0.1-0.5-0.1c-2.8-1.6-5.7-2.5-8.9-3c-3.9-0.6-7.7-1.7-11.6-2.2c-3.5-0.5-7.1-0.4-10.7-0.6
				c0.2-0.1,0.5-0.1,0.7-0.2c0-0.1-0.1-0.2-0.1-0.3c-0.3,0.1-0.6,0.1-0.9,0.2C805.3-606.4,802.8-606.1,800.4-605.8"/>
		</g>
	</g>
	<g>
		<g>
			<defs>
				<rect id="SVGID_23_" x="270.5" y="-712.2" width="723" height="686"/>
			</defs>
			<clipPath id="SVGID_24_">
				<use xlink:href="#SVGID_23_"  style="overflow:visible;"/>
			</clipPath>
			<path class="st11" d="M800.4-605.8c2.4-0.3,4.8-0.5,7.2-0.8c0.1,0.1,0.1,0.2,0.2,0.2c3.6,0.2,7.2,0.1,10.7,0.6
				c3.9,0.5,7.7,1.7,11.6,2.2c3.2,0.5,6.1,1.4,8.9,3c0.1,0.1,0.3,0.2,0.5,0.1c2-0.5,3.2,1,4.7,1.7c0.8,0.4,1.7,0.5,2.6,0.8
				c1.2,0.7,2.3,1.4,3.5,2.2c1.5,1,3,2.1,4.6,3.1l-0.3,0.4c2,2.1,3.8,4.1,5.7,6.2c0.8,0.9,1.6,1.8,2.4,2.6c2.8,2.8,4.7,6.1,6.7,9.4
				c1.2,2,2.5,3.9,3.5,6c1.2,2.5,2.1,5.2,3.5,7.6c1.6,2.6,1.1,5.8,3,8.2c0.3,0.3,0.8,0.8,0.7,1c-1.6,3,1.4,5.2,1.4,8
				c0,1.8,0.8,3.7,1.2,5.6c0.1,0.7,0.2,1.8-0.2,2.1c-1.3,1-0.7,1.5,0.1,2.4c1.2,1.4,0.6,7.1-0.6,8.1c0.3,0.9,0.7,1.6,0.7,2.3
				c-0.3,3.5-0.5,6.9-1,10.4c-0.4,3-0.9,5.9-1.8,8.8c-1.7,5.7-3.7,11.3-5.7,16.9c-0.7,1.9-1.7,3.6-2.6,5.3c-0.1-0.9-0.4-1.7-0.4-2.6
				c-0.2-7.1,0.2-14.4-0.7-21.4c-0.9-7-2.8-14-5-20.8c-1.9-6.1-4.4-12-7.3-17.8c-2.7-5.5-6-10.8-9.5-15.8
				c-3.6-5.2-7.7-10.2-11.9-14.9c-3.3-3.8-7.1-7.2-10.8-10.6c-4.2-3.8-8.4-7.6-12.8-11.1c-3.5-2.8-7.4-5.1-11.1-7.7
				C801.6-604.6,801.1-605.3,800.4-605.8"/>
		</g>
	</g>
	<g>
		<g>
			<defs>
				<rect id="SVGID_25_" x="270.5" y="-712.2" width="723" height="686"/>
			</defs>
			<clipPath id="SVGID_26_">
				<use xlink:href="#SVGID_25_"  style="overflow:visible;"/>
			</clipPath>
			<path class="st12" d="M701.3-252c-0.5-0.4-1.2-0.8-1.4-1.3c-1.8-5.8-4.6-11.2-8.2-16.1c-2.9-4-6.6-7.4-10.3-10.7
				c-3.3-2.9-6.8-5.7-10.6-7.9c-6.2-3.6-13.1-5.7-20-7.7c-11-3.2-22.2-2.8-33.3-2.6c-4.5,0.1-9.2,0.5-13.6,1.5
				c-8.2,1.8-16.4,3.9-24.3,6.4c-5.7,1.8-11.2,4.6-16.7,7.1s-10.8,5.1-16.3,7.7c-1,0.4-2,0.8-2.9,1.2c1.7-2.5,3.2-5.1,5-7.4
				c2.3-2.9,4.8-5.6,7.3-8.3c1.3-1.4,2.5-2.8,3.9-4c4.6-3.5,9.3-7,14.1-10.3c6.6-4.6,13.8-7.9,21.6-10.1c3.6-1,7.1-1.9,10.7-2.8
				c9.1-2.4,18.3-2.5,27.4-1c7.2,1.2,14.2,3.5,21,5.9c4.1,1.4,8.1,3.6,11.6,6.2c5.1,3.9,9.9,8.4,14.5,12.8c2.6,2.5,4.8,5.4,7,8.3
				c1.4,1.8,2.6,3.9,3.8,5.9c1,1.8,2,3.6,2.8,5.4c2.3,5.3,4.4,10.7,5.3,16.5C700.1-255.4,700.8-253.7,701.3-252"/>
		</g>
	</g>
	<g>
		<g>
			<defs>
				<rect id="SVGID_27_" x="270.5" y="-712.2" width="723" height="686"/>
			</defs>
			<clipPath id="SVGID_28_">
				<use xlink:href="#SVGID_27_"  style="overflow:visible;"/>
			</clipPath>
			<path class="st13" d="M875.3-414.4c-0.9,5.6-1.8,11.2-2.9,16.8c-0.9,4.9-2.1,9.7-3.2,14.5c-0.1,0.6-0.5,1.4-1,1.6
				c-3.2,1.4-6.5,2.8-9.8,4c-9.8,3.7-20,5.3-30.3,6.8c-10.5,1.4-20.8,1.4-31.3,0.6c-6.7-0.5-13.5-1.6-20.1-2.8
				c-4.9-0.9-9.9-2.1-14.7-3.6c-4.4-1.3-8.6-3.2-12.8-4.9c0.4-0.3,0.9-0.5,1.2-0.9c2.6-3.1,5.1-6.2,7.7-9.2c0.6-0.7,1.4-1.6,2-1.6
				c2.4,0.1,5.1,0,6.9,1.1c2.1,1.3,4.1,1.4,6.3,1.6c2.6,0.3,5.6,0,7.7,1.2c2.5,1.4,4.9,0.7,7.2,1c2.8,0.4,5.7,0.3,8.6,0.3
				c2.8,0,5.6-0.2,8.4-0.5c1.8-0.2,3.6-0.7,5.4-0.9c1-0.1,2.2,0.5,3.2,0.3c3.7-0.7,7.4-1.7,11.1-2.3c1.1-0.2,2.2,0.2,3.1-1
				c0.2-0.4,1-0.4,1.6-0.5c3.7-0.5,7.2-1.6,10.6-3.2c2.2-1,4.4-1.7,6.8-2.6c0.2,0.3,0.5,0.8,0.8,1.3c-1.6,2.9-3.2,5.7-1,9
				c1.1,1.7,4,2.5,5.8,1.5c1.6-0.9,1.5-2.3,1-3.7c-1.2-3-0.8-4.2,1.6-6.6c1.5-1.5,2.8-3.4,1.8-5.8c1-0.6,1.9-1.1,2.9-1.7
				c2.4-1.6,4.6-3.6,7.1-4.6c2.7-1.1,4.7-2.6,5.8-4.4C874-414,874.7-414.2,875.3-414.4"/>
		</g>
	</g>
	<g>
		<g>
			<defs>
				<rect id="SVGID_29_" x="270.5" y="-712.2" width="723" height="686"/>
			</defs>
			<clipPath id="SVGID_30_">
				<use xlink:href="#SVGID_29_"  style="overflow:visible;"/>
			</clipPath>
			<path class="st14" d="M875.3-414.4c-0.7,0.2-1.3,0.4-2.5,0.7c-1.1,1.8-3.1,3.4-5.8,4.4c-2.6,1-4.8,3-7.1,4.6
				c-0.9,0.6-1.9,1.1-2.9,1.7c-1.9-0.8-3.5-0.7-5,0.9c-1.4,1.6-2.8,3.1-4.2,4.7c-0.3-0.5-0.6-1-0.8-1.3c-2.4,0.9-4.7,1.6-6.8,2.6
				c-3.4,1.6-6.9,2.6-10.6,3.2c-0.6,0.1-1.4,0.2-1.6,0.5c-0.8,1.3-1.9,0.8-3.1,1c-3.7,0.6-7.4,1.6-11.1,2.3c-1,0.2-2.1-0.4-3.2-0.3
				c-1.8,0.2-3.6,0.7-5.4,0.9c-2.8,0.3-5.6,0.4-8.4,0.5c-2.9,0-5.7,0.1-8.6-0.3c-2.4-0.3-4.7,0.5-7.2-1c-2.1-1.2-5.1-0.9-7.7-1.2
				c-2.2-0.2-4.2-0.3-6.3-1.6c-1.9-1.1-4.6-1-6.9-1.1c-0.6,0-1.5,0.9-2,1.6c-2.6,3.1-5.1,6.2-7.7,9.2c-0.3,0.4-0.8,0.6-1.2,0.9
				c-3.5-1.6-7-3.1-10.5-4.7c-0.3-0.1-0.5-0.4-0.8-0.6c-3.2-1.7-3.3-1.7-1.3-4.8c2.1-3.3,4.2-6.7,6.4-10c1.1-1.7,2.9-1.8,4.7-1.3
				c2.2,0.7,4.4,1.7,6.6,2.2c3.6,0.7,7.2,1.1,10.8,1.9c1.6,0.4,3.2,1,4.8,1.1c3.5,0.2,7,0.1,10.5,0.1c1,0,2-0.3,2.9-0.4
				c2.4-0.2,4.9-0.2,7.3-0.4c0.7-0.1,1.3-0.6,2-0.7c3.8-0.4,7.6-0.7,11.4-1.1c1-0.1,2-0.3,2.8-0.8c1.1-0.7,2.1-1.8,3.4-0.3
				c0.2,0.2,0.8,0.1,1.2-0.1c2.2-0.7,4.4-1.5,6.6-2.3c0.2-0.1,0.6,0,0.7-0.1c2.7-2.7,7.2-1.9,9.9-4.7c0.3-0.4,1.1-0.5,1.7-0.4
				c2.4,0.5,4.2-1,6-1.9c4.8-2.5,9.3-5.5,13.9-8.3c1.4-0.8,2.8-1.5,4.2-2.4c0.8-0.5,1.4-1.3,2.1-1.9c0.2-0.2,0.3-0.6,0.4-0.6
				c3.3,0.3,3.6-3.7,5.9-4.3c2.3-0.7,3.2-2.6,4.7-4c1.3-1.3,3-2.1,4.4-3.3c0.7-0.6,1.1-1.8,1.8-2.5c1.4-1.3,3-2.4,4.9-4
				c-0.3,5.1-0.6,9.7-0.9,14.3c-0.2,2.4-0.4,4.8-0.8,7.2C876.5-418.4,875.8-416.4,875.3-414.4"/>
		</g>
	</g>
	<g>
		<g>
			<defs>
				<rect id="SVGID_31_" x="270.5" y="-712.2" width="723" height="686"/>
			</defs>
			<clipPath id="SVGID_32_">
				<use xlink:href="#SVGID_31_"  style="overflow:visible;"/>
			</clipPath>
			<path class="st15" d="M515.4-416.5c-3,4.5-5.9,9-10.5,12.2c-3.8,2.6-10.1,2.3-13.9-0.5c-8-6-10.9-14.4-12.8-23.8
				c-1.6-8.1-1.4-16.3-2-24.4c-0.3-4.4-1.5-8.7-2.2-13.1c-0.6-3.9-1.1-7.9-1.7-11.8c-0.1-0.4-0.3-0.9-0.6-1.7
				c-1.9,2.7-3.6,5.1-5.3,7.4c-1,1.4-2.3,2.6-3.4,4c-1.4-4.1-2.8-8.1-4.2-12.2c-1.4-4.3-4.4-7.5-7.3-10.8c-1.4-1.5-3.2-2.6-4.9-3.9
				c-2-1.6-4.4-5.5-3.2-7.9c0.8-1.6,1.6-3.2,2.7-4.6c2.3-3.1,4.5-6.2,8.1-8.1c2.9-1.6,7.9-1.6,10.7,0.2c6.1,3.7,9.5,9.1,12.3,15.6
				c2.1,5.1,2.4,10.2,3,15.4c1.2,10.4,2,20.8,3.2,31.1c0.5,4.7,1.3,9.5,2.5,14.1c1.6,6.6,3.5,13.2,6.9,19.1
				c3.2,5.5,9.3,9.7,15.7,7.7C511-413.5,513.1-415.2,515.4-416.5"/>
		</g>
	</g>
	<g>
		<g>
			<defs>
				<rect id="SVGID_33_" x="270.5" y="-712.2" width="723" height="686"/>
			</defs>
			<clipPath id="SVGID_34_">
				<use xlink:href="#SVGID_33_"  style="overflow:visible;"/>
			</clipPath>
			<path class="st16" d="M824.9-354.4c-4.9,3.6-9.6,7.7-14.9,10.8c-4.6,2.7-9.8,4.5-14.7,6.6c-0.4-0.2-0.9-0.5-1.3-0.4
				c-8.8,0.2-17.4-1.8-25.9-3.8c-5.8-1.3-11.5-3.4-17.1-5.4c-6-2.2-12-4.6-17.8-7.2c-2.8-1.2-5.2-3-7.8-4.6
				c3.5-4.7,7.1-9.4,10.5-14.2c1.7-2.4,2.6-2.7,5-1.2c4.2,2.5,8.4,5.1,12.8,7.2c3.9,1.9,8.1,3.3,12.2,4.8c4.9,1.7,9.9,3.7,15,4.8
				c6.3,1.3,12.8,2.1,19.3,2.6c8,0.7,16,1.5,23.8-0.8C824.2-355.3,824.6-354.7,824.9-354.4"/>
		</g>
	</g>
	<g>
		<g>
			<defs>
				<rect id="SVGID_35_" x="270.5" y="-712.2" width="723" height="686"/>
			</defs>
			<clipPath id="SVGID_36_">
				<use xlink:href="#SVGID_35_"  style="overflow:visible;"/>
			</clipPath>
			<path class="st17" d="M453.4-183.4c-1-1.9-1.9-3.7-2.9-5.6c-2-3.8-4.2-7.5-5.9-11.4c-2.4-5.5-4.5-11.1-6.6-16.6
				c-1.5-3.9-2.9-7.9-4.4-11.9c1.2,1.3,2.4,2.6,3.5,3.9c2.8,3.2,5.4,6.6,8.2,9.8c3.5,3.8,7.2,7.4,10.8,11c2.5,2.5,5.1,5.1,7.7,7.5
				c2.7,2.5,5.5,4.8,8.3,7.2c3.2,2.8,6.4,5.6,9.7,8.3c2.9,2.3,5.8,4.5,8.8,6.5c4.4,3,8.8,6,13.3,8.8c2.5,1.6,5.1,3,7.7,4.5
				c3.6,2.2,7.3,4.4,10.9,6.6c0.9,0.5,1.9,0.9,2.8,1.4l0,0c0.2,0.2,0.3,0.4,0.5,0.6c0.8,0.3,1.7,0.6,2.5,0.9l0,0c1,0.7,2,1.3,3,2
				l0,0c0.4,0.2,0.7,0.3,1.1,0.5c-0.6,1.5-1.1,3-1.8,4.4c-0.1,0.3-1,0.4-1.5,0.3c-2.1-0.6-4.2-1.2-6.3-2c-7.3-2.7-14.6-5.3-21.8-8.3
				c-5.6-2.3-11.2-4.8-16.5-7.7c-6.2-3.3-12.2-7-18.1-10.7c-3.8-2.4-7.5-4.9-11.2-7.5C454.4-181.4,453.9-182.5,453.4-183.4"/>
		</g>
	</g>
	<g>
		<g>
			<defs>
				<rect id="SVGID_37_" x="270.5" y="-712.2" width="723" height="686"/>
			</defs>
			<clipPath id="SVGID_38_">
				<use xlink:href="#SVGID_37_"  style="overflow:visible;"/>
			</clipPath>
			<path class="st18" d="M549.4-516.7c-1.7,1.8-3.3,3.7-5.2,5.2c-2.6,2-5.4,3.4-9.1,3.2c-4.3-0.2-7.4-2.1-9.7-5.4
				c-1.9-2.8-3.6-5.8-5.3-8.8c-1.3-2.3-2-2.4-3.9-0.5c-0.7,0.7-1.3,1.5-2,2.2c-1-1.3-2.2-2.6-2.9-4.1c-2.1-4.3-6-7-9.3-10.2
				c-3.8-3.7-7.9-7.1-11.6-10.8c-2.7-2.7-2.2-8.6-0.3-11.9c2.8-4.9,7.4-6.3,12.1-8c2.5-0.9,9.4,2,10.7,3.6c3.1,3.8,5.4,8.1,7.1,12.7
				c2.2,5.9,4.1,11.9,6.9,17.5c2.4,4.8,5.6,9.2,8.8,13.5c2.2,2.9,7.7,3.6,11.1,2.2C547.5-516.5,548.5-516.5,549.4-516.7"/>
		</g>
	</g>
	<g>
		<g>
			<defs>
				<rect id="SVGID_39_" x="270.5" y="-712.2" width="723" height="686"/>
			</defs>
			<clipPath id="SVGID_40_">
				<use xlink:href="#SVGID_39_"  style="overflow:visible;"/>
			</clipPath>
			<path class="st19" d="M585.3-560.9c-4,1.4-8.2,2.6-12.1,4.3c-3.6,1.5-7,3.6-10.4,5.6c-0.7,0.4-0.9,1.8-1.4,2.7
				c-0.5-0.7-1-1.4-1.4-2.2c-2.9-5.4-6.1-10.7-8.6-16.3c-1.8-3.8-1.9-8,0.9-11.7c1.1-1.5,2.1-3.1,3.1-4.6c2.6-3.8,6.5-6,10.5-8
				c5.1-2.4,10.3-4.4,15.5-6.6c0.6-0.2,1.2-0.2,2.3-0.4c0,1.5-0.1,2.8,0,4.1c0.5,10.5,1.1,20.9,1.6,31.4
				C585.4-562.1,585.3-561.5,585.3-560.9"/>
		</g>
	</g>
	<g>
		<g>
			<defs>
				<rect id="SVGID_41_" x="270.5" y="-712.2" width="723" height="686"/>
			</defs>
			<clipPath id="SVGID_42_">
				<use xlink:href="#SVGID_41_"  style="overflow:visible;"/>
			</clipPath>
			<path class="st20" d="M824.9-354.4c-0.3-0.3-0.7-0.9-0.9-0.9c-7.9,2.4-15.9,1.5-23.8,0.8c-6.5-0.6-12.9-1.3-19.3-2.6
				c-5.1-1.1-10-3-15-4.8c-4.1-1.4-8.3-2.9-12.2-4.8c-4.4-2.1-8.6-4.7-12.8-7.2c-2.5-1.5-3.3-1.2-5,1.2c-3.4,4.8-7,9.5-10.5,14.2
				c-1.4,1.7-2.9,3.4-4.3,5.2c-1.2,1.5-2.2,3.2-3.2,4.8c-2.3-1-4.6-2.1-7.1-3.2c7-10.7,13.9-21.2,20.6-31.5
				c5.6,2.6,10.8,5.4,16.2,7.5c6.3,2.4,12.7,4.6,19.2,6.2c9.9,2.5,20,4.3,30.3,4.6c4.8,0.1,9.7,1,14.5,0.9
				c7.6-0.2,15.3-0.9,23.2-1.5c-0.5,0.7-0.8,1.6-1.4,2.2C830.6-360.3,827.7-357.3,824.9-354.4"/>
		</g>
	</g>
	<g>
		<g>
			<defs>
				<rect id="SVGID_43_" x="270.5" y="-712.2" width="723" height="686"/>
			</defs>
			<clipPath id="SVGID_44_">
				<use xlink:href="#SVGID_43_"  style="overflow:visible;"/>
			</clipPath>
			<path class="st21" d="M744-247.3c-0.1-1-0.1-2-0.2-3c-1-8.5-1.5-17.1-3.1-25.5c-1.3-6.7-3.5-13.4-5.9-19.8
				c-2.1-5.7-4.8-11.1-7.6-16.5c-2.2-4.3-4.6-8.5-7.3-12.5c-2.5-3.7-5.6-7-8.5-10.4c-0.6-0.8-1.2-1.5-2-2.5
				c-1.3,1.7-2.5,3.3-3.7,4.9c-4.1,5.4-8.2,10.8-12.3,16.2c-3.4,4.4-6.7,8.9-10.1,13.3c-0.5,0.6-0.7,1.5-1.1,2.2
				c-2.7-1.4-2.9-2.9-1.1-5.5c3.1-4.6,6-9.2,9-13.8c4.6-7,9.3-14,14-21c1-1.5,2.2-2.9,2.9-4.5c0.8-1.8,1.9-1.2,3-0.7
				c4.8,2,9.5,4,14.3,6c2,0.8,3.6,2,4.5,4.1c3,6.9,6.3,13.6,9,20.5c2,5,3.7,10.1,4.7,15.4c1.3,6.6,2.1,13.3,2.6,20
				c0.5,6.9,0.5,13.8,0.5,20.7c0,3.9-0.6,7.8-1,11.6C744.7-247.9,744.3-247.6,744-247.3"/>
		</g>
	</g>
	<g>
		<g>
			<defs>
				<rect id="SVGID_45_" x="270.5" y="-712.2" width="723" height="686"/>
			</defs>
			<clipPath id="SVGID_46_">
				<use xlink:href="#SVGID_45_"  style="overflow:visible;"/>
			</clipPath>
			<path class="st22" d="M628.3-448.3c0.5,0.2,1.3,0.2,1.5,0.6c4.3,6.6,8.3,13.4,12.7,19.9c3.4,5,7.2,9.9,11.1,14.5
				c3.1,3.7,6.7,7,10.1,10.5c2.6,2.7,5.3,5.3,8,7.9c0.8,0.7,2,1.1,3,1.6c-1.7,3.1-3.3,6.2-5.1,9.2c-0.9,1.6-2.1,3.1-3.7,5.6
				c-5.2-5.6-10.4-10.9-15.2-16.4c-2.9-3.4-5.3-7.2-8-10.8c-4.9-6.6-8.3-14-10.9-21.6c-1.5-4.3-1.7-8.9-2.5-13.4
				C629-443.4,628.6-445.9,628.3-448.3"/>
		</g>
	</g>
	<g>
		<g>
			<defs>
				<rect id="SVGID_47_" x="270.5" y="-712.2" width="723" height="686"/>
			</defs>
			<clipPath id="SVGID_48_">
				<use xlink:href="#SVGID_47_"  style="overflow:visible;"/>
			</clipPath>
			<path class="st23" d="M560.3-407c0.3-0.4,0.5-0.9,0.9-1.1c6.5-3.6,13-7.3,19.6-10.8c5.6-3,11.5-5.2,17.7-6.6
				c4.9-1.1,9.9-2.3,14.8-3.5c1.4-0.3,2.7-0.9,4.4-1.4c0.2-1.5,0.3-3.3,0.8-5.1c1-3.7,2.3-7.3,3.5-11c0.2-0.5,1-0.7,1.5-1
				c0.5,5.6,0.4,11.4,1.8,16.9c1.6,6.5,4.5,12.8,6.8,19.2c-3.5-0.4-7.4-1.1-11.2-1.3c-8.9-0.3-17.9-0.5-26.8-0.3
				c-5.1,0.1-10.2,0.8-15.3,1.5c-4.7,0.7-9.3,2-14,3C563.2-408,561.8-407.4,560.3-407"/>
		</g>
	</g>
	<g>
		<g>
			<defs>
				<rect id="SVGID_49_" x="270.5" y="-712.2" width="723" height="686"/>
			</defs>
			<clipPath id="SVGID_50_">
				<use xlink:href="#SVGID_49_"  style="overflow:visible;"/>
			</clipPath>
			<path class="st24" d="M694.9-665.5c-5.4,0-10.8-0.1-16.2,0.1c-4.1,0.1-8.2,0.2-12.2,1.1c-7.7,1.8-15.5,3.3-22.8,6.7
				c-5.2,2.4-10.4,5-14.8,8.5c-3.2,2.6-5.7,6.2-8.3,9.5c-1.8,2.2-3.1,4.6-2.7,7.7c-4.6-5.7-7.7-11.9-6.9-19.5c0.4-3.5,2-6.3,4.9-8.5
				c5.5-4,11.8-5.6,18.3-7c9.1-1.9,18.4-2.1,27.6-2c5.7,0.1,11.4,0.4,17.1,1C684.2-667.3,689.5-666.3,694.9-665.5"/>
		</g>
	</g>
	<g>
		<g>
			<defs>
				<rect id="SVGID_51_" x="270.5" y="-712.2" width="723" height="686"/>
			</defs>
			<clipPath id="SVGID_52_">
				<use xlink:href="#SVGID_51_"  style="overflow:visible;"/>
			</clipPath>
			<path class="st25" d="M523.4-451.8c0.4,6.3-2.8,11-5.3,15.7c-2,3.6-4.6,6.9-8.3,9c-0.9,0.5-1.8,1.2-2.8,1.6c-5,2.1-8.4-1.2-9-6.5
				c-0.7-5.7,1.7-10.6,5.2-15c1.9-2.4,3.7-4.9,5.8-7.2c2.7-2.9,5.9-4.8,10.1-4.3c2.6,0.3,4.1,1.7,4.3,4.3
				C523.4-453.2,523.4-452.3,523.4-451.8"/>
		</g>
	</g>
	<g>
		<g>
			<defs>
				<rect id="SVGID_53_" x="270.5" y="-712.2" width="723" height="686"/>
			</defs>
			<clipPath id="SVGID_54_">
				<use xlink:href="#SVGID_53_"  style="overflow:visible;"/>
			</clipPath>
			<path class="st26" d="M717.9-348.4c1.1-1.6,2.1-3.3,3.2-4.8c1.4-1.8,2.8-3.5,4.3-5.2c2.6,1.5,5.1,3.4,7.8,4.6
				c5.9,2.6,11.8,5,17.8,7.2c5.6,2,11.3,4.1,17.1,5.4c8.5,1.9,17,4,25.9,3.8c0.4,0,0.9,0.3,1.3,0.4c-1.4,0.5-2.9,1.4-4.3,1.4
				c-9,0-17.9,0-26.9-0.5c-5.1-0.3-10.1-1.5-15.1-2.6s-10-2.3-14.8-3.8C728.7-344.2,723.3-346.4,717.9-348.4"/>
		</g>
	</g>
	<g>
		<g>
			<defs>
				<rect id="SVGID_55_" x="270.5" y="-712.2" width="723" height="686"/>
			</defs>
			<clipPath id="SVGID_56_">
				<use xlink:href="#SVGID_55_"  style="overflow:visible;"/>
			</clipPath>
			<path class="st27" d="M623.4-171.1c-5.4,0.2-10.8,0.5-16.1,0.6c-1.8,0-2.9,0.5-4.1,2.1c-3.9,5.6-8.1,11-12.2,16.6
				c-2.4,3.3-4.7,6.8-7,10.2c-1.1,1.7-2.1,3.4-3.2,5.1c-0.6,0-1.3,0-2.3,0c1.4-2.6,2.6-4.9,3.9-7.1c1.5-2.5,3.1-4.8,4.6-7.2
				c2.8-4.5,5.5-9,8.3-13.6c1.3-2.2,2.6-4.4,3.9-6.6c3.5-5.9,7-11.8,10.5-17.6c1.9-3.2,3.9-6.3,6.1-9.7c3.7,6.9,5.9,14,6,21.7
				C622-174.8,622.9-172.9,623.4-171.1"/>
		</g>
	</g>
	<g>
		<g>
			<defs>
				<rect id="SVGID_57_" x="270.5" y="-712.2" width="723" height="686"/>
			</defs>
			<clipPath id="SVGID_58_">
				<use xlink:href="#SVGID_57_"  style="overflow:visible;"/>
			</clipPath>
			<path class="st28" d="M490-539.4c5.5,0,8.5,5,6.1,9.8c-0.3,0.7-0.3,1.6-0.6,2.4c-2.2,6.2-5.6,11.2-12,13.9
				c-4.3,1.9-7.6,1.5-9.4-2.3c-1.2-2.5-1.2-5.5,0.2-8.2c0.2-0.4,0.4-0.8,0.5-1.3c1.4-4.4,4-8,7.5-11.1
				C484.7-538.4,487.1-539.6,490-539.4"/>
		</g>
	</g>
	<g>
		<g>
			<defs>
				<rect id="SVGID_59_" x="270.5" y="-712.2" width="723" height="686"/>
			</defs>
			<clipPath id="SVGID_60_">
				<use xlink:href="#SVGID_59_"  style="overflow:visible;"/>
			</clipPath>
			<path class="st29" d="M404.4-407.8c0.1,5.2-1.6,9.7-4.7,13.8c-1,1.4-2,2.9-3.2,4.1c-1.4,1.5-3.1,2.7-4.7,4
				c-1.1,0.9-4.6,0.4-5.8-0.6c-1.3-1.1-2.8-2.2-2.6-4.1c0.3-3.2,0.3-6.5,1.2-9.5c0.7-2.6,2.1-5.1,3.9-7.2c2.3-2.7,5-5.2,7.9-7.1
				c3.5-2.3,7.4,0.8,8,4.8C404.4-408.9,404.4-408.3,404.4-407.8"/>
		</g>
	</g>
	<g>
		<g>
			<defs>
				<rect id="SVGID_61_" x="270.5" y="-712.2" width="723" height="686"/>
			</defs>
			<clipPath id="SVGID_62_">
				<use xlink:href="#SVGID_61_"  style="overflow:visible;"/>
			</clipPath>
			<path class="st30" d="M459.9-461c-0.6,4.5-3,9.5-7,13.5c-1.4,1.4-3.3,2.3-5.1,3c-2.1,0.7-4-0.4-5.6-1.9c-2.7-2.6-3.4-5.9-2.5-9.4
				c1.1-4.1,2.8-8.2,5.8-11.3c1.7-1.7,4.1-3.1,6.5-3.7C456.7-472.1,459.9-467.6,459.9-461"/>
		</g>
	</g>
	<g>
		<g>
			<defs>
				<rect id="SVGID_63_" x="270.5" y="-712.2" width="723" height="686"/>
			</defs>
			<clipPath id="SVGID_64_">
				<use xlink:href="#SVGID_63_"  style="overflow:visible;"/>
			</clipPath>
			<path class="st31" d="M543-524.9c-6.2,0.1-9.1-6.7-8.5-11.2s2.7-8.2,6.1-11.1c2.5-2.1,5.6-2.4,8.7-1.6c3.4,1,4.4,3.8,5.1,6.8
				c1.2,5.7-1.1,10.4-4.8,14.3C548.1-526.1,545.2-525.8,543-524.9"/>
		</g>
	</g>
	<g>
		<g>
			<defs>
				<rect id="SVGID_65_" x="270.5" y="-712.2" width="723" height="686"/>
			</defs>
			<clipPath id="SVGID_66_">
				<use xlink:href="#SVGID_65_"  style="overflow:visible;"/>
			</clipPath>
			<path class="st32" d="M426-510.3c-1.4,5.5-2.6,11.1-7.7,14.8c-2.6,1.9-4.8,3.9-8.2,2.5c-0.7-0.3-1.4-0.7-1.8-1.3
				c-2.3-3-2.3-6.2-1.2-9.8c1.5-5,4.3-8.9,8.4-11.9c2.1-1.6,4.9-2.3,7.3-0.7C424.8-515.3,426.3-513.1,426-510.3"/>
		</g>
	</g>
	<g>
		<g>
			<defs>
				<rect id="SVGID_67_" x="270.5" y="-712.2" width="723" height="686"/>
			</defs>
			<clipPath id="SVGID_68_">
				<use xlink:href="#SVGID_67_"  style="overflow:visible;"/>
			</clipPath>
			<path class="st33" d="M557-192.4c-2.4-2.6-4.7-5.2-7.1-7.8c-0.5-0.6-1.1-1.2-1.6-1.8c1.6-2.7,3.1-5.5,4.8-8.2
				c0.8-1.3,2-2.5,3.3-3.3c4.9-3.3,10-6.3,16-7.3c0.3-0.1,0.7,0,0.9,0c-1.9,3.6-3.6,7.2-5.6,10.7c-2.7,4.8-5.6,9.6-8.4,14.4
				C558.7-194.6,557.8-193.5,557-192.4"/>
		</g>
	</g>
	<g>
		<g>
			<defs>
				<rect id="SVGID_69_" x="270.5" y="-712.2" width="723" height="686"/>
			</defs>
			<clipPath id="SVGID_70_">
				<use xlink:href="#SVGID_69_"  style="overflow:visible;"/>
			</clipPath>
			<path class="st34" d="M385.9-468.5c0.1-6.1,3.1-11,7.5-14.9c1.5-1.3,3.9-2.7,6.3-0.6c1.7,1.5,2.7,4.4,2.1,7.3
				c-1.1,5.9-4.5,10.2-9.3,13.6c-2.3,1.7-6.2-0.3-6.6-3.3C385.8-467,385.9-467.8,385.9-468.5"/>
		</g>
	</g>
	<g>
		<g>
			<defs>
				<rect id="SVGID_71_" x="270.5" y="-712.2" width="723" height="686"/>
			</defs>
			<clipPath id="SVGID_72_">
				<use xlink:href="#SVGID_71_"  style="overflow:visible;"/>
			</clipPath>
			<path class="st35" d="M475.5-567.6c-0.9,4.6-2.9,8.4-6.8,11.3c-2.8,2-5.4,3-8.7,1.9c-1.8-0.6-3.4-3-3-4.7c0.4-1.5,0.9-3,1.7-4.3
				c2.3-3.6,5.2-6.6,9-8.6C471.6-574,476.2-571.7,475.5-567.6"/>
		</g>
	</g>
	<g>
		<g>
			<defs>
				<rect id="SVGID_73_" x="270.5" y="-712.2" width="723" height="686"/>
			</defs>
			<clipPath id="SVGID_74_">
				<use xlink:href="#SVGID_73_"  style="overflow:visible;"/>
			</clipPath>
			<path class="st36" d="M445.4-542c-0.5,3.1-2.2,6.5-5.3,9.2c-1.1,1-2.1,2.4-3.4,2.9c-4.8,1.6-6.7-0.7-6.7-4.8
				c0.1-3.8,2.1-7.3,4.9-10c1.1-1,2.1-2.3,3.4-2.9C442.6-549.6,445.3-547.8,445.4-542"/>
		</g>
	</g>
	<g>
		<g>
			<defs>
				<rect id="SVGID_75_" x="270.5" y="-712.2" width="723" height="686"/>
			</defs>
			<clipPath id="SVGID_76_">
				<use xlink:href="#SVGID_75_"  style="overflow:visible;"/>
			</clipPath>
			<path class="st37" d="M522.4-477.1c0,3.8-2.4,6.4-4.6,9.2c-1.3,1.7-2.3,3.8-4.8,4.1c-1.4,0.2-3,0.9-4.1,0.4
				c-1.9-0.8-2.8-2.8-2.4-5c0.8-4.1,3.2-7.1,6.4-9.7c1.7-1.3,3.2-2.7,5.4-2.8C522-481.1,522.4-480.7,522.4-477.1"/>
		</g>
	</g>
	<g>
		<g>
			<defs>
				<rect id="SVGID_77_" x="270.5" y="-712.2" width="723" height="686"/>
			</defs>
			<clipPath id="SVGID_78_">
				<use xlink:href="#SVGID_77_"  style="overflow:visible;"/>
			</clipPath>
			<path class="st38" d="M500.9-584.7c0.3,3.8-2,6.4-5,8.5c-1.5,1-3,2.2-4.6,2.7c-4.4,1.4-7.5-1.6-6.2-6.1c0.8-2.8,2.3-5.5,5.2-6.9
				c1.8-0.9,3.6-2,5.5-2.6C499.3-590.1,500.9-588.8,500.9-584.7"/>
		</g>
	</g>
	<g>
		<g>
			<defs>
				<rect id="SVGID_79_" x="270.5" y="-712.2" width="723" height="686"/>
			</defs>
			<clipPath id="SVGID_80_">
				<use xlink:href="#SVGID_79_"  style="overflow:visible;"/>
			</clipPath>
			<path class="st39" d="M441.5-485.2c-1.6,3.8-2.9,7.2-4.5,10.4c-0.9,1.7-1.5,3.8-3.8,4.4c-2.2,0.7-4.5-0.3-5.5-2.4
				c-2.1-4.7,0.7-10.1,4.1-13.4c0.7-0.7,1.3-1.6,2.1-1.9c1.4-0.6,3.3-1.4,4.5-0.9C439.7-488.4,440.4-486.6,441.5-485.2"/>
		</g>
	</g>
	<g>
		<g>
			<defs>
				<rect id="SVGID_81_" x="270.5" y="-712.2" width="723" height="686"/>
			</defs>
			<clipPath id="SVGID_82_">
				<use xlink:href="#SVGID_81_"  style="overflow:visible;"/>
			</clipPath>
			<path class="st40" d="M494.4-480.5c0.2-2.4,1-4.5,2.6-6.5c1.8-2.3,3.7-4.3,6.4-5.4c2.3-0.9,5.2,0.6,5.4,3c0.4,3.7-1.3,7-3.3,9.8
				c-1.3,1.8-3.4,3.1-5.3,4.4c-2.1,1.4-5.6-1.1-5.9-3.3C494.3-479.2,494.4-479.8,494.4-480.5"/>
		</g>
	</g>
	<g>
		<g>
			<defs>
				<rect id="SVGID_83_" x="270.5" y="-712.2" width="723" height="686"/>
			</defs>
			<clipPath id="SVGID_84_">
				<use xlink:href="#SVGID_83_"  style="overflow:visible;"/>
			</clipPath>
			<path class="st41" d="M525.9-594.6c0.2,2.7-0.5,4.8-2.8,6.3c-2.2,1.4-4.2,3-6.3,4.6c-1.6,1.2-5.7-1.1-6-2.8
				c-0.6-4.2,1.7-7.2,4.3-9.9c1.4-1.5,3.3-2.5,5.1-3.6c2.5-1.4,5.2,0.2,5.7,3.4C526-595.9,525.9-595.1,525.9-594.6"/>
		</g>
	</g>
	<g>
		<g>
			<defs>
				<rect id="SVGID_85_" x="270.5" y="-712.2" width="723" height="686"/>
			</defs>
			<clipPath id="SVGID_86_">
				<use xlink:href="#SVGID_85_"  style="overflow:visible;"/>
			</clipPath>
			<path class="st42" d="M539.8-594.9c-2.6,0.4-4.1-0.9-5.3-2.8c-0.8-1.3,0.5-5,1.9-6.2c1.8-1.5,3.6-3.1,5.5-4.5
				c2.9-2.3,8.4-1.4,9.2,1.6c0.4,1.5,0.4,3.5-0.4,4.7C548.1-598.3,544.5-595.5,539.8-594.9"/>
		</g>
	</g>
	<g>
		<g>
			<defs>
				<rect id="SVGID_87_" x="270.5" y="-712.2" width="723" height="686"/>
			</defs>
			<clipPath id="SVGID_88_">
				<use xlink:href="#SVGID_87_"  style="overflow:visible;"/>
			</clipPath>
			<path class="st43" d="M578.3-614c0.6,3.2-1.9,4.9-3.5,6.8c-1.4,1.6-3.5,2.6-5.5,3.6c-2.5,1.2-5.3,0.7-6.3-0.8
				c-1-1.6-0.4-6,1.1-7.3c2.4-2.2,4.8-4.5,7.5-6.3c1.1-0.7,3.4-0.7,4.6-0.1c1.2,0.7,1.8,2.5,2.7,3.8
				C578.7-614.3,578.5-614.2,578.3-614"/>
		</g>
	</g>
	<g>
		<g>
			<defs>
				<rect id="SVGID_89_" x="270.5" y="-712.2" width="723" height="686"/>
			</defs>
			<clipPath id="SVGID_90_">
				<use xlink:href="#SVGID_89_"  style="overflow:visible;"/>
			</clipPath>
			<path class="st44" d="M476.8-551.4c2.3-0.3,3.4,1.2,3.5,3.3c0.4,6.1-3.7,11.2-8.9,13.1c-2.2,0.8-4.9-2.2-5.1-5.3
				c-0.2-4.1,5.7-10.7,9.3-11.1C476-551.4,476.3-551.4,476.8-551.4"/>
		</g>
	</g>
	<g>
		<g>
			<defs>
				<rect id="SVGID_91_" x="270.5" y="-712.2" width="723" height="686"/>
			</defs>
			<clipPath id="SVGID_92_">
				<use xlink:href="#SVGID_91_"  style="overflow:visible;"/>
			</clipPath>
			<path class="st45" d="M375.8-451c1.2-2.9,2.1-6.1,3.7-8.9s5.7-2.1,7.6,0.4c2.7,3.8,0,6.9-0.9,10.2c-0.5,1.8-2.1,3.3-3.5,4.7
				c-1.1,1.2-3.7,0.7-4.6-0.8C377.2-447,376.7-448.8,375.8-451"/>
		</g>
	</g>
	<g>
		<g>
			<defs>
				<rect id="SVGID_93_" x="270.5" y="-712.2" width="723" height="686"/>
			</defs>
			<clipPath id="SVGID_94_">
				<use xlink:href="#SVGID_93_"  style="overflow:visible;"/>
			</clipPath>
			<path class="st46" d="M395.4-441c-0.7,4.8-2.7,8.9-6.7,11.8c-1.3,0.9-4.1-0.1-4.8-1.9c-1.7-4.2-1-10.6,4.1-13.3
				c0.2-0.1,0.6,0,0.7-0.2c1-1.4,2.4-1.9,3.8-1C394-444.5,395.7-443.4,395.4-441"/>
		</g>
	</g>
	<g>
		<g>
			<defs>
				<rect id="SVGID_95_" x="270.5" y="-712.2" width="723" height="686"/>
			</defs>
			<clipPath id="SVGID_96_">
				<use xlink:href="#SVGID_95_"  style="overflow:visible;"/>
			</clipPath>
			<path class="st47" d="M445.9-518.6c-0.1,3-1.7,6.5-5.9,8.3c-1.4,0.6-2.6,2.2-4.6,0.9c-3-1.9-3.2-4.5-2.3-7.2
				c1.2-3.5,3.5-6.2,7.2-7.3C444.1-525.2,445.9-523.9,445.9-518.6"/>
		</g>
	</g>
	<g>
		<g>
			<defs>
				<rect id="SVGID_97_" x="270.5" y="-712.2" width="723" height="686"/>
			</defs>
			<clipPath id="SVGID_98_">
				<use xlink:href="#SVGID_97_"  style="overflow:visible;"/>
			</clipPath>
			<path class="st48" d="M429.4-491.5c-1.4,2.5-2.7,5.3-4.4,7.7c-0.9,1.3-2.6,2.2-4.1,2.9c-2.2,1.1-4-0.1-5.2-1.7
				c-1.1-1.5-0.9-3.2,0.3-4.9c1.5-1.9,2.5-4.2,3.9-6.2c2.1-2.9,5.7-3.2,8.2-0.8C428.7-493.9,428.8-492.9,429.4-491.5"/>
		</g>
	</g>
	<g>
		<g>
			<defs>
				<rect id="SVGID_99_" x="270.5" y="-712.2" width="723" height="686"/>
			</defs>
			<clipPath id="SVGID_100_">
				<use xlink:href="#SVGID_99_"  style="overflow:visible;"/>
			</clipPath>
			<path class="st49" d="M458.4-536.4c0.7,4.4-3.9,8.5-7.2,9.8c-2.1,0.8-4.1-0.2-5-2.8c-0.7-2.1-0.8-4.2,0.9-6.1
				c1.3-1.5,2.4-3.1,3.7-4.6c0.5-0.6,1.4-1.1,2.2-1.2C457.5-542.3,458.6-539.8,458.4-536.4"/>
		</g>
	</g>
	<g>
		<g>
			<defs>
				<rect id="SVGID_101_" x="270.5" y="-712.2" width="723" height="686"/>
			</defs>
			<clipPath id="SVGID_102_">
				<use xlink:href="#SVGID_101_"  style="overflow:visible;"/>
			</clipPath>
			<path class="st50" d="M389.9-418.6c-0.1,5.7-4.4,9.6-8,11.6c-1.3,0.7-4.4-2.3-4.5-4.1c-0.2-4.6,1.3-8.2,5.5-10.7
				c1.6-0.9,3-2.7,4.8-0.6C388.6-421.3,389.2-419.8,389.9-418.6"/>
		</g>
	</g>
	<g>
		<g>
			<defs>
				<rect id="SVGID_103_" x="270.5" y="-712.2" width="723" height="686"/>
			</defs>
			<clipPath id="SVGID_104_">
				<use xlink:href="#SVGID_103_"  style="overflow:visible;"/>
			</clipPath>
			<path class="st51" d="M528.5-553.4c-3.2-0.4-4.2-1.9-3.7-5.1c0.6-3.7,2.6-6.5,6-8c1.2-0.5,3.3-0.2,4.5,0.5c2,1.2,2.4,3.5,1.4,5.5
				c-1.6,3-3.2,6.4-7.3,6.9C529-553.6,528.7-553.5,528.5-553.4"/>
		</g>
	</g>
	<g>
		<g>
			<defs>
				<rect id="SVGID_105_" x="270.5" y="-712.2" width="723" height="686"/>
			</defs>
			<clipPath id="SVGID_106_">
				<use xlink:href="#SVGID_105_"  style="overflow:visible;"/>
			</clipPath>
			<path class="st52" d="M486.2-568.1c2.3-0.1,3.1,1.1,3.1,3c0,2.8-0.8,5.2-3.1,7c-1.2,0.9-2.2,2-3.5,2.9c-1.4,0.9-2.9,0.7-4-0.3
				c-1.4-1.3-2-3.2-1.3-4.8c1.3-2.9,3.3-5.5,6.2-7C484.5-567.7,485.4-567.9,486.2-568.1"/>
		</g>
	</g>
	<g>
		<g>
			<defs>
				<rect id="SVGID_107_" x="270.5" y="-712.2" width="723" height="686"/>
			</defs>
			<clipPath id="SVGID_108_">
				<use xlink:href="#SVGID_107_"  style="overflow:visible;"/>
			</clipPath>
			<path class="st53" d="M487.4-503.9c0.2-2.3,1.1-5.4,4.4-7.2c3.7-1.9,6-0.5,6.2,3.6c0.2,4.4-2.9,7.8-6.8,9
				C488.9-497.9,487.4-499.6,487.4-503.9"/>
		</g>
	</g>
	<g>
		<g>
			<defs>
				<rect id="SVGID_109_" x="270.5" y="-712.2" width="723" height="686"/>
			</defs>
			<clipPath id="SVGID_110_">
				<use xlink:href="#SVGID_109_"  style="overflow:visible;"/>
			</clipPath>
			<path class="st54" d="M442.9-478.1c0.5-2.6,1.5-6,5-7.9c0.9-0.5,2.8-0.2,3.5,0.5c3.3,3.3,0.7,11.1-3.9,12.1
				C444.4-472.8,442.9-473.9,442.9-478.1"/>
		</g>
	</g>
	<g>
		<g>
			<defs>
				<rect id="SVGID_111_" x="270.5" y="-712.2" width="723" height="686"/>
			</defs>
			<clipPath id="SVGID_112_">
				<use xlink:href="#SVGID_111_"  style="overflow:visible;"/>
			</clipPath>
			<path class="st55" d="M498.4-520c0-3.1,2-6.3,4.9-6.9c1.3-0.3,3.1-0.2,4.2,0.5c1.4,0.9,1.5,2.1,0.7,4.1c-1.1,2.6-2,4.8-4.9,6
				c-2.6,1.1-4.7,0.3-4.9-2.5C498.3-519.2,498.4-519.6,498.4-520"/>
		</g>
	</g>
	<g>
		<g>
			<defs>
				<rect id="SVGID_113_" x="270.5" y="-712.2" width="723" height="686"/>
			</defs>
			<clipPath id="SVGID_114_">
				<use xlink:href="#SVGID_113_"  style="overflow:visible;"/>
			</clipPath>
			<path class="st56" d="M375.4-423.7c-0.6,3.4-1.3,6.4-4,8.4c-0.9,0.6-2.5,1-3.3,0.6c-1-0.5-2.3-1.3-2.3-3.1c0-3.4,2-6,3.7-8.6
				c0.6-0.8,2.9-1.3,3.9-0.8C374.4-426.8,374.8-424.9,375.4-423.7"/>
		</g>
	</g>
	<g>
		<g>
			<defs>
				<rect id="SVGID_115_" x="270.5" y="-712.2" width="723" height="686"/>
			</defs>
			<clipPath id="SVGID_116_">
				<use xlink:href="#SVGID_115_"  style="overflow:visible;"/>
			</clipPath>
			<path class="st57" d="M517.3-502.4c0.2,3.8-2.3,6.5-5.1,7.7c-1.7,0.8-3.5,0.1-4.4-1.2c-0.6-0.8-0.3-2.5,0.1-3.6
				c0.6-1.6,1.3-3.4,2.5-4.5c1.2-1,3.2-1.7,4.8-1.7C517-505.5,517.8-503.9,517.3-502.4"/>
		</g>
	</g>
	<g>
		<g>
			<defs>
				<rect id="SVGID_117_" x="270.5" y="-712.2" width="723" height="686"/>
			</defs>
			<clipPath id="SVGID_118_">
				<use xlink:href="#SVGID_117_"  style="overflow:visible;"/>
			</clipPath>
			<path class="st58" d="M414.2-484.8c-1.8,2.8-3.2,5.4-5,7.7c-0.6,0.7-2.6,1-3.4,0.5s-1.4-2.1-1.3-3.2c0.2-3.2,1.5-6.1,3.7-8.5
				c0.5-0.6,2.2-0.9,2.7-0.5C412-487.9,412.9-486.5,414.2-484.8"/>
		</g>
	</g>
	<g>
		<g>
			<defs>
				<rect id="SVGID_119_" x="270.5" y="-712.2" width="723" height="686"/>
			</defs>
			<clipPath id="SVGID_120_">
				<use xlink:href="#SVGID_119_"  style="overflow:visible;"/>
			</clipPath>
			<path class="st59" d="M462.6-521c-0.7-0.7-1.7-1.2-2.1-2c-1.2-2,0.1-5.8,2.1-7c1.1-0.7,2.1-1.7,3.3-2.2c1.9-0.8,3.5,0.2,3.9,2.2
				c0.6,2.8-1.7,6.5-4.5,7.5C464.5-522.1,463.8-521.6,462.6-521"/>
		</g>
	</g>
	<g>
		<g>
			<defs>
				<rect id="SVGID_121_" x="270.5" y="-712.2" width="723" height="686"/>
			</defs>
			<clipPath id="SVGID_122_">
				<use xlink:href="#SVGID_121_"  style="overflow:visible;"/>
			</clipPath>
			<path class="st60" d="M521.6-580.4c3.7,0,5,2.6,2.7,6.3c-0.9,1.5-2.6,2.9-4.2,3.6c-2.8,1.3-4.1,0.4-4.7-2.5
				C514.8-575.7,518.4-580.7,521.6-580.4"/>
		</g>
	</g>
	<g>
		<g>
			<defs>
				<rect id="SVGID_123_" x="270.5" y="-712.2" width="723" height="686"/>
			</defs>
			<clipPath id="SVGID_124_">
				<use xlink:href="#SVGID_123_"  style="overflow:visible;"/>
			</clipPath>
			<path class="st61" d="M546.1-578.5c-1.2,1.8-1.9,3.9-3.3,5c-1.7,1.3-4.1,2.1-5.9-0.2c-0.6-0.7-1.1-2.1-0.8-2.8
				c0.6-1.6,1.7-3,2.8-4.4c1.3-1.7,3.3-2,5.1-1.3C544.9-581.8,545.3-580.1,546.1-578.5"/>
		</g>
	</g>
	<g>
		<g>
			<defs>
				<rect id="SVGID_125_" x="270.5" y="-712.2" width="723" height="686"/>
			</defs>
			<clipPath id="SVGID_126_">
				<use xlink:href="#SVGID_125_"  style="overflow:visible;"/>
			</clipPath>
			<path class="st62" d="M492.3-488.6c0,2.2-2.3,4.5-4.2,6.9c-0.4,0.5-2.1,0-3.2-0.1c0.1-1.3-2.8-1.7-1-3.8c1.2-1.4,1.5-3.5,2.4-5.2
				c0.4-0.8,1.3-1.5,2.1-1.9C490.5-493.9,492.4-492.5,492.3-488.6"/>
		</g>
	</g>
	<g>
		<g>
			<defs>
				<rect id="SVGID_127_" x="270.5" y="-712.2" width="723" height="686"/>
			</defs>
			<clipPath id="SVGID_128_">
				<use xlink:href="#SVGID_127_"  style="overflow:visible;"/>
			</clipPath>
			<path class="st63" d="M498.9-458.1c0,3.3-2.8,7.8-4.8,8.6c-1.9,0.8-4-1-3.6-3.2c0.5-3.1,1.8-5.9,4.5-7.6c0.5-0.3,1.7-0.4,2.2,0
				C498-459.6,498.6-458.5,498.9-458.1"/>
		</g>
	</g>
	<g>
		<g>
			<defs>
				<rect id="SVGID_129_" x="270.5" y="-712.2" width="723" height="686"/>
			</defs>
			<clipPath id="SVGID_130_">
				<use xlink:href="#SVGID_129_"  style="overflow:visible;"/>
			</clipPath>
			<path class="st64" d="M429.9-525.8c0,3.8-2.6,6.7-5.8,6.4c-2.6-0.2-3.6-2.4-2.1-4.6c1.1-1.6,2.1-3.4,3.6-4.5
				C428.4-530.3,429.9-529.2,429.9-525.8"/>
		</g>
	</g>
	<g>
		<g>
			<defs>
				<rect id="SVGID_131_" x="270.5" y="-712.2" width="723" height="686"/>
			</defs>
			<clipPath id="SVGID_132_">
				<use xlink:href="#SVGID_131_"  style="overflow:visible;"/>
			</clipPath>
			<path class="st65" d="M429.9-454.2c-0.1-2.6,0.9-4.7,3.1-6c0.8-0.5,2.5-0.6,3-0.1c0.9,1,2,2.9,1.7,3.8c-0.7,1.9-2.2,3.7-3.8,4.9
				C431.8-449.9,429.9-451.3,429.9-454.2"/>
		</g>
	</g>
	<g>
		<g>
			<defs>
				<rect id="SVGID_133_" x="270.5" y="-712.2" width="723" height="686"/>
			</defs>
			<clipPath id="SVGID_134_">
				<use xlink:href="#SVGID_133_"  style="overflow:visible;"/>
			</clipPath>
			<path class="st66" d="M379.9-438.9c-1,1.5-1.8,3.4-3.1,4.5c-0.7,0.6-2.9,0.6-3.5,0c-1.2-1.2-2.2-3-1.2-4.9
				c0.3-0.5,0.6-0.9,0.8-1.4c0.7-1.6,1.3-3.4,3.7-2.7c2,0.6,3.2,1.9,2.6,4.2C379.5-439.1,379.7-439,379.9-438.9"/>
		</g>
	</g>
	<g>
		<g>
			<defs>
				<rect id="SVGID_135_" x="270.5" y="-712.2" width="723" height="686"/>
			</defs>
			<clipPath id="SVGID_136_">
				<use xlink:href="#SVGID_135_"  style="overflow:visible;"/>
			</clipPath>
			<path class="st67" d="M438.9-501.5c0,3.4-1.2,5.1-3.9,5.9c-1.8,0.5-3-0.3-3.1-2.3c-0.1-2.5,0.2-4.8,2.8-6.2
				C437.9-505.7,438.9-505.2,438.9-501.5"/>
		</g>
	</g>
	<g>
		<g>
			<defs>
				<rect id="SVGID_137_" x="270.5" y="-712.2" width="723" height="686"/>
			</defs>
			<clipPath id="SVGID_138_">
				<use xlink:href="#SVGID_137_"  style="overflow:visible;"/>
			</clipPath>
			<path class="st68" d="M402.9-494.9c0,3.2-2,5.5-4.6,5.5c-2.4,0-2.5-1.6-2.4-3.4c0-3.3,2-5.7,4.6-5.7
				C402.3-498.4,402.9-497.5,402.9-494.9"/>
		</g>
	</g>
	<g>
		<g>
			<defs>
				<rect id="SVGID_139_" x="270.5" y="-712.2" width="723" height="686"/>
			</defs>
			<clipPath id="SVGID_140_">
				<use xlink:href="#SVGID_139_"  style="overflow:visible;"/>
			</clipPath>
			<path class="st69" d="M391.9-421.8c0-3.8,1.3-5.4,4.1-5.4c1.9,0,2.9,1.2,2.9,3.6c0,2.9-1.9,5.3-4.3,5.1
				C392.1-418.6,392-420.5,391.9-421.8"/>
		</g>
	</g>
	<g>
		<g>
			<defs>
				<rect id="SVGID_141_" x="270.5" y="-712.2" width="723" height="686"/>
			</defs>
			<clipPath id="SVGID_142_">
				<use xlink:href="#SVGID_141_"  style="overflow:visible;"/>
			</clipPath>
			<path class="st70" d="M503-569.4c-2.5,0-3.7-1.4-3-3.1c0.7-1.7,0.9-3.9,3.4-4.3c1-0.1,1.5-2.3,3.1-0.6s1.3,5.3-1,6.8
				C504.6-569.9,503.5-569.6,503-569.4"/>
		</g>
	</g>
	<g>
		<g>
			<defs>
				<rect id="SVGID_143_" x="270.5" y="-712.2" width="723" height="686"/>
			</defs>
			<clipPath id="SVGID_144_">
				<use xlink:href="#SVGID_143_"  style="overflow:visible;"/>
			</clipPath>
			<path class="st71" d="M561.9-596.4c0,2.4-3.5,5.6-5.7,5.5c-2-0.2-3.4-2.6-2-4.4c1.3-1.6,3.3-2.7,5.3-3.4
				C560.5-599.1,562.4-598.3,561.9-596.4"/>
		</g>
	</g>
	<g>
		<g>
			<defs>
				<rect id="SVGID_145_" x="270.5" y="-712.2" width="723" height="686"/>
			</defs>
			<clipPath id="SVGID_146_">
				<use xlink:href="#SVGID_145_"  style="overflow:visible;"/>
			</clipPath>
			<path class="st72" d="M503.9-504.9c-0.3-0.2-1.7-0.4-1.9-1.1c-0.3-0.9,0.3-2.1,0.6-3.1c0.7-2,1.8-3.7,4.2-3.3
				c0.9,0.2,2.1,1.2,2.4,2.1C509.8-508.5,506.5-504.9,503.9-504.9"/>
		</g>
	</g>
	<g>
		<g>
			<defs>
				<rect id="SVGID_147_" x="270.5" y="-712.2" width="723" height="686"/>
			</defs>
			<clipPath id="SVGID_148_">
				<use xlink:href="#SVGID_147_"  style="overflow:visible;"/>
			</clipPath>
			<path class="st73" d="M397.9-455c0,1.7-2.7,5-4,5.1c-2.1,0.1-2.3-1.9-2.8-3c-0.7-1.5,2.6-5.5,4-5.5
				C397-458.4,397.9-457.3,397.9-455"/>
		</g>
	</g>
	<g>
		<g>
			<defs>
				<rect id="SVGID_149_" x="270.5" y="-712.2" width="723" height="686"/>
			</defs>
			<clipPath id="SVGID_150_">
				<use xlink:href="#SVGID_149_"  style="overflow:visible;"/>
			</clipPath>
			<path class="st74" d="M549.9-558.6c-0.6,0.8-1.4,2.5-2.8,3.5c-0.9,0.7-2.6,0.8-3.5-1.1c-1-2.3,0.8-6.3,3.3-6.7
				C548.7-563.2,549.9-561.8,549.9-558.6"/>
		</g>
	</g>
	<g>
		<g>
			<defs>
				<rect id="SVGID_151_" x="270.5" y="-712.2" width="723" height="686"/>
			</defs>
			<clipPath id="SVGID_152_">
				<use xlink:href="#SVGID_151_"  style="overflow:visible;"/>
			</clipPath>
			<path class="st75" d="M457.2-545.8c0.4-4.8,2-5.4,4.5-5.2c1.8,0.2,2.1,1.4,2.2,2.7c0.1,1.8-2.8,4.6-4.5,4.2
				C458.4-544.2,457.6-545.4,457.2-545.8"/>
		</g>
	</g>
	<g>
		<g>
			<defs>
				<rect id="SVGID_153_" x="270.5" y="-712.2" width="723" height="686"/>
			</defs>
			<clipPath id="SVGID_154_">
				<use xlink:href="#SVGID_153_"  style="overflow:visible;"/>
			</clipPath>
			<path class="st76" d="M420.4-468.4c-0.4-2,0.8-3.4,2.7-3.4c1.4,0,3.1,0.8,3.2,2.7c0.1,1.7-2.2,4.2-3.7,4.2
				C420.2-464.9,420.3-466.6,420.4-468.4"/>
		</g>
	</g>
	<g>
		<g>
			<defs>
				<rect id="SVGID_155_" x="270.5" y="-712.2" width="723" height="686"/>
			</defs>
			<clipPath id="SVGID_156_">
				<use xlink:href="#SVGID_155_"  style="overflow:visible;"/>
			</clipPath>
			<path class="st77" d="M449.6-548.4c-2,0.1-1.8-1.3-1.7-2.6c0.1-1.7,0.6-3.6,2.7-3.3c1,0.2,2.4,1.7,2.6,2.8
				C453.5-550,451.2-548.3,449.6-548.4"/>
		</g>
	</g>
	<g>
		<g>
			<defs>
				<rect id="SVGID_157_" x="270.5" y="-712.2" width="723" height="686"/>
			</defs>
			<clipPath id="SVGID_158_">
				<use xlink:href="#SVGID_157_"  style="overflow:visible;"/>
			</clipPath>
			<path class="st78" d="M392.5-384c1.2,1.4,2.6,2.3,2.7,3.2c0.1,1.6-0.8,3.3-2.9,3.4c-1.9,0.1-2.6-1.4-2.3-2.7
				S391.4-382.5,392.5-384"/>
		</g>
	</g>
	<g>
		<g>
			<defs>
				<rect id="SVGID_159_" x="270.5" y="-712.2" width="723" height="686"/>
			</defs>
			<clipPath id="SVGID_160_">
				<use xlink:href="#SVGID_159_"  style="overflow:visible;"/>
			</clipPath>
			<path class="st79" d="M382.4-429.2c-2.4,2.8-4.2,3.6-5.3,2.3c-1.1-1.3-0.5-2.6,0.6-3.6C379.2-432,380-431.8,382.4-429.2"/>
		</g>
	</g>
	<g>
		<g>
			<defs>
				<rect id="SVGID_161_" x="270.5" y="-712.2" width="723" height="686"/>
			</defs>
			<clipPath id="SVGID_162_">
				<use xlink:href="#SVGID_161_"  style="overflow:visible;"/>
			</clipPath>
			<path class="st80" d="M733.9-439.5c1.3,0.1,2.5,0.3,2.6,2C735.6-438.1,733.6-437.3,733.9-439.5"/>
		</g>
	</g>
	<g>
		<g>
			<defs>
				<rect id="SVGID_163_" x="270.5" y="-712.2" width="723" height="686"/>
			</defs>
			<clipPath id="SVGID_164_">
				<use xlink:href="#SVGID_163_"  style="overflow:visible;"/>
			</clipPath>
			<path class="st81" d="M531.4-149.9c-1-0.7-2-1.3-3-2C529.4-151.3,530.4-150.6,531.4-149.9"/>
		</g>
	</g>
	<g>
		<g>
			<defs>
				<rect id="SVGID_165_" x="270.5" y="-712.2" width="723" height="686"/>
			</defs>
			<clipPath id="SVGID_166_">
				<use xlink:href="#SVGID_165_"  style="overflow:visible;"/>
			</clipPath>
			<path class="st82" d="M528.4-151.9c-0.8-0.3-1.7-0.6-2.5-0.9c0.2-0.2,0.3-0.3,0.5-0.5C527-152.9,527.7-152.4,528.4-151.9"/>
		</g>
	</g>
	<g>
		<g>
			<defs>
				<rect id="SVGID_167_" x="270.5" y="-712.2" width="723" height="686"/>
			</defs>
			<clipPath id="SVGID_168_">
				<use xlink:href="#SVGID_167_"  style="overflow:visible;"/>
			</clipPath>
			<path class="st83" d="M743.9-243.4c0-1,0-2,0.1-3C744-245.4,743.9-244.4,743.9-243.4"/>
		</g>
	</g>
	<g>
		<g>
			<defs>
				<rect id="SVGID_169_" x="270.5" y="-712.2" width="723" height="686"/>
			</defs>
			<clipPath id="SVGID_170_">
				<use xlink:href="#SVGID_169_"  style="overflow:visible;"/>
			</clipPath>
			<path class="st84" d="M736.8-437.3c0.4,0.1,0.7,0.3,1.1,0.4C737.6-437.1,737.2-437.2,736.8-437.3"/>
		</g>
	</g>
	<g>
		<g>
			<defs>
				<rect id="SVGID_171_" x="270.5" y="-712.2" width="723" height="686"/>
			</defs>
			<clipPath id="SVGID_172_">
				<use xlink:href="#SVGID_171_"  style="overflow:visible;"/>
			</clipPath>
			<path class="st85" d="M526.3-153.4c-0.2,0.2-0.3,0.3-0.5,0.5c-0.2-0.2-0.3-0.4-0.5-0.6C525.7-153.4,526-153.4,526.3-153.4"/>
		</g>
	</g>
	<g>
		<g>
			<defs>
				<rect id="SVGID_173_" x="270.5" y="-712.2" width="723" height="686"/>
			</defs>
			<clipPath id="SVGID_174_">
				<use xlink:href="#SVGID_173_"  style="overflow:visible;"/>
			</clipPath>
			<path class="st86" d="M532.4-149.4c-0.4-0.2-0.7-0.3-1.1-0.5C531.7-149.8,532.1-149.6,532.4-149.4"/>
		</g>
	</g>
	<g>
		<g>
			<defs>
				<rect id="SVGID_175_" x="270.5" y="-712.2" width="723" height="686"/>
			</defs>
			<clipPath id="SVGID_176_">
				<use xlink:href="#SVGID_175_"  style="overflow:visible;"/>
			</clipPath>
			<path class="st87" d="M791.9-616.4c0-0.1,0.1-0.1,0.1-0.2C791.9-616.6,791.9-616.5,791.9-616.4L791.9-616.4z"/>
		</g>
	</g>
	<g>
		<g>
			<defs>
				<rect id="SVGID_177_" x="270.5" y="-712.2" width="723" height="686"/>
			</defs>
			<clipPath id="SVGID_178_">
				<use xlink:href="#SVGID_177_"  style="overflow:visible;"/>
			</clipPath>
			<path class="st88" d="M783.1-446c-5.9-0.6-10.4-0.5-14.6-1.6c-7-1.7-14.1-3.3-20.3-7.2c-3.9-2.5-8-4.8-11.7-7.6
				c-2.8-2.2-5.1-5-7.4-7.7c-2.7-3.3-5.6-6.7-7.6-10.5c-2.2-4.2-3.6-8.8-5.2-13.3c-4.3-12.3-3.8-24.8-1-37.3
				c1.9-8.5,5.8-16.2,10.9-23.3c2.6-3.5,5.1-7,8.5-9.9c2.5-2.1,4.6-4.6,7.1-6.7c2.1-1.8,4.4-3.4,6.8-4.7c6-3.5,12.6-5.8,19.3-7.8
				c9.3-2.9,18.7-3,28.1-2c5.5,0.6,11.1,2,16.4,3.7c6.6,2.2,12.8,5.4,18,9.9c6.1,5.2,11.5,11.2,16,18c3.8,5.8,6.2,12.2,7.9,19
				c2.4,9.3,2.8,18.6,0.9,27.8c-1.4,6.8-3.9,13.4-6.4,19.9c-1.2,3.2-3.2,6.3-5.4,9c-4.1,4.9-8.2,9.8-13.1,13.9
				c-4.9,4.1-10.4,7.7-16.1,10.6c-4.5,2.4-9.7,3.8-14.7,5C793.7-447.3,787.7-446.7,783.1-446 M781.7-454.6c7.7-0.1,15-1.4,22.2-3.9
				c1-0.3,2.1-0.5,3.1-1c4.7-2.5,9.7-4.4,13.8-7.9c3.2-2.7,6.7-5,9.5-8.1c3.2-3.5,5.7-7.6,8.5-11.4c3.6-5,5.9-10.7,7.2-16.5
				c3.2-14.6,2.8-29-4.6-42.5c-2.2-4-5-7.7-7.9-11.2c-2.3-2.8-5.3-5-7.9-7.4c-3.7-3.5-8-6.1-12.7-8.2c-6.3-2.9-13-4.2-19.7-5
				c-10.2-1.3-20.2,0.6-29.7,4.5c-3.2,1.3-6.6,2.5-9.5,4.4c-3.6,2.3-6.7,5.3-10.1,7.8c-4.6,3.4-8.1,7.8-11.3,12.4
				c-3.5,5-6.2,10.5-8,16.2c-1.5,4.8-2.4,10-2.8,15c-0.3,4,0.4,8,0.7,12c0.4,5.8,2.2,11.1,4.6,16.4c1.1,2.6,2,5.4,3.7,7.6
				c3.2,4.1,6.9,7.8,10.5,11.6c4.1,4.4,9,7.6,14.7,9.5c4.1,1.4,8.1,3.4,12.3,4.3C772.5-455.2,777.2-455.1,781.7-454.6"/>
		</g>
	</g>
	<g>
		<g>
			<defs>
				<rect id="SVGID_179_" x="270.5" y="-712.2" width="723" height="686"/>
			</defs>
			<clipPath id="SVGID_180_">
				<use xlink:href="#SVGID_179_"  style="overflow:visible;"/>
			</clipPath>
			<path class="st89" d="M783.1-432c-3.9-0.6-8.3-1.3-12.6-2c-0.6-0.1-1.1-0.4-1.6-0.7c-2-0.8-2.7-2.5-1.9-4.2
				c0.5-0.9,2.6-1.5,3.7-1.2c5.3,1.2,10.6,2.8,16.1,2c6.8-1,13.5-2.5,20.3-3.9c1.4-0.3,2.8-0.5,4.1-1.1c4-1.7,8-3.6,12-5.4
				c0.5-0.2,1.1-0.6,1.6-0.6c1.4,0,3.2-0.2,4.2,0.5s-0.4,4-2,4.8c-3.2,1.6-6.5,3-9.8,4.5c-9.4,4.2-19.3,6.1-29.5,6.4
				c-0.7,0-1.4,0.5-2.1,0.6C785-432,784.3-432.1,783.1-432"/>
		</g>
	</g>
	<g>
		<g>
			<defs>
				<rect id="SVGID_181_" x="270.5" y="-712.2" width="723" height="686"/>
			</defs>
			<clipPath id="SVGID_182_">
				<use xlink:href="#SVGID_181_"  style="overflow:visible;"/>
			</clipPath>
			<path class="st90" d="M807.7-606.6c0.3-0.1,0.6-0.1,0.9-0.2c0,0.1,0.1,0.2,0.1,0.3c-0.2,0.1-0.5,0.1-0.7,0.2
				C807.8-606.5,807.7-606.6,807.7-606.6"/>
		</g>
	</g>
	<g>
		<g>
			<defs>
				<rect id="SVGID_183_" x="270.5" y="-712.2" width="723" height="686"/>
			</defs>
			<clipPath id="SVGID_184_">
				<use xlink:href="#SVGID_183_"  style="overflow:visible;"/>
			</clipPath>
			<path class="st91" d="M848-397.4c1.4-1.6,2.8-3.1,4.2-4.7s3.1-1.7,5-0.9c1,2.4-0.3,4.3-1.8,5.8c-2.4,2.4-2.8,3.5-1.6,6.6
				c0.5,1.4,0.6,2.8-1,3.7c-1.8,1-4.6,0.2-5.8-1.5C844.8-391.7,846.4-394.5,848-397.4"/>
		</g>
	</g>
	<g>
		<g>
			<defs>
				<rect id="SVGID_185_" x="270.5" y="-712.2" width="723" height="686"/>
			</defs>
			<clipPath id="SVGID_186_">
				<use xlink:href="#SVGID_185_"  style="overflow:visible;"/>
			</clipPath>
		</g>
	</g>
	<g>
		<g>
			<defs>
				<rect id="SVGID_187_" x="270.5" y="-712.2" width="723" height="686"/>
			</defs>
			<clipPath id="SVGID_188_">
				<use xlink:href="#SVGID_187_"  style="overflow:visible;"/>
			</clipPath>
			<path class="st92" d="M968.9-473.5c-5.3,0.4-11.2-1.3-16.4-4.7c-4.4-2.8-8-6.5-10.8-11.2c-4.3-7.4-6.5-15.1-5.5-23.7
				c0.8-6.6,4-11.8,8.5-16.6c3.7-3.9,8.4-6.1,13-8.6c2.1-1.1,4.8-1.2,7.1-1.9c5.9-1.6,11.7,0.1,17.1,1.9c4,1.3,7.6,3.8,10.8,7
				c5.1,5.1,8.6,10.7,9.6,17.9c0.4,2.7,1.1,5.5,0.9,8.2c-0.5,5.4-1.7,10.6-4.7,15.2c-2.5,3.9-5.4,7.3-9.1,10.1
				C983.7-475.3,977.2-473.4,968.9-473.5 M978.8-512.2c-8.1-0.5-15.3,6.7-15.4,15c-0.1,8.5,6.1,14.5,14.1,14.6
				c8.8,0,15.1-7.1,15.5-15.4C993.3-505.4,986.8-512.8,978.8-512.2 M979.1-518.5c0-2.5-2.1-4.6-4.5-4.5c-2.5,0.1-4.4,2.3-4.4,4.9
				c0,2.8,1.7,4.5,4.5,4.4C977.3-513.7,979.2-515.8,979.1-518.5"/>
		</g>
	</g>
	<g>
		<g>
			<defs>
				<rect id="SVGID_189_" x="270.5" y="-712.2" width="723" height="686"/>
			</defs>
			<clipPath id="SVGID_190_">
				<use xlink:href="#SVGID_189_"  style="overflow:visible;"/>
			</clipPath>
			<path class="st93" d="M978.8-512.2c8-0.6,14.5,6.8,14.2,14.2c-0.3,8.3-6.7,15.4-15.5,15.4c-8,0-14.2-6.1-14.1-14.6
				C963.5-505.5,970.7-512.7,978.8-512.2"/>
		</g>
	</g>
	<g>
		<g>
			<defs>
				<rect id="SVGID_191_" x="270.5" y="-712.2" width="723" height="686"/>
			</defs>
			<clipPath id="SVGID_192_">
				<use xlink:href="#SVGID_191_"  style="overflow:visible;"/>
			</clipPath>
			<path class="st94" d="M979.1-518.5c0,2.7-1.9,4.8-4.4,4.8c-2.7,0-4.4-1.6-4.5-4.4c0-2.6,1.9-4.8,4.4-4.9
				C977-523.1,979.1-521,979.1-518.5"/>
		</g>
	</g>
</g>
</svg>
