<?xml version="1.0" encoding="utf-8"?>
<!-- Generator: Adobe Illustrator 19.0.0, SVG Export Plug-In . SVG Version: 6.00 Build 0)  -->
<svg version="1.1" id="Layer_1" xmlns="http://www.w3.org/2000/svg" xmlns:xlink="http://www.w3.org/1999/xlink" x="0px" y="0px"
	 viewBox="176 -135.5 451.3 371.5" style="enable-background:new 176 -135.5 451.3 371.5;" xml:space="preserve">
<style type="text/css">
	.st0{fill:#2D9A4D;}
	.st1{fill:#175DAB;}
	.st2{fill:#D93928;}
	.st3{fill:url(#SVGID_1_);}
	.st4{fill:url(#SVGID_2_);}
	.st5{fill:url(#SVGID_3_);}
	.st6{fill:url(#SVGID_4_);}
	.st7{fill:#5F2756;}
</style>
<g>
	<path class="st0" d="M272.5,224.6c13.5,5.4,27.8,9.1,42,10.4c-30.9-11.4-54-37.7-61.3-69.8s2.1-65.8,25-89.5
		c-26.8,14.6-43.9,42.3-45.1,72.8C231.9,179.1,246.9,208,272.5,224.6z"/>
	<path class="st1" d="M210.7-33.5c-6.4,8.9-12.1,18.4-16.8,28.4C252.3-21.3,314.7,0.2,350.8,49C321.6-1,268.6-32.3,210.7-33.5z"/>
	<path class="st2" d="M416.2-102.1c-0.6-0.2-1.2-0.4-1.8-0.6c-4.4-1.3-8.6-2.5-12.6-3.4c-5.3-1.2-10.6-2.3-15.8-3
		c17.2,21.6,32.1,93.4,44.9,215.2C435.9,25.9,431-43.5,416.2-102.1z"/>
	
		<linearGradient id="SVGID_1_" gradientUnits="userSpaceOnUse" x1="419.8825" y1="-363.1827" x2="298.0309" y2="-536.8074" gradientTransform="matrix(1 0 0 1 0 465)">
		<stop  offset="0" style="stop-color:#E41F26"/>
		<stop  offset="1" style="stop-color:#FDB721"/>
	</linearGradient>
	<path class="st3" d="M430.9,106.1c-12.8-121.8-27.8-193.6-45-215.2C315.3-119.4,249.1-87,210.7-33.5c57.9,1.2,111,32.5,140,82.6
		C383.2,51.2,415.6,69.3,430.9,106.1z"/>
	
		<linearGradient id="SVGID_2_" gradientUnits="userSpaceOnUse" x1="422.1728" y1="-478.1628" x2="617.3044" y2="-477.9366" gradientTransform="matrix(1 0 0 1 0 465)">
		<stop  offset="0" style="stop-color:#5F2756"/>
		<stop  offset="1" style="stop-color:#903D97"/>
	</linearGradient>
	<path class="st4" d="M542.5-76.3c-26.1-23.7-57.8-42.6-95.1-56.7c-1.7-0.6-3.3-1.1-4.9-1.4c-19.9-4-34.4,14.6-26.3,32.4
		c14.8,58.6,19.7,128,14.7,208.2c3.9,0.2,7.8,0.5,11.7,0.7c39.3,2.2,72.6,2.5,100,1c23-1.3,41.8-3.9,56.4-7.8
		c36.5-9.8,30.1-16.5,20.4-49.9C604.5-1.2,578.9-43.4,542.5-76.3L542.5-76.3z M459.2,9c0-30.9,25-55.9,55.9-55.9
		c10,0,19.3,2.6,27.4,7.2c17,9.6,28.5,27.8,28.5,48.8c0,20.9-11.5,39.2-28.5,48.8c-8.1,4.6-17.4,7.2-27.4,7.2
		C484.3,65,459.2,39.9,459.2,9z"/>
	
		<linearGradient id="SVGID_3_" gradientUnits="userSpaceOnUse" x1="181.5781" y1="-349.2633" x2="280.3936" y2="-362.2107" gradientTransform="matrix(1 0 0 1 0 465)">
		<stop  offset="0" style="stop-color:#00A7E1"/>
		<stop  offset="1" style="stop-color:#175DAB"/>
	</linearGradient>
	<path class="st5" d="M350.7,49c-36-48.8-98.4-70.3-156.9-54.1c-15,31.6-21.2,68-15.2,106c8.3,52.6,37.6,96.2,82.2,118.4
		c3.8,1.9,7.8,3.7,11.7,5.3c-25.6-16.6-40.6-45.5-39.4-76.1c1.2-30.5,18.3-58.2,45.1-72.8C295.7,56.7,323.3,47.2,350.7,49z"/>
	
		<linearGradient id="SVGID_4_" gradientUnits="userSpaceOnUse" x1="251.3539" y1="-314.7457" x2="401.0008" y2="-315.8808" gradientTransform="matrix(1 0 0 1 0 465)">
		<stop  offset="0" style="stop-color:#A6CE39"/>
		<stop  offset="1" style="stop-color:#2D9A4D"/>
	</linearGradient>
	<path class="st6" d="M401.3,201.2c22-27.6,26.4-65.4,11.7-97.1c-19.7-42.3-68.9-49.6-103.3-30c-73.9,42.2-17.9,132.3,35.6,91
		c28.9-22.2-1.1-62-30.9-48c13.1-11.5,32.7-11.7,46-0.4c10.1,8.5,14.2,21.7,11.6,34.2c-7.9,37.6-56.9,51.8-87.2,28.6
		C267.2,166,258.3,142,259.7,120c1.1-18,8-32.9,18.5-44.3c-22.9,23.7-32.3,57.4-25,89.5s30.4,58.4,61.3,69.8
		C347,238,379.2,228.8,401.3,201.2z"/>
	<path class="st7" d="M542.5-76.3c-26.1-23.7-57.8-42.6-95.1-56.7c-1.7-0.6-3.3-1.1-4.9-1.4c-12.1-2.4-22.3,3.5-26.5,12.6
		c4.5-2.1,9.8-2.8,15.6-1.7c1.6,0.3,3.3,0.8,4.9,1.4c37.2,14.1,68.9,33.1,95.1,56.7C567.9-32.5,593.5,9.7,608.4,61
		c4.7,16.4,8.7,26.3,7.2,33.4c17.2-7.8,11.5-17.4,3.7-44.3C604.5-1.2,578.9-43.4,542.5-76.3z"/>
</g>
</svg>
