<?xml version="1.0" encoding="utf-8"?>
<!-- Generator: Adobe Illustrator 19.0.0, SVG Export Plug-In . SVG Version: 6.00 Build 0)  -->
<svg version="1.1" id="Livello_1" xmlns="http://www.w3.org/2000/svg" xmlns:xlink="http://www.w3.org/1999/xlink" x="0px" y="0px"
	 viewBox="0 0 444.6 216.6" style="enable-background:new 0 0 444.6 216.6;" xml:space="preserve">
<style type="text/css">
	.st0{fill:#FFFFFF;}
</style>
<g>
	<path class="st0" d="M63.5,58.6c20.4,0,40.9,0,61.3,0c1.4,0,2.1-0.4,2.8-1.6c16-28.7,40-46.8,72.1-54.1c10.8-2.5,21.8-2.9,32.8-1.8
		c24.1,2.4,45.1,12,62.8,28.4c8.7,8,15.8,17.3,21.3,27.7c0.6,1.1,1.3,1.4,2.5,1.4c41,0,82.1,0,123.1,0c2.2,0,1.9-0.3,1.9,1.9
		c0,31.6,0,63.3,0,94.9c0,1.9,0.2,1.6-1.7,1.6c-41.2,0-82.3,0-123.5,0c-1.2,0-1.7,0.4-2.3,1.4c-14.3,25.9-35.5,43.3-63.7,52.2
		c-7.9,2.5-16.1,3.9-24.4,4.3c-30.8,1.6-57.6-8.2-80.2-29.2c-8.5-7.9-15.4-17.1-20.9-27.3c-0.5-1-1.1-1.4-2.3-1.4
		c-41.2,0-82.3,0-123.5,0c-2,0-1.7,0.3-1.7-1.7c0-31.7,0-63.4,0-95.2c0-1.7-0.3-1.6,1.6-1.6C22.2,58.6,42.9,58.6,63.5,58.6z
		 M63.3,104.3c0.3,0.5,0.1,0.9,0.1,1.4c0,12.3,0,24.6,0,36.8c0,1.6,0,1.6,1.6,1.6c4.9,0,9.8,0,14.8,0c1.1,0,1.5-0.4,1.5-1.4
		c0-23.2,0-46.5,0-69.7c0-1.2-0.4-1.5-1.5-1.5c-4.9,0.1-9.8,0.1-14.6,0c-1.2,0-1.8,0.4-2.4,1.4c-4,6.7-8,13.5-12,20.2
		c-0.8,1.4-0.9,1.4-1.7,0c-4-6.7-8-13.5-11.9-20.2c-0.6-1-1.3-1.4-2.4-1.4c-4.7,0.1-9.4,0.1-14,0c-1.2,0-1.6,0.4-1.6,1.6
		c0.1,4.6,0,9.2,0,13.8c0,18.5,0,37,0,55.4c0,1.8,0,1.8,1.8,1.8c4.6,0,9.1,0,13.7,0c1.7,0,1.7,0,1.7-1.7c0-12.3,0-24.6,0-36.8
		c0-0.4-0.2-0.9,0.3-1.4c0.3,0.4,0.5,0.7,0.7,1c3.9,6.5,7.7,13,11.6,19.5c0.9,1.4,1.1,1.5,2,0c3.9-6.5,7.7-13,11.6-19.4
		C62.6,104.9,62.7,104.5,63.3,104.3z M167.1,107.8c0,11.6,0,23.2,0,34.8c0,0.8-0.1,1.6,1.2,1.6c5.4,0,10.7,0,16.1,0
		c0.9,0,1.1-0.4,1.1-1.2c0-1.3,0-2.6,0-4c0-6.9,0-13.8,0-20.6c0-1.5,0.1-1.6,1.6-1.6c1.3,0,2.6,0.1,3.8,0c1.8-0.2,2.8,0.6,3.7,2.1
		c4.7,8,9.5,15.9,14.2,23.9c0.6,1,1.2,1.4,2.4,1.4c5.3-0.1,10.6,0,16,0c0.5,0,1.2,0.2,1.5-0.4c0.3-0.5-0.3-1-0.5-1.4
		c-5.4-8.6-10.9-17.1-16.3-25.7c-1-1.5-1-1.5,0.7-2.2c4.8-1.9,8.8-4.9,11.2-9.6c2.1-4,2.5-8.4,2.2-12.8c-0.5-7.3-3.7-12.9-10.2-16.6
		c-4.5-2.6-9.4-3.7-14.5-3.8c-10.8-0.1-21.7-0.1-32.5-0.1c-1.7,0-1.7,0-1.7,1.7C167.1,84.8,167.1,96.3,167.1,107.8z M353.5,107.4
		c0.5,0.2,0.6,0.7,0.8,1.1c5.6,11.4,11.2,22.8,16.8,34.2c0.5,1,1.2,1.4,2.3,1.4c4.6-0.1,9.3,0,13.9,0c1.6,0,1.6,0,1.6-1.6
		c0-8.5,0-17,0-25.6c0-14.6,0-29.2,0-43.8c0-1.6,0-1.6-1.6-1.6c-4.7,0-9.4,0-14,0c-1.6,0-1.6,0-1.6,1.6c0,11.2,0,22.3,0,33.5
		c0,0.5,0.1,0.9-0.2,1.4c-0.6-0.3-0.7-0.9-0.9-1.3c-5.6-11.3-11.1-22.6-16.6-33.9c-0.5-1-1.1-1.4-2.2-1.4c-4.8,0.1-9.5,0.1-14.3,0
		c-1.1,0-1.4,0.4-1.4,1.4c0,23.2,0,46.5,0,69.7c0,1.2,0.4,1.5,1.5,1.5c4.6-0.1,9.3,0,13.9,0c1.7,0,1.7,0,1.7-1.7
		c0-11.2,0-22.3,0-33.5C353.4,108.5,353.3,108,353.5,107.4z M124.9,71.6c-2.6,0-5.2,0-7.8,0c-1.9,0-1.9,0-2.5,1.8
		c-2.7,8.1-5.4,16.3-8.1,24.4c-4.9,14.9-9.9,29.8-14.8,44.7c-0.5,1.5-0.4,1.6,1.2,1.6c4.9,0,9.8,0,14.6,0c1.2,0,1.8-0.4,2.2-1.5
		c1-3.3,2.1-6.6,3.1-9.9c0.3-1.1,0.9-1.5,2.1-1.5c6.3,0,12.6,0,19,0c1.1,0,1.7,0.4,2,1.5c1,3.4,2.2,6.7,3.2,10
		c0.3,1.1,0.9,1.5,2.1,1.5c5.2,0,10.4,0,15.6,0c1.9,0,1.9,0,1.3-1.8c-3.4-10.3-6.8-20.6-10.2-30.9c-4.2-12.8-8.5-25.6-12.7-38.4
		c-0.3-1-0.9-1.5-2-1.4C130.2,71.6,127.5,71.6,124.9,71.6z M270.1,115.3c0-9,0-18.1,0-27.1c0-1.5,0.1-1.6,1.6-1.6c5,0,10.1,0,15.1,0
		c0.9,0,1.3-0.2,1.3-1.2c0-4.2,0-8.4,0-12.6c0-1-0.4-1.2-1.3-1.2c-17.3,0-34.5,0-51.8,0c-1,0-1.3,0.4-1.3,1.3c0,4.1,0,8.2,0,12.4
		c0,1.1,0.4,1.4,1.4,1.4c4.8,0,9.7,0,14.5,0c2.1,0,2.1,0,2.1,2.1c0,18,0,36,0,54c0,1.1,0.3,1.5,1.5,1.5c5-0.1,10.1,0,15.1,0
		c1.7,0,1.7,0,1.7-1.7C270.1,133.4,270.1,124.4,270.1,115.3z M425,107.8c0-11.6,0-23.2,0-34.8c0-1.1-0.3-1.5-1.5-1.5
		c-5.2,0.1-10.3,0.1-15.5,0c-1.1,0-1.4,0.4-1.4,1.4c0,23.2,0,46.5,0,69.7c0,1.1,0.3,1.5,1.4,1.5c5.1-0.1,10.2,0,15.2,0
		c1.7,0,1.7,0,1.7-1.7C425,130.9,425,119.4,425,107.8z M301,107.9c0,11.6,0,23.1,0,34.7c0,1.6,0,1.6,1.6,1.6c5.1,0,10.2,0,15.2,0
		c1.2,0,1.5-0.3,1.5-1.5c0-23.2,0-46.5,0-69.7c0-1.1-0.3-1.4-1.4-1.4c-5.1,0.1-10.2,0-15.2,0c-1.7,0-1.7,0-1.7,1.6
		C301,84.8,301,96.3,301,107.9z"/>
	<path class="st0" d="M439.8,162.6c2.7,0,4.8,2.2,4.7,4.9c0,2.7-2.1,4.8-4.8,4.8c-2.7,0-4.8-2.1-4.8-4.9
		C434.9,164.6,437,162.6,439.8,162.6z M441.9,170.3c1.4-0.9,1.7-2.3,1.4-3.8c-0.3-1.5-1.6-2.6-3.2-2.9c-1.3-0.2-2.8,0.6-3.5,1.8
		c-1,1.6-0.6,3.8,0.9,5C438.9,171.6,440.6,171.5,441.9,170.3L441.9,170.3z"/>
	<path class="st0" d="M194.2,86.6c2.4,0.1,5.3-0.2,8.1,0.4c3.9,0.8,6.1,3.6,6,7.6c-0.1,3.7-2.6,6.4-6.4,7c-1,0.2-2.1,0.3-3.1,0.3
		c-4,0-8,0-12,0c-1,0-1.5-0.3-1.4-1.3c0-4.2,0-8.4,0-12.6c0-1,0.4-1.4,1.4-1.4C189.1,86.6,191.4,86.6,194.2,86.6z"/>
	<path class="st0" d="M124.2,116.5c-1.6,0-3.3,0-4.9,0c-1,0-1.3-0.3-1-1.3c1.8-6.5,3.6-12.9,5.3-19.4c0.1-0.4,0.1-0.9,0.7-0.8
		c0.4,0,0.5,0.5,0.6,0.8c1.8,6.5,3.6,13.1,5.4,19.6c0.2,0.9-0.2,1.1-0.9,1.1C127.6,116.5,125.9,116.5,124.2,116.5z"/>
	<path class="st0" d="M441.9,170.3c-1.2,0.2-1.5-0.7-1.9-1.4c-0.2-0.4-0.3-1-0.8-0.9c-0.6,0.1-0.3,0.7-0.3,1.1c0,0.2,0,0.5,0,0.7
		c0,0.3-0.2,0.4-0.5,0.4c-0.3,0-0.5-0.1-0.5-0.4c0-1.5,0-3,0-4.5c0-0.1,0-0.2,0.1-0.2c1-0.4,2-0.3,3,0c0.8,0.2,0.9,0.9,0.9,1.6
		c0,0.2-0.1,0.4-0.2,0.4c-1.5,0.9-0.4,1.8,0,2.6C441.8,169.9,441.8,170.1,441.9,170.3C441.9,170.3,441.9,170.3,441.9,170.3z
		 M439.7,165.7c-0.4,0-0.9-0.1-0.8,0.7c0,0.5,0.1,0.8,0.7,0.8c0.6,0,1.2,0,1.3-0.8C440.8,165.8,440.3,165.7,439.7,165.7z"/>
</g>
</svg>
