<?xml version="1.0" encoding="utf-8"?>
<!-- Generator: Adobe Illustrator 19.0.0, SVG Export Plug-In . SVG Version: 6.00 Build 0)  -->
<svg version="1.1" id="svg2483" xmlns:svg="http://www.w3.org/2000/svg"
	 xmlns="http://www.w3.org/2000/svg" xmlns:xlink="http://www.w3.org/1999/xlink" x="0px" y="0px" viewBox="-195 375.8 200 42.2"
	 style="enable-background:new -195 375.8 200 42.2;" xml:space="preserve">
<style type="text/css">
	.st0{fill:#FFFFFF;}
</style>
<path id="path16957" class="st0" d="M-166,376.4c-0.2-0.5-0.5-0.5-0.9-0.3l-1.4,0.5c-2,0.7-3.6,2.3-5,3.6
	c-6.6,6.5-16.2,23-21.1,35.5c-0.3,0.9-0.4,1.3-0.4,1.5c0,0.7,0.6,0.9,1.7,0.8c4.3-10.6,13.5-29.3,21.8-36.9l1.1-1h0.2v0.6
	c0,2-0.5,6.5-1.1,10.2c-0.9,4.9-2.2,10.7-2.6,12.7c-0.5,2.4-0.7,4.6-0.7,5.2c0,0.6,0.2,0.8,0.9,0.7c1.1-0.1,2.6-0.8,3.1-1.3
	c0.5-0.4,1.1-0.9,2.1-3.1c1.4-3.1,5.4-11.8,10-17.6l0.7-0.9h0.2l-0.2,1.1c-0.2,1.8-0.6,4.3-0.6,7.4c0,4.1,0.4,8.6,1.4,11.4
	c0.7,2,1.8,2.8,2.9,2.8c1,0,1.9-0.5,2.6-1.4c-1.8-2.6-2.7-8.2-2.7-13.5c0-2.9,0.1-5.5,0.4-7.7c0.1-0.6,0.3-2.3,0.3-3.1
	c0-0.5-0.1-0.9-0.6-0.8c-0.5,0-1.9,0.5-2.4,0.8c-1.5,0.7-2.4,1.6-4.5,4.3c-1.8,2.4-5.8,8.9-9.5,17.2h-0.2l1.1-4.4
	c2.5-10,3.9-16.6,3.9-21C-165.6,377.7-166,376.7-166,376.4"/>
<path id="path16959" class="st0" d="M-141.2,392.1c-1.9,0-4.1,0.3-5.5,1v2.8c1.5-0.9,3.5-1.3,5-1.3c2.8,0,4.1,0.9,4.1,3.7v0.4
	l-4.7,0.6c-4.6,0.6-5.7,2.4-5.7,4.4c0,4,3.5,4.8,6.6,4.8c2.5,0,5-0.3,7-0.6v-9.6C-134.3,395-135.9,392.1-141.2,392.1 M-137.5,405.9
	c-1.2,0.2-2.1,0.3-3.1,0.3c-2.9,0-4-0.9-4-2.5c0-1.4,1-2,3.5-2.3l3.6-0.4V405.9L-137.5,405.9L-137.5,405.9z"/>
<path id="path16961" class="st0" d="M-122,392.1c-3.4,0-5.6,0.8-7.2,1.5v14.6h3.2v-13c1.2-0.4,2.4-0.6,3.6-0.6
	c1.4,0,2.3,0.2,3.2,0.4v-2.6C-120,392.1-121.4,392.1-122,392.1"/>
<polygon id="polygon16963" class="st0" points="-115,392.4 -111.8,392.4 -111.8,408.2 -115,408.2 "/>
<polygon id="polygon16965" class="st0" points="-115,385.6 -111.8,385.6 -111.8,388.7 -115,388.7 "/>
<path id="path16967" class="st0" d="M-98.4,392.1c-5.4,0-8.7,3.4-8.7,8.2c0,4.6,3.3,8.2,8.4,8.2c5.3,0,8.6-3.4,8.6-8.3
	C-90.2,395.7-93.3,392.1-98.4,392.1 M-98.5,405.9c-3.5,0-5.4-2.2-5.4-5.7c0-4.1,2.7-5.6,5-5.6c3.5,0,5.4,2.2,5.4,5.7
	C-93.5,404.5-96.2,405.9-98.5,405.9"/>
<path id="path16969" class="st0" d="M-79,392.1c-2.5,0-5.7,0.7-7.3,1.5v14.6h3.2v-13c1.2-0.4,2.3-0.6,3.5-0.6c2.8,0,4.7,0.8,4.7,4.4
	v9.2h3.2v-9.4C-71.6,393.7-73.9,392.1-79,392.1"/>
<path id="path16971" class="st0" d="M-59.4,392.1c-2.5,0-5.6,0.7-7.3,1.5v14.6h3.2v-13c1.2-0.4,2.3-0.6,3.5-0.6
	c2.8,0,4.7,0.8,4.7,4.4v9.2h3.2v-9.4C-52,393.7-54.3,392.1-59.4,392.1"/>
<path id="path16973" class="st0" d="M-41.1,392.1c-1.9,0-4.1,0.3-5.5,1v2.8c1.5-0.9,3.5-1.3,5-1.3c2.8,0,4.1,0.9,4.1,3.7v0.4
	l-4.7,0.6c-4.6,0.6-5.7,2.4-5.7,4.4c0,4,3.5,4.8,6.6,4.8c2.5,0,5-0.3,7-0.6v-9.6C-34.3,395-35.8,392.1-41.1,392.1 M-37.5,405.9
	c-1.2,0.2-2.1,0.3-3.1,0.3c-2.9,0-4-0.9-4-2.5c0-1.4,1-2,3.5-2.3l3.6-0.4L-37.5,405.9L-37.5,405.9z"/>
<path id="path16975" class="st0" d="M-22.2,408.5c2.8,0,5.5-0.7,7.3-1v-15.1h-3.2v13.1c-1.2,0.3-2.3,0.5-3.5,0.5
	c-2.8,0-4.7-0.9-4.7-3.8v-9.8h-3.3v10.1C-29.6,407.1-27.2,408.5-22.2,408.5"/>
<path id="path16977" class="st0" d="M1.8,383.6v9.1c-1-0.4-2.2-0.7-3.8-0.7c-4.8,0-8.9,2.7-8.9,8.5c0,4.9,3.4,7.9,9.2,7.9
	c2.3,0,4.3-0.3,6.7-0.8v-24H1.8L1.8,383.6L1.8,383.6z M1.8,405.4c-1.1,0.3-2.2,0.5-3.3,0.5c-3.4,0-6.1-1.5-6.1-5.7
	c0-4.8,3.3-5.6,5.9-5.6c1.3,0,2.5,0.3,3.5,0.7V405.4L1.8,405.4z"/>
</svg>
