<?xml version="1.0" encoding="utf-8"?>
<!-- Generator: Adobe Illustrator 19.0.0, SVG Export Plug-In . SVG Version: 6.00 Build 0)  -->
<svg version="1.1" id="Livello_1" xmlns="http://www.w3.org/2000/svg" xmlns:xlink="http://www.w3.org/1999/xlink" x="0px" y="0px"
	 viewBox="-379 217.3 200 126.7" style="enable-background:new -379 217.3 200 126.7;" xml:space="preserve">
<style type="text/css">
	.st0{fill:#FFFFFF;}
	.st1{enable-background:new    ;}
</style>
<g>
	<g id="XMLID_2_">
		<path id="XMLID_708_" class="st0" d="M-323,261.6c0.4-0.3,0.4-0.7,0.6-1.1c1.4-3.6,2.9-4.6,7-4.3c0.3,0,0.7,0,1.1,0
			c-0.3-1.1-1.3-1.3-1.8-1.8c-0.7-0.6-1.5-0.8-2.1-1.7c3.8-2.5,6.4-2,8.8,2.4c0.6-1.8,1.3-3.4,3.2-3.6c2-0.4,3.6,0.3,5.4,1.3
			c-1.1,1.5-3.1,2-4.2,3.4c0.7,0.4,1.3,0.1,1.7,0.1c3.8-0.3,6.3,1.7,7,5.4c0.1,1.1-0.1,1.4-1.1,1c-2.4-0.7-4.8-1.4-7.3-2.1
			c3.2,2.9,3.6,6.1,1.8,10.2c-1.8-2.5-3.5-4.8-5.2-7.1c-0.7,0.4-0.4,1-0.4,1.5c0,3.6,0.1,7.3,0.1,11c0,1.5,0.4,1.8,1.7,1
			c4.3-2.8,8.5-5.6,12.9-8.2c1-0.6,0.8-1.4,0.8-2.1c0.1-10.1,0.3-20,0.4-30c0-1.8,0.4-3.5-0.1-5.6c-2.1,2.2-3.4,4.9-5.4,7
			c-1.8-3.4-1.4-6.6,1-9.8c-2,0.6-4.1,1.3-6,1.8c-0.6,0.1-1.1,0.6-1.5,0.1c-0.6-0.4,0-1,0.1-1.5c1.1-3.9,3.1-5.2,7.1-4.9
			c0.4,0,0.8,0.3,1.4-0.3c-1.1-0.8-2.2-1.7-3.5-2.5c-1.1-0.7-0.8-1,0.3-1.4c3.9-1.5,5.9-0.8,7.7,2.9c2.2-4.1,4.6-4.6,8.8-2.1
			c-1.5,1.1-2.9,2.1-4.3,3.2c5.2-0.6,8.1,1.5,8.8,7c-2.8-0.3-5.2-1.8-8.5-2.1c3.2,3.1,3.5,6.3,1.8,10.1c-1.8-2.5-3.5-4.8-5.2-7
			c-0.8,0.4-0.6,1.1-0.6,1.7c0.1,10.5,0.3,20.8,0.4,31.3c0,3.6,0,3.6,3.5,4.8c10.3,3.5,20.7,7,30.9,10.5c2.5,0.8,2.7,0.8,2.7-1.8
			c0-8.5,0-17.2,0-25.9c-1.7,2.2-3.4,4.5-5.3,7.1c-1.5-3.9-1.7-7.3,1.3-10.3c-2.2,0.7-4.5,1.3-6.7,2.1c-1.5,0.6-1.5-0.1-1.3-1.3
			c1-4.3,3.4-5.9,7.8-5.2c0.3,0,0.6,0,1,0c-1.1-1.3-2.5-2-3.6-2.8c-1-0.7-0.7-1.1,0.3-1.5c3.4-1.4,5.7-0.7,7.5,2.4
			c1.1-1.3,1.5-3.1,3.8-3.1c1.8,0,3.5,0.1,5.2,1.3c-1.3,1.5-3.2,2.2-4.8,3.6c0.7,0.4,1.3,0,1.8,0c4.9-0.8,6.7,2.4,7.4,5.9
			c0.1,1-0.1,1.1-1,0.8c-2.2-0.7-4.6-1.4-7.1-2.1c2.8,2.9,3.2,6.3,1.5,10.2c-1.8-2.5-3.5-4.8-5.4-7.4c-0.6,2.5,0,4.6,0,6.7
			c0,7.1,0.3,14.3,0.4,21.4c0,1.5,0.7,2.2,2,2.7c4.1,1.4,8.1,2.5,12.2,4.2c0.8,0.3,1.7,0.3,1.3,1.5c-0.4,1.4-1.3,0.8-2.1,0.6
			c-3.8-1.1-7.5-2.2-11.3-3.5c-1.5-0.6-2-0.1-2,1.4c0.1,6.1,0.1,12.3,0.1,18.4c0,1.4,0.6,1.8,1.8,1.7c3.4-0.3,6.6,0,9.9-0.4
			c1.3-0.1,1.7,0.4,1.7,1.7c-0.1,4.1-0.1,4.1-4.1,4.1c-17.6,0-35.2,0-52.8,0.1c-0.7,0-1.5-0.3-2.1,0.4c-6.8,0-13.8,0-20.7,0
			c-1.1-0.7-0.8-1.8-1.1-2.8c1.7-0.1,3.4-0.4,5-0.4c1.4,0,1.8-0.4,1.8-1.8c0-4.2,0.1-8.4,0.1-12.6c0-3.9,0-8,0-12
			c-1.1,0.1-1.8,0.7-2.5,1.1c-1.1,0.6-2.1,1.3-3.2,1.8c-0.6,0.3-1.3,0.4-1.5-0.1c-0.6-0.8,0.4-0.8,0.8-1.1c1.5-1.1,3.2-2.2,4.9-3.1
			c1.5-0.8,1.8-2,1.8-3.5c0-3.8,0.1-7.5,0.3-11.3c0-0.8,0.1-1.5-0.3-2.7c-1.5,2.2-3.1,4.2-4.5,6.1c-0.3,0.3-0.4,0.8-0.8,0.7
			c-0.4-0.1-0.4-0.6-0.6-1c-0.6-1.5-0.6-2.9-0.4-4.5c0.3-1.7,1.5-2.8,2.5-4.3c-3.1,0.4-5.6,2.1-8.4,2.2
			C-323,262.4-323,262-323,261.6z M-290.1,290.1c0.1,0,0.3,0,0.4,0c0,5.4,0,10.8,0,16.2c0,1.5,0.3,2.7,1.9,2.6
			c10.6-0.4,21.5-1.1,32.1-1.4c1.7,0,2.2-1.2,2.2-2.8c0-6.4,0.1-13,0.1-19.4c0-1.3-0.4-1.8-1.7-2.2c-11.2-3.4-22.4-6.8-33.5-10.3
			c-1.4-0.4-1.5,0-1.5,1.3C-290.1,279.2-290.1,284.7-290.1,290.1z M-293.1,290.7c0-5.9,0-11.2,0-16.5c0-1.4-0.1-2-1.7-1.1
			c-4.1,2.4-8.1,4.6-12.3,6.7c-1,0.6-1.3,1.3-1.3,2.4c0.1,6,0.1,12,0.1,18c0,2.2,0.1,4.6,0.1,6.8c0,1,0.3,2.7,1.4,2.6
			c3.9-0.1,7.9-0.3,11.8-0.5c1.3,0,1.6-1.8,1.5-3C-293.3,300.9-293.2,295.5-293.1,290.7z"/>
		<path id="XMLID_707_" class="st0" d="M-271.5,291.1c0.3,1.7-0.7,2-2.1,2.1c-1.8,0.1-2-0.8-2-2.2c-0.1-1.8,1-1.8,2.4-2
			C-271.5,288.8-271.4,289.7-271.5,291.1z"/>
		<path id="XMLID_706_" class="st0" d="M-281.9,291.1c-0.3-1.7,0.3-2.1,1.8-2.1s2.2,0.4,2.2,2.1s-0.7,2.1-2.2,2.1
			S-282.2,292.6-281.9,291.1z"/>
		<path id="XMLID_19_" class="st0" d="M-281.9,297.1c-0.3-1.5,0.3-2,1.8-2c1.8,0,2.2,0.6,2.2,2.2c0,1.4-0.4,2-2,2
			C-281.2,299.2-282.2,298.9-281.9,297.1z"/>
		<path id="XMLID_18_" class="st0" d="M-273.6,295.1c1.5-0.3,2.2,0.1,2.2,1.8c0,1.7-0.6,2.4-2.2,2.4c-1.4,0-2-0.4-2-1.8
			C-275.6,296-275.6,294.7-273.6,295.1z"/>
	</g>
	<g class="st1">
		<path class="st0" d="M-357.9,334.4c0-0.9,0.1-1.8,0.4-2.8c0.2-0.9,0.6-1.8,1-2.7c0.4-0.9,1-1.6,1.6-2.4c0.6-0.7,1.3-1.4,2.1-1.9
			s1.6-1,2.5-1.3s1.8-0.5,2.8-0.5s1.8,0.2,2.5,0.6s1.3,0.9,1.8,1.5s0.8,1.4,1.1,2.2c0.2,0.8,0.3,1.7,0.3,2.5c0,1.5-0.2,3-0.7,4.4
			c-0.4,1.5-1.1,2.7-2,3.9c-0.9,1.1-2,2.1-3.2,2.8c-1.3,0.7-2.8,1.1-4.4,1.1c-1,0-1.9-0.2-2.6-0.7s-1.3-1-1.8-1.8
			c-0.5-0.7-0.8-1.5-1-2.4C-357.7,336.1-357.9,335.3-357.9,334.4z M-355.6,335c0,0.5,0.1,1,0.2,1.5c0.2,0.5,0.4,1,0.7,1.5
			c0.3,0.4,0.6,0.8,1.1,1.1c0.5,0.3,0.9,0.5,1.5,0.5c1.2,0,2.3-0.3,3.3-0.8s1.8-1.2,2.5-2.1s1.3-1.8,1.7-2.9s0.6-2.1,0.6-3.2
			c0-0.6,0-1.2-0.1-1.9c-0.1-0.7-0.2-1.2-0.3-1.7c-0.2-0.5-0.5-1-0.9-1.3s-1-0.5-1.8-0.5c-0.2,0-0.6,0-1,0s-0.8,0.1-1.2,0.1
			c-0.4,0.1-0.8,0.2-1.1,0.4c-0.3,0.2-0.5,0.4-0.5,0.7c0,0,0,0.1,0.1,0.2s0.1,0.2,0.2,0.4c0.1,0.1,0.1,0.2,0.2,0.4
			c0.1,0.1,0.1,0.2,0.1,0.2s-0.1,0.1-0.2,0.3c-0.1,0.2-0.3,0.2-0.3,0.3c-0.9,0.2-1.6,0.5-2.2,0.9c-0.6,0.3-1.1,0.8-1.4,1.3
			c-0.3,0.6-0.6,1.2-0.7,2C-355.5,333.1-355.6,334-355.6,335z"/>
		<path class="st0" d="M-340.7,333.8c0-0.7,0.2-1.5,0.5-2.3s0.8-1.6,1.3-2.2c0.6-0.7,1.2-1.2,1.9-1.7c0.7-0.4,1.5-0.7,2.3-0.7
			c0.4,0,0.8,0.1,1.2,0.2s0.8,0.3,1.1,0.6c0.3,0.3,0.6,0.6,0.8,1s0.3,0.8,0.3,1.3c-0.3,0-0.6,0-0.9-0.1s-0.5-0.2-0.8-0.3
			c-0.2-0.1-0.5-0.2-0.7-0.3s-0.5-0.1-0.8-0.1c-0.7,0-1.3,0.2-1.8,0.5c-0.5,0.4-0.8,0.8-1.1,1.4s-0.4,1.1-0.5,1.8
			c-0.1,0.6-0.1,1.2-0.1,1.8c0,0.1,0,0.3,0,0.5s0,0.5,0,0.8s0,0.5,0,0.8c0,0.2,0,0.4,0,0.5c0.2,0.4,0.4,0.8,0.6,1
			c0.2,0.2,0.4,0.4,0.6,0.5c0.2,0.1,0.4,0.2,0.7,0.2c0.2,0,0.5,0,0.9,0c0.5,0,0.9-0.1,1.2-0.2s0.7-0.3,1-0.5s0.6-0.4,0.9-0.7
			c0.3-0.2,0.5-0.5,0.8-0.7s0.6-0.4,1-0.5c0.3-0.1,0.7-0.2,1.2-0.2c0,0.9-0.2,1.6-0.5,2.3c-0.3,0.7-0.7,1.3-1.3,1.7
			c-0.6,0.4-1.2,0.9-2,1.1c-0.8,0.3-1.6,0.4-2.5,0.4c-0.8,0-1.6-0.3-2.3-0.9s-1.2-1.3-1.7-2.1s-0.8-1.7-1.1-2.6
			C-340.6,335.3-340.7,334.5-340.7,333.8z"/>
		<path class="st0" d="M-327.6,334.4c0-1,0.1-1.9,0.3-2.9s0.6-1.8,1.1-2.6c0.5-0.8,1.2-1.4,2-1.9s1.8-0.7,2.9-0.7
			c0.7,0,1.2,0.1,1.7,0.4c0.5,0.2,0.9,0.6,1.3,0.9c0.3,0.4,0.6,0.9,0.8,1.4s0.3,1.1,0.3,1.6c0,0.9-0.2,1.8-0.6,2.6
			c-0.4,0.9-1,1.6-1.7,2.3c-0.7,0.6-1.5,1.1-2.4,1.5c-0.9,0.3-1.8,0.4-2.8,0.2c0,0.5,0.2,0.9,0.5,1.2c0.3,0.3,0.7,0.5,1.2,0.7
			s0.9,0.3,1.4,0.3s0.9,0.1,1.3,0.1s0.8,0,1.1-0.1c0.4-0.1,0.7-0.2,1.1-0.2c0.4-0.1,0.7-0.2,1.1-0.2c0.4-0.1,0.8-0.1,1.2-0.1
			c0.2,0,0.3,0,0.5,0s0.3,0.1,0.5,0.1c0.1,0.1,0.3,0.2,0.3,0.3c0.1,0.1,0.1,0.3,0.1,0.5c0,0.3-0.1,0.6-0.4,0.8
			c-0.2,0.2-0.6,0.4-0.9,0.6c-0.4,0.2-0.8,0.3-1.3,0.4s-0.9,0.1-1.3,0.2c-0.4,0-0.8,0.1-1.2,0.1s-0.6,0-0.8,0
			c-1.1,0-2.2-0.2-3.1-0.5c-0.9-0.4-1.7-0.9-2.3-1.5s-1.1-1.4-1.4-2.3C-327.4,336.5-327.6,335.5-327.6,334.4z M-324.7,332.7
			c0,0.6,0.1,1.1,0.3,1.4s0.6,0.4,1.2,0.4c0.5,0,0.9-0.1,1.4-0.3c0.4-0.2,0.8-0.4,1.2-0.7c0.4-0.3,0.7-0.7,0.9-1.1s0.3-0.9,0.3-1.3
			c0-0.3,0-0.5-0.1-0.8c0-0.3-0.1-0.5-0.3-0.8c-0.1-0.2-0.3-0.4-0.5-0.6s-0.5-0.2-0.9-0.2c-0.5,0-1,0.1-1.5,0.4
			c-0.4,0.2-0.8,0.6-1.1,0.9c-0.3,0.4-0.5,0.8-0.7,1.3C-324.7,331.7-324.7,332.2-324.7,332.7z"/>
		<path class="st0" d="M-301.2,338.4c-0.7,0.5-1.3,0.9-1.7,1.2c-0.5,0.4-1,0.7-1.4,0.9c-0.5,0.2-1,0.4-1.5,0.6
			c-0.5,0.1-1.2,0.2-1.9,0.2c-1.7,0-2.9-0.4-3.7-1.3s-1.2-2.2-1.2-3.9c0-0.7,0.1-1.4,0.3-2.1s0.4-1.5,0.8-2.2
			c0.3-0.7,0.8-1.4,1.2-2.1c0.5-0.6,1-1.2,1.6-1.7s1.2-0.9,1.9-1.2c0.7-0.3,1.4-0.4,2.2-0.4c1.3,0.1,2.3,0.4,3,0.9s1.3,1.2,1.7,1.9
			c0.4,0.8,0.6,1.7,0.8,2.6c0.1,1,0.3,2,0.3,3c0.1,1,0.2,2.1,0.3,3.1s0.4,2,0.8,2.9c-0.2,0.6-0.4,1-0.7,1.2
			c-0.2,0.2-0.4,0.3-0.7,0.1c-0.2-0.2-0.5-0.6-0.9-1.2C-300.4,340.3-300.7,339.5-301.2,338.4z M-310.4,336.1c0,1,0.2,1.8,0.6,2.2
			c0.4,0.5,1.1,0.7,2,0.7c0.7,0,1.4-0.1,2.1-0.4c0.7-0.3,1.2-0.6,1.7-1.1s0.9-1,1.2-1.6s0.5-1.4,0.5-2.1c0-0.3,0-0.8,0-1.3
			c0-0.6,0-1.2-0.1-1.7c-0.1-0.6-0.3-1.1-0.5-1.5s-0.6-0.6-1.1-0.6c-0.9,0-1.8,0.2-2.6,0.7s-1.5,1.1-2,1.8c-0.6,0.7-1,1.5-1.3,2.4
			C-310.3,334.4-310.4,335.3-310.4,336.1z"/>
		<path class="st0" d="M-296.1,332.8c0-0.5,0.1-0.8,0.3-1s0.6-0.3,1.1-0.3h0.3c0.1,0.3,0.1,0.6,0.2,1c0.1,0.4,0.2,0.8,0.3,1.1
			c0.1,0.4,0.3,0.8,0.5,1.1c0.2,0.3,0.4,0.6,0.7,0.8c0-0.6,0.2-1.2,0.5-1.8c0.3-0.6,0.7-1.1,1.1-1.5c0.4-0.5,0.9-0.8,1.4-1.1
			c0.5-0.3,1-0.5,1.6-0.6h0.6c0.9,0,1.6,0.2,2.2,0.6c0.6,0.4,1.1,0.9,1.5,1.5s0.7,1.3,0.9,2.1c0.2,0.8,0.4,1.6,0.5,2.4
			s0.2,1.6,0.2,2.3c0,0.8,0,1.4,0,1.9h-1.9c-0.1-1.1-0.2-2.1-0.4-3.1c-0.1-0.4-0.1-0.8-0.2-1.2c-0.1-0.4-0.2-0.8-0.3-1.2
			c-0.1-0.4-0.2-0.7-0.3-1.1c-0.1-0.3-0.3-0.6-0.4-0.8c-0.1-0.1-0.2-0.2-0.3-0.3c-0.1-0.1-0.2-0.2-0.4-0.4c-0.1-0.1-0.2-0.2-0.3-0.3
			c-0.1-0.1-0.2-0.1-0.2-0.1c-0.5-0.1-1,0-1.4,0.3s-0.7,0.8-1,1.4s-0.5,1.3-0.7,2s-0.3,1.5-0.5,2.1c-0.1,0.7-0.2,1.3-0.3,1.8
			s-0.1,0.8-0.1,0.9c-0.4,0.3-0.9,0.4-1.3,0.3c-0.4-0.1-0.8-0.4-1.1-0.8s-0.7-1-0.9-1.6c-0.3-0.6-0.5-1.3-0.8-2
			c-0.2-0.7-0.4-1.4-0.6-2.2C-295.8,334.1-296,333.4-296.1,332.8z"/>
		<path class="st0" d="M-280.7,336.4c0-1.1,0.3-2.1,0.8-3.1s1.2-1.8,2-2.5s1.8-1.2,2.9-1.6c1.1-0.4,2.1-0.6,3.2-0.6
			c0.6,0,1.1,0.2,1.6,0.6s0.9,0.9,1.2,1.4c0.3,0.6,0.6,1.2,0.7,1.8c0.2,0.6,0.3,1.2,0.3,1.6c0,1-0.2,2-0.7,2.9s-1.1,1.8-1.9,2.5
			s-1.6,1.3-2.6,1.7c-1,0.4-1.9,0.7-2.9,0.7c-0.9,0-1.6-0.1-2.2-0.4c-0.6-0.3-1.1-0.7-1.4-1.2c-0.4-0.5-0.6-1.1-0.8-1.7
			C-280.6,337.9-280.7,337.1-280.7,336.4z M-278.4,336.7c0,0.5,0,0.9,0.1,1.2c0.1,0.3,0.2,0.6,0.4,0.9c0.2,0.2,0.5,0.4,0.8,0.6
			c0.3,0.1,0.8,0.2,1.3,0.2c0.7,0,1.3-0.2,2-0.5c0.7-0.4,1.2-0.8,1.8-1.4c0.5-0.6,0.9-1.2,1.3-1.9c0.3-0.7,0.5-1.3,0.5-2
			c0-0.3,0-0.6-0.1-0.9c-0.1-0.3-0.1-0.6-0.3-0.9c-0.1-0.3-0.3-0.5-0.5-0.7s-0.5-0.3-0.9-0.3c-0.3,0-0.7,0.1-1.1,0.3
			c-0.4,0.2-0.9,0.5-1.4,0.8s-0.9,0.7-1.4,1.1s-0.9,0.9-1.2,1.3s-0.7,0.8-0.9,1.2C-278.3,336.1-278.4,336.4-278.4,336.7z"/>
		<path class="st0" d="M-267,330.4c0-0.2,0-0.6,0-1.1s0-1,0-1.5s0-1.1,0-1.5c0-0.5,0-0.8,0-1c0-0.1,0.1-0.3,0.1-0.6
			c0.1-0.3,0.2-0.5,0.3-0.8c0.1-0.2,0.2-0.5,0.4-0.7s0.4-0.3,0.6-0.3c0.6,0,1.1,0.2,1.7,0.5c0.5,0.3,1,0.7,1.5,1.3
			c0.5,0.5,0.9,1.1,1.4,1.7c0.4,0.6,0.9,1.3,1.3,1.9c0.4,0.6,0.8,1.2,1.3,1.8c0.4,0.6,0.8,1,1.2,1.3c0.4-0.2,0.8-0.6,1-1.1
			s0.5-1.1,0.6-1.8c0.2-0.7,0.3-1.4,0.4-2.1s0.3-1.4,0.5-2s0.5-1.1,0.9-1.5s0.9-0.6,1.6-0.6c0.8,0,1.5,0.3,2.2,0.9
			c0.6,0.6,1.2,1.4,1.7,2.4s1,2,1.3,3.2c0.4,1.2,0.7,2.3,0.9,3.4c0.2,1.1,0.4,2.1,0.6,2.9c0.1,0.9,0.2,1.5,0.2,1.9
			c0,0.2,0,0.3,0,0.5s-0.1,0.4-0.1,0.5c-0.1,0.2-0.2,0.3-0.3,0.3c-0.2,0.1-0.4,0.1-0.7,0c-0.1,0-0.2-0.1-0.3-0.1
			c-0.1-0.1-0.2-0.2-0.4-0.3c-0.1-0.1-0.2-0.2-0.3-0.4s-0.1-0.2-0.1-0.3c-0.2-0.9-0.3-1.8-0.5-2.9s-0.4-2.1-0.7-3.2
			c-0.3-1.1-0.7-2.2-1.1-3.2s-1-1.9-1.7-2.7c-0.5,0.3-0.9,0.7-1.2,1.3c-0.3,0.6-0.5,1.2-0.7,1.9c-0.2,0.7-0.4,1.4-0.5,2.1
			c-0.2,0.7-0.4,1.4-0.6,1.9c-0.3,0.6-0.6,1.1-1,1.4c-0.4,0.4-1,0.6-1.7,0.6c-0.5,0-0.9-0.2-1.4-0.5s-0.9-0.7-1.3-1.2
			c-0.4-0.5-0.8-1.1-1.2-1.7s-0.8-1.2-1.2-1.8c-0.4-0.6-0.8-1.2-1.1-1.7c-0.4-0.5-0.7-0.9-1.1-1.2c-0.1,0.6-0.3,1-0.3,1.5
			c-0.1,0.4-0.1,0.8-0.2,1.2c0,0.4-0.1,0.8-0.1,1.2s0,0.9,0,1.4c0,0.7,0.1,1.5,0.2,2.2c0.1,0.7,0.3,1.5,0.4,2.2
			c0.1,0.7,0.3,1.5,0.4,2.2c0.1,0.7,0.2,1.5,0.2,2.2v0.2c0,0.1-0.1,0.1-0.2,0.3c-0.1,0.1-0.2,0.2-0.3,0.4c-0.1,0.1-0.2,0.2-0.4,0.3
			c-0.1,0.1-0.2,0.2-0.3,0.2h-0.1c-0.1,0-0.1,0-0.2,0h-0.1c-0.1,0-0.1,0-0.1,0c-0.1-1-0.3-2-0.4-2.9c-0.1-0.9-0.3-1.8-0.4-2.7
			c-0.1-0.9-0.2-1.8-0.3-2.7C-266.9,332.5-267,331.5-267,330.4z"/>
		<path class="st0" d="M-232.1,338.4c-0.7,0.5-1.3,0.9-1.7,1.2c-0.5,0.4-1,0.7-1.4,0.9c-0.5,0.2-1,0.4-1.5,0.6
			c-0.5,0.1-1.2,0.2-1.9,0.2c-1.7,0-2.9-0.4-3.7-1.3c-0.8-0.9-1.2-2.2-1.2-3.9c0-0.7,0.1-1.4,0.3-2.1c0.2-0.7,0.4-1.5,0.8-2.2
			c0.3-0.7,0.8-1.4,1.2-2.1s1-1.2,1.6-1.7s1.2-0.9,1.9-1.2c0.7-0.3,1.4-0.4,2.2-0.4c1.3,0.1,2.3,0.4,3,0.9s1.3,1.2,1.7,1.9
			c0.4,0.8,0.6,1.7,0.8,2.6c0.1,1,0.3,2,0.3,3c0.1,1,0.2,2.1,0.3,3.1c0.1,1,0.4,2,0.8,2.9c-0.2,0.6-0.4,1-0.7,1.2
			c-0.2,0.2-0.4,0.3-0.7,0.1c-0.2-0.2-0.5-0.6-0.9-1.2C-231.2,340.4-231.6,339.5-232.1,338.4z M-241.3,336.1c0,1,0.2,1.8,0.6,2.2
			c0.4,0.5,1.1,0.7,2,0.7c0.7,0,1.4-0.1,2.1-0.4s1.2-0.6,1.7-1.1s0.9-1,1.2-1.6c0.3-0.6,0.5-1.4,0.5-2.1c0-0.3,0-0.8,0-1.3
			c0-0.6,0-1.2-0.1-1.7s-0.3-1.1-0.5-1.5s-0.6-0.6-1.1-0.6c-0.9,0-1.8,0.2-2.6,0.7s-1.5,1.1-2,1.8c-0.6,0.7-1,1.5-1.3,2.4
			C-241.1,334.4-241.3,335.3-241.3,336.1z"/>
		<path class="st0" d="M-227,330.6c0-0.2,0-0.3,0-0.5s0.1-0.3,0.1-0.5c0.1-0.1,0.1-0.2,0.3-0.3s0.3-0.1,0.5-0.1s0.4,0.1,0.6,0.4
			s0.4,0.6,0.7,1c0.2,0.4,0.5,0.9,0.7,1.4s0.4,1,0.6,1.4s0.3,0.8,0.4,1.1c0.1,0.3,0.2,0.5,0.2,0.5c0.2-0.6,0.5-1.3,0.8-2
			s0.6-1.4,1.1-2c0.4-0.6,0.9-1.2,1.5-1.6s1.3-0.6,2.1-0.6c0.4,0,0.8,0.1,1.2,0.2c0.4,0.1,0.7,0.3,1,0.6c0.3,0.3,0.5,0.6,0.7,0.9
			c0.2,0.4,0.3,0.8,0.3,1.2s-0.2,0.7-0.5,0.8c-0.3,0.2-0.7,0.2-1.1,0.2h-0.3l-1.1-1.1h-0.1h-0.1h-0.1c-0.6,0-1.1,0.2-1.5,0.5
			c-0.3,0.3-0.6,0.8-0.8,1.3s-0.3,1-0.3,1.6s-0.1,1.1-0.1,1.5s0,0.7,0.1,1.1s0.2,0.7,0.2,1.1c0.1,0.3,0.2,0.7,0.2,1.1
			c0.1,0.4,0.1,0.7,0.1,1.1c0,0.7-0.4,1.1-1.2,1.1c-0.4,0-0.9-0.2-1.4-0.7s-1-1.1-1.4-1.8c-0.5-0.7-0.9-1.5-1.3-2.4
			s-0.8-1.7-1.1-2.6c-0.3-0.8-0.6-1.6-0.8-2.3C-226.9,331.4-227,330.9-227,330.6z"/>
		<path class="st0" d="M-213.3,334.4c0-1,0.1-1.9,0.3-2.9c0.2-1,0.6-1.8,1.1-2.6c0.5-0.8,1.2-1.4,2-1.9s1.8-0.7,2.9-0.7
			c0.7,0,1.2,0.1,1.7,0.4c0.5,0.2,0.9,0.6,1.3,0.9c0.3,0.4,0.6,0.9,0.8,1.4c0.2,0.5,0.3,1.1,0.3,1.6c0,0.9-0.2,1.8-0.6,2.6
			c-0.4,0.9-1,1.6-1.7,2.3c-0.7,0.6-1.5,1.1-2.4,1.5c-0.9,0.3-1.8,0.4-2.8,0.2c0,0.5,0.2,0.9,0.5,1.2c0.3,0.3,0.7,0.5,1.2,0.7
			s0.9,0.3,1.4,0.3s0.9,0.1,1.3,0.1s0.8,0,1.1-0.1c0.4-0.1,0.7-0.2,1.1-0.2c0.4-0.1,0.7-0.2,1.1-0.2c0.4-0.1,0.8-0.1,1.2-0.1
			c0.2,0,0.3,0,0.5,0s0.3,0.1,0.5,0.1c0.1,0.1,0.3,0.2,0.3,0.3c0.1,0.1,0.1,0.3,0.1,0.5c0,0.3-0.1,0.6-0.4,0.8
			c-0.2,0.2-0.6,0.4-0.9,0.6c-0.4,0.2-0.8,0.3-1.3,0.4s-0.9,0.1-1.3,0.2c-0.4,0-0.8,0.1-1.2,0.1c-0.4,0-0.6,0-0.8,0
			c-1.1,0-2.2-0.2-3.1-0.5c-0.9-0.4-1.7-0.9-2.3-1.5s-1.1-1.4-1.4-2.3C-213.2,336.5-213.3,335.5-213.3,334.4z M-210.5,332.7
			c0,0.6,0.1,1.1,0.3,1.4c0.2,0.3,0.6,0.4,1.2,0.4c0.5,0,0.9-0.1,1.4-0.3c0.4-0.2,0.8-0.4,1.2-0.7c0.4-0.3,0.7-0.7,0.9-1.1
			c0.2-0.4,0.3-0.9,0.3-1.3c0-0.3,0-0.5-0.1-0.8c0-0.3-0.1-0.5-0.3-0.8c-0.1-0.2-0.3-0.4-0.5-0.6s-0.5-0.2-0.9-0.2
			c-0.5,0-1,0.1-1.5,0.4c-0.4,0.2-0.8,0.6-1.1,0.9c-0.3,0.4-0.5,0.8-0.7,1.3C-210.4,331.7-210.5,332.2-210.5,332.7z"/>
	</g>
	<polygon class="st0" points="-289.7,291.1 -291.3,291.1 -291.3,272.7 -289.7,272.7 	"/>
	<polygon class="st0" points="-297.7,313.1 -297.7,311.5 -241.3,311.5 -241.2,312.6 	"/>
</g>
</svg>
