<?xml version="1.0" encoding="utf-8"?>
<!-- Generator: Adobe Illustrator 19.0.0, SVG Export Plug-In . SVG Version: 6.00 Build 0)  -->
<svg version="1.1" id="Livello_1" xmlns="http://www.w3.org/2000/svg" xmlns:xlink="http://www.w3.org/1999/xlink" x="0px" y="0px"
	 viewBox="0 0 226 160.2" style="enable-background:new 0 0 226 160.2;" xml:space="preserve">
<style type="text/css">
	.st0{fill:#FFFFFF;}
</style>
<g>
	<path class="st0" d="M106.7,1.1c5.4,1.7,11,3.1,16.3,5.3c1.6,0.7,2.7,1.4,3.3,3.2c0.4,1.3,1.5,2.5,2.6,3.6c3.6,3.9,3.7,3.8,7.2,0.1
		c5.1-5.5,14-3.8,16.4,3.4c1.7,5.2,2.9,10.6,4.3,15.9c0.2,0.7,0.6,1.6-0.2,2c-0.7,0.4-1.4-0.1-2.1-0.5c-5.3-3.3-8.6-7.9-9.6-14.1
		c-0.2-1.2,0.2-3.1-1.8-3.2c-1.7-0.1-2.7,1.1-3.4,2.6c-1.3,2.7-1,5.3-0.2,8c1.5,5.3,4.3,10.1,6.5,15.1c0.9,1.9,1.8,3.8,2.7,5.8
		c4.7,10.4,4.2,13.7-4.3,21.3c-2.4,2.2-2.5,3.6-0.6,6.2c6.1,8.4,11.1,17.5,15.4,27c1.2,2.5,0.5,4-1.2,6.2c-3.2,4.4-7.1,5-12,4.3
		c-5.7-0.8-11.5-0.8-17.2,0c-2.4,0.4-2.9-0.6-2.5-2.7c0.3-1.6,0.5-3.2,0.7-4.8c0.3-3.3,2.2-5.2,5.4-5.7c1.4-0.2,2.7-0.6,4-0.8
		c0.8-0.2,1.4-0.6,1.4-1.5c0-0.8-0.4-1.6-1.2-1.7c-7.8-0.9-12.5-6.9-18.4-10.9c-2.4-1.6-3.7-1.9-5.7,0.5c-3.4,4.2-6.9,8.2-10.8,12
		c-3.6,3.4-5.2,7.2-4.1,12.1c0.7,3.2-0.6,4-3.7,3.8c-9-0.6-18-1.4-26.9-0.1c-1.8,0.2-2.3-0.6-2-2.1c0.3-2.3,0.6-4.7,1-7
		c0.4-2.3,2-3.4,4.1-3.8c3.3-0.7,6.6-1.3,9.9-1.9c1.9-0.3,3.1-1.2,2.6-3.3c-1.3-6.1,1.4-11.2,4.2-16.3c2.6-4.6,5.1-9.2,7.8-13.7
		c0.9-1.5,0.8-2.3-0.5-3.5c-2.6-2.3-5.4-4-9-4.2c-6.5-0.4-13-0.7-19.5,0.1c-0.9,0.1-1.7,0.5-2.4-0.3c-1.7-1.8-3.4-0.8-5.1-0.2
		c-1.2,0.4-2.3,1.9-3.7,0.6c-1.4-1.3-2.3-3-1.7-5.1c1-4,2.8-7.1,7.2-8.3c4.2-1.1,8.5-1.9,13-2.5C72.4,40.3,71,39.9,70,39
		c-2.2-1.9-5.9-1.6-7.4-4.9c-0.4-0.8-2-0.5-3.2-0.2c-1.1,0.3-2.2,0.7-3-0.6c-0.8-1.4-1.3-2.8-0.4-4.2c1.7-2.7,3.8-4.9,7.3-5.3
		c4.4-0.4,8.7,0,12.8,2.1c5.2,2.7,10.5,5.3,15.7,8c2.5,1.3,6.5-1,6.3-3.7c-0.1-1.8-1.3-1.8-2.7-1.2c-4.3,1.8-5.6,1.3-7.9-2.8
		c-0.4-0.7-1.2-1.5-0.5-2.4c0.7-0.9,1.6-1.7,2.9-1.3c1.5,0.5,3,0.3,4.4,0c1.1-0.3,2.9,0,2.6-1.9c-0.3-1.7-1.4-3-3.4-2.8
		c-1.5,0.1-3.1,0.5-4.2,1.5c-2.1,2-3.6,0.9-5.1-0.6c-0.4-0.4-0.8-1-1.1-1.5c-3.5-5-3.4-5.8,2.4-7.7c2.8-0.9,4.4-3.1,6.8-4.5
		c3.3-1.8,7-2.5,10.4-3.8C104.2,1.1,105.4,1.1,106.7,1.1z M143.3,110.5c0,0.1,0,0.2,0,0.2c1.5,0,3.1-0.4,4.5,0.1
		c4.8,1.5,6.7-2.3,9-4.9c1.9-2.1-0.5-4.2-1.4-6c-7.8-16.4-18.7-30.7-30.1-44.6c-1.5-1.8-3.1-3.7-4.3-5.7c-1.8-2.9-1.1-4.7,2.1-5.7
		c2.7-0.8,5.5-1.5,8.4-2c2.8-0.5,3.8-2.1,3.6-4.8c-0.3-3.5-0.6-7-0.8-10.5c-0.2-3.4-1.5-6.1-4.5-8.2c-2.1-1.5-4.4-3.3-5.1-5.8
		c-1.2-4.6-4.8-5.7-8.5-6.9c-2.5-0.8-5-1.4-7.6-2.2c-5.9-1.7-11.3,0-16,3.3c-2.5,1.8-4.9,3.3-7.7,4.4c-0.9,0.4-2.5,0.4-2,2.1
		c0.6,1.7,1.8,1.7,3.3,1.1c3.3-1.3,6.6-2.3,10-3.1c6.1-1.5,10.4,0.2,14.5,5.4c5.7,7,6.6,13.4,1.9,21.1c-3.2,5.3-3.7,5.9-9.3,3.2
		c-9-4.4-17.9-8.9-26.8-13.4c-4.2-2.1-8.5-2.9-13.1-2.3c-1,0.1-2.2,0.4-2.1,1.6c0.1,1.1,1.4,0.7,2.2,0.8c5.1,0.1,9.8,1.5,14.3,4
		c5.1,2.9,10.3,5.7,15.6,8.2C119,52.1,136.6,72.2,150,96.4c1.9,3.4,1.6,4.2-2.3,5.1c-3.8,0.9-7.5,1.7-11.3,2.7c-2.7,0.7-3,3-2.8,5.1
		c0.2,2.3,2.4,1.1,3.7,1.3C139.2,110.7,141.3,110.5,143.3,110.5z M137.6,39c-0.2,4.1-2.4,5.6-6,6.3c-1.8,0.3-3.6,1-5.4,1.6
		c-2.6,1-3.2,2.8-1.4,4.9c2.6,3.2,5.3,6.3,8,9.4c1.3,1.6,2.9,1.8,4.7,0.9c1.7-0.8,3.3-1.7,4.9-2.7c2.7-1.8,3.4-4.2,1.9-7.1
		C142,47.9,139.8,43.5,137.6,39z M68.5,108.4c0,0.2-0.5,1.3,0.9,1.4c1.3,0.1,2.6,0,2.7-1.8c0.2-3.4,2.6-4.2,5.3-4.6
		c1.6-0.3,3.2-0.6,4.8-0.9c5.3-1,5.5-1,5.1-6.6c-0.3-4.1,0.6-7.6,2.8-11c3.8-6,7.8-11.9,12.2-17.5c1-1.3,2-2.2-0.1-3.5
		c-1.7-1.1-3-1.7-4.3,0.4c-2.2,3.8-4.7,7.4-6.7,11.2C87.6,82.3,83.2,88.8,85,97c0.4,1.8-0.7,2.8-2.4,3.1c-2.8,0.5-5.6,1.2-8.5,1.5
		C70.1,101.9,68.8,104.3,68.5,108.4z M86.6,54.9c-1.1-1.9-1.5-4.4-4-4.2c-4.1,0.3-8.2,0.8-12.2,1.3c-1.6,0.2-3,1-3.9,2.9
		C73.4,54.9,80,54.9,86.6,54.9z"/>
	<path class="st0" d="M174.9,159.3c-2.1-0.8-4.2-1.3-6.2-2.3c-2.9-1.4-5-3.6-5.2-7.2c-0.2-3.7,1.6-6.3,4.6-7.9
		c7.3-3.9,14.8-4,22.2-0.1c3,1.6,5,4.1,4.9,7.8c-0.1,3.8-2.4,6.2-5.7,7.7c-2,0.9-4.2,1.4-6.3,2.1
		C180.4,159.3,177.7,159.3,174.9,159.3z M179.5,157c2.2,0,4.2-0.4,6.1-1.6c4.8-2.9,4.9-9.6,0-12.3c-4.1-2.3-8.4-2.3-12.5,0
		c-4.9,2.8-4.8,9.4,0,12.3C175,156.7,177.2,157.1,179.5,157z"/>
	<path class="st0" d="M71.4,159.3c-5.4-1.5-7.5-5.1-6.8-10.6c0.3-2,0.2-4,0-6c-0.2-2.2,0.5-3.1,2.9-3.1c2.5,0,2.5,1.3,2.5,3.1
		c-0.1,2.7,0.1,5.5,0,8.2c-0.1,3.1,1.5,4.6,4.3,5.2c0.8,0.2,1.7,0.3,2.6,0.3c7,0.3,7.3,0.1,7.3-6.9c0-2.1,0-4.2,0-6.4
		c0-1.9-0.2-3.6,2.8-3.6c3.2,0,2.5,2,2.5,3.7c0,3.1-0.3,6.3,0.1,9.4c0.4,3.3-1,4.7-4.1,5.3c-1.7,0.4-3.5,0.2-5,1.3
		C77.4,159.3,74.4,159.3,71.4,159.3z"/>
	<path class="st0" d="M109.7,159.3c-2.3-0.8-4.8-1.4-6.9-2.6c-6.4-3.5-6.6-11-0.3-14.8c6.7-4,13.9-3.4,21.1-1.7
		c1.5,0.3,1.7,1.4,1.3,2.6c-0.4,1.3-1.4,0.5-2.2,0.3c-4-1.2-8-2.2-12.1-1.2c-4.1,1-6.5,3.6-6.6,7.1c0,3.4,2.4,6.3,6.4,7.3
		c1.9,0.5,3.9,0.6,5.9,0.4c2.7-0.3,4.6-1,4.1-4.3c-0.4-2.3,1.3-2.2,2.8-2.3c1.8-0.1,2.3,0.6,2.4,2.4c0.2,5.4,0.3,5.3-4.9,6.2
		c-0.7,0.1-1.5,0-2,0.7C115.7,159.3,112.7,159.3,109.7,159.3z"/>
	<path class="st0" d="M0.9,139.8c6.2,0,12.5-0.8,18.6,0.7c3.1,0.7,6.6,1.6,6.6,5.5c0.1,3.8-3.4,4.9-6.3,5.8c-3.5,1.1-7.1,1-10.7,1
		c-1.1,0-2.8-0.2-2.5,1.4c0.8,5.1-2.5,4.6-5.6,4.4C0.9,152.3,0.9,146.1,0.9,139.8z M10.8,150.6c2.4-0.1,4.7-0.1,6.8-1.1
		c1.5-0.7,2.6-1.7,2.6-3.3c0-1.7-1.2-2.7-2.6-3.3c-3.1-1.2-6.4-1.1-9.6-1c-0.4,0-1.1,0.3-1.2,0.6c-0.6,2.3-0.7,4.8-0.1,7
		C7.2,151.6,9.5,150.2,10.8,150.6z"/>
	<path class="st0" d="M45.1,139.7c2.5,0,5-0.1,7.5,0c1,0,2.7-0.6,2.7,1.1c0,1.9-1.8,1.2-2.9,1.3c-3.4,0.1-6.7,0.1-10.1,0
		c-2.2-0.1-2.8,0.8-2.8,2.8c0,2.1,0.7,2.9,2.8,2.8c3.4-0.1,6.7,0,10.1,0c1,0,2.2-0.2,2.2,1.3c0,1.5-1.3,1.2-2.3,1.2
		c-3.2,0-6.5,0-9.7,0c-1.4,0-3.2-0.5-3.1,2c0.1,2.1,0.6,3.8,3,3.9c3.4,0.1,6.7,0,10.1,0.1c1.1,0,2.9-0.8,3,1c0.1,2-1.8,1.2-2.9,1.3
		c-4.2,0.1-8.5,0.1-12.7,0c-4.2-0.1-5.7-1.5-5.9-5.6c-0.1-3.6,0-7.2-0.1-10.8c-0.1-2.1,0.9-2.6,2.7-2.5
		C39.6,139.8,42.4,139.7,45.1,139.7z"/>
	<path class="st0" d="M145.7,139.7c2.7,0,5.5,0,8.2,0c0.9,0,2.2-0.3,2.1,1.3c-0.1,1.3-1.2,1-2,1c-3.7,0-7.5,0.1-11.2,0
		c-2.1-0.1-2.5,0.8-2.5,2.7c0,1.9,0.3,3.1,2.6,3c3.5-0.2,7,0,10.5,0c1,0,2.2-0.1,2,1.5c-0.1,1.3-1.2,1.1-2,1.1c-3.2,0-6.5,0-9.7,0
		c-1.4,0-3.4-0.8-3.3,2.1c0.1,2.4,0.9,3.9,3.4,3.9c3.4,0.1,6.7,0,10.1,0.1c1,0,2.7-0.6,2.7,1c0.1,2-1.8,1.3-2.8,1.3
		c-4.2,0.1-8.5,0.1-12.7,0c-4.5-0.1-5.9-1.6-6-6.2c-0.1-3.1,0.1-6.2-0.1-9.3c-0.2-2.5,0.5-3.7,3.3-3.4
		C140.7,139.9,143.2,139.7,145.7,139.7z"/>
	<path class="st0" d="M209.8,150.5c0-7.8,0-7.8-7.5-8.1c-1.1-0.1-2.8,0.5-2.7-1.5c0.1-1.7,1.7-1.1,2.7-1.1c6.7-0.1,13.5-0.1,20.2,0
		c1.1,0,2.8-0.6,2.8,1.4c0,1.7-1.6,1.2-2.6,1.3c-7.5,0.4-7.5,0.4-7.5,8.1c0,1.6-0.1,3.3,0,4.9c0.1,2-0.1,3.3-2.7,3.3
		c-2.6,0-2.8-1.3-2.7-3.3C209.9,153.8,209.8,152.2,209.8,150.5z"/>
	<path class="st0" d="M99.1,7.2C98.9,7.8,98.9,8,98.8,8c-1.6,0.9-3.1,2-5.1,1.6c-0.1,0-0.3-0.8-0.2-0.9C95,7.3,96.9,6.9,99.1,7.2z"
		/>
</g>
</svg>
