<?xml version="1.0" encoding="utf-8"?>
<!-- Generator: Adobe Illustrator 19.0.0, SVG Export Plug-In . SVG Version: 6.00 Build 0)  -->
<svg version="1.1" id="Livello_1" xmlns="http://www.w3.org/2000/svg" xmlns:xlink="http://www.w3.org/1999/xlink" x="0px" y="0px"
	 viewBox="579.9 -524.7 67.3 67.4" style="enable-background:new 579.9 -524.7 67.3 67.4;" xml:space="preserve">
<style type="text/css">
	.st0{fill:#020202;}
</style>
<path class="st0" d="M612.9-457.3c-5.3,0.4-11.2-1.3-16.4-4.7c-4.4-2.8-8-6.5-10.8-11.2c-4.3-7.4-6.5-15.1-5.5-23.7
	c0.8-6.6,4-11.8,8.5-16.6c3.7-3.9,8.4-6.1,13-8.6c2.1-1.1,4.8-1.2,7.1-1.9c5.9-1.6,11.7,0.1,17.1,1.9c4,1.3,7.6,3.8,10.8,7
	c5.1,5.1,8.6,10.7,9.6,17.9c0.4,2.7,1.1,5.5,0.9,8.2c-0.5,5.4-1.7,10.6-4.7,15.2c-2.5,3.9-5.4,7.3-9.1,10.1
	C627.7-459.1,621.2-457.2,612.9-457.3 M622.8-496c-8.1-0.5-15.3,6.7-15.4,15c-0.1,8.5,6.1,14.5,14.1,14.6c8.8,0,15.1-7.1,15.5-15.4
	C637.3-489.2,630.8-496.6,622.8-496 M623.1-502.3c0-2.5-2.1-4.6-4.5-4.5c-2.5,0.1-4.4,2.3-4.4,4.9c0,2.8,1.7,4.5,4.5,4.4
	C621.3-497.5,623.2-499.6,623.1-502.3"/>
</svg>
