<?xml version="1.0" encoding="utf-8"?>
<!-- Generator: Adobe Illustrator 19.0.0, SVG Export Plug-In . SVG Version: 6.00 Build 0)  -->
<svg version="1.1" id="Livello_1" xmlns="http://www.w3.org/2000/svg" xmlns:xlink="http://www.w3.org/1999/xlink" x="0px" y="0px"
	 viewBox="0 0 200 93.1" style="enable-background:new 0 0 200 93.1;" xml:space="preserve">
<style type="text/css">
	.st0{fill:#FFFFFF;}
</style>
<g id="XMLID_3_">
	<path id="XMLID_17_" class="st0" d="M98.2,46.4c0,0-37.9-20.9-45.1,1.4c-4.4,13.5,13.4,20.1,24.8,19.2c0,0-21.1-6.9-17.6-17.9
		C64.6,35.3,96.9,46.1,98.2,46.4"/>
	<path id="XMLID_16_" class="st0" d="M101.8,46.4c0,0,37.9-20.9,45.1,1.4c4.4,13.5-13.4,20.1-24.8,19.2c0,0,21.1-6.9,17.6-17.9
		C135.4,35.3,103.1,46.1,101.8,46.4"/>
	<path id="XMLID_15_" class="st0" d="M80.3,45.8c0,0,1.9-3.3,8.6,0c6.7,3.3,0.6,5,0.3,5c-0.9,0.3-3.5-3.2-4.8-4.1
		C83.1,45.8,82.4,45.4,80.3,45.8"/>
	<path id="XMLID_14_" class="st0" d="M119.9,45.8c0,0-1.9-3.3-8.6,0c-6.7,3.3-0.6,5-0.3,5c0.9,0.3,3.5-3.2,4.8-4.1
		C117.1,45.8,117.7,45.4,119.9,45.8"/>
	<path id="XMLID_13_" class="st0" d="M95.4,47.9c0,0-31.5,28-17.7,41.8c7.1,7.2,15.4,1,15.4,1S80.7,91,81.4,80.1
		C82.1,68.4,95.6,48.7,95.4,47.9"/>
	<path id="XMLID_12_" class="st0" d="M104.6,47.9c0,0,31.5,28,17.7,41.8c-7.1,7.2-15.4,1-15.4,1s12.4,0.3,11.7-10.5
		C117.9,68.4,104.4,48.7,104.6,47.9"/>
	<path id="XMLID_11_" class="st0" d="M97,87c0,0-5-7.4-3.4-17.6c0.3-2,1.3-4.8,1-6.7c0,0-1-0.5-1.6-0.3c-0.8,0.3-1.3,2.8-1.5,3.4
		c-0.2,0.7-2.5,10.1-0.3,14.3C93.5,84.4,95.9,86,97,87"/>
	<path id="XMLID_10_" class="st0" d="M103.1,87c0,0,5-7.4,3.4-17.6c-0.3-2-1.3-4.8-1-6.7c0,0,1-0.5,1.6-0.3c0.8,0.3,1.3,2.8,1.5,3.4
		c0.2,0.7,2.5,10.1,0.3,14.3C106.6,84.4,104.2,86,103.1,87"/>
	<path id="XMLID_9_" class="st0" d="M100,45.8c0,0,6.7-38.8,22.7-36.4c7.3,1.1,15.9,14.6,8.3,26.4c0,0,6.1-2.7,8.9-11.7
		c6.2-19.9-31.2-41.4-39.9-0.8h0c-8.7-40.7-46.1-19.1-39.9,0.8C62.8,33,69,35.7,69,35.7C61.4,24,70,10.4,77.3,9.3
		C93.3,7,100,45.8,100,45.8L100,45.8z"/>
	<path id="XMLID_8_" class="st0" d="M76.8,16.5c0,0,12.5,3.1,18,18.4c1.2,3.2,0,4.5-1.1,1.7C88.7,23.6,80,17.4,76.8,16.5"/>
	<path id="XMLID_7_" class="st0" d="M123.3,16.5c0,0-12.5,3.1-18,18.4c-1.2,3.2,0,4.5,1.1,1.7C111.5,23.6,120.2,17.4,123.3,16.5"/>
	<path id="XMLID_6_" class="st0" d="M104.7,51.5c0,0-1.9-0.5-1.5,1.1c0.4,1.6,3.1,5.9,3.1,5.9s0.5-4.9,0-6.1
		C105.8,51.2,105.2,51.1,104.7,51.5"/>
	<path id="XMLID_5_" class="st0" d="M100,63.7c0.8,0,2.7-12.6,2.6-15.2c-0.2-3-2.5-0.3-2.5-0.3h0c0,0-2.4-2.6-2.5,0.3
		C97.4,51.1,99.3,63.7,100,63.7"/>
	<path id="XMLID_4_" class="st0" d="M95.3,51.5c0,0,1.9-0.5,1.5,1.1c-0.4,1.6-3.1,5.9-3.1,5.9s-0.5-4.9,0-6.1
		C94.2,51.2,94.8,51.1,95.3,51.5"/>
</g>
</svg>
