<?xml version="1.0" encoding="utf-8"?>
<!-- Generator: Adobe Illustrator 19.0.0, SVG Export Plug-In . SVG Version: 6.00 Build 0)  -->
<svg version="1.1" id="Livello_1" xmlns="http://www.w3.org/2000/svg" xmlns:xlink="http://www.w3.org/1999/xlink" x="0px" y="0px"
	 viewBox="-20 14.2 200 126.7" style="enable-background:new -20 14.2 200 126.7;" xml:space="preserve">
<style type="text/css">
	.st0{fill:#FFFFFF;}
	.st1{enable-background:new    ;}
</style>
<g>
	<g id="XMLID_2_">
		<path id="XMLID_708_" class="st0" d="M-201.2,56.8c0.4-0.3,0.4-0.7,0.6-1.1c1.4-3.6,2.9-4.6,7-4.3c0.3,0,0.7,0,1.1,0
			c-0.3-1.1-1.3-1.3-1.8-1.8c-0.7-0.6-1.5-0.8-2.1-1.7c3.8-2.5,6.4-2,8.8,2.4c0.6-1.8,1.3-3.4,3.2-3.6c2-0.4,3.6,0.3,5.4,1.3
			c-1.1,1.5-3.1,2-4.2,3.4c0.7,0.4,1.3,0.1,1.7,0.1c3.8-0.3,6.3,1.7,7,5.4c0.1,1.1-0.1,1.4-1.1,1c-2.4-0.7-4.8-1.4-7.3-2.1
			c3.2,2.9,3.6,6.1,1.8,10.2c-1.8-2.5-3.5-4.8-5.2-7.1c-0.7,0.4-0.4,1-0.4,1.5c0,3.6,0.1,7.3,0.1,11c0,1.5,0.4,1.8,1.7,1
			c4.3-2.8,8.5-5.6,12.9-8.2c1-0.6,0.8-1.4,0.8-2.1c0.1-10.1,0.3-20,0.4-30c0-1.8,0.4-3.5-0.1-5.6c-2.1,2.2-3.4,4.9-5.4,7
			c-1.8-3.4-1.4-6.6,1-9.8c-2,0.6-4.1,1.3-6,1.8c-0.6,0.1-1.1,0.6-1.5,0.1c-0.6-0.4,0-1,0.1-1.5c1.1-3.9,3.1-5.2,7.1-4.9
			c0.4,0,0.8,0.3,1.4-0.3c-1.1-0.8-2.2-1.7-3.5-2.5c-1.1-0.7-0.8-1,0.3-1.4c3.9-1.5,5.9-0.8,7.7,2.9c2.2-4.1,4.6-4.6,8.8-2.1
			c-1.5,1.1-2.9,2.1-4.3,3.2c5.2-0.6,8.1,1.5,8.8,7c-2.8-0.3-5.2-1.8-8.5-2.1c3.2,3.1,3.5,6.3,1.8,10.1c-1.8-2.5-3.5-4.8-5.2-7
			c-0.8,0.4-0.6,1.1-0.6,1.7c0.1,10.5,0.3,20.8,0.4,31.3c0,3.6,0,3.6,3.5,4.8c10.3,3.5,20.7,7,30.9,10.5c2.5,0.8,2.7,0.8,2.7-1.8
			c0-8.5,0-17.2,0-25.9c-1.7,2.2-3.4,4.5-5.3,7.1c-1.5-3.9-1.7-7.3,1.3-10.3c-2.2,0.7-4.5,1.3-6.7,2.1c-1.5,0.6-1.5-0.1-1.3-1.3
			c1-4.3,3.4-5.9,7.8-5.2c0.3,0,0.6,0,1,0c-1.1-1.3-2.5-2-3.6-2.8c-1-0.7-0.7-1.1,0.3-1.5c3.4-1.4,5.7-0.7,7.5,2.4
			c1.1-1.3,1.5-3.1,3.8-3.1c1.8,0,3.5,0.1,5.2,1.3c-1.3,1.5-3.2,2.2-4.8,3.6c0.7,0.4,1.3,0,1.8,0c4.9-0.8,6.7,2.4,7.4,5.9
			c0.1,1-0.1,1.1-1,0.8c-2.2-0.7-4.6-1.4-7.1-2.1c2.8,2.9,3.2,6.3,1.5,10.2c-1.8-2.5-3.5-4.8-5.4-7.4c-0.6,2.5,0,4.6,0,6.7
			c0,7.1,0.3,14.3,0.4,21.4c0,1.5,0.7,2.2,2,2.7c4.1,1.4,8.1,2.5,12.2,4.2c0.8,0.3,1.7,0.3,1.3,1.5c-0.4,1.4-1.3,0.8-2.1,0.6
			c-3.8-1.1-7.5-2.2-11.3-3.5c-1.5-0.6-2-0.1-2,1.4c0.1,6.1,0.1,12.3,0.1,18.4c0,1.4,0.6,1.8,1.8,1.7c3.4-0.3,6.6,0,9.9-0.4
			c1.3-0.1,1.7,0.4,1.7,1.7c-0.1,4.1-0.1,4.1-4.1,4.1c-17.6,0-35.2,0-52.8,0.1c-0.7,0-1.5-0.3-2.1,0.4c-6.8,0-13.8,0-20.7,0
			c-1.1-0.7-0.8-1.8-1.1-2.8c1.7-0.1,3.4-0.4,5-0.4c1.4,0,1.8-0.4,1.8-1.8c0-4.2,0.1-8.4,0.1-12.6c0-3.9,0-8,0-12
			c-1.1,0.1-1.8,0.7-2.5,1.1c-1.1,0.6-2.1,1.3-3.2,1.8c-0.6,0.3-1.3,0.4-1.5-0.1c-0.6-0.8,0.4-0.8,0.8-1.1c1.5-1.1,3.2-2.2,4.9-3.1
			c1.5-0.8,1.8-2,1.8-3.5c0-3.8,0.1-7.5,0.3-11.3c0-0.8,0.1-1.5-0.3-2.7c-1.5,2.2-3.1,4.2-4.5,6.1c-0.3,0.3-0.4,0.8-0.8,0.7
			c-0.4-0.1-0.4-0.6-0.6-1c-0.6-1.5-0.6-2.9-0.4-4.5c0.3-1.7,1.5-2.8,2.5-4.3c-3.1,0.4-5.6,2.1-8.4,2.2
			C-201.2,57.6-201.2,57.2-201.2,56.8z M-168.3,85.3c0.1,0,0.3,0,0.4,0c0,5.4,0,10.8,0,16.2c0,1.5,0.4,1.8,2,1.7
			c10.6-0.4,21.4-0.8,32-1.1c1.7,0,2.2-0.6,2.2-2.2c0-6.4,0.1-13,0.1-19.4c0-1.3-0.4-1.8-1.7-2.2c-11.2-3.4-22.4-6.8-33.5-10.3
			c-1.4-0.4-1.5,0-1.5,1.3C-168.3,74.4-168.3,79.9-168.3,85.3z M-171.3,86c0-5.9,0-11.2,0-16.5c0-1.4-0.1-2-1.7-1.1
			c-4.1,2.4-8.1,4.6-12.3,6.7c-1,0.6-1.3,1.3-1.3,2.4c0.1,6,0.1,12,0.1,18c0,2.2,0.1,4.6,0.1,6.8c0,1,0.3,1.7,1.4,1.5
			c3.9-0.1,7.7-0.4,11.6-0.6c1.3,0,1.8-0.6,1.7-1.8C-171.5,96.2-171.4,90.8-171.3,86z"/>
		<path id="XMLID_707_" class="st0" d="M-149.7,86.3c0.3,1.7-0.7,2-2.1,2.1c-1.8,0.1-2-0.8-2-2.2c-0.1-1.8,1-1.8,2.4-2
			C-149.7,84-149.6,84.9-149.7,86.3z"/>
		<path id="XMLID_706_" class="st0" d="M-160.1,86.3c-0.3-1.7,0.3-2.1,1.8-2.1s2.2,0.4,2.2,2.1s-0.7,2.1-2.2,2.1
			S-160.4,87.8-160.1,86.3z"/>
		<path id="XMLID_19_" class="st0" d="M-160.1,92.3c-0.3-1.5,0.3-2,1.8-2c1.8,0,2.2,0.6,2.2,2.2c0,1.4-0.4,2-2,2
			C-159.4,94.4-160.4,94.1-160.1,92.3z"/>
		<path id="XMLID_18_" class="st0" d="M-151.8,90.3c1.5-0.3,2.2,0.1,2.2,1.8c0,1.7-0.6,2.4-2.2,2.4c-1.4,0-2-0.4-2-1.8
			C-153.8,91.2-153.8,89.9-151.8,90.3z"/>
	</g>
	<g class="st1">
		<path class="st0" d="M-236.1,129.6c0-0.9,0.1-1.8,0.4-2.8c0.2-0.9,0.6-1.8,1-2.7c0.4-0.9,1-1.6,1.6-2.4c0.6-0.7,1.3-1.4,2.1-1.9
			s1.6-1,2.5-1.3s1.8-0.5,2.8-0.5s1.8,0.2,2.5,0.6s1.3,0.9,1.8,1.5s0.8,1.4,1.1,2.2c0.2,0.8,0.3,1.7,0.3,2.5c0,1.5-0.2,3-0.7,4.4
			c-0.4,1.5-1.1,2.7-2,3.9c-0.9,1.1-2,2.1-3.2,2.8c-1.3,0.7-2.8,1.1-4.4,1.1c-1,0-1.9-0.2-2.6-0.7c-0.7-0.5-1.3-1-1.8-1.8
			c-0.5-0.7-0.8-1.5-1-2.4C-235.9,131.3-236.1,130.5-236.1,129.6z M-233.8,130.2c0,0.5,0.1,1,0.2,1.5c0.2,0.5,0.4,1,0.7,1.5
			c0.3,0.4,0.6,0.8,1.1,1.1c0.5,0.3,0.9,0.5,1.5,0.5c1.2,0,2.3-0.3,3.3-0.8s1.8-1.2,2.5-2.1c0.7-0.9,1.3-1.8,1.7-2.9
			c0.4-1.1,0.6-2.1,0.6-3.2c0-0.6,0-1.2-0.1-1.9s-0.2-1.2-0.3-1.7c-0.2-0.5-0.5-1-0.9-1.3s-1-0.5-1.8-0.5c-0.2,0-0.6,0-1,0
			s-0.8,0.1-1.2,0.1c-0.4,0.1-0.8,0.2-1.1,0.4c-0.3,0.2-0.5,0.4-0.5,0.7c0,0,0,0.1,0.1,0.2s0.1,0.2,0.2,0.4c0.1,0.1,0.1,0.2,0.2,0.4
			c0.1,0.1,0.1,0.2,0.1,0.2s-0.1,0.1-0.2,0.3c-0.1,0.2-0.3,0.2-0.3,0.3c-0.9,0.2-1.6,0.5-2.2,0.9c-0.6,0.3-1.1,0.8-1.4,1.3
			c-0.3,0.6-0.6,1.2-0.7,2C-233.7,128.3-233.8,129.2-233.8,130.2z"/>
		<path class="st0" d="M-218.9,129c0-0.7,0.2-1.5,0.5-2.3s0.8-1.6,1.3-2.2c0.6-0.7,1.2-1.2,1.9-1.7c0.7-0.4,1.5-0.7,2.3-0.7
			c0.4,0,0.8,0.1,1.2,0.2s0.8,0.3,1.1,0.6c0.3,0.3,0.6,0.6,0.8,1s0.3,0.8,0.3,1.3c-0.3,0-0.6,0-0.9-0.1c-0.3-0.1-0.5-0.2-0.8-0.3
			c-0.2-0.1-0.5-0.2-0.7-0.3c-0.2-0.1-0.5-0.1-0.8-0.1c-0.7,0-1.3,0.2-1.8,0.5c-0.5,0.4-0.8,0.8-1.1,1.4s-0.4,1.1-0.5,1.8
			c-0.1,0.6-0.1,1.2-0.1,1.8c0,0.1,0,0.3,0,0.5s0,0.5,0,0.8s0,0.5,0,0.8c0,0.2,0,0.4,0,0.5c0.2,0.4,0.4,0.8,0.6,1
			c0.2,0.2,0.4,0.4,0.6,0.5c0.2,0.1,0.4,0.2,0.7,0.2c0.2,0,0.5,0,0.9,0c0.5,0,0.9-0.1,1.2-0.2c0.3-0.1,0.7-0.3,1-0.5
			s0.6-0.4,0.9-0.7c0.3-0.2,0.5-0.5,0.8-0.7s0.6-0.4,1-0.5c0.3-0.1,0.7-0.2,1.2-0.2c0,0.9-0.2,1.6-0.5,2.3c-0.3,0.7-0.7,1.3-1.3,1.7
			s-1.2,0.9-2,1.1c-0.8,0.3-1.6,0.4-2.5,0.4c-0.8,0-1.6-0.3-2.3-0.9c-0.7-0.6-1.2-1.3-1.7-2.1c-0.5-0.8-0.8-1.7-1.1-2.6
			C-218.8,130.5-218.9,129.7-218.9,129z"/>
		<path class="st0" d="M-205.8,129.6c0-1,0.1-1.9,0.3-2.9s0.6-1.8,1.1-2.6c0.5-0.8,1.2-1.4,2-1.9s1.8-0.7,2.9-0.7
			c0.7,0,1.2,0.1,1.7,0.4c0.5,0.2,0.9,0.6,1.3,0.9c0.3,0.4,0.6,0.9,0.8,1.4s0.3,1.1,0.3,1.6c0,0.9-0.2,1.8-0.6,2.6
			c-0.4,0.9-1,1.6-1.7,2.3c-0.7,0.6-1.5,1.1-2.4,1.5c-0.9,0.3-1.8,0.4-2.8,0.2c0,0.5,0.2,0.9,0.5,1.2c0.3,0.3,0.7,0.5,1.2,0.7
			s0.9,0.3,1.4,0.3s0.9,0.1,1.3,0.1c0.4,0,0.8,0,1.1-0.1c0.4-0.1,0.7-0.2,1.1-0.2c0.4-0.1,0.7-0.2,1.1-0.2c0.4-0.1,0.8-0.1,1.2-0.1
			c0.2,0,0.3,0,0.5,0s0.3,0.1,0.5,0.1c0.1,0.1,0.3,0.2,0.3,0.3c0.1,0.1,0.1,0.3,0.1,0.5c0,0.3-0.1,0.6-0.4,0.8
			c-0.2,0.2-0.6,0.4-0.9,0.6c-0.4,0.2-0.8,0.3-1.3,0.4c-0.5,0.1-0.9,0.1-1.3,0.2c-0.4,0-0.8,0.1-1.2,0.1s-0.6,0-0.8,0
			c-1.1,0-2.2-0.2-3.1-0.5c-0.9-0.4-1.7-0.9-2.3-1.5c-0.6-0.6-1.1-1.4-1.4-2.3C-205.6,131.7-205.8,130.7-205.8,129.6z M-202.9,127.9
			c0,0.6,0.1,1.1,0.3,1.4s0.6,0.4,1.2,0.4c0.5,0,0.9-0.1,1.4-0.3c0.4-0.2,0.8-0.4,1.2-0.7c0.4-0.3,0.7-0.7,0.9-1.1s0.3-0.9,0.3-1.3
			c0-0.3,0-0.5-0.1-0.8c0-0.3-0.1-0.5-0.3-0.8c-0.1-0.2-0.3-0.4-0.5-0.6s-0.5-0.2-0.9-0.2c-0.5,0-1,0.1-1.5,0.4
			c-0.4,0.2-0.8,0.6-1.1,0.9c-0.3,0.4-0.5,0.8-0.7,1.3C-202.9,126.9-202.9,127.4-202.9,127.9z"/>
		<path class="st0" d="M-179.4,133.6c-0.7,0.5-1.3,0.9-1.7,1.2c-0.5,0.4-1,0.7-1.4,0.9c-0.5,0.2-1,0.4-1.5,0.6
			c-0.5,0.1-1.2,0.2-1.9,0.2c-1.7,0-2.9-0.4-3.7-1.3c-0.8-0.9-1.2-2.2-1.2-3.9c0-0.7,0.1-1.4,0.3-2.1s0.4-1.5,0.8-2.2
			c0.3-0.7,0.8-1.4,1.2-2.1c0.5-0.6,1-1.2,1.6-1.7s1.2-0.9,1.9-1.2c0.7-0.3,1.4-0.4,2.2-0.4c1.3,0.1,2.3,0.4,3,0.9s1.3,1.2,1.7,1.9
			c0.4,0.8,0.6,1.7,0.8,2.6c0.1,1,0.3,2,0.3,3c0.1,1,0.2,2.1,0.3,3.1s0.4,2,0.8,2.9c-0.2,0.6-0.4,1-0.7,1.2
			c-0.2,0.2-0.4,0.3-0.7,0.1c-0.2-0.2-0.5-0.6-0.9-1.2C-178.6,135.5-178.9,134.7-179.4,133.6z M-188.6,131.3c0,1,0.2,1.8,0.6,2.2
			c0.4,0.5,1.1,0.7,2,0.7c0.7,0,1.4-0.1,2.1-0.4c0.7-0.3,1.2-0.6,1.7-1.1s0.9-1,1.2-1.6c0.3-0.6,0.5-1.4,0.5-2.1c0-0.3,0-0.8,0-1.3
			c0-0.6,0-1.2-0.1-1.7c-0.1-0.6-0.3-1.1-0.5-1.5s-0.6-0.6-1.1-0.6c-0.9,0-1.8,0.2-2.6,0.7s-1.5,1.1-2,1.8c-0.6,0.7-1,1.5-1.3,2.4
			C-188.5,129.6-188.6,130.5-188.6,131.3z"/>
		<path class="st0" d="M-174.3,128c0-0.5,0.1-0.8,0.3-1s0.6-0.3,1.1-0.3h0.3c0.1,0.3,0.1,0.6,0.2,1c0.1,0.4,0.2,0.8,0.3,1.1
			c0.1,0.4,0.3,0.8,0.5,1.1s0.4,0.6,0.7,0.8c0-0.6,0.2-1.2,0.5-1.8s0.7-1.1,1.1-1.5c0.4-0.5,0.9-0.8,1.4-1.1c0.5-0.3,1-0.5,1.6-0.6
			h0.6c0.9,0,1.6,0.2,2.2,0.6c0.6,0.4,1.1,0.9,1.5,1.5s0.7,1.3,0.9,2.1s0.4,1.6,0.5,2.4s0.2,1.6,0.2,2.3c0,0.8,0,1.4,0,1.9h-1.9
			c-0.1-1.1-0.2-2.1-0.4-3.1c-0.1-0.4-0.1-0.8-0.2-1.2c-0.1-0.4-0.2-0.8-0.3-1.2s-0.2-0.7-0.3-1.1c-0.1-0.3-0.3-0.6-0.4-0.8
			c-0.1-0.1-0.2-0.2-0.3-0.3s-0.2-0.2-0.4-0.4c-0.1-0.1-0.2-0.2-0.3-0.3c-0.1-0.1-0.2-0.1-0.2-0.1c-0.5-0.1-1,0-1.4,0.3
			s-0.7,0.8-1,1.4c-0.3,0.6-0.5,1.3-0.7,2s-0.3,1.5-0.5,2.1c-0.1,0.7-0.2,1.3-0.3,1.8s-0.1,0.8-0.1,0.9c-0.4,0.3-0.9,0.4-1.3,0.3
			c-0.4-0.1-0.8-0.4-1.1-0.8c-0.3-0.4-0.7-1-0.9-1.6c-0.3-0.6-0.5-1.3-0.8-2c-0.2-0.7-0.4-1.4-0.6-2.2
			C-174,129.3-174.2,128.6-174.3,128z"/>
		<path class="st0" d="M-158.9,131.6c0-1.1,0.3-2.1,0.8-3.1s1.2-1.8,2-2.5s1.8-1.2,2.9-1.6c1.1-0.4,2.1-0.6,3.2-0.6
			c0.6,0,1.1,0.2,1.6,0.6s0.9,0.9,1.2,1.4c0.3,0.6,0.6,1.2,0.7,1.8c0.2,0.6,0.3,1.2,0.3,1.6c0,1-0.2,2-0.7,2.9
			c-0.5,0.9-1.1,1.8-1.9,2.5c-0.8,0.7-1.6,1.3-2.6,1.7s-1.9,0.7-2.9,0.7c-0.9,0-1.6-0.1-2.2-0.4c-0.6-0.3-1.1-0.7-1.4-1.2
			c-0.4-0.5-0.6-1.1-0.8-1.7C-158.8,133.1-158.9,132.3-158.9,131.6z M-156.6,131.9c0,0.5,0,0.9,0.1,1.2s0.2,0.6,0.4,0.9
			c0.2,0.2,0.5,0.4,0.8,0.6c0.3,0.1,0.8,0.2,1.3,0.2c0.7,0,1.3-0.2,2-0.5c0.7-0.4,1.2-0.8,1.8-1.4c0.5-0.6,0.9-1.2,1.3-1.9
			c0.3-0.7,0.5-1.3,0.5-2c0-0.3,0-0.6-0.1-0.9c-0.1-0.3-0.1-0.6-0.3-0.9c-0.1-0.3-0.3-0.5-0.5-0.7s-0.5-0.3-0.9-0.3
			c-0.3,0-0.7,0.1-1.1,0.3c-0.4,0.2-0.9,0.5-1.4,0.8s-0.9,0.7-1.4,1.1c-0.5,0.4-0.9,0.9-1.2,1.3c-0.3,0.4-0.7,0.8-0.9,1.2
			C-156.5,131.3-156.6,131.6-156.6,131.9z"/>
		<path class="st0" d="M-145.2,125.6c0-0.2,0-0.6,0-1.1s0-1,0-1.5s0-1.1,0-1.5c0-0.5,0-0.8,0-1c0-0.1,0.1-0.3,0.1-0.6
			c0.1-0.3,0.2-0.5,0.3-0.8c0.1-0.2,0.2-0.5,0.4-0.7c0.2-0.2,0.4-0.3,0.6-0.3c0.6,0,1.1,0.2,1.7,0.5c0.5,0.3,1,0.7,1.5,1.3
			c0.5,0.5,0.9,1.1,1.4,1.7c0.4,0.6,0.9,1.3,1.3,1.9s0.8,1.2,1.3,1.8c0.4,0.6,0.8,1,1.2,1.3c0.4-0.2,0.8-0.6,1-1.1s0.5-1.1,0.6-1.8
			c0.2-0.7,0.3-1.4,0.4-2.1s0.3-1.4,0.5-2s0.5-1.1,0.9-1.5c0.4-0.4,0.9-0.6,1.6-0.6c0.8,0,1.5,0.3,2.2,0.9c0.6,0.6,1.2,1.4,1.7,2.4
			s1,2,1.3,3.2c0.4,1.2,0.7,2.3,0.9,3.4c0.2,1.1,0.4,2.1,0.6,2.9c0.1,0.9,0.2,1.5,0.2,1.9c0,0.2,0,0.3,0,0.5s-0.1,0.4-0.1,0.5
			c-0.1,0.2-0.2,0.3-0.3,0.3c-0.2,0.1-0.4,0.1-0.7,0c-0.1,0-0.2-0.1-0.3-0.1c-0.1-0.1-0.2-0.2-0.4-0.3c-0.1-0.1-0.2-0.2-0.3-0.4
			c-0.1-0.2-0.1-0.2-0.1-0.3c-0.2-0.9-0.3-1.8-0.5-2.9c-0.2-1.1-0.4-2.1-0.7-3.2c-0.3-1.1-0.7-2.2-1.1-3.2c-0.4-1-1-1.9-1.7-2.7
			c-0.5,0.3-0.9,0.7-1.2,1.3c-0.3,0.6-0.5,1.2-0.7,1.9c-0.2,0.7-0.4,1.4-0.5,2.1c-0.2,0.7-0.4,1.4-0.6,1.9c-0.3,0.6-0.6,1.1-1,1.4
			c-0.4,0.4-1,0.6-1.7,0.6c-0.5,0-0.9-0.2-1.4-0.5s-0.9-0.7-1.3-1.2s-0.8-1.1-1.2-1.7s-0.8-1.2-1.2-1.8c-0.4-0.6-0.8-1.2-1.1-1.7
			c-0.4-0.5-0.7-0.9-1.1-1.2c-0.1,0.6-0.3,1-0.3,1.5c-0.1,0.4-0.1,0.8-0.2,1.2c0,0.4-0.1,0.8-0.1,1.2c0,0.4,0,0.9,0,1.4
			c0,0.7,0.1,1.5,0.2,2.2c0.1,0.7,0.3,1.5,0.4,2.2s0.3,1.5,0.4,2.2c0.1,0.7,0.2,1.5,0.2,2.2v0.2c0,0.1-0.1,0.1-0.2,0.3
			c-0.1,0.1-0.2,0.2-0.3,0.4c-0.1,0.1-0.2,0.2-0.4,0.3c-0.1,0.1-0.2,0.2-0.3,0.2h-0.1c-0.1,0-0.1,0-0.2,0h-0.1c-0.1,0-0.1,0-0.1,0
			c-0.1-1-0.3-2-0.4-2.9c-0.1-0.9-0.3-1.8-0.4-2.7c-0.1-0.9-0.2-1.8-0.3-2.7C-145.1,127.7-145.2,126.7-145.2,125.6z"/>
		<path class="st0" d="M-110.3,133.6c-0.7,0.5-1.3,0.9-1.7,1.2c-0.5,0.4-1,0.7-1.4,0.9c-0.5,0.2-1,0.4-1.5,0.6
			c-0.5,0.1-1.2,0.2-1.9,0.2c-1.7,0-2.9-0.4-3.7-1.3c-0.8-0.9-1.2-2.2-1.2-3.9c0-0.7,0.1-1.4,0.3-2.1c0.2-0.7,0.4-1.5,0.8-2.2
			c0.3-0.7,0.8-1.4,1.2-2.1s1-1.2,1.6-1.7s1.2-0.9,1.9-1.2c0.7-0.3,1.4-0.4,2.2-0.4c1.3,0.1,2.3,0.4,3,0.9s1.3,1.2,1.7,1.9
			c0.4,0.8,0.6,1.7,0.8,2.6c0.1,1,0.3,2,0.3,3c0.1,1,0.2,2.1,0.3,3.1c0.1,1,0.4,2,0.8,2.9c-0.2,0.6-0.4,1-0.7,1.2
			c-0.2,0.2-0.4,0.3-0.7,0.1c-0.2-0.2-0.5-0.6-0.9-1.2C-109.4,135.6-109.8,134.7-110.3,133.6z M-119.5,131.3c0,1,0.2,1.8,0.6,2.2
			c0.4,0.5,1.1,0.7,2,0.7c0.7,0,1.4-0.1,2.1-0.4s1.2-0.6,1.7-1.1s0.9-1,1.2-1.6c0.3-0.6,0.5-1.4,0.5-2.1c0-0.3,0-0.8,0-1.3
			c0-0.6,0-1.2-0.1-1.7s-0.3-1.1-0.5-1.5s-0.6-0.6-1.1-0.6c-0.9,0-1.8,0.2-2.6,0.7c-0.8,0.5-1.5,1.1-2,1.8c-0.6,0.7-1,1.5-1.3,2.4
			C-119.3,129.6-119.5,130.5-119.5,131.3z"/>
		<path class="st0" d="M-105.2,125.8c0-0.2,0-0.3,0-0.5s0.1-0.3,0.1-0.5c0.1-0.1,0.1-0.2,0.3-0.3s0.3-0.1,0.5-0.1s0.4,0.1,0.6,0.4
			s0.4,0.6,0.7,1c0.2,0.4,0.5,0.9,0.7,1.4s0.4,1,0.6,1.4c0.2,0.4,0.3,0.8,0.4,1.1s0.2,0.5,0.2,0.5c0.2-0.6,0.5-1.3,0.8-2
			s0.6-1.4,1.1-2c0.4-0.6,0.9-1.2,1.5-1.6s1.3-0.6,2.1-0.6c0.4,0,0.8,0.1,1.2,0.2c0.4,0.1,0.7,0.3,1,0.6c0.3,0.3,0.5,0.6,0.7,0.9
			c0.2,0.4,0.3,0.8,0.3,1.2c0,0.4-0.2,0.7-0.5,0.8c-0.3,0.2-0.7,0.2-1.1,0.2h-0.3l-1.1-1.1h-0.1h-0.1h-0.1c-0.6,0-1.1,0.2-1.5,0.5
			c-0.3,0.3-0.6,0.8-0.8,1.3c-0.2,0.5-0.3,1-0.3,1.6c0,0.6-0.1,1.1-0.1,1.5c0,0.4,0,0.7,0.1,1.1c0.1,0.4,0.2,0.7,0.2,1.1
			c0.1,0.3,0.2,0.7,0.2,1.1c0.1,0.4,0.1,0.7,0.1,1.1c0,0.7-0.4,1.1-1.2,1.1c-0.4,0-0.9-0.2-1.4-0.7s-1-1.1-1.4-1.8
			c-0.5-0.7-0.9-1.5-1.3-2.4c-0.4-0.9-0.8-1.7-1.1-2.6c-0.3-0.8-0.6-1.6-0.8-2.3C-105.1,126.6-105.2,126.1-105.2,125.8z"/>
		<path class="st0" d="M-91.5,129.6c0-1,0.1-1.9,0.3-2.9c0.2-1,0.6-1.8,1.1-2.6c0.5-0.8,1.2-1.4,2-1.9s1.8-0.7,2.9-0.7
			c0.7,0,1.2,0.1,1.7,0.4c0.5,0.2,0.9,0.6,1.3,0.9c0.3,0.4,0.6,0.9,0.8,1.4c0.2,0.5,0.3,1.1,0.3,1.6c0,0.9-0.2,1.8-0.6,2.6
			c-0.4,0.9-1,1.6-1.7,2.3c-0.7,0.6-1.5,1.1-2.4,1.5c-0.9,0.3-1.8,0.4-2.8,0.2c0,0.5,0.2,0.9,0.5,1.2c0.3,0.3,0.7,0.5,1.2,0.7
			s0.9,0.3,1.4,0.3s0.9,0.1,1.3,0.1s0.8,0,1.1-0.1c0.4-0.1,0.7-0.2,1.1-0.2c0.4-0.1,0.7-0.2,1.1-0.2c0.4-0.1,0.8-0.1,1.2-0.1
			c0.2,0,0.3,0,0.5,0c0.2,0,0.3,0.1,0.5,0.1c0.1,0.1,0.3,0.2,0.3,0.3c0.1,0.1,0.1,0.3,0.1,0.5c0,0.3-0.1,0.6-0.4,0.8
			c-0.2,0.2-0.6,0.4-0.9,0.6c-0.4,0.2-0.8,0.3-1.3,0.4c-0.5,0.1-0.9,0.1-1.3,0.2c-0.4,0-0.8,0.1-1.2,0.1c-0.4,0-0.6,0-0.8,0
			c-1.1,0-2.2-0.2-3.1-0.5c-0.9-0.4-1.7-0.9-2.3-1.5c-0.6-0.6-1.1-1.4-1.4-2.3C-91.4,131.7-91.5,130.7-91.5,129.6z M-88.7,127.9
			c0,0.6,0.1,1.1,0.3,1.4c0.2,0.3,0.6,0.4,1.2,0.4c0.5,0,0.9-0.1,1.4-0.3c0.4-0.2,0.8-0.4,1.2-0.7c0.4-0.3,0.7-0.7,0.9-1.1
			s0.3-0.9,0.3-1.3c0-0.3,0-0.5-0.1-0.8c0-0.3-0.1-0.5-0.3-0.8c-0.1-0.2-0.3-0.4-0.5-0.6s-0.5-0.2-0.9-0.2c-0.5,0-1,0.1-1.5,0.4
			c-0.4,0.2-0.8,0.6-1.1,0.9c-0.3,0.4-0.5,0.8-0.7,1.3C-88.6,126.9-88.7,127.4-88.7,127.9z"/>
	</g>
</g>
<g id="XMLID_3_">
	<path id="XMLID_17_" class="st0" d="M77.8,77.2c0,0-45.8-25.3-54.5,1.7c-5.3,16.3,16.2,24.3,30,23.2c0,0-25.5-8.3-21.3-21.6
		C37.2,63.8,76.3,76.8,77.8,77.2"/>
	<path id="XMLID_16_" class="st0" d="M82.2,77.2c0,0,45.8-25.3,54.5,1.7c5.3,16.3-16.2,24.3-30,23.2c0,0,25.5-8.3,21.3-21.6
		C122.8,63.8,83.7,76.8,82.2,77.2"/>
	<path id="XMLID_15_" class="st0" d="M56.2,76.5c0,0,2.3-4,10.4,0s0.7,6,0.4,6c-1.1,0.4-4.2-3.9-5.8-5C59.6,76.5,58.7,76,56.2,76.5"
		/>
	<path id="XMLID_14_" class="st0" d="M104,76.5c0,0-2.3-4-10.4,0s-0.7,6-0.4,6c1.1,0.4,4.2-3.9,5.8-5C100.7,76.5,101.4,76,104,76.5"
		/>
	<path id="XMLID_13_" class="st0" d="M74.4,79c0,0-38.1,33.8-21.4,50.5c8.6,8.7,18.6,1.2,18.6,1.2s-15,0.4-14.1-12.8
		C58.4,103.8,74.7,80,74.4,79"/>
	<path id="XMLID_12_" class="st0" d="M85.6,79c0,0,38.1,33.8,21.4,50.5c-8.6,8.7-18.6,1.2-18.6,1.2s15,0.4,14.1-12.7
		C101.6,103.8,85.3,80,85.6,79"/>
	<path id="XMLID_11_" class="st0" d="M76.4,126.2c0,0-6-8.9-4.1-21.3c0.4-2.4,1.6-5.8,1.2-8.1c0,0-1.2-0.6-1.9-0.4
		c-1,0.4-1.6,3.4-1.8,4.1c-0.2,0.8-3,12.2-0.4,17.3C72.1,123.1,75,125,76.4,126.2"/>
	<path id="XMLID_10_" class="st0" d="M83.7,126.2c0,0,6-8.9,4.1-21.3c-0.4-2.4-1.6-5.8-1.2-8.1c0,0,1.2-0.6,1.9-0.4
		c1,0.4,1.6,3.4,1.8,4.1c0.2,0.8,3,12.2,0.4,17.3C88,123.1,85.1,125,83.7,126.2"/>
	<path id="XMLID_9_" class="st0" d="M80,76.5c0,0,8.1-46.9,27.4-44c8.8,1.3,19.2,17.6,10,31.9c0,0,7.4-3.3,10.8-14.1
		c7.5-24-37.7-50-48.2-1l0,0C69.5,0.1,24.3,26.2,31.8,50.2c3.3,10.8,10.8,14,10.8,14c-9.2-14.1,1.2-30.6,10-31.9
		C71.9,29.6,80,76.5,80,76.5L80,76.5z"/>
	<path id="XMLID_8_" class="st0" d="M52,41.1c0,0,15.1,3.7,21.8,22.2c1.5,3.9,0,5.4-1.3,2.1C66.3,49.6,55.8,42.1,52,41.1"/>
	<path id="XMLID_7_" class="st0" d="M108.2,41.1c0,0-15.1,3.7-21.8,22.2c-1.5,3.9,0,5.4,1.3,2.1C93.9,49.6,104.4,42.1,108.2,41.1"/>
	<path id="XMLID_6_" class="st0" d="M85.7,83.3c0,0-2.3-0.6-1.8,1.3s3.7,7.1,3.7,7.1s0.6-5.9,0-7.4C87,83,86.3,82.9,85.7,83.3"/>
	<path id="XMLID_5_" class="st0" d="M80,98.1c1,0,3.3-15.2,3.1-18.4c-0.2-3.6-3-0.4-3-0.4l0,0c0,0-2.9-3.1-3,0.4
		C76.9,82.9,79.2,98.1,80,98.1"/>
	<path id="XMLID_4_" class="st0" d="M74.3,83.3c0,0,2.3-0.6,1.8,1.3s-3.7,7.1-3.7,7.1s-0.6-5.9,0-7.4C73,83,73.7,82.9,74.3,83.3"/>
</g>
</svg>
