<?xml version="1.0" encoding="utf-8"?>
<!-- Generator: Adobe Illustrator 19.0.0, SVG Export Plug-In . SVG Version: 6.00 Build 0)  -->
<svg version="1.1" id="Livello_1" xmlns="http://www.w3.org/2000/svg" xmlns:xlink="http://www.w3.org/1999/xlink" x="0px" y="0px"
	 viewBox="-52.6 338 419.6 84.3" style="enable-background:new -52.6 338 419.6 84.3;" xml:space="preserve">
<style type="text/css">
	.st0{fill:#FFFFFF;}
</style>
<g>
	<g>
		<path class="st0" d="M91,360.4c-2.5,0-4.3,1.9-4.3,4.3v25.9c0,8.7-4.8,13.9-12.8,13.9s-12.8-5.2-12.8-13.9v-25.8
			c0-2.5-1.9-4.3-4.3-4.3c-2.4,0-4.2,1.9-4.2,4.3v26.7c0,12.7,8.3,21.3,20.8,21.3h1.3c12.4,0,20.8-8.6,20.8-21.3v-26.7
			C95.2,362.3,93.4,360.4,91,360.4z"/>
	</g>
	<g>
		<path class="st0" d="M272.7,360.4c-2.5,0-4.3,1.9-4.3,4.3v25.9c0,8.7-4.8,13.9-12.8,13.9s-12.8-5.2-12.8-13.9v-25.8
			c0-2.5-1.9-4.3-4.3-4.3s-4.2,1.9-4.2,4.3v26.7c0,12.7,8.3,21.3,20.8,21.3h1.3c12.4,0,20.8-8.6,20.8-21.3v-26.7
			C276.9,362.3,275.1,360.4,272.7,360.4z"/>
	</g>
	<g>
		<path class="st0" d="M127.6,359.7h-1.3c-12.4,0-20.8,8.6-20.8,21.3v26.7c0,2.5,1.8,4.3,4.2,4.3c2.5,0,4.3-1.9,4.3-4.3v-25.9
			c0-8.7,4.8-13.9,12.8-13.9s12.8,5.2,12.8,13.9v25.9c0,2.5,1.9,4.3,4.3,4.3c2.4,0,4.2-1.9,4.2-4.3V381
			C148.4,368.3,140.1,359.7,127.6,359.7z"/>
	</g>
	<g>
		<path class="st0" d="M163.1,360.4c-2.4,0-4.2,1.9-4.2,4.3v42.9c0,2.5,1.9,4.3,4.3,4.3c2.4,0,4.2-1.9,4.2-4.3v-42.8
			C167.4,362.3,165.5,360.4,163.1,360.4z"/>
	</g>
	<g>
		<path class="st0" d="M163.1,341.8c-2.7,0-4.8,2.1-4.8,4.8v1.6c0,2.7,2.1,4.8,4.8,4.8s4.9-2.2,4.9-4.8v-1.6
			C167.9,343.9,165.8,341.8,163.1,341.8z"/>
	</g>
	<g>
		<path class="st0" d="M201.1,359.7c-13.6,0-24.2,11.6-24.2,26.5v0.2c0,15.1,10.7,26.4,25,26.4c8.1,0,13.9-2.5,19.7-8.2
			c1.1-1.1,1.3-2.2,1.3-3c0-2.3-1.9-4.1-4.2-4.1c-1.1,0-2.1,0.4-2.9,1.2c-4.1,4-8.4,5.8-13.7,5.8c-6.8,0-14.4-4.5-16.1-14.4h34.4
			c2.3,0,4.2-1.9,4.2-4.1C224.6,370.7,214.7,359.7,201.1,359.7z M200.9,367.9c6.2,0,13,3.8,14.5,14.1H186
			C187.5,373.7,193.5,367.9,200.9,367.9z"/>
	</g>
	<g>
		<path class="st0" d="M340.7,359.7c-14.7,0-26.2,11.7-26.2,26.5v0.2c0,14.8,11.4,26.4,26,26.4c14.7,0,26.2-11.7,26.2-26.5V386
			C366.7,371.3,355.2,359.7,340.7,359.7z M340.7,404.5c-9.7,0-17.2-8-17.2-18.2V386c0-10.3,7.3-18.1,17-18.1s17.2,8,17.2,18.2v0.2
			C357.7,396.7,350.4,404.5,340.7,404.5z"/>
	</g>
	<g>
		<path class="st0" d="M309.6,360.4c-0.4,0-1.4,0-1.4,0c-12.4,0-20.8,8.6-20.8,21.3v26c0,2.5,1.8,4.3,4.2,4.3c2.5,0,4.3-1.9,4.3-4.3
			v-25.1c0-8.9,4.7-14.2,12.7-13.9h0.2c2.4,0,4-1.3,4.4-3.4c0.2-1.2-0.1-2.4-0.8-3.3C311.7,361,310.7,360.5,309.6,360.4z"/>
	</g>
</g>
<g>
	<path class="st0" d="M-47.3,389c-3.6-6.8-5.6-21.2-4.3-28c1.2-6.2,5.9-11.5,14-11.5s12.8,5.2,14,11.5c1.3,6.8-0.7,21.2-4.3,28
		c-2.6,4.9-7.6,5.3-9.6,5.3C-39.7,394.3-44.7,393.9-47.3,389z M-11.7,421.6c14.3-1,26.1-9.3,34.9-24.6c5.4-9.4,7.5-18.9,8-26.8
		c0.4-6-0.2-11.1-0.7-13.9c-1.3-7.3-7.6-14.6-19-14.6C1,341.7-7,349.1-7.5,360c-0.8,13.8,0.1,33-12.5,42c-3.9,2.8-9.1,4.7-9.2,10.4
		C-29.3,420.8-17.7,422-11.7,421.6z"/>
</g>
</svg>
